<svg width="550" height="105" viewBox="0 0 550 105" fill="none" xmlns="http://www.w3.org/2000/svg">
<path fill-rule="evenodd" clip-rule="evenodd" d="M-576.87 13.25C-618.827 13.25 -659.064 29.9125 -688.732 59.5717C-718.4 89.2309 -735.066 129.457 -735.066 171.402V289.789C-735.066 292.857 -733.847 295.8 -731.677 297.97C-729.506 300.139 -726.563 301.358 -723.493 301.358H-598.229C-577.454 301.358 -556.883 297.268 -537.69 289.32C-518.496 281.372 -501.057 269.722 -486.367 255.037C-471.677 240.351 -460.025 222.916 -452.074 203.729C-444.124 184.541 -440.033 163.975 -440.033 143.207V24.8197C-440.033 23.3004 -440.332 21.796 -440.913 20.3923C-441.495 18.9886 -442.347 17.7132 -443.422 16.6388C-444.497 15.5645 -445.773 14.7122 -447.177 14.1307C-448.581 13.5493 -450.086 13.25 -451.606 13.25H-576.87ZM-690.5 57.8037C-660.363 27.6757 -619.489 10.75 -576.87 10.75H-451.606C-449.758 10.75 -447.928 11.1139 -446.22 11.8209C-444.513 12.528 -442.961 13.5643 -441.655 14.8708C-440.348 16.1773 -439.311 17.7283 -438.604 19.4354C-437.897 21.1424 -437.533 22.972 -437.533 24.8197V143.207C-437.533 164.304 -441.689 185.194 -449.765 204.685C-457.841 224.177 -469.677 241.887 -484.599 256.805C-499.522 271.723 -517.237 283.556 -536.733 291.629C-556.23 299.703 -577.126 303.858 -598.229 303.858H-723.493C-727.225 303.858 -730.805 302.376 -733.444 299.738C-736.084 297.099 -737.566 293.52 -737.566 289.789V171.402C-737.566 128.794 -720.636 87.9317 -690.5 57.8037ZM-418.221 157.593C-418.221 77.1567 -345.887 10.75 -256.535 10.75H226.394V300.354H-418.221V157.593ZM-256.535 13.25C-344.73 13.25 -415.721 78.7506 -415.721 157.593V297.854H223.894V13.25H-256.535ZM-1050.23 159.674C-1051.48 77.4606 -983.728 10.751 -901.493 10.8752H-757.044V155.327C-757.044 237.328 -823.562 305.274 -905.845 303.86C-943.91 303.219 -980.24 287.828 -1007.18 260.931C-1034.11 234.034 -1049.55 197.732 -1050.23 159.678L-1050.23 159.674ZM-1047.73 159.635C-1047.06 197.04 -1031.89 232.723 -1005.41 259.162C-978.932 285.601 -943.22 300.73 -905.802 301.36C-824.97 302.749 -759.544 235.984 -759.544 155.327V13.3752L-901.496 13.3752C-982.377 13.2525 -1048.96 78.8613 -1047.73 159.635ZM536.518 159.636C537.785 78.8631 471.163 13.2525 390.199 13.3752L248.205 13.3752V155.203C248.205 235.981 313.834 302.626 394.63 301.36C432.047 300.74 467.759 285.613 494.231 259.171C520.704 232.729 535.865 197.04 536.518 159.636ZM390.196 10.8752C472.512 10.751 540.307 77.4597 539.018 159.675L539.018 159.677C538.354 197.731 522.93 234.039 495.998 260.94C469.067 287.84 432.736 303.229 394.671 303.86L394.67 303.86C312.432 305.149 245.705 237.331 245.705 155.203V10.8752H390.196Z" fill="#1C284C"/>
</svg>
