<svg width="477" height="91" viewBox="0 0 477 91" fill="none" xmlns="http://www.w3.org/2000/svg">
<g clip-path="url(#clip0_724_4307)">
<path d="M625.983 -56.6553C625.305 -94.3855 609.999 -130.378 583.292 -157.047C556.586 -183.715 520.565 -198.975 482.824 -199.61C401.266 -201.011 335.294 -133.656 335.294 -52.327L335.294 90.8749L478.494 90.8748C560.052 90.9985 627.22 24.8387 625.983 -56.6553Z" stroke="#1C284C" stroke-width="2" stroke-miterlimit="10"/>
<path d="M153.87 91L28.6058 91C26.9218 91 25.2543 90.6684 23.6985 90.0242C22.1427 89.3799 20.7291 88.4356 19.5384 87.2452C18.3476 86.0548 17.403 84.6415 16.7586 83.0862C16.1142 81.5308 15.7825 79.8638 15.7825 78.1803L15.7825 -40.2065C15.7825 -61.1395 19.9067 -81.8674 27.9196 -101.207C35.9325 -120.546 47.6772 -138.119 62.4832 -152.921C77.2891 -167.722 94.8663 -179.464 114.211 -187.475C133.556 -195.485 154.29 -199.608 175.229 -199.608L300.493 -199.608C303.894 -199.608 307.156 -198.258 309.561 -195.854C311.965 -193.449 313.316 -190.189 313.316 -186.789L313.316 -68.4017C313.316 -26.1258 296.518 14.4187 266.616 44.3123C236.714 74.2059 196.158 91 153.87 91Z" stroke="#1C284C" stroke-width="2" stroke-miterlimit="10"/>
</g>
<defs>
<clipPath id="clip0_724_4307">
<rect width="626" height="91.0001" fill="white" transform="translate(626 91) rotate(180)"/>
</clipPath>
</defs>
</svg>
