<svg xmlns="http://www.w3.org/2000/svg" width="57" height="60" fill="none" viewBox="0 0 57 60">
  <path fill="#1C284C" d="M13.662 21.08v-3.233a1.617 1.617 0 1 0-3.233 0v3.233a1.617 1.617 0 1 0 3.233 0Zm8.368 0v-3.233a1.617 1.617 0 1 0-3.234 0v3.233a1.617 1.617 0 1 0 3.233 0Zm8.366-.002v-3.233a1.625 1.625 0 0 0-3.242 0v3.233a1.624 1.624 0 0 0 3.242 0Z"/>
  <path fill="#1C284C" d="M4.129 16.285v24.167H2.512a1.617 1.617 0 1 0 0 3.234h1.617v5a9.162 9.162 0 0 0-1.617-.134A1.617 1.617 0 0 0 .895 50.17v8.192a1.617 1.617 0 0 0 1.617 1.641h51.967a1.617 1.617 0 0 0 1.616-1.616v-22.75a1.617 1.617 0 0 0-1.616-1.617H36.687V16.286m6.475 20.966h3.233v3.234h-3.233v-3.234Zm-6.475 0h3.233v3.234h-3.233v-3.234Zm-3.192-20.967v24.167H7.362V16.286m0 27.433h26.133v6.283a7.365 7.365 0 0 1-.966-.416 8.176 8.176 0 0 0-4.034-1.009 7.9 7.9 0 0 0-3.958.975 5.242 5.242 0 0 1-5 0 7.875 7.875 0 0 0-3.958-.975 8.2 8.2 0 0 0-3.992.967 5 5 0 0 1-2.583.65 4.617 4.617 0 0 1-1.617-.242l-.025-6.233Zm45.5 13.05H4.13v-4.725c.304.116.602.25.891.4a7.8 7.8 0 0 0 3.959.983 8.133 8.133 0 0 0 3.991-.975 5 5 0 0 1 2.584-.641 4.733 4.733 0 0 1 2.5.633 7.775 7.775 0 0 0 3.958.983 7.767 7.767 0 0 0 3.983-.983 4.775 4.775 0 0 1 2.5-.633 5 5 0 0 1 2.584.641c1.225.66 2.6.996 3.991.975a7.8 7.8 0 0 0 3.959-.983 5.3 5.3 0 0 1 5 0 8.458 8.458 0 0 0 7.916 0c.29-.15.587-.284.892-.4l.025 4.725Zm0-8.058a8.25 8.25 0 0 0-2.342.833 5.241 5.241 0 0 1-5 0 8.508 8.508 0 0 0-7.908 0 7.643 7.643 0 0 1-.9.4v-6.225h16.15v4.992Zm0-8.225H49.63v-3.234h3.233v3.234Z"/>
  <path fill="#1C284C" d="M20.413.002A16.283 16.283 0 0 0 4.129 16.286h3.234a13.05 13.05 0 1 1 26.092 0h3.233A16.283 16.283 0 0 0 20.413.002Z"/>
</svg>
