<svg xmlns="http://www.w3.org/2000/svg" width="80" height="60" fill="none" viewBox="0 0 80 60">
  <path fill="#1C284C" d="M9.567 12.812c-6.133 0-9.036 28.286-9.036 30.1 0 4.587 4.052 8.332 9.036 8.332 4.983 0 9.036-3.735 9.036-8.333 0-1.813-2.904-30.099-9.036-30.099Zm0 36.162c-3.735 0-6.767-2.724-6.767-6.063a114.01 114.01 0 0 1 2.289-15.733c2.457-11.572 4.458-12.097 4.478-12.097.02 0 2.021.526 4.479 12.097a113.881 113.881 0 0 1 2.288 15.733c.01 3.339-3.032 6.063-6.767 6.063Z"/>
  <path fill="#1C284C" d="M9.567 58.813a1.13 1.13 0 0 1-1.129-1.13V33.777c0-1.506 2.27-1.506 2.27 0v23.906a1.134 1.134 0 0 1-1.14 1.13Z"/>
  <path fill="#1C284C" d="M9.359 40.96a1.15 1.15 0 0 1-.842-.376l-2.318-2.556a1.135 1.135 0 0 1 .03-1.645 1.147 1.147 0 0 1 1.644.12l2.318 2.556c.673.733.149 1.902-.832 1.902Z"/>
  <path fill="#1C284C" d="M9.567 43.773c-.98 0-1.506-1.17-.842-1.892l2.319-2.566c1.01-1.12 2.694.406 1.684 1.526l-2.318 2.565a1.11 1.11 0 0 1-.843.367Zm-.208 4.102a1.18 1.18 0 0 1-.842-.367l-2.318-2.565c-1.011-1.12.663-2.646 1.684-1.526l2.318 2.557c.663.742.149 1.9-.842 1.9ZM68.495.002c-7.56 0-11.344 36.508-11.344 38.58 0 5.755 5.092 10.432 11.344 10.432 6.262 0 11.345-4.677 11.345-10.433 0-2.07-3.785-38.579-11.345-38.579Zm0 46.744c-5.003 0-9.075-3.666-9.075-8.173a146.374 146.374 0 0 1 2.962-20.41C65.721 2.45 68.386 2.26 68.505 2.26c.11 0 2.784.178 6.113 15.902a146.046 146.046 0 0 1 2.962 20.41c0 4.508-4.091 8.173-9.085 8.173Z"/>
  <path fill="#1C284C" d="M68.495 58.813a1.13 1.13 0 0 1-1.129-1.13V26.782c0-1.506 2.27-1.506 2.27 0v30.901a1.144 1.144 0 0 1-1.14 1.13Z"/>
  <path fill="#1C284C" d="M68.228 35.73c-.317 0-.624-.13-.842-.377l-3.002-3.309a1.14 1.14 0 0 1 .08-1.605 1.14 1.14 0 0 1 1.604.08l3.002 3.309c.655.743.13 1.912-.842 1.902Zm.268 3.644c-.981 0-1.497-1.17-.842-1.892l3.012-3.31c1.01-1.119 2.694.407 1.674 1.526l-3.002 3.31a1.147 1.147 0 0 1-.842.366Zm-.268 5.301a1.15 1.15 0 0 1-.842-.376l-3.002-3.31c-1.02-1.118.664-2.645 1.675-1.525l3.002 3.31c.663.742.148 1.901-.833 1.901Zm-11.838 9.62H19.007c-1.505 0-1.505-2.269 0-2.269H56.38c1.517.01 1.517 2.27.011 2.27Zm-3.835-18.062H22.833a1.13 1.13 0 0 0-1.13 1.13v10.51c0 .625.506 1.13 1.13 1.13h29.722c.624 0 1.129-.505 1.129-1.13v-10.51a1.123 1.123 0 0 0-1.13-1.13Zm-1.13 10.513H23.971v-8.254h27.454v8.254Z"/>
  <path fill="#1C284C" d="M27.637 54.295a1.128 1.128 0 0 1-1.129-1.129v-5.28c0-1.506 2.27-1.506 2.27 0v5.28a1.134 1.134 0 0 1-1.14 1.13Zm20.111 0a1.128 1.128 0 0 1-1.129-1.129v-5.28c0-1.506 2.27-1.506 2.27 0v5.28a1.14 1.14 0 0 1-1.14 1.13Zm-25.589 5.707c-.625 0-1.13-.505-1.13-1.129v-5.707c0-1.505 2.27-1.505 2.27 0v5.707a1.14 1.14 0 0 1-1.14 1.13Zm31.078 0a1.13 1.13 0 0 1-1.13-1.129v-5.707c0-1.505 2.27-1.505 2.27 0v5.707a1.145 1.145 0 0 1-1.14 1.13Z"/>
</svg>
