<svg xmlns="http://www.w3.org/2000/svg" width="44" height="60" fill="none" viewBox="0 0 44 60">
  <path fill="#1C284C" d="M36.21 39.112c4.605-4.005 7.542-9.81 7.542-16.351 0-.668-.534-1.135-1.135-1.135H1.637c-.667 0-1.135.534-1.135 1.135 0 6.541 2.937 12.414 7.542 16.42L2.238 55.13c-.334.935-.267 1.869.133 2.737a3.577 3.577 0 0 0 2.069 1.868 3.87 3.87 0 0 0 2.803-.133 3.577 3.577 0 0 0 1.869-2.069l5.34-14.617c1.267.467 2.602.868 4.004 1.135v10.745a3.59 3.59 0 0 0 3.605 3.604 3.59 3.59 0 0 0 3.604-3.605V44.118a23.797 23.797 0 0 0 4.404-1.202l5.34 14.684c.333.934 1 1.601 1.868 2.069a3.96 3.96 0 0 0 1.535.333c.4 0 .868-.066 1.268-.2.935-.334 1.602-1.001 2.069-1.868.4-.868.467-1.869.133-2.737L36.21 39.112ZM2.84 23.895h38.51c-.6 10.078-9.01 18.154-19.288 18.154-10.212 0-18.62-8.076-19.221-18.154H2.84Zm3.937 32.837c-.133.334-.334.601-.667.735-.334.133-.668.133-1.002.067-.333-.134-.6-.334-.734-.668-.133-.334-.133-.667-.067-1.001l5.54-15.284c.734.467 1.468.935 2.269 1.335L6.777 56.733Zm16.42-1.935a1.267 1.267 0 1 1-2.538 0V44.318c.468 0 .936.067 1.469.067h1.135v10.412h-.067Zm16.618 2.07c-.134.333-.4.533-.734.667-.334.133-.668.133-1.002-.067-.333-.134-.534-.4-.667-.734l-5.406-14.818c.8-.4 1.535-.867 2.269-1.335l5.54 15.284a1.3 1.3 0 0 1 0 1.002Z"/>
  <path fill="#1C284C" d="M22.128 39.446c6.14 0 11.68-3.47 14.416-9.01.267-.601.066-1.269-.534-1.535-.601-.267-1.269-.067-1.535.534-2.336 4.738-7.008 7.675-12.28 7.675-.668 0-1.135.534-1.135 1.135 0 .6.4 1.2 1.067 1.2Zm-7.276-24.093 4.672 4.872c.134.133.334.267.534.267.134 0 .267 0 .334-.067.134-.067 1.068-.6 1.202-1.735.133-1.001-.334-2.136-1.535-3.337-.668-.668-1.068-1.269-1.269-1.735 1.202.867 2.67 1.268 2.937 1.268h.2c.2 0 .4-.067.601-.267.2-.2.2-.534.134-.801-.534-1.268-.601-2.536-.601-3.538.267.267.6.601 1.001.868 1.068.801 1.668 1.936 1.869 3.27.133 1.27-.2 2.537-1.068 3.538-.601.735-1.135 1.135-1.135 1.135-.267.2-.4.6-.2.935.133.267.4.4.667.4.067 0 .134 0 .267-.067 5.807-1.935 8.877-5.005 8.143-8.075-.601-2.537-.134-4.405 0-4.672 0-.067.066-.2.066-.267a.74.74 0 0 0-.734-.735c-1.135 0-2.069.334-2.736 1.069-.468.467-.668 1.068-.801 1.534C22.66 5.876 22.394.936 22.394.737c0-.267-.133-.468-.4-.601-.134-.067-.267-.134-.4-.134-.135 0-.268 0-.335.067-2.135 1.135-3.404 2.603-3.938 4.405-.4 1.401-.133 2.736.134 3.67-.735-.333-.935-.934-1.002-1-.066-.2-.333-.401-.534-.468h-.133c-.2 0-.4.067-.534.2-1.602 1.535-2.336 3.138-2.27 4.806.135 2.07 1.603 3.404 1.87 3.67Z"/>
</svg>
