<svg xmlns="http://www.w3.org/2000/svg" width="84" height="60" fill="none" viewBox="0 0 84 60">
  <mask id="a" width="84" height="61" x="0" y="0" maskUnits="userSpaceOnUse" style="mask-type:luminance">
    <path fill="#fff" d="M0 .002h83.968v60H0v-60Z"/>
  </mask>
  <g mask="url(#a)">
    <path fill="#1C284C" d="m83.684 55.07-7.786-18.09h2.167a1.23 1.23 0 0 0 1.23-1.23v-4.92a4.515 4.515 0 0 0-4.51-4.51h-7.86l8.093-14.023a7.438 7.438 0 0 0-2.722-10.16l-1.847-1.066a7.446 7.446 0 0 0-10.16 2.723L51.714 18.65v-.001a12.91 12.91 0 0 0-2.434-2.232c.25-.229.484-.474.703-.733a7.907 7.907 0 0 0 1.368-7.756 1.229 1.229 0 0 0-.945-.792 7.903 7.903 0 0 0-7.624 2.982 6.574 6.574 0 0 0-6.019-2.093 1.233 1.233 0 0 0-.944.792A6.567 6.567 0 0 0 36.9 15.18a12.78 12.78 0 0 0-5.68 4.91l-2.253-3.23V7.602H29a1.231 1.231 0 0 0 1.23-1.23V2.95A2.87 2.87 0 0 0 27.36.08h-5.181a2.872 2.872 0 0 0-2.87 2.87v3.423c0 .68.55 1.23 1.23 1.23h.03v9.258l-4.192 6.012a1.219 1.219 0 0 0-.222.703v2.745h-6.97a4.514 4.514 0 0 0-4.51 4.51v4.92c0 .679.55 1.23 1.23 1.23h2.166L.286 55.07a3.492 3.492 0 0 0 4.5 4.66 3.488 3.488 0 0 0 1.91-1.902l6.17-14.335 2.761 12.88a4.534 4.534 0 0 0 4.41 3.566h43.896a4.528 4.528 0 0 0 4.41-3.565l2.76-12.881 6.17 14.335a3.488 3.488 0 0 0 6.478-.064 3.492 3.492 0 0 0-.067-2.694Zm-6.85-24.242v3.69H74.84l-.69-1.607a3.49 3.49 0 0 0-6.688 1.607h-8.068l4.51-5.74h10.882a2.053 2.053 0 0 1 2.05 2.05Zm-16.06-2.05L46.324 47.17a5.519 5.519 0 0 1-8.679 0l-14.45-18.392h37.58Zm1.64-23.75a4.985 4.985 0 0 1 6.8-1.822l1.846 1.066a4.98 4.98 0 0 1 1.822 6.8L64.08 26.324h-9.397a12.603 12.603 0 0 0-1.442-5.392l9.174-15.904ZM49.238 9.486a5.436 5.436 0 0 1-1.148 4.62 5.318 5.318 0 0 1-1.138 1.02 12.683 12.683 0 0 0-3.293-.9 5.411 5.411 0 0 1 5.576-4.74h.003Zm-10.402 4.193a4.1 4.1 0 0 1-.9-3.294 4.097 4.097 0 0 1 3.58 2.189 7.846 7.846 0 0 0-.312 1.563 12.62 12.62 0 0 0-1.64.21 4.047 4.047 0 0 1-.723-.668h-.005Zm3.15 2.892a10.258 10.258 0 0 1 10.236 9.748H31.75a10.26 10.26 0 0 1 10.237-9.748ZM21.767 2.949a.41.41 0 0 1 .41-.41h5.173a.41.41 0 0 1 .41.41V5.14h-5.993V2.95Zm-3.153 21.013 4.193-6.012c.145-.207.221-.452.221-.704V7.6h3.47v9.646l.001-.001c0 .252.078.497.221.704l3.265 4.679a12.604 12.604 0 0 0-.698 3.686H18.615v-2.353ZM7.135 34.519v-3.69a2.054 2.054 0 0 1 2.05-2.05h10.882l4.51 5.74h-8.068a3.491 3.491 0 0 0-6.688-1.608l-.692 1.607H7.135ZM4.437 56.855a1.03 1.03 0 1 1-1.89-.82l9.534-22.151a1.029 1.029 0 1 1 1.89.809L4.436 56.855Zm61.5-.997a2.06 2.06 0 0 1-2.004 1.62H20.036a2.06 2.06 0 0 1-1.995-1.62L14.555 39.59l1.123-2.611h10.84l9.203 11.712-.001-.001a7.978 7.978 0 0 0 12.546 0l9.202-11.712h10.84l1.124 2.611-3.495 16.269Zm15.408 1.157a1.029 1.029 0 0 1-1.804-.164l-9.545-22.154a1.032 1.032 0 0 1 1.893-.82l9.535 22.158a1.02 1.02 0 0 1-.079.98Z"/>
  </g>
</svg>
