<svg xmlns="http://www.w3.org/2000/svg" width="61" height="60" fill="none" viewBox="0 0 61 60">
  <path fill="#1C284C" d="m19.024 26.781 6.695-6.694-2.337-2.338-4.358 4.422-3.284-3.221L30.077 4.613l3.221 3.221-5.557 5.558 12.252 12.253 2.337-2.337-9.916-9.916 3.22-3.221 9.917 9.916 2.274-2.337L30.077.002 11.13 18.95l7.894 7.832Z"/>
  <path fill="#1C284C" d="m55.467 30.003-8.78 8.779-3.22-3.222 4.358-4.42-2.274-2.274-6.695 6.694 5.558 5.495-3.284 3.285-9.916-9.98-2.274 2.337 9.916 9.916-8.779 8.78-8.779-8.78 3.222-3.221 4.42 4.358 2.274-2.273-9.916-9.917 8.78-8.778 4.357 4.358 2.337-2.274-6.694-6.695-13.39 13.389 5.558 5.495-3.221 3.284-8.78-8.78 4.359-4.42-2.274-2.274-4.421 4.358-3.221-3.22 4.421-4.359-2.337-2.337-6.695 6.695 30 30 30-30-6.695-6.695-2.273 2.337 4.358 4.359Z"/>
</svg>
