<svg xmlns="http://www.w3.org/2000/svg" width="63" height="60" fill="none" viewBox="0 0 63 60">
  <path fill="#1C284C" d="M1.182 16.241c-.438-1.272.3-1.777 1.264-2.305A159.928 159.928 0 0 1 36.534.168c1.137-.31 1.295-.253 1.884.78 6.358 11.111 13.453 21.77 20.445 32.495 1.258 1.929 2.514 3.86 3.786 5.778.257.388.342.728.111 1.168-.15.288-.171.646-.233.975-.065.396-.227.77-.472 1.09-.245.32-.564.578-.932.75-10.668 5.39-21.334 10.79-31.997 16.2-.134.067-.265.134-.4.197-1.46.694-1.992.535-2.825-.844A66386.674 66386.674 0 0 1 1.326 17.871c-.276-.46-.245-1.1-.358-1.657l.214.027Zm14.409 20.081c.53.866 1.015 1.688 1.522 2.486l8.686 13.78c.2.317.371.437.798.396a7.137 7.137 0 0 1 2.03.108c1.074.213 1.946.825 2.658 1.646l6.81-3.596c-.602-1.12-1.157-2.164-1.724-3.198-.35-.643-.305-.901.314-1.322.54-.367 1.09-.72 1.628-1.071-.805-2.42-.358-4.27 1.341-5.55a5.4 5.4 0 0 1 3.098-1.073c1.803-.083 3.337.526 4.536 1.834l1.27-.6c1.515-.716 1.54-.733 2.475.688.577.875 1.057 1.814 1.595 2.75l4.166-2.05c-.541-1.088-.635-2.155-.25-3.238.385-1.084 1.199-1.857 2.286-2.388l-10.033-15.2-10.87 4.74c.544 3.222-.734 5.83-3.395 7.05-2.759 1.263-5.37.543-7.706-2.156a84.155 84.155 0 0 0-11.235 5.967v-.003ZM5.037 18.865l9.898 16.084 11.403-6.054c-.558-3.182.661-5.526 3.58-6.815 2.92-1.29 5.287-.63 7.438 2.045l10.655-4.632-8.588-13.838a4.866 4.866 0 0 1-3.927-.02c-1.298-.565-2.147-1.554-2.639-2.885-1.774.528-3.505 1.042-5.236 1.562-.14.042-.274.106-.456.177.105.231.19.442.291.647.367.735.749 1.464 1.1 2.207.397.844.323 1.036-.514 1.519-.497.283-.997.558-1.512.843l.092.498c.547 2.958-1.967 5.397-4.933 4.663-.93-.232-1.773-.874-2.593-1.42-.342-.23-.589-.298-.967-.15-.687.288-1.393.528-2.114.72a1.042 1.042 0 0 1-.866-.252c-.887-1.045-1.712-2.14-2.598-3.267l-5.904 2.857c.926 2.507.608 3.576-1.61 5.511Zm32.783 28.67 1.6 2.935 11.947-6.218-1.753-3.112-11.794 6.395ZM13.848 9.867l2.226 2.758c3.846-1.264 7.49-2.933 11.077-4.837-.44-.89-.856-1.748-1.354-2.74l-11.95 4.82Zm22.727 16.187-8.208 3.555c1.093 1.856 3.406 2.494 5.51 1.598 2.133-.91 3.342-3.135 2.698-5.153Zm-8.858 2.345 8.2-3.65c-1.035-1.816-3.272-2.362-5.438-1.385-2.194.985-3.416 3.188-2.762 5.035Zm18.227 13.127c-1.918-1.706-4.863-1.414-6.216.567a2.45 2.45 0 0 0 0 2.82l6.216-3.387Zm-25.625-28.99c1.05 1.066 2.75 1.326 3.87.608.954-.61 1.382-1.798.97-2.735l-4.84 2.126ZM34.27 2.35c.514 1.856 2.853 2.813 4.452 1.946l-1.7-2.78-2.752.834Zm23.836 38.6c.53-.258 1.027-.506 1.52-.737.494-.232.994-.442 1.521-.675-.485-.746-.93-1.435-1.38-2.121a1.187 1.187 0 0 0-.158-.17c-1.7.515-2.356 2.107-1.503 3.703ZM5.272 14.06l-2.44 1.32 1.45 2.28c1.39-.878 1.794-2.331.99-3.6Zm21.832 40.277 1.327 1.97 1.625-.88c-.843-.805-1.742-1.183-2.952-1.09ZM44.946 5.965c-.616-.019-.899-.355-.755-.844.283-.988.618-1.961 1.004-2.915.085-.21.589-.437.791-.364.231.084.528.543.471.756a27.975 27.975 0 0 1-1.005 2.978c-.08.203-.401.313-.506.389Zm4.638-.864c.126.098.435.216.477.395.059.245.009.657-.16.785a24.873 24.873 0 0 1-2.534 1.688c-.184.108-.652-.022-.82-.198-.137-.143-.132-.675 0-.771.879-.657 1.809-1.246 2.727-1.857.1-.027.205-.04.31-.042Zm1.344 6.731c-.733-.208-1.475-.39-2.196-.632-.481-.168-.76-.551-.55-1.036.211-.484.632-.361 1.054-.241.61.168 1.231.314 1.855.427.493.09.71.37.676.827-.036.482-.379.612-.84.655Z"/>
</svg>
