<svg xmlns="http://www.w3.org/2000/svg" width="63" height="60" fill="none" viewBox="0 0 63 60">
  <path fill="#1C284C" fill-rule="evenodd" d="M21.46 8.77a6.829 6.829 0 0 1 3.647.196c1.77.594 3.637 1.59 4.81 3.273.51.733.655 1.578.779 2.312.124.734.166 1.347.166 1.347a.972.972 0 0 1-.902 1.038.967.967 0 0 1-1.032-.91s-.038-.527-.143-1.154c-.106-.627-.348-1.366-.458-1.525-.813-1.167-2.313-2.035-3.837-2.546a4.984 4.984 0 0 0-2.603-.143c-.424.097-1.34.56-2.055 1.002-.714.443-1.268.848-1.268.848h.001a.969.969 0 1 1-1.146-1.563s.607-.448 1.392-.934c.785-.487 1.708-1.028 2.648-1.241Z" clip-rule="evenodd"/>
  <path fill="#1C284C" fill-rule="evenodd" d="M13.703 2.254a10.323 10.323 0 0 1 3.428.02c1.756.311 3.523 1.194 4.699 2.644.621.767.855 1.723 1.048 2.554.193.831.28 1.533.28 1.533a.968.968 0 1 1-1.922.238s-.078-.609-.246-1.331c-.168-.723-.493-1.566-.662-1.775-.804-.991-2.195-1.719-3.534-1.956-1.781-.316-3.837.019-5.426.87-.245.133-.866.742-1.31 1.298-.441.555-.76 1.044-.76 1.044a.968.968 0 0 1-1.018.42s-.564-.124-1.244-.186c-.681-.06-1.492.033-1.62.1-.734.375-1.38 1.411-1.691 2.443-.055.182-.077.912-.015 1.499.06.587.155 1.06.155 1.06v-.001a.968.968 0 1 1-1.9.379s-.11-.553-.182-1.238c-.071-.685-.152-1.469.084-2.255.405-1.349 1.189-2.856 2.667-3.613.914-.469 1.857-.376 2.672-.303.462.04.57.077.843.124.155-.223.208-.32.496-.681.505-.634 1.093-1.356 1.903-1.794a10.3 10.3 0 0 1 3.254-1.09v-.003Zm13.958 2.414a4.844 4.844 0 0 1 2.335.091c1.55.459 2.708 1.735 3.242 3.16h.004c.444 1.185.298 2.496-.265 3.571-.428.82-1.142 1.306-1.759 1.734-.617.426-1.162.722-1.162.722l-.923-1.702s.464-.253.984-.613 1.072-.899 1.146-1.04c.3-.574.372-1.438.163-1.995-.323-.861-1.188-1.745-1.98-1.979-.8-.237-2.017.02-2.655.545h-.004c-.145.12-.571.913-.79 1.642-.22.73-.33 1.37-.33 1.37l-1.91-.322s.126-.746.385-1.607c.26-.863.559-1.867 1.408-2.573a4.79 4.79 0 0 1 2.111-1.003ZM28.842.002a.97.97 0 0 1 .954.984V2.47a.967.967 0 0 1-1.659.693.967.967 0 0 1-.278-.693V.986a.968.968 0 0 1 .983-.984Zm8.09 8.204a.967.967 0 0 1 .693 1.658.967.967 0 0 1-.693.28h-1.484a.97.97 0 1 1 0-1.938h1.484Zm-14.175-6.44a.97.97 0 0 1 .667.291l1.048 1.053a.968.968 0 1 1-1.37 1.369l-1.048-1.052a.97.97 0 0 1 .703-1.661Zm11.915.598a.97.97 0 0 1 .674 1.665l-1.048 1.048a.97.97 0 1 1-1.37-1.37l1.049-1.048a.969.969 0 0 1 .696-.295Zm-.961 10.806a.97.97 0 0 1 .666.291l1.048 1.048a.97.97 0 0 1-.681 1.666.97.97 0 0 1-.689-.296l-1.048-1.048a.968.968 0 0 1 .704-1.661Zm-2.651 7.905a.97.97 0 0 1 .48.151L50.794 33.47a.97.97 0 0 1 .45.832s-.008.379-.053.84c-.044.462-.087.985-.34 1.533-.449.968-1.11 2.225-2.482 2.728-2.045.75-4.436.296-6.16-.923-.594-.42-.814-1.029-1.098-1.6-.33.828-.658 1.728-1.453 2.326-1.306.983-2.995 1.075-4.408.79-1.36-.273-2.44-1.133-3.25-2.031-.344-.381-.528-.846-.75-1.294-.31.62-.611 1.276-1.123 1.775h-.004c-.65.633-1.503 1.133-2.494 1.255-1.563.192-3.35-.063-4.71-1.127-.694-.541-.997-1.314-1.31-2.032-.5.905-1.077 1.913-1.903 2.58-.821.664-1.869 1.082-2.967 1.083h-.004c-1.54.019-3.242-.41-4.476-1.56-.765-.711-1.091-1.687-1.37-2.53-.279-.844-.431-1.567-.431-1.567a.968.968 0 0 1 .436-1.021l19.615-12.305a.969.969 0 0 1 .552-.147Zm-.042 2.111-18.488 11.6c.063.252.07.333.197.72.24.728.666 1.55.85 1.721.73.68 2.002 1.055 3.145 1.041h.012c.578 0 1.27-.261 1.752-.65.389-.315 1.064-1.295 1.533-2.154.468-.858.787-1.592.787-1.592a.969.969 0 0 1 1.82.12s.18.636.48 1.366c.3.729.8 1.532 1.003 1.691.793.62 2.13.87 3.28.73.45-.056.993-.344 1.381-.723.249-.242.727-1.037 1.049-1.721.321-.684.537-1.26.537-1.26a.97.97 0 0 1 1.824.02s.17.492.428 1.081c.256.589.639 1.281.828 1.49.632.701 1.445 1.284 2.195 1.435.995.2 2.203.052 2.86-.443.24-.18.778-1.085 1.09-1.914.312-.83.488-1.56.488-1.56a.969.969 0 0 1 1.873-.046s.172.591.458 1.26c.287.67.775 1.39.927 1.499 1.177.831 3.085 1.158 4.374.685.476-.175 1.014-.908 1.393-1.726.027-.058.133-.523.17-.9.008-.086.006-.08.011-.155L31.02 23.185l-.001.001Z" clip-rule="evenodd"/>
  <path fill="#1C284C" fill-rule="evenodd" d="m11.778 33.06 38.383.303-.015 1.938-38.383-.303.015-1.937Z" clip-rule="evenodd"/>
  <path fill="#1C284C" fill-rule="evenodd" d="m31.913 21.695 9.759 12.157-1.51 1.215L30.4 22.909l1.514-1.214Z" clip-rule="evenodd"/>
  <path fill="#1C284C" fill-rule="evenodd" d="m31.911 22.384.045 11.858H30.02l-.046-11.858h1.937Z" clip-rule="evenodd"/>
  <path fill="#1C284C" fill-rule="evenodd" d="m29.75 21.963 1.529 1.188-9.244 11.9-1.532-1.188 9.247-11.9Zm2.422 14.223.484 22.703-1.937.042-.484-22.702 1.937-.043ZM44.71 44.79a.967.967 0 0 1 .92 1.261l-2.24 7.507a.97.97 0 0 1-.886.689l-4.563.204-.2 4.382a.97.97 0 0 1-1.937-.088l.242-5.267a.969.969 0 0 1 .926-.923l4.76-.212 2.044-6.848a.97.97 0 0 1 .935-.704Z" clip-rule="evenodd"/>
  <path fill="#1C284C" fill-rule="evenodd" d="M42.32 52.143a.968.968 0 0 1 .934.904l.447 5.585a.969.969 0 1 1-1.93.155l-.45-5.585a.97.97 0 0 1 1-1.06v.001Zm-24.897-7.352c.424.01.793.296.908.704l2.044 6.849 4.76.212c.5.022.9.422.923.922l.242 5.267a.967.967 0 0 1-1.634.788.967.967 0 0 1-.3-.7l-.2-4.382-4.567-.205v.001a.97.97 0 0 1-.886-.689l-2.24-7.507a.97.97 0 0 1 .95-1.26Z" clip-rule="evenodd"/>
  <path fill="#1C284C" fill-rule="evenodd" d="M19.717 52.14a.968.968 0 0 1 .969 1.063l-.45 5.584a.97.97 0 1 1-1.93-.155l.45-5.585a.969.969 0 0 1 .96-.908Z" clip-rule="evenodd"/>
  <path fill="#1C284C" fill-rule="evenodd" d="M61.076 57.761a.967.967 0 0 1 .7 1.656.969.969 0 0 1-.692.282l-53.782.17a.97.97 0 1 1-.008-1.937l53.782-.171Zm-57.093.272a.969.969 0 0 1-.072 1.934l-2.21.035a.969.969 0 1 1-.027-1.937l2.21-.031a.802.802 0 0 1 .099 0Z" clip-rule="evenodd"/>
  <path fill="#1C284C" fill-rule="evenodd" d="M14.036 55.181a.969.969 0 0 1 .924.916l.17 2.528a.969.969 0 0 1-1.934.127l-.17-2.524a.968.968 0 0 1 1.01-1.048v.001Zm-3.566-3.125a.968.968 0 0 1 .937.995l-.087 5.607a.967.967 0 0 1-1.682.7.97.97 0 0 1-.251-.727l.083-5.607a.966.966 0 0 1 1-.97v.002Zm40.242 3.64a.97.97 0 0 1 .927 1.093l-.212 1.801a.97.97 0 1 1-1.926-.23l.216-1.798a.969.969 0 0 1 .995-.866Zm3.238-4.113c.499.01.908.396.947.893l.556 5.952a.968.968 0 1 1-1.93.178l-.556-5.948a.97.97 0 0 1 .984-1.074Zm3.85 2.955c.533.032.94.491.907 1.025l-.125 2.785a.969.969 0 1 1-1.937-.091l.129-2.781a.968.968 0 0 1 1.025-.938Z" clip-rule="evenodd"/>
</svg>
