<svg xmlns="http://www.w3.org/2000/svg" width="62" height="60" fill="none" viewBox="0 0 62 60">
  <path fill="#1C284C" d="M6.87 56.368h4.05a.753.753 0 0 0 .753-.754v-6.09a.753.753 0 0 0-.753-.754H6.87a.753.753 0 0 0-.753.753v6.091c0 .416.337.754.754.754Zm.754-6.09h2.542v4.583H7.624v-4.584Zm6.46 6.09h4.05a.753.753 0 0 0 .753-.754v-6.09a.753.753 0 0 0-.754-.754h-4.049a.753.753 0 0 0-.753.753v6.091c0 .416.337.754.753.754Zm.754-6.09h2.542v4.583h-2.542v-4.584Zm28.537 6.09h4.05a.753.753 0 0 0 .753-.754v-6.09a.753.753 0 0 0-.753-.754h-4.05a.753.753 0 0 0-.754.753v6.091c0 .416.337.754.754.754Zm.752-6.09h2.544v4.583h-2.544v-4.584Zm6.463 6.09h4.049a.753.753 0 0 0 .753-.754v-6.09a.753.753 0 0 0-.753-.754h-4.05a.753.753 0 0 0-.753.754v6.09c0 .416.337.754.754.754Zm.753-6.09h2.542v4.583h-2.542v-4.584Z"/>
  <path fill="#1C284C" d="m61.105 19.57-1.51-14.495c.005-.039.022-.073.022-.113V.756a.753.753 0 0 0-.753-.754H3.106a.753.753 0 0 0-.754.754v4.206c0 .018.008.032.01.049L.845 19.569c-.003.032.008.06.01.092-.003.024-.015.044-.015.07 0 1.307.587 2.48 1.512 3.281V59.25c0 .416.337.753.754.753h55.548a.753.753 0 0 0 .754-.753V23.17a4.344 4.344 0 0 0 1.701-3.438c0-.025-.012-.045-.014-.07.001-.031.014-.06.01-.092Zm-7.54-18.06h4.545v2.7h-4.545v-2.7Zm-7.413 0h5.907v2.7h-5.907v-2.7Zm6.017 18.892a2.908 2.908 0 0 1-2.831 2.195 2.909 2.909 0 0 1-2.83-2.195h5.66ZM46.152 5.716h5.907v13.178h-5.907V5.716Zm-7.078-4.205h5.572V4.21h-5.572v-2.7Zm0 4.205h5.572v13.178h-5.572V5.716Zm-7.336-4.205h5.829V4.21h-5.83v-2.7Zm0 4.205h5.829v13.178h-5.83V5.716Zm5.74 14.686a2.908 2.908 0 0 1-2.83 2.195 2.909 2.909 0 0 1-2.831-2.195h5.661ZM24.383 1.51h5.849v2.7h-5.849v-2.7Zm0 4.206h5.849v13.177h-5.849V5.716Zm5.75 14.685a2.908 2.908 0 0 1-2.83 2.196A2.909 2.909 0 0 1 24.47 20.4h5.662ZM17.038 1.51h5.838v2.7h-5.838v-2.7Zm0 4.206h5.838v13.178h-5.838V5.715ZM9.563 1.509h5.968v2.7H9.563v-2.7Zm0 4.206h5.968v13.178H9.563V5.715Zm5.88 14.686a2.908 2.908 0 0 1-2.831 2.195 2.909 2.909 0 0 1-2.831-2.195h5.661ZM3.858 1.509h4.197v2.699H3.86v-2.7Zm-.056 4.205h4.254v13.178H2.43L3.803 5.714ZM2.436 20.4h5.66a2.908 2.908 0 0 1-2.83 2.195 2.91 2.91 0 0 1-2.83-2.195Zm18.708 38.094H3.859V46.643h17.285v11.85Zm0-13.358H3.859V43.22h17.285v1.916ZM8.269 41.653v-1.538h7.883v1.538H8.27Zm12.875.06h-3.485v-2.352a.753.753 0 0 0-.753-.753h-9.39a.753.753 0 0 0-.754.754v2.352H3.86V23.872a4.44 4.44 0 0 0 5.08-1.704 4.44 4.44 0 0 0 3.673 1.934 4.44 4.44 0 0 0 3.673-1.935 4.44 4.44 0 0 0 4.86 1.771l-.001 17.775Zm-1.187-19.119a2.909 2.909 0 0 1-2.83-2.195h5.66a2.908 2.908 0 0 1-2.83 2.195ZM39.11 58.493H22.65v-2.127h16.46v2.127Zm0-3.634H22.65V23.19c.38-.288.712-.631.98-1.024a4.44 4.44 0 0 0 3.673 1.935 4.44 4.44 0 0 0 3.672-1.935 4.44 4.44 0 0 0 3.673 1.935 4.44 4.44 0 0 0 3.673-1.935c.221.326.489.617.789.873V54.86Zm.054-34.461h5.66a2.908 2.908 0 0 1-2.83 2.195 2.91 2.91 0 0 1-2.83-2.195Zm18.738 38.094H40.617V46.64H57.9v11.852Zm0-13.358H40.617v-1.916H57.9v1.916Zm-12.584-3.423v-1.538H53.2v1.538h-7.883Zm12.584 0h-3.194V39.42a.753.753 0 0 0-.754-.754h-9.39a.753.753 0 0 0-.753.754v2.291h-3.195l.001-17.832a4.44 4.44 0 0 0 5.05-1.715A4.44 4.44 0 0 0 49.34 24.1a4.44 4.44 0 0 0 3.673-1.935 4.44 4.44 0 0 0 4.89 1.763v17.784Zm-1.217-19.12a2.909 2.909 0 0 1-2.83-2.195h5.66a2.908 2.908 0 0 1-2.83 2.196Zm-3.119-3.701V5.71h4.582l1.373 13.178h-5.955v.002Z"/>
</svg>
