<svg xmlns="http://www.w3.org/2000/svg" width="85" height="60" fill="none" viewBox="0 0 85 60">
  <path fill="#1C284C" d="M.09 58.911c.912 1.262 1.473 1.356 2.925.657 3.958-1.906 8.147-3.12 12.467-3.929 4.605-.862 9.253-1.15 13.928-.946 3.971.173 7.912.697 11.762 1.684 1.408.361 2.68 0 3.98-.285 5.945-1.297 11.95-1.727 18.015-1.246 6.671.529 13.105 2.012 19.173 4.87 1.485.699 2.633-.031 2.633-1.683V7.113c0-1.564-.535-2.094-2.135-2.101-1.625-.008-3.253 0-5.013 0 0-.557.008-1.061 0-1.565-.02-1.206-.441-1.72-1.615-2.015C70.663.04 65.043-.369 59.376.353c-6.274.802-11.948 2.982-16.524 7.47-.075.074-.171.13-.27.204-.984-.807-1.924-1.641-2.934-2.387-3.905-2.89-8.365-4.434-13.145-5.154C20.529-.415 14.624.02 8.78 1.455c-.951.234-1.362.674-1.442 1.633-.052.613-.01 1.234-.01 1.942-1.778 0-3.43.035-5.08-.013-.993-.03-1.716.28-2.156 1.17v52.727L.09 58.91ZM74.472 4.447v42.56c-10.5-1.043-20.773-.916-30.238 4.529-.02-.143-.041-.22-.041-.296.018-13.138.033-26.276.075-39.412 0-.31.175-.685.392-.921 1.75-1.888 3.81-3.384 6.122-4.529 3.444-1.707 7.124-2.542 10.953-2.852 4.297-.349 8.525.043 12.737.923v-.002ZM10.705 47.004V4.43C15.942 3.37 21.139 3 26.38 3.892c5.38.919 10.186 2.96 13.99 6.94.282.293.486.79.486 1.194.026 12.917.02 25.834.018 38.754 0 .229-.02.46-.034.745-9.478-5.401-19.687-5.6-30.139-4.518l.003-.003Zm22.085 4.44-.04.254c-10.087-1.025-19.841.329-29.322 4.079V8.345h3.804v40.02c0 1.662.715 2.28 2.351 2.084 1.615-.193 3.233-.4 4.853-.511 3.778-.265 7.566-.387 11.325.173 2.357.35 4.685.883 7.026 1.333h.003Zm19.584.209c3.452-1.148 7.025-1.738 10.671-1.87a67.21 67.21 0 0 1 12.706.75c.963.148 1.751-.4 1.94-1.338.078-.395.1-.807.1-1.211.006-12.861.006-25.722.006-38.586V8.34h3.832v47.43c-9.444-3.74-19.17-5.084-29.25-4.117h-.005Z"/>
</svg>
