<svg xmlns="http://www.w3.org/2000/svg" width="61" height="60" fill="none" viewBox="0 0 61 60">
  <path fill="#1C284C" d="M.306 32.485c0-6.59.044-13.18-.016-19.77a7.648 7.648 0 0 1 4.755-7.137 7.669 7.669 0 0 1 2.96-.572c7.938.037 15.874.01 23.811.015.318 0 .556-.064.801-.305 1.864-1.83 4.039-3.168 6.538-3.94 3.852-1.188 7.649-1.024 11.334.605 4.394 1.942 7.365 5.238 8.951 9.766.674 1.947.95 4.01.812 6.065-.2 3.295-1.435 6.238-3.18 8.992-.533.841-1.107 1.651-1.637 2.499-.108.199-.16.423-.152.649-.008 7.676-.01 15.354-.007 23.032 0 4.287-3.366 7.62-7.656 7.618-13.251-.007-26.502-.007-39.753 0-3.81 0-7-2.757-7.482-6.53-.126-.998-.082-2.021-.087-3.033 0-5.985.002-11.97.007-17.954h.001ZM29.03 10.017H7.99c-1.682 0-2.685 1.007-2.685 2.703v38.1c0 .152.013.303.02.455l.107.063 25.294-25.572c-1.345-2.21-2.462-4.73-2.816-7.524-.354-2.795.039-5.524 1.119-8.225Zm15.014 29.087a54.391 54.391 0 0 1 5.145-10.05c1.263-1.933 2.596-3.824 3.828-5.773 1.264-2 2.155-4.14 2.236-6.558.069-2.038-.32-3.974-1.305-5.755-2.363-4.28-6.645-6.462-11.484-5.817-3.467.463-6.177 2.221-7.994 5.202-2.107 3.458-2.221 7.092-.583 10.778.938 2.11 2.283 3.98 3.6 5.862 2.002 2.855 3.767 5.846 5.211 9.02.456 1 .88 2.019 1.346 3.09ZM26.47 37.576 9.077 54.973h34.79L26.469 37.576Zm14.305 6.948c-1.218-5.333-3.942-9.943-7.097-14.29l-3.609 3.585 10.706 10.705Zm9.5-7.63-.075-.016c-.135.26-.271.526-.404.792a30.3 30.3 0 0 0-2.513 6.88c-.209.913-.538 1.772-1.343 2.352-.668.48-1.423.637-2.262.574l6.35 6.34c.088-.49.24-.947.241-1.405.017-5.065.009-10.13.008-15.196l-.002-.32Z"/>
  <path fill="#1C284C" d="m20.58 14.722-1.76 1.765c-1.36-1.26-2.943-1.754-4.754-1.312-1.356.331-2.386 1.142-3.096 2.339-1.421 2.398-.552 5.475 1.932 6.882 2.275 1.292 5.387.448 6.63-1.849h-4.217v-2.505h7.42c.195 2.462-1.503 5.725-4.736 6.965a7.517 7.517 0 0 1-9.364-3.545c-1.753-3.336-.677-7.57 2.467-9.67 3.144-2.1 7.197-1.47 9.479.93Zm27.179 1.515c.073 2.076-1.706 3.81-3.79 3.778-2.082-.031-3.7-1.72-3.686-3.851.012-2.014 1.719-3.643 3.806-3.631a3.691 3.691 0 0 1 3.67 3.704Z"/>
</svg>
