<svg xmlns="http://www.w3.org/2000/svg" width="61" height="60" fill="none" viewBox="0 0 61 60">
  <path fill="#1C284C" d="M25.035 22.646c.228.142.5.214.757.214.215 0 .443-.057.643-.157l11.429-5.714c.485-.229.786-.729.786-1.272 0-.542-.3-1.042-.786-1.27L26.435 8.731a1.447 1.447 0 0 0-1.385.057 1.407 1.407 0 0 0-.686 1.214v11.429c0 .5.257.957.671 1.214Zm2.186-10.329 6.8 3.4-6.8 3.4v-6.8Z"/>
  <path fill="#1C284C" d="M58.65.002H1.506C.721.002.08.645.08 1.431V30c0 .787.642 1.43 1.428 1.43H58.65c.786 0 1.429-.643 1.429-1.43V1.432c0-.786-.643-1.429-1.429-1.429Zm-1.43 28.571H2.936V2.86h54.286v25.714ZM6.506 48.574a6.438 6.438 0 0 0-6.428 6.429v3.57c0 .787.642 1.43 1.428 1.43h10c.786 0 1.429-.644 1.429-1.43v-3.57a6.438 6.438 0 0 0-6.429-6.43Zm3.572 8.571H2.935v-2.142c0-1.971 1.6-3.572 3.57-3.572 1.972 0 3.572 1.6 3.572 3.571v2.143Zm5.714 1.429c0 .785.643 1.428 1.429 1.428h10c.785 0 1.428-.643 1.428-1.428v-3.572a6.438 6.438 0 0 0-6.428-6.428 6.437 6.437 0 0 0-6.429 6.428v3.572Zm2.857-3.572a3.572 3.572 0 0 1 7.142 0v2.143H18.65v-2.143Zm12.858 3.572c0 .785.643 1.428 1.428 1.428h10c.786 0 1.429-.643 1.429-1.428v-3.572a6.438 6.438 0 0 0-6.428-6.428 6.437 6.437 0 0 0-6.429 6.428v3.572Zm2.857-3.572a3.572 3.572 0 0 1 7.142 0v2.143h-7.143v-2.143Zm19.284-6.428a6.438 6.438 0 0 0-6.428 6.428v3.572c0 .786.642 1.428 1.428 1.428h10c.786 0 1.429-.643 1.429-1.428v-3.571a6.438 6.438 0 0 0-6.428-6.43Zm3.572 8.571h-7.143v-2.142a3.572 3.572 0 0 1 7.142 0v2.142ZM12.935 42.144a6.438 6.438 0 0 0-6.428-6.428 6.438 6.438 0 0 0-6.429 6.428v3.571c0 .786.643 1.429 1.429 1.429h10c.786 0 1.428-.643 1.428-1.429v-3.57Zm-2.857 2.143H2.935v-2.143a3.572 3.572 0 0 1 7.142 0l.001 2.143Zm17.142 2.858c.787 0 1.43-.643 1.43-1.429v-3.57a6.438 6.438 0 0 0-6.429-6.43 6.438 6.438 0 0 0-6.428 6.43v3.57c0 .786.642 1.429 1.428 1.429h10Zm-8.57-5a3.572 3.572 0 0 1 7.142 0v2.143H18.65v-2.143Zm24.284 5c.786 0 1.429-.643 1.429-1.429v-3.57a6.438 6.438 0 0 0-6.428-6.43 6.438 6.438 0 0 0-6.429 6.43v3.57c0 .786.643 1.429 1.429 1.429h10Zm-8.57-5a3.572 3.572 0 0 1 7.142 0v2.143h-7.143v-2.143Zm19.284-6.429a6.438 6.438 0 0 0-6.428 6.428v3.571c0 .786.642 1.429 1.428 1.429h10c.786 0 1.429-.643 1.429-1.429v-3.57a6.438 6.438 0 0 0-6.428-6.429Zm3.572 8.571h-7.143v-2.142a3.572 3.572 0 0 1 7.142 0v2.142Z"/>
</svg>
