<svg xmlns="http://www.w3.org/2000/svg" width="63" height="60" fill="none" viewBox="0 0 63 60">
  <path fill="#1C284C" d="M57.094.002h-51a5.341 5.341 0 0 0 0 10.683h5.452v4.39h-1.172a7.272 7.272 0 0 0-7.317 7.255v30.366a7.314 7.314 0 0 0 7.317 7.306h42.44a7.315 7.315 0 0 0 7.317-7.306V22.33a7.272 7.272 0 0 0-7.317-7.254h-1.317v-4.39h5.598a5.342 5.342 0 1 0 0-10.684ZM19.301 10.685v8.441a2.414 2.414 0 0 1-4.829 0v-8.44h4.83Zm21.513 4.39H22.228v-4.39h18.586v4.39Zm12 2.927a4.342 4.342 0 0 1 4.39 4.328v30.366a4.387 4.387 0 0 1-4.39 4.38h-42.44a4.387 4.387 0 0 1-4.39-4.38V22.33a4.344 4.344 0 0 1 4.39-4.328h1.171v1.124h.001a5.341 5.341 0 1 0 10.683 0v-1.124h18.586v1.125a5.341 5.341 0 1 0 10.683 0v-1.125h1.316Zm-4.244 1.124a2.414 2.414 0 0 1-4.83 0v-8.44h4.83v8.44Zm8.525-11.367H6.094a2.414 2.414 0 1 1 0-4.83h51.001a2.415 2.415 0 0 1 0 4.83Z"/>
  <path fill="#1C284C" d="M33.204 21.399c0-.08.02-.178-.06-.178h-3.325c-.08 0-.128.098-.128.178v1.432h3.513v-1.432Zm-3.511 2.75h3.512v3.95h-3.512v-3.95Zm3.6 3.951h-.088v.082c0 .042.088-.082.088-.082Zm-3.6.12v-.12h-.02s.02.15.02.12Zm3.983 1.533a1.666 1.666 0 0 1-.14-.336h-4.093a1.187 1.187 0 0 1-.117.296l-2.62 5.425a5.266 5.266 0 0 0-.526 2.277v.782h10.829v-.705a5.29 5.29 0 0 0-.586-2.405l-2.747-5.334Zm-7.496 9.469h10.829v9.805h-10.83v-9.805Zm0 13.972c0 .48.398.808.878.808h9.073c.48 0 .877-.328.877-.808l.001-3.143H26.18v3.143Z"/>
</svg>
