<svg xmlns="http://www.w3.org/2000/svg" width="78" height="60" fill="none" viewBox="0 0 78 60">
  <path fill="#1C284C" d="M69.136 26.389h-1.2v-1.2a1.2 1.2 0 1 0-2.398 0v1.2H53.544v-1.2a1.2 1.2 0 1 0-2.399 0v1.2h-1.2a1.2 1.2 0 0 0-1.198 1.199v7.196a1.2 1.2 0 0 0 1.199 1.2h1.2v2.398a1.2 1.2 0 1 0 2.398 0v-2.398h11.994v2.398a1.2 1.2 0 1 0 2.398 0v-2.398h1.2a1.202 1.202 0 0 0 1.2-1.2v-7.196a1.202 1.202 0 0 0-1.2-1.2Zm-1.2 7.196h-16.79v-4.798h16.79v4.798Z"/>
  <mask id="a" width="78" height="21" x="0" y="40" maskUnits="userSpaceOnUse" style="mask-type:luminance">
    <path fill="#fff" d="M.771 40.653h76.76v19.35H.772v-19.35Z"/>
  </mask>
  <g mask="url(#a)">
    <path fill="#1C284C" d="M72.734 51.577h-.05a17.214 17.214 0 0 0-.634-3.599h.684a1.199 1.199 0 0 0 1.2-1.199v-4.797a1.2 1.2 0 0 0-1.2-1.2H46.348a1.2 1.2 0 0 0-1.2 1.2v4.797a1.2 1.2 0 0 0 1.2 1.2h.684a17.13 17.13 0 0 0-.635 3.598H5.57a4.797 4.797 0 0 0-4.798 4.797v2.399a1.199 1.199 0 0 0 1.2 1.2h64.767a1.2 1.2 0 0 0 0-2.4H3.17v-1.199a2.399 2.399 0 0 1 2.399-2.399h67.165a2.399 2.399 0 0 1 2.399 2.4v1.199h-4.797a1.2 1.2 0 1 0 0 2.399h5.996a1.2 1.2 0 0 0 1.2-1.2v-2.399a4.797 4.797 0 0 0-4.798-4.797Zm-9.596-5.997H47.546v-2.399h23.987v2.399h-4.797a1.2 1.2 0 1 0 0 2.399h2.792c.41 1.16.664 2.37.754 3.598H48.798c.095-1.227.349-2.437.756-3.598h13.584a1.2 1.2 0 1 0 0-2.399Z"/>
  </g>
  <path fill="#1C284C" d="M25.959 50.376c-.401 0-.776-.2-1-.534l-2.398-3.598a1.199 1.199 0 0 1-.2-.58l-1.2-16.792a1.2 1.2 0 0 1 1.114-1.285 1.179 1.179 0 0 1 1.286 1.114l1.176 16.475 2.224 3.334a1.2 1.2 0 0 1-1.002 1.866Z"/>
  <path fill="#1C284C" d="M19.962 7.199A15.576 15.576 0 0 0 5.264 27.972a15.575 15.575 0 0 0 10.455 9.797l-.53 7.408-2.222 3.334a1.2 1.2 0 1 0 1.995 1.332l2.399-3.598a1.2 1.2 0 0 0 .202-.58l1.199-16.792a1.202 1.202 0 0 0-1.114-1.285 1.177 1.177 0 0 0-1.285 1.114l-.473 6.617a13.18 13.18 0 1 1 10.02-.765 1.202 1.202 0 0 0-.588 1.638 1.2 1.2 0 0 0 1.667.5 15.585 15.585 0 0 0-7.027-29.494Z"/>
  <path fill="#1C284C" d="M47.795 36.382a8.38 8.38 0 0 0-14.064 2.555 8.331 8.331 0 0 0-7.756.943 1.2 1.2 0 0 0 1.367 1.97 5.987 5.987 0 0 1 9.061 6.926 1.199 1.199 0 1 0 2.26.802 8.345 8.345 0 0 0-2.795-9.444 5.964 5.964 0 0 1 6.529-4.09 5.969 5.969 0 0 1 3.614 1.94 1.198 1.198 0 1 0 1.784-1.602ZM59.54 3.6a1.2 1.2 0 0 1-1.2-1.2V1.203a1.2 1.2 0 0 1 2.4 0V2.4a1.199 1.199 0 0 1-1.2 1.2Zm0 15.593a1.2 1.2 0 0 1-1.2-1.2v-1.199a1.2 1.2 0 0 1 2.4 0v1.2a1.199 1.199 0 0 1-1.2 1.199ZM54.451 5.709a1.2 1.2 0 0 1-.848-.351l-.848-.849a1.203 1.203 0 0 1-.015-1.71 1.203 1.203 0 0 1 1.711.014l.849.848a1.2 1.2 0 0 1-.849 2.048Zm11.027 11.023a1.19 1.19 0 0 1-.848-.351l-.848-.848a1.2 1.2 0 0 1 1.696-1.697l.848.849a1.2 1.2 0 0 1-.848 2.047Zm-13.134-5.934h-1.199a1.2 1.2 0 1 1 0-2.4h1.2a1.2 1.2 0 0 1 0 2.4Zm15.593 0h-1.2a1.2 1.2 0 1 1 0-2.4h1.2a1.2 1.2 0 0 1 0 2.4Zm-14.331 5.934a1.199 1.199 0 0 1-.848-2.047l.847-.847a1.2 1.2 0 0 1 1.696 1.696l-.847.847c-.225.225-.53.351-.848.351ZM64.628 5.707a1.199 1.199 0 0 1-.847-2.047l.848-.848a1.203 1.203 0 0 1 1.71-.015 1.2 1.2 0 0 1-.015 1.71l-.848.849c-.225.225-.53.351-.848.351Zm-5.088 8.688a4.799 4.799 0 0 1-1.773-9.265 4.798 4.798 0 0 1 4.262.38 1.199 1.199 0 1 1-1.249 2.048 2.362 2.362 0 0 0-1.24-.36 2.399 2.399 0 1 0 2.399 2.4 1.2 1.2 0 1 1 2.4 0 4.8 4.8 0 0 1-4.798 4.797Z"/>
</svg>
