<svg xmlns="http://www.w3.org/2000/svg" width="52" height="60" fill="none" viewBox="0 0 52 60">
  <path fill="#1C284C" d="M50.448 44.972h-3.836V22.616c0-.876-.397-1.256-1.276-1.27h-.861c-.306-1.614-1.824-6.937-2.4-7.96-2.275-4.044-5.699-6.764-10.08-8.267a.696.696 0 0 1-.555-.624C31.035 2.215 29.932.54 27.586.002h-2.685c-2.348.55-3.45 2.215-3.839 4.484-.072.423-.274.538-.614.65-4.117 1.418-7.338 4.606-9.645 7.686-.313.4-.578.835-.792 1.296-.476 1.184-1.036 2.174-1.252 3.357-.242 1.28-.484 2.55-.716 3.835-.15.01-.303.028-.455.03-1.464.022-1.691.253-1.691 1.73v21.898H1.99c-1.11 0-1.462.359-1.453 1.482.032 4.022.032 8.044 0 12.066 0 1.122.342 1.486 1.442 1.486h48.564c1.268 0 1.522-.482 1.398-2.09a67.274 67.274 0 0 1-.023-10.402c.167-2.04.023-2.536-1.471-2.538Zm-6.014-21.447v21.393h-6.35V23.525h6.35ZM25.97 2.004c1.852-.029 3.026.814 3.205 2.27h-5.854c.112-1.246 1.253-2.238 2.649-2.265v-.005Zm.279 4.304c9.307 0 15.674 7.52 15.969 14.977H10.275c.306-7.502 6.713-14.96 15.974-14.965v-.012Zm9.61 17.202v21.396H16.646V23.523l19.213-.013Zm-27.786 0h6.349v21.406H8.073V23.51Zm6.896 34.292c2.483-4.484 6.342-6.36 11.21-6.377 4.92-.018 8.833 1.838 11.343 6.377H14.969Zm34.825.057h-9.382c-.376 0-.58-.091-.759-.46-2.538-5.268-6.839-7.841-12.572-8.116-3.69-.18-7.145.608-10.136 2.918a13.699 13.699 0 0 0-4.079 5.154c-.138.296-.245.511-.657.508-3.058-.022-6.117-.013-9.176-.015-.086 0-.18-.02-.3-.034V47.17h47.072l-.01 10.69Z"/>
  <path fill="#1C284C" d="M17.72 13.293a1.608 1.608 0 0 1 1.459 1.04 1.617 1.617 0 0 1-1.237 2.164 1.608 1.608 0 0 1-1.633-.733 1.616 1.616 0 0 1 1.411-2.471Zm10.128 1.613a1.616 1.616 0 0 1-.994 1.491 1.608 1.608 0 0 1-2.196-1.176 1.617 1.617 0 0 1 .685-1.657 1.608 1.608 0 0 1 2.034.2c.302.304.471.714.471 1.142Zm8.575.018a1.616 1.616 0 0 1-1.01 1.48 1.608 1.608 0 0 1-2.183-1.202 1.617 1.617 0 0 1 .704-1.649c.267-.174.58-.265.899-.26a1.62 1.62 0 0 1 1.59 1.631Zm-5.889 21.255V40.4c0 .967-.378 1.347-1.33 1.35a962.69 962.69 0 0 1-5.887 0c-.972 0-1.353-.372-1.355-1.323 0-2.77-.014-5.541 0-8.312a4.296 4.296 0 0 1 1.245-3.039 4.279 4.279 0 0 1 6.058-.019 4.296 4.296 0 0 1 1.264 3.031c.02 1.365.005 2.728.005 4.09Zm-2.148 3.391v-7.258c0-1.41-.904-2.387-2.17-2.372-1.265.014-2.111.975-2.115 2.354v6.708c0 .191.024.383.036.568h4.25Zm-16.073-4.799v5.637c0 .843-.408 1.338-1.074 1.334-.665-.003-1.074-.493-1.074-1.341V29.126c0-.845.403-1.337 1.074-1.335.672.002 1.065.493 1.074 1.342.004 1.88 0 3.759 0 5.638ZM40.18 34.7v-5.57c0-.847.402-1.337 1.075-1.339.673-.002 1.074.492 1.074 1.338v11.275c0 .845-.405 1.338-1.074 1.338-.67 0-1.074-.491-1.074-1.338-.004-1.9 0-3.802 0-5.705Z"/>
</svg>
