<svg width="53" height="39" viewBox="0 0 60 39" fill="none" xmlns="http://www.w3.org/2000/svg">
<path d="M25.6418 28.2727C25.6418 28.8705 26.12 29.3488 26.7179 29.3488H27.5549C28.1527 29.3488 28.631 28.8705 28.631 28.2727V26.7188H25.5825L25.582 28.2727H25.6418Z" fill="#1C284C"/>
<path d="M9.68279 28.2727C9.68279 28.8705 10.1611 29.3488 10.7589 29.3488H11.5959C12.1937 29.3488 12.672 28.8705 12.672 28.2727V26.7188H9.62351L9.62305 28.2727H9.68279Z" fill="#1C284C"/>
<path d="M29.3478 16.7327H29.8858C30.2445 16.7327 30.5435 16.4337 30.5435 16.075V15.4772C30.5435 15.1185 30.2445 14.8196 29.8858 14.8196H28.8097L27.3754 9.91831C27.196 9.20091 26.5384 8.72266 25.8214 8.72266H12.6714C11.954 8.72266 11.2968 9.20092 11.1174 9.91831L9.68305 14.8196H8.54717C8.18847 14.8196 7.88955 15.1185 7.88955 15.4772V16.0153C7.88955 16.3739 8.18846 16.6729 8.54717 16.6729H9.08522C7.94934 17.4501 7.23242 18.7649 7.23242 20.2594L7.83026 25.0412C7.83026 25.639 8.30852 26.1173 8.90636 26.1173H29.4679C30.0657 26.1173 30.544 25.639 30.544 25.0412L31.1418 20.2594C31.1409 18.8245 30.424 17.5093 29.3479 16.7325L29.3478 16.7327ZM12.4926 10.3966C12.4926 10.3368 12.5524 10.3368 12.5524 10.3368H25.7024C25.7622 10.3368 25.7622 10.3368 25.7622 10.3966L27.376 15.9554C27.1368 15.8957 26.8977 15.8957 26.6586 15.8957H11.596C11.3569 15.8957 11.1177 15.8957 10.8786 15.9554L12.4926 10.3966ZM13.748 21.2753C13.748 21.634 13.4491 21.9329 13.0904 21.9329H10.5202C10.1615 21.9329 9.86257 21.634 9.86257 21.2753V20.7372C9.86257 20.3785 10.1615 20.0796 10.5202 20.0796H13.0904C13.4491 20.0796 13.748 20.3785 13.748 20.7372V21.2753ZM22.056 24.2636C22.056 24.3234 21.9963 24.3234 21.9963 24.3234H16.3178C16.258 24.3234 16.258 24.2636 16.258 24.2636V23.9647C16.258 23.9049 16.3178 23.9049 16.3178 23.9049H21.9963C22.056 23.9049 22.056 23.9647 22.056 23.9647V24.2636ZM22.056 23.0684C22.056 23.1282 21.9963 23.1282 21.9963 23.1282H16.3178C16.258 23.1282 16.258 23.0684 16.258 23.0684V22.7695C16.258 22.7097 16.3178 22.7097 16.3178 22.7097H21.9963C22.056 22.7097 22.056 22.7695 22.056 22.7695V23.0684ZM28.5117 21.2754C28.5117 21.6341 28.2128 21.933 27.8541 21.933H25.2839C24.9252 21.933 24.6263 21.6341 24.6263 21.2754V20.7373C24.6263 20.3786 24.9252 20.0797 25.2839 20.0797H27.8541C28.2128 20.0797 28.5117 20.3786 28.5117 20.7373V21.2754Z" fill="#1C284C"/>
<path d="M51.7622 0H4.96105C2.21145 0 0 2.21157 0 4.96105V33.1132C0 35.8628 2.21157 38.0742 4.96105 38.0742H51.7622C54.5118 38.0742 56.7233 35.8627 56.7233 33.1132V4.96105C56.7233 2.27125 54.5117 0 51.7622 0ZM54.2128 33.173C54.2128 34.5475 53.077 35.6834 51.7024 35.6834H4.90126C3.5267 35.6834 2.39083 34.5475 2.39083 33.173V5.02085C2.39083 3.64628 3.52672 2.51043 4.90126 2.51043H51.7024C53.077 2.51043 54.2128 3.64631 54.2128 5.02085V33.173Z" fill="#1C284C"/>
<path d="M45.2474 13.7465C45.0681 13.5672 44.829 13.6867 44.829 13.9259V16.8548H35.2655C35.1459 16.8548 35.0264 16.9744 35.0264 17.094V21.0388C35.0264 21.1583 35.1459 21.2779 35.2655 21.2779H44.829V24.2069C44.829 24.446 45.0681 24.5058 45.2474 24.3862L50.3879 19.2458C50.5074 19.1262 50.5074 19.0067 50.3879 18.8871L45.2474 13.7465Z" fill="#1C284C"/>
</svg>
