<svg xmlns="http://www.w3.org/2000/svg" width="61" height="60" fill="none" viewBox="0 0 61 60">
  <path fill="#1C284C" d="M13.556 57.133v1.857H11.64V33.92H9.672v23.244c.013.301-.006.604-.057.901a2.424 2.424 0 0 1-2.622 1.924c-1.256-.138-2.154-1.162-2.156-2.499V33.912c-.863-.154-.98-.76-.978-1.523.02-5.705.01-11.41.01-17.116v-.707a9.73 9.73 0 0 1-1.165-.413c-1.012-.5-1.647-1.312-1.723-2.451-.076-1.14.434-2.015 1.406-2.626C6.832 6.274 11.279 3.468 15.728.659c1.435-.906 2.84-.864 4.241.073 4.152 2.782 8.307 5.558 12.464 8.33 1.036.69 1.593 1.632 1.39 2.865-.218 1.313-1.065 2.13-2.354 2.475-.117.031-.236.055-.352.088a.703.703 0 0 0-.121.06v1.901h24.752c3.196 0 5.223 2.017 5.223 5.201v36.953c0 1.112-.296 1.406-1.39 1.388-9.326-.137-17.416-7.272-18.706-16.518-.186-1.333-.15-2.7-.365-4.027-.341-2.115-1.54-3.683-3.403-4.738-.08-.045-.173-.073-.333-.14v.59c0 3.265 0 6.531-.01 9.798 0 .392.093.59.485.746a2.363 2.363 0 0 1 1.416 2.659 2.404 2.404 0 0 1-2.366 1.953c-1.854.018-3.718 0-5.565 0H30v7.03c0 1.566-1.015 2.659-2.444 2.646-1.401-.013-2.392-1.097-2.393-2.636V33.91h-1.94v25.091h-1.914v-1.868h-7.753Zm-3.88-25.225v-.705c0-2.298-.01-4.594.01-6.892a8.467 8.467 0 0 1 .19-1.796c.87-3.832 4.449-6.437 8.255-6.038a7.759 7.759 0 0 1 7.03 7.748c.013 2.337 0 4.675 0 7.012v.66h3.827V14.563H5.833v17.344h3.843Zm43.577-13.512c-.008.18-.02.299-.02.417 0 8.745-.002 17.49-.008 26.235 0 .364.122.51.453.646a2.366 2.366 0 0 1 1.477 2.287 2.451 2.451 0 0 1-1.626 2.198c-.132.048-.263.102-.47.183a11.923 11.923 0 0 0 5.917 1.86.837.837 0 0 0 .055-.162c0-10.317-.003-20.634-.01-30.95 0-1.415-1.213-2.613-2.624-2.693-1.028-.068-2.056-.021-3.149-.021h.005Zm-35.808-5.818h12.882c.221 0 .498.063.646-.044.345-.236.755-.514.89-.87.087-.224-.188-.746-.445-.92-4.203-2.848-8.431-5.657-12.651-8.483a1.624 1.624 0 0 0-1.92-.024c-4.462 2.82-8.924 5.628-13.38 8.466-.262.162-.56.59-.52.844.054.333.38.674.675.9.192.147.536.128.808.128 4.338.008 8.675.01 13.01.004l.005-.001Zm27.154 5.835c-.036.062-.053.08-.053.096-.007 4.292-.01 8.584-.01 12.877a.9.9 0 0 0 .173.493c1.894 2.6 2.748 5.515 2.748 8.718.018 1.558.38 3.092 1.06 4.493.068.147.208.365.323.37.808.03 1.633.016 2.44.016v-27.06l-6.681-.003Zm14.423 35.852c-1.02-.177-1.987-.279-2.92-.516-6.234-1.584-10.485-7.062-10.616-13.504-.105-5.171-2.553-8.913-7.225-11.15-2.303-1.106-4.771-1.132-7.252-.995v3.833h2.614c5.127 0 8.828 3.734 8.99 8.849.224 7.16 3.623 12.376 10.008 15.613 1.99 1.01 4.136 1.507 6.4 1.627v-3.758Zm-35.809-22.36c0-2.733.033-5.394-.024-8.053a5.572 5.572 0 0 0-.495-2.036 5.79 5.79 0 0 0-11.076 2.251c-.031 2.499 0 4.999 0 7.499.007.114.022.227.045.34h11.55ZM34.815 45.46V33.94h-4.784v11.52l4.784-.002Zm1.987-18.896a14.478 14.478 0 0 1 5.746 2.98V18.426h-5.746v8.137Zm-2.006-.436v-7.692h-3.799v7.692h3.799Zm-28.027 7.77v23.539c-.012.352.114.62.497.608.384-.01.485-.295.47-.636V33.897H6.77Zm20.325 0v23.355c0 .12-.042.279.018.354.132.172.305.392.485.417.13.02.338-.223.438-.392.07-.121.024-.314.024-.475V33.899l-.965-.002ZM13.57 35.764h7.668v-1.86H13.57v1.86Zm0 3.878h7.675v-1.858H13.58l-.01 1.858Zm7.686 2.01h-7.663v1.864h7.666l-.003-1.863Zm0 3.871h-7.663v1.863h7.666l-.003-1.863Zm-.011 5.736v-1.86H13.58v1.861l7.665-.001Zm-7.665 3.86h7.666v-1.861H13.58v1.861Zm16.451-6.732h6.03c.35 0 .69-.039.7-.467.012-.47-.349-.508-.719-.506h-5.657a2.631 2.631 0 0 0-.346.044l-.008.929Zm20.012-.97-.131.204c.362.253.693.632 1.094.732.51.127 1.077.027 1.617.032.352 0 .646-.144.573-.506-.038-.185-.362-.43-.569-.44-.866-.048-1.73-.019-2.592-.019l.008-.003Z"/>
</svg>
