<svg xmlns="http://www.w3.org/2000/svg" width="58" height="60" fill="none" viewBox="0 0 58 60">
  <path fill="#1C284C" d="M26.648 59.002V14.705a7.208 7.208 0 0 0 4.382-.093 7.079 7.079 0 0 0 3.489-2.606h4.335c.27 0 .529-.106.72-.293l1.036-1.02.386.76c.172.339.524.553.91.553h2.034a1.02 1.02 0 0 0 .915-.553l.102-.211.102.21c.191.316.537.509.91.509s.719-.193.91-.508l.74-1.447h.39v1c0 .265.106.52.297.707.191.187.45.293.72.293h3.051c.27 0 .528-.106.72-.293l3.05-3a.988.988 0 0 0 0-1.414l-3.05-3a1.028 1.028 0 0 0-.72-.293H34.518a7.18 7.18 0 0 0-5.836-3 7.167 7.167 0 0 0-3.015.669A7.884 7.884 0 0 0 20.545.007a8.27 8.27 0 0 0-4.974 1.685 8.031 8.031 0 0 0-2.9 4.314H1.218c-.562 0-1.017.448-1.017 1v51.996c0 .265.107.52.297.708.191.187.45.292.72.292H25.63c.27 0 .528-.105.719-.292a.992.992 0 0 0 .298-.708Zm6.435-53.497c.181.31.516.5.88.5h17.693l2.034 2-2.034 2h-1.613v-1a.991.991 0 0 0-.299-.707 1.026 1.026 0 0 0-.719-.293h-2.034a1.019 1.019 0 0 0-.916.553l-.102.211-.102-.21h.001a1.063 1.063 0 0 0-.91-.51c-.374 0-.72.194-.91.51l-.741 1.446h-.777l-.73-1.447a1.027 1.027 0 0 0-1.627-.26l-1.744 1.707h-4.47a1.02 1.02 0 0 0-.88.5 5.123 5.123 0 0 1-4.4 2.5 5.117 5.117 0 0 1-1.737-.32 8.83 8.83 0 0 0 1.585-3.88 2.01 2.01 0 0 0 1.098-1.3c.152-.571.04-1.18-.307-1.662a2.055 2.055 0 0 0-3.104-.255 1.98 1.98 0 0 0-.583 1.59c.054.588.37 1.122.862 1.46a6.832 6.832 0 0 1-1.313 2.979c-.056-.052-.112-.1-.165-.158a5.116 5.116 0 0 1-.947-1.372c-.032-.067-.069-.132-.097-.2a4.76 4.76 0 0 1-.291-1.005 4.933 4.933 0 0 1 1.292-4.309 5.128 5.128 0 0 1 4.292-1.542 5.083 5.083 0 0 1 3.815 2.474Zm-12.538-3.5a6.101 6.101 0 0 1 3.325.857 6.982 6.982 0 0 0-2.002 3.143h-7.07a6.037 6.037 0 0 1 2.232-2.891 6.205 6.205 0 0 1 3.516-1.108ZM2.236 58.002V8.005h19.326c.001.267.018.534.05.8.008.062.02.123.03.184.029.21.068.416.117.62.013.056.029.112.045.17.057.215.125.427.203.633.014.039.027.076.042.113a6.994 6.994 0 0 0 1.26 2.056c.029.034.06.065.09.1.102.107.195.214.305.315a6.272 6.272 0 0 1-3.418 1.009 6.168 6.168 0 0 1-3.911-1.4c.065-.194.1-.396.102-.6a1.99 1.99 0 0 0-.646-1.47 2.06 2.06 0 0 0-1.533-.537 2.051 2.051 0 0 0-1.446.737 1.98 1.98 0 0 0-.437 1.542c.079.55.387 1.046.85 1.365a2.07 2.07 0 0 0 1.596.319 8.221 8.221 0 0 0 5.425 2.043 8.44 8.44 0 0 0 4.328-1.2v43.197H2.236Z"/>
  <path fill="#1C284C" d="M11.392 54.002H6.306v-3c0-.552-.456-1-1.017-1a1.01 1.01 0 0 0-1.018 1v4c0 .265.107.52.298.707.191.188.45.293.72.293h6.103c.562 0 1.017-.447 1.017-1 0-.552-.456-1-1.017-1Zm8.137-31.998H7.323c-.562 0-1.017.448-1.017 1v19.998c0 .265.107.52.298.707.19.188.45.293.72.293h12.205c.27 0 .529-.105.719-.293a.992.992 0 0 0 .298-.707V23.004a.991.991 0 0 0-.298-.707 1.025 1.025 0 0 0-.72-.293Zm-1.017 19.998H8.34V24.003h10.172v18Z"/>
  <path fill="#1C284C" d="M15.46 34.004h1.017c.562 0 1.017-.448 1.017-1 0-.553-.455-1-1.017-1H15.46c-.562 0-1.018.447-1.018 1 0 .552.456 1 1.018 1Zm40.686-14.999a4.105 4.105 0 0 1-2.877-1.171 3.965 3.965 0 0 1-1.192-2.829c0-.552-.455-1-1.017-1-.562 0-1.017.448-1.017 1 0 1.061-.43 2.078-1.192 2.829a4.104 4.104 0 0 1-2.877 1.171c-.562 0-1.017.448-1.017 1s.455 1 1.017 1c1.08 0 2.114.421 2.877 1.171a3.968 3.968 0 0 1 1.192 2.828c0 .553.455 1 1.017 1 .562 0 1.017-.447 1.017-1 0-1.06.428-2.078 1.192-2.828a4.107 4.107 0 0 1 2.877-1.171c.561 0 1.017-.448 1.017-1s-.456-1-1.017-1Zm-5.086 2.69a6.09 6.09 0 0 0-1.72-1.69 6.09 6.09 0 0 0 1.72-1.69 6.091 6.091 0 0 0 1.72 1.69 6.09 6.09 0 0 0-1.72 1.69Z"/>
</svg>
