<svg xmlns="http://www.w3.org/2000/svg" width="51" height="60" fill="none" viewBox="0 0 51 60">
  <path fill="#1C284C" d="M24.28 43.77c-5.925-.399-12.183-2.729-15.18-8.255-3.128-5.792 1.532-8.922 4.461-13.582-.4-.067-.799-.133-1.198-.133.732 1.864-.466 4.66.799 6.325.999 1.331 3.13.932 4.394.133 2.063-1.332 2.53-3.662 2.197-5.926-.267-2.063-1.199-3.795-1.798-5.725-.999-3.196.333-6.059 1.93-8.789-.399-.133-.798-.2-1.264-.332.2 2.13 1.265 7.056 4.327 6.657 1.53-.2 2.13-1.664 2.33-2.995.466-3.596-2.796-6.392-.732-9.92-.4-.067-.8-.133-1.2-.133.4 1.997 1.532 3.262 2.797 4.793 2.13 2.53 3.662 5.193 3.595 8.588-.066 4.261-2.53 7.39-.865 11.585.532 1.265 2.396 5.126 4.327 3.728.732-.532.866-2.063.932-2.862.333-2.53-1.398-8.123 1.332-9.654-.333-.266-.666-.533-.999-.732-.866 6.325 6.125 10.252 4.927 16.511-1.13 6.324-8.854 10.984-15.113 10.719-.865-.067-.865 1.265 0 1.331 5.593.267 11.918-3.129 14.847-7.855 1.332-2.13 2.064-4.727 1.731-7.324-.733-4.793-5.726-7.989-5.06-13.182.067-.533-.4-1.065-.999-.732-2.862 1.597-2.063 5.192-1.93 7.922.066 1.664 0 6.458-2.13 2.73-.733-1.199-1.332-2.797-1.332-4.261 0-2.33 1.332-4.594 1.597-6.924.134-1.464.067-2.996-.332-4.46-.467-1.731-1.266-3.33-2.33-4.794-1.399-1.864-3.263-3.262-3.73-5.725-.132-.6-.931-.666-1.198-.133-1.864 3.195-.4 4.926.4 8.122.2.732.4 1.598.133 2.33-.466 1.332-1.997 1.464-2.863.333-.666-.932-.999-2.73-1.065-3.862-.067-.599-.866-.932-1.266-.333-1.132 1.93-2.263 4.061-2.463 6.325-.2 2.33.733 4.061 1.465 6.192.532 1.664 1.198 3.595.665 5.393-.666 2.263-3.595 4.06-4.393.799-.333-1.465.2-2.863-.333-4.327-.2-.533-.866-.666-1.199-.134-1.864 2.863-5.326 5.526-5.792 9.122-.267 1.997.4 4.06 1.332 5.792 3.195 5.925 9.92 8.455 16.31 8.855.801.13.801-1.2-.065-1.2h.002Z"/>
  <path fill="#1C284C" d="M24.28 41.173c-4.127-.533-7.99-3.662-5.925-8.256 1.065-2.33 3.328-3.862 4.86-5.859-.4-.133-.8-.2-1.266-.333-.266 2.33.067 8.19 2.663 9.587 3.063 1.664 3.729-3.196 3.929-5.06-.4.133-.8.2-1.265.333 2.264 3.33 2.73 9.854-2.996 9.588-.866-.067-.866 1.265 0 1.331 6.591.267 6.99-7.323 4.194-11.584-.4-.6-1.198-.333-1.265.333-.067.666-.133 2.53-.6 2.996-1.797 1.797-2.396-.6-2.662-1.531-.6-1.997-.933-3.929-.733-5.992.067-.733-.866-.8-1.265-.333-2.463 3.196-6.192 5.526-5.46 10.12.667 3.994 3.995 5.592 7.657 5.991 1 .134 1-1.198.134-1.331Zm-3.13 2.796c-1.664 2.197-3.795 3.795-5.925 5.459-1.265.932-3.13 2.064-3.928 3.462-1.465 2.796 1.73 5.926 4.394 6.059 2.263.133 5.459-1.664 4.593-4.328-.932-2.796-5.26-4.393-7.656-2.663-.666.467 0 1.665.666 1.133 1.332-.933 2.863-.533 4.127.266 2.464 1.53.134 4.727-2.33 4.127-1.93-.466-3.462-2.663-2.33-4.46.466-.733 1.598-1.398 2.264-1.93 2.596-2.064 5.193-3.929 7.19-6.525.6-.6-.599-1.266-1.065-.6Z"/>
  <path fill="#1C284C" d="M19.687 56.352c1.265-1.53 2.13-3.395 3.062-5.126 1.199-2.197 2.397-4.327 3.596-6.525.4-.732-.733-1.398-1.132-.666-1.066 1.93-2.13 3.862-3.196 5.726-1 1.864-1.93 3.995-3.263 5.659-.532.666.4 1.598.933.932Z"/>
  <path fill="#1C284C" d="M25.413 44.834c1.198 2.797 2.396 5.526 3.595 8.323.8 1.864 1.465 4.46 3.063 5.858 2.064 1.731 5.792 1.066 7.39-1.065 1.53-2.197.4-5.26-2.264-5.859-3.529-.732-5.126 2.996-5.726 5.726-.2.865 1.132 1.198 1.266.333.2-1.066.466-2.197 1.065-3.13.466-.998 1.199-1.397 2.33-1.132 2.264-.799 2.863.4 1.864 3.662-2.197 2.33-5.26.8-6.391-1.597-1.798-3.862-3.396-7.856-5.127-11.851-.267-.732-1.398-.067-1.065.732Z"/>
  <path fill="#1C284C" d="M31.005 43.637c2.197 2.996 4.127 6.125 5.992 9.321.4.733 1.598.067 1.132-.666a92.233 92.233 0 0 0-5.992-9.32c-.467-.667-1.598 0-1.132.665Zm1.598-.666c2.663 1.664 5.326 3.396 7.856 5.26 1.398.998 3.329 3.329 4.993 3.728 2.13.533 5.126-1.598 5.26-3.728.066-1.731-.666-4.261-2.797-3.729-2.463.6-3.196 4.46-3.262 6.525 0 .866 1.332.866 1.332 0s.133-1.664.4-2.464c.332-1.065 1.464-3.462 2.862-1.73.733.932-.133 2.396-.866 2.93-1.398.998-2.463.732-3.728-.067-3.862-2.464-7.39-5.46-11.252-7.923-.865-.4-1.53.732-.798 1.198Z"/>
  <path fill="#1C284C" d="M36.398 40.041c3.862 2.197 7.856 4.261 12.05 5.726.8.266 1.133-.999.334-1.265-4.128-1.398-7.99-3.396-11.718-5.593-.733-.466-1.399.733-.666 1.132Zm-19.574 2.397c-3.329 1.398-6.658 2.663-9.92 4.128-1.597.732-2.396 1.864-2.53 3.662-.332 4.394 3.862 7.19 7.856 6.059.8-.267.467-1.532-.332-1.266-1.998.6-3.995.067-5.26-1.597-.666-.866-1.199-2.53-.799-3.662.533-1.465 1.531-1.93 2.863-2.464l8.588-3.595c.666-.266.333-1.597-.466-1.265Z"/>
  <path fill="#1C284C" d="M7.238 48.23c.932-.665 2.53-.066 3.462.334 1.265.532 2.063 1.664 2.197 3.062.066.866 1.397.866 1.331 0-.133-1.797-1.065-3.329-2.73-4.127-1.397-.666-3.595-1.398-4.926-.4-.732.466-.066 1.664.666 1.132Z"/>
  <path fill="#1C284C" d="M.18 42.704c-.134 1.531-.2 3.263.998 4.394 1.199 1.132 3.196.999 4.66 1.132.866.067.866-1.265 0-1.332-1.132-.133-2.862 0-3.728-.732-.932-.866-.733-2.33-.6-3.462.067-.865-1.264-.799-1.33 0Z"/>
  <path fill="#1C284C" d="M1.711 42.704c.067-.2 4.394-.533 4.993-.666 1.93-.266 3.929-.532 5.859-.865.866-.134.466-1.398-.333-1.266-2.663.4-5.326.733-7.99 1.132-1.264.2-3.262-.066-3.86 1.266-.267.865 1.065 1.198 1.331.4Zm2.597 3.53c.066.2.133.333.2.532.266.8 1.53.467 1.264-.332-.066-.2-.133-.333-.2-.533-.266-.866-1.53-.533-1.264.333Zm1.465-.999c.133.4.2.799.333 1.132.267.799 1.531.466 1.265-.333-.133-.4-.2-.8-.333-1.132-.2-.866-1.465-.533-1.265.333Zm2.197-.666c.132.266.199.532.332.865.133.333.466.6.8.467.332-.067.598-.467.465-.8-.133-.266-.2-.532-.333-.799-.133-.333-.466-.599-.799-.466-.333 0-.6.4-.466.733Zm2.662-.666c.2.266.333.532.533.799.466.732 1.597.066 1.132-.666-.2-.267-.333-.533-.533-.8-.4-.731-1.532-.065-1.132.667Zm1.797-.666c.067.2.133.333.2.466.266.799 1.53.466 1.265-.333-.067-.133-.133-.333-.2-.466-.2-.866-1.53-.533-1.265.333Zm6.992 9.521c.133.133.333.2.466.333.267.2.733.066.933-.267.2-.332.066-.732-.267-.932-.133-.133-.333-.2-.466-.333-.266-.2-.732-.066-.932.267a.824.824 0 0 0 .266.932Zm.866-2.064c.133.2.333.333.466.532.6.6 1.531-.332.932-.932-.133-.2-.333-.333-.466-.532-.6-.666-1.531.266-.932.932Zm1.33-1.598c.2.133.467.333.666.466.267.2.733.067.933-.266.2-.333.066-.733-.267-.932-.2-.133-.466-.333-.666-.466-.266-.2-.732-.067-.932.266-.2.333-.066.732.267.932Zm.999-1.931.334.333c.599.6 1.53-.333.932-.932l-.333-.333c-.6-.599-1.532.333-.933.932Zm-8.454 1.532c.2.333.466.666.666.999.466.732 1.597.066 1.132-.666-.2-.333-.467-.666-.666-.999-.4-.732-1.599-.066-1.132.666Zm2.063-1.998.2.799c.2.866 1.464.466 1.265-.333l-.2-.799c-.133-.865-1.398-.466-1.265.333Zm1.531-.666.333.333c.6.6 1.531-.333.932-.932l-.333-.333c-.6-.6-1.53.333-.932.932Zm10.387 1.132c.2-.266.4-.599.665-.865.2-.267.067-.733-.266-.932-.333-.2-.666-.067-.932.266-.2.266-.4.6-.666.865-.2.267-.067.733.266.933.333.2.733.066.933-.267Zm.797 3.13c.467-.2.866-.6 1.066-1.066.133-.333.067-.732-.266-.932-.267-.2-.733-.067-.933.266-.133.267-.266.466-.599.6-.333.133-.4.599-.266.932a.93.93 0 0 0 .999.2Zm1.732 1.597c.2-.333.333-.666.533-.998.4-.733-.733-1.398-1.132-.666-.2.332-.333.666-.533.998-.466.733.666 1.399 1.132.666Zm.666 3.13c.2-.333.466-.666.666-1 .2-.266.066-.732-.267-.932-.332-.2-.732-.066-.932.267-.2.333-.466.666-.666.999-.2.266-.066.732.267.932.333.2.732.067.932-.266Zm4.194-10.986c.533 0 1-.266 1.199-.666.466-.732-.733-1.398-1.132-.666 0 .067.133.067-.067 0-.799 0-.799 1.332 0 1.332Zm2.863 1.464.333-.333c.599-.599-.333-1.53-.933-.932l-.333.333c-.665.6.267 1.532.933.932Zm1.731 1.199c.2-.2.332-.466.532-.666.2-.266.067-.732-.266-.932-.333-.2-.666-.067-.932.266-.2.2-.333.466-.533.666-.2.266-.067.733.266.932.4.2.733 0 .933-.266Zm1.864 1.531c.2-.266.334-.532.533-.865.466-.733-.732-1.398-1.132-.666-.2.266-.332.533-.532.866-.466.732.666 1.398 1.132.666Z"/>
</svg>
