<svg xmlns="http://www.w3.org/2000/svg" width="59" height="60" fill="none" viewBox="0 0 59 60">
  <path fill="#1C284C" d="M.826 60.002h56.98a.74.74 0 0 0 .731-.75V24.864c0-1.636-1.295-2.966-2.888-2.966h-1.23a5.81 5.81 0 0 0 2.94-5.078c0-3.187-2.526-5.78-5.63-5.78-3.105 0-5.63 2.593-5.63 5.78a5.81 5.81 0 0 0 2.94 5.078h-1.23c-1.593 0-2.89 1.33-2.89 2.966v3.048h-1.436a8.921 8.921 0 0 0 .162-1.603c0-3.508-2.034-6.636-5.132-8.003.166-.627.25-1.268.25-1.913 0-4.067-3.223-7.377-7.185-7.377-.342 0-.681.034-1.02.084a7.203 7.203 0 0 0-1.96-1.352 6.272 6.272 0 0 0 .184-1.51c0-3.439-2.724-6.236-6.073-6.236-3.1 0-5.666 2.379-6.025 5.493-2.009 1.065-3.284 3.192-3.284 5.54 0 1.138.3 2.238.87 3.208a8.116 8.116 0 0 0-.87 3.652c0 4.555 4.022 8.17 7.89 8.778-.175.403-.32.816-.438 1.239h-7.14v-3.048c0-1.636-1.296-2.967-2.889-2.967h-1.23a5.81 5.81 0 0 0 2.94-5.077c0-3.187-2.525-5.78-5.63-5.78-3.104 0-5.63 2.593-5.63 5.78a5.81 5.81 0 0 0 2.94 5.077h-1.23c-1.592 0-2.888 1.33-2.888 2.967v34.388c0 .414.326.75.73.75Zm46.733-43.181c0-2.36 1.87-4.281 4.17-4.281 2.298 0 4.17 1.92 4.17 4.28 0 2.36-1.871 4.282-4.17 4.282s-4.17-1.921-4.17-4.282Zm-44.823 0c0-2.36 1.87-4.281 4.169-4.281 2.298 0 4.17 1.92 4.17 4.28 0 2.36-1.87 4.282-4.17 4.282-2.299 0-4.17-1.921-4.17-4.282Zm43.645 8.043c0-.809.64-1.467 1.428-1.467h7.84c.786 0 1.427.658 1.427 1.467v10.213h-3.394a.74.74 0 0 0-.73.75c0 .415.326.75.73.75h3.394v10.07h-3.394a.74.74 0 0 0-.73.75c0 .414.326.75.73.75h3.394v10.356H46.381v-4.998h3.394a.74.74 0 0 0 .73-.75.74.74 0 0 0-.73-.75H46.38v-10.07h3.394a.74.74 0 0 0 .73-.75.74.74 0 0 0-.73-.75H46.38V30.367h3.394a.74.74 0 0 0 .73-.75.74.74 0 0 0-.73-.75H46.38v-4.003Zm-31.519-6.97c0-1.155.307-2.296.889-3.299a.767.767 0 0 0-.033-.819 4.787 4.787 0 0 1-.856-2.74c0-1.9 1.1-3.611 2.803-4.358a.751.751 0 0 0 .443-.656c.112-2.534 2.133-4.52 4.601-4.52 2.544 0 4.613 2.125 4.613 4.736a4.83 4.83 0 0 1-.307 1.685.766.766 0 0 0 .023.588.725.725 0 0 0 .428.39c.478.164.93.4 1.35.686-2.39 1.023-4.089 3.316-4.372 6.009-.369.19-.71.42-1.035.666V8.527a.74.74 0 0 0-.73-.75.74.74 0 0 0-.73.75v4.676a2.809 2.809 0 0 1-2.021-2.71.74.74 0 0 0-.73-.75.74.74 0 0 0-.731.75c0 2.127 1.506 3.897 3.48 4.254v3.003a7.444 7.444 0 0 0-1.32 3.061C19 20.01 17.91 18.29 17.91 16.396a.74.74 0 0 0-.73-.75.74.74 0 0 0-.73.75c0 2.662 1.646 5.064 4.05 5.988.024.952.218 1.88.585 2.742-3.115-.674-6.223-3.596-6.223-7.232Zm8.182 8.514c.01-.019.014-.039.023-.058a.76.76 0 0 0 .072-.288c0-.013.007-.024.007-.038l-.002-.013a.758.758 0 0 0-.05-.257c-.01-.024-.023-.043-.033-.066-.017-.033-.029-.069-.05-.1a5.94 5.94 0 0 1-1.062-3.4c0-2.358 1.365-4.48 3.478-5.407a.751.751 0 0 0 .443-.656c.118-2.668 1.97-4.92 4.505-5.479.393-.085.798-.13 1.204-.13 3.157 0 5.724 2.636 5.724 5.877 0 .707-.128 1.41-.381 2.091a.77.77 0 0 0 .023.59c.084.184.24.324.429.39 2.877.982 4.81 3.734 4.81 6.844a7.41 7.41 0 0 1-.188 1.603h-3.792a7.699 7.699 0 0 0 .71-3.238.74.74 0 0 0-.73-.75.74.74 0 0 0-.731.75 6.133 6.133 0 0 1-.928 3.238h-4.253v-8.754a.74.74 0 0 0-.73-.75.74.74 0 0 0-.731.75v5.86c-1.566-.346-2.745-1.775-2.745-3.485a.74.74 0 0 0-.731-.75.74.74 0 0 0-.73.75c0 2.539 1.83 4.642 4.205 5.006v1.373l-8.44.002a8.108 8.108 0 0 1 .674-1.505Zm21.876 3.004v29.09H13.713v-29.09H44.92ZM2.984 23.398h7.84c.788 0 1.428.657 1.428 1.466v10.213H8.86a.74.74 0 0 0-.731.75c0 .415.327.75.73.75h3.394v10.07H8.86a.74.74 0 0 0-.731.75c0 .415.327.75.73.75h3.394v10.356H1.557v-4.998h3.394a.74.74 0 0 0 .73-.75.74.74 0 0 0-.73-.75H1.557v-10.07h3.394a.74.74 0 0 0 .73-.75.74.74 0 0 0-.73-.75H1.557V30.367h3.394a.74.74 0 0 0 .73-.75.74.74 0 0 0-.73-.75H1.557v-4.003c0-.809.64-1.467 1.427-1.467Z"/>
  <path fill="#1C284C" d="M21.218 49.198h16.197a.74.74 0 0 0 .73-.75v-9.935a.74.74 0 0 0-.73-.75H21.217a.74.74 0 0 0-.73.75v9.934c0 .415.327.75.73.75Zm.73-9.935h14.737v8.435H21.949v-8.435Z"/>
  <path fill="#1C284C" d="M32.446 41.055h-6.26a.74.74 0 0 0-.73.75c0 .414.327.75.73.75h6.26a.74.74 0 0 0 .73-.75.74.74 0 0 0-.73-.75Zm0 3.165h-6.26a.74.74 0 0 0-.73.751c0 .415.327.75.73.75h6.26a.74.74 0 0 0 .73-.75.74.74 0 0 0-.73-.75Z"/>
</svg>
