<svg xmlns="http://www.w3.org/2000/svg" width="45" height="60" fill="none" viewBox="0 0 45 60">
  <path fill="#1C284C" d="M11.754 15.17a4.173 4.173 0 1 1-4.165 4.178 4.173 4.173 0 0 1 4.165-4.172m0-2.086a6.26 6.26 0 0 0-6.258 6.258 6.258 6.258 0 1 0 12.516 0 6.254 6.254 0 0 0-6.258-6.258Zm20.854 2.08a4.173 4.173 0 1 1-4.172 4.178 4.171 4.171 0 0 1 4.172-4.172m0-2.086a6.258 6.258 0 1 0 6.258 6.258 6.251 6.251 0 0 0-6.258-6.258Z"/>
  <path fill="#1C284C" d="M16.97 24.554a4.172 4.172 0 1 1-.006 0m0-2.086a6.256 6.256 0 0 0-4.434 10.68 6.257 6.257 0 0 0 10.686-4.423 6.252 6.252 0 0 0-6.252-6.257Z"/>
  <path fill="#1C284C" d="M27.395 24.554a4.173 4.173 0 1 1 0 8.345 4.173 4.173 0 0 1 0-8.345Zm0-2.086a6.259 6.259 0 1 0 0 12.517 6.259 6.259 0 0 0 0-12.517ZM6.455 24.82a4.19 4.19 0 0 1 2.964 7.156 4.19 4.19 0 1 1-5.927-5.927 4.202 4.202 0 0 1 2.963-1.23Zm0-2.1a6.29 6.29 0 1 0-.001 12.582 6.29 6.29 0 0 0 0-12.581Z"/>
  <path fill="#1C284C" d="M22.183 33.937a4.173 4.173 0 1 1-4.172 4.172 4.178 4.178 0 0 1 4.172-4.172Zm0-2.086a6.258 6.258 0 1 0-.012 12.516 6.258 6.258 0 0 0 .012-12.516Z"/>
  <path fill="#1C284C" d="M32.607 33.937a4.172 4.172 0 1 1-4.171 4.172 4.178 4.178 0 0 1 4.171-4.172Zm0-2.086a6.258 6.258 0 1 0 6.258 6.258 6.25 6.25 0 0 0-6.258-6.259Zm-20.853 2.086a4.173 4.173 0 0 1 2.96 7.12 4.175 4.175 0 0 1-5.903.003 4.173 4.173 0 0 1-1.222-2.951 4.18 4.18 0 0 1 4.165-4.172m0-2.087A6.26 6.26 0 0 0 7.33 42.534a6.26 6.26 0 0 0 8.852-8.852 6.252 6.252 0 0 0-4.427-1.832Z"/>
  <path fill="#1C284C" d="M26.875 43.34a3.653 3.653 0 1 1-3.652 3.646 3.646 3.646 0 0 1 3.652-3.645m0-2.087a5.737 5.737 0 1 0-.015 11.475 5.737 5.737 0 0 0 .015-11.474Z"/>
  <path fill="#1C284C" d="M17.491 43.34a3.653 3.653 0 1 1-3.652 3.646 3.646 3.646 0 0 1 3.652-3.645Zm0-2.086a5.735 5.735 0 0 0-5.745 5.736 5.738 5.738 0 1 0 5.745-5.736Z"/>
  <path fill="#1C284C" d="M22.183 51.659a3.132 3.132 0 1 1 0 6.264 3.132 3.132 0 0 1 0-6.264Zm0-2.08a5.21 5.21 0 1 0 0 10.421 5.21 5.21 0 0 0 0-10.42Zm15.643-25.025a4.17 4.17 0 1 1 0 8.344 4.17 4.17 0 0 1-4.172-4.173 4.173 4.173 0 0 1 4.172-4.171Zm0-2.086a6.256 6.256 0 0 0-4.434 10.68 6.258 6.258 0 1 0 4.434-10.68ZM22.53 14.777a1.033 1.033 0 0 1-1.033-.934c-.094-.88-.867-8.664.06-11.156A4.298 4.298 0 0 1 24.889.021c1.134-.12 2.826.274 4.405 2.806a1.041 1.041 0 1 1-1.765 1.106c-.533-.873-1.407-1.913-2.4-1.819a2.226 2.226 0 0 0-1.62 1.293c-.566 1.54-.266 7.084.06 10.223a1.046 1.046 0 0 1-.932 1.146h-.107Z"/>
  <path fill="#1C284C" d="M23.817 13.737H15.82l-5.212-6.512h7.997l5.212 6.512ZM16.84 11.65h2.666l-1.873-2.34h-2.666l1.873 2.34Z"/>
  <path fill="#1C284C" d="M22.183 15.17a4.172 4.172 0 1 1-4.172 4.178 4.17 4.17 0 0 1 4.172-4.172m0-2.086a6.258 6.258 0 1 0 6.252 6.258 6.253 6.253 0 0 0-6.252-6.258Z"/>
</svg>
