<svg xmlns="http://www.w3.org/2000/svg" width="51" height="60" fill="none" viewBox="0 0 51 60">
  <path fill="#1C284C" d="m4.767 52.943 19.999 7c.212.08.447.08.66 0l19.998-7a1 1 0 0 0 .67-.94v-9.76l3.36-1.309a.999.999 0 0 0 .53-1.38l-4-8a.938.938 0 0 0-.55-.499l-11.34-3.96v-.09h9a1 1 0 0 0 .81-1.58l-9.81-13.738v-1.85a3.002 3.002 0 0 0-.88-2.12L25.805.298a.998.998 0 0 0-1.42 0l-7.409 7.42a3.001 3.001 0 0 0-.88 2.12v1.849l-9.81 13.738a1 1 0 0 0 .81 1.58h9v.09l-11.33 4h.001a.943.943 0 0 0-.55.5l-4 8a1 1 0 0 0 0 .819 1 1 0 0 0 .59.57l3.29 1.19v9.83a1 1 0 0 0 .67.939Zm29.328-37.817 7.06 9.879h-7.06v-9.879Zm-10 42.466-17.998-6.3v-8.389l13.648 5a.999.999 0 0 0 1.2-.41l3.15-5v15.099Zm1-19.648-1.999-.7v-2.24h4v2.24l-2 .7Zm-3.998-4.94v-1h7.999v1h-8Zm22.997 18.289-18 6.3v-15.59l4.2 5.6a1 1 0 0 0 .8.4.923.923 0 0 0 .36-.07l12.64-4.93v8.29Zm3.62-11.82-16.28 6.32-4.72-6.3 17.879-6.259 3.12 6.24Zm-13.619-8.468v-1.79l8 2.79-13 4.539v-1.54h1a1.002 1.002 0 0 0 1-1v-2h2a1 1 0 0 0 1-1ZM25.096 2.416l5.59 5.59h-11.18l5.59-5.59Zm-7 7.59h14v15.998h-14V10.007Zm0 17.999h14v2h-14v-2Zm-9.058-3 7.059-9.88v9.88h-7.06Zm7.059 4.21v1.79a1 1 0 0 0 1 1h2v2a1.003 1.003 0 0 0 1 1h1v1.539l-12.999-4.54 7.999-2.79Zm-13.61 10.24 3.11-6.22 17.999 6.3-3.91 6.25-14.238-5.25-2.96-1.08Z"/>
  <path fill="#1C284C" d="M25.095 13.003a4.998 4.998 0 0 0-5 5 5 5 0 1 0 5-5Zm0 8a2.998 2.998 0 0 1-2.121-5.121 2.998 2.998 0 0 1 5.12 2.12 3.001 3.001 0 0 1-2.999 3ZM8.097 8.004h2v2h-2v-2Zm0 4.006h2v2h-2v-2Zm1.999-2.003h2v2h-2v-2Zm-3.999 0h2v2h-2v-2Zm33.998-2.003h2v2h-2v-2Zm0 4.006h2v2h-2v-2Zm2-2.003h2v2h-2v-2Zm-4.001 0h2v2h-2v-2ZM8.097 16.005h2v2h-2v-2Zm31.998 0h2v2h-2v-2Z"/>
</svg>
