<svg xmlns="http://www.w3.org/2000/svg" width="68" height="60" fill="none" viewBox="0 0 68 60">
  <path fill="#1C284C" d="M34.077 5.002c-10.676 0-19.31 7.825-19.31 17.5 0 13.125 19.31 32.5 19.31 32.5s19.31-19.375 19.31-32.5c0-9.675-8.635-17.5-19.31-17.5Zm-13.794 17.5c0-6.9 6.18-12.5 13.794-12.5 7.613 0 13.793 5.6 13.793 12.5 0 7.2-7.945 17.975-13.793 24.7-5.738-6.675-13.794-17.575-13.794-24.7Z"/>
  <path fill="#1C284C" d="M34.076 28.752c3.809 0 6.896-2.798 6.896-6.25s-3.087-6.25-6.896-6.25c-3.81 0-6.897 2.798-6.897 6.25s3.088 6.25 6.897 6.25Z"/>
</svg>
