<svg xmlns="http://www.w3.org/2000/svg" width="61" height="60" fill="none" viewBox="0 0 61 60">
  <mask id="a" width="61" height="51" x="0" y="0" maskUnits="userSpaceOnUse" style="mask-type:luminance">
    <path fill="#fff" d="M.716.002h60v50.365h-60V.002Z"/>
  </mask>
  <g mask="url(#a)">
    <path fill="#1C284C" d="M58.344 43.718a28.162 28.162 0 0 0-7.305-12.272v-23.7h3.87a1.937 1.937 0 0 0 1.936-1.936V1.94A1.937 1.937 0 0 0 54.91.004h-.968a1.937 1.937 0 0 0-1.935 1.935h-.968A1.937 1.937 0 0 0 49.103.004h-.967A1.937 1.937 0 0 0 46.2 1.939h-.967A1.937 1.937 0 0 0 43.298.004h-.968a1.937 1.937 0 0 0-1.935 1.935v3.87H21.039V1.94A1.937 1.937 0 0 0 19.103.004h-.967A1.937 1.937 0 0 0 16.2 1.939h-.968A1.937 1.937 0 0 0 13.298.004h-.968a1.937 1.937 0 0 0-1.935 1.935h-.97A1.937 1.937 0 0 0 7.492.004h-.968a1.937 1.937 0 0 0-1.936 1.935v3.87c0 1.069.868 1.936 1.936 1.936h3.87v23.7a28.178 28.178 0 0 0-7.305 12.273A5.798 5.798 0 0 0 .716 48.39v1.935h60V48.39a5.795 5.795 0 0 0-2.372-4.672Zm-6.287-.344a22.357 22.357 0 0 0-2.166-4.255l3.284-2.052a26.179 26.179 0 0 1 2.808 5.62 5.53 5.53 0 0 0-3.926.687Zm-.012-7.883-3.282 2.052a22.123 22.123 0 0 0-3.606-3.641l2.226-3.115a26.476 26.476 0 0 1 4.662 4.704Zm-34.206-2.73-2.22-3.107a26.486 26.486 0 0 1 5.392-2.775l1.342 3.58a22.098 22.098 0 0 0-4.514 2.302Zm6.103-17.275H20.07v-1.935c0-1.068.868-1.935 1.935-1.935 1.068 0 1.935.868 1.935 1.935v1.935Zm3.87 1.936v5.92a28.218 28.218 0 0 0-11.612 3.68v-9.601h11.613Zm3.872 0v5.828c-.182-.002-.36-.022-.543-.022h-.851c-.182 0-.361.02-.543.023v-5.83h1.937Zm-1.936-1.936V7.744h1.935v7.742h-1.935Zm11.613 0H37.49v-1.935c0-1.068.868-1.935 1.935-1.935 1.068 0 1.935.868 1.935 1.935v1.935Zm3.87 1.936v9.601a28.232 28.232 0 0 0-11.612-3.682v-5.92h11.613ZM24.198 29.86l-1.35-3.598a26.193 26.193 0 0 1 6.901-1.076v3.866a22.46 22.46 0 0 0-5.551.808Zm6 1.109h1.038c.151 0 .3.014.45.018V48.39H29.75v-17.4c.15-.004.298-.019.449-.019Zm1.487-1.917v-3.867a26.25 26.25 0 0 1 6.9 1.076l-1.348 3.598a22.496 22.496 0 0 0-5.552-.807Zm8.738-2.175a26.48 26.48 0 0 1 5.39 2.776l-2.218 3.106a22.117 22.117 0 0 0-4.515-2.3l1.343-3.582Zm6.746 1.366V17.42h1.935v12.281c-.625-.514-1.27-1-1.935-1.458Zm1.935-12.757h-1.935V7.745h1.935v7.742ZM42.33 1.937h.968c0 1.068.868 1.936 1.935 1.936h.968a1.937 1.937 0 0 0 1.935-1.936h.968c0 1.068.868 1.936 1.935 1.936h.968a1.937 1.937 0 0 0 1.935-1.936h.968v3.871H42.33v-3.87Zm-.968 5.807h3.871v7.742h-1.935v-1.935a3.875 3.875 0 0 0-3.871-3.871 3.875 3.875 0 0 0-3.871 3.87v1.936H33.62V7.744h7.741Zm-21.29 0h7.742v7.742h-1.935v-1.935a3.875 3.875 0 0 0-3.871-3.871 3.875 3.875 0 0 0-3.871 3.87v1.936H16.2V7.744h3.87ZM6.521 1.937h.969c0 1.068.868 1.936 1.935 1.936h.967a1.937 1.937 0 0 0 1.936-1.936h.967c0 1.068.868 1.936 1.935 1.936h.968a1.937 1.937 0 0 0 1.935-1.936h.968v3.871H6.523l-.001-3.87Zm7.743 5.807v7.742h-1.935V7.744h1.935Zm-1.935 9.677h1.935v10.822a28.44 28.44 0 0 0-1.935 1.459v-12.28Zm1.721 13.365 2.226 3.115a22.104 22.104 0 0 0-3.605 3.64l-3.283-2.052a26.464 26.464 0 0 1 4.662-4.703Zm-5.793 6.28 3.284 2.052a22.372 22.372 0 0 0-2.167 4.254 5.53 5.53 0 0 0-3.926-.686 26.171 26.171 0 0 1 2.81-5.62ZM2.651 48.39a3.875 3.875 0 0 1 3.87-3.871 3.59 3.59 0 0 1 3.554 3.01l.143.86H2.651Zm9.333-1.179a5.52 5.52 0 0 0-1.059-2.429c2.551-7.52 9.118-12.76 16.887-13.658V48.39H12.18l-.196-1.179ZM49.25 48.39H33.62V31.123c7.77.9 14.337 6.139 16.888 13.657a5.516 5.516 0 0 0-1.06 2.429l-.196 1.18Zm1.963 0 .143-.861a3.59 3.59 0 0 1 3.553-3.01 3.875 3.875 0 0 1 3.87 3.87h-7.566Z"/>
  </g>
  <mask id="b" width="60" height="6" x="1" y="55" maskUnits="userSpaceOnUse" style="mask-type:luminance">
    <path fill="#fff" d="M1.063 55.846H60.37v4.156H1.063v-4.156Z"/>
  </mask>
  <g mask="url(#b)">
    <path fill="#1C284C" d="M57.918 57.156c-1.788 1.191-4.23 1.191-6.018 0l-1.829-1.22-1.83 1.219c-1.788 1.191-4.23 1.191-6.018 0l-1.83-1.22-1.83 1.22c-1.788 1.191-4.23 1.191-6.018 0l-1.829-1.22-1.83 1.22c-1.788 1.191-4.23 1.191-6.018 0l-1.83-1.22-1.83 1.22c-1.787 1.191-4.23 1.191-6.017 0l-1.83-1.22-1.83 1.22c-1.788 1.191-4.23 1.191-6.018 0l-1.292-.862-1.074 1.61 1.293.862c2.427 1.617 5.739 1.617 8.166 0l.756-.503.756.504c2.427 1.617 5.739 1.617 8.165 0l.756-.504.756.504c2.427 1.617 5.739 1.617 8.166 0l.756-.504.756.504c2.427 1.617 5.738 1.617 8.165 0l.756-.504.756.504c2.427 1.617 5.738 1.617 8.165 0l.756-.504.756.504a7.343 7.343 0 0 0 4.083 1.236c1.457 0 2.87-.428 4.083-1.236l1.293-.862-1.074-1.61-1.294.862Z"/>
  </g>
  <path fill="#1C284C" d="M57.918 53.285c-1.788 1.192-4.23 1.192-6.018 0l-1.829-1.22-1.83 1.22c-1.788 1.19-4.23 1.19-6.018 0l-1.83-1.22-1.83 1.22c-1.788 1.19-4.23 1.19-6.018 0l-1.829-1.22-1.83 1.22c-1.788 1.19-4.23 1.19-6.018 0l-1.83-1.22-1.83 1.22c-1.787 1.19-4.23 1.19-6.017 0l-1.83-1.22-1.83 1.22c-1.788 1.19-4.23 1.19-6.018 0l-1.292-.863-1.074 1.61 1.293.863c2.427 1.617 5.739 1.617 8.166 0l.756-.504.756.505c2.427 1.617 5.739 1.617 8.165 0l.756-.505.756.505c2.427 1.617 5.739 1.617 8.166 0l.756-.505.756.505c2.427 1.617 5.738 1.617 8.165 0l.756-.505.756.505c2.427 1.617 5.738 1.617 8.165 0l.756-.505.756.505a7.343 7.343 0 0 0 4.083 1.235c1.457 0 2.87-.427 4.083-1.235l1.293-.862-1.074-1.61-1.294.861Z"/>
</svg>
