<svg width="53" height="53" viewBox="0 0 53 53" fill="none" xmlns="http://www.w3.org/2000/svg">
<path d="M14.5324 23.9375C13.1185 23.9375 11.9678 25.0884 11.9678 26.5022C11.9678 27.9159 13.1187 29.0668 14.5324 29.0668C15.9463 29.0668 17.0971 27.9159 17.0971 26.5022C17.0971 25.0879 15.9462 23.9375 14.5324 23.9375ZM14.5324 27.3569C14.0616 27.3569 13.6777 26.9739 13.6777 26.5022C13.6777 26.0304 14.0616 25.6474 14.5324 25.6474C15.0033 25.6474 15.3872 26.0304 15.3872 26.5022C15.3876 26.9739 15.0037 27.3569 14.5324 27.3569Z" fill="#1C284C"/>
<path d="M38.469 23.9375C37.0551 23.9375 35.9043 25.0884 35.9043 26.5022C35.9043 27.9159 37.0552 29.0668 38.469 29.0668C39.8827 29.0668 41.0336 27.9159 41.0336 26.5022C41.0336 25.0879 39.8827 23.9375 38.469 23.9375ZM38.469 27.3569C37.9981 27.3569 37.6142 26.9739 37.6142 26.5022C37.6142 26.0304 37.9981 25.6474 38.469 25.6474C38.9398 25.6474 39.3237 26.0304 39.3237 26.5022C39.3237 26.9739 38.9398 27.3569 38.469 27.3569Z" fill="#1C284C"/>
<path d="M52.1462 30.7748H48.7268V21.3712C48.7268 20.8986 48.3438 20.5165 47.8721 20.5165H47.0173V19.6617C47.0173 16.7543 44.9316 14.3266 42.1789 13.7905C42.6714 13.2734 43.0553 12.6545 43.2987 11.9681H44.4526C45.8665 11.9681 47.0172 10.8173 47.0172 9.40348C47.0172 8.29039 46.2999 7.34997 45.3077 6.99617L45.3073 4.27415C45.3073 1.91734 43.39 0 41.0332 0H35.9043C33.5475 0 31.6301 1.91734 31.6301 4.27415V6.99617C30.6375 7.34995 29.9206 8.29039 29.9206 9.40348C29.9206 10.8174 31.0715 11.9681 32.4853 11.9681H33.6395C33.883 12.6545 34.2669 13.2734 34.7594 13.7905C32.006 14.3266 29.9202 16.7543 29.9202 19.6617V20.5165H29.0654C28.5937 20.5165 28.2107 20.8986 28.2107 21.3712V30.7748H24.7913L24.7909 21.3712C24.7909 20.8986 24.4078 20.5165 23.9361 20.5165H23.0813V19.6617C23.0813 16.7543 20.9956 14.3266 18.2429 13.7905C18.7354 13.2734 19.1193 12.6545 19.3628 11.9681H20.5166C21.9305 11.9681 23.0812 10.8173 23.0812 9.40348C23.0812 8.29039 22.3639 7.34997 21.3718 6.99617L21.3713 4.27415C21.3713 1.91734 19.454 0 17.0972 0H11.9683C9.61147 0 7.69413 1.91734 7.69413 4.27415V6.99617C6.70152 7.34995 5.98421 8.29039 5.98421 9.40348C5.98421 10.8174 7.13509 11.9681 8.54888 11.9681H9.70312C9.94661 12.6545 10.3305 13.2734 10.8229 13.7905C8.06987 14.3266 5.9841 16.7543 5.9841 19.6617V20.5165H5.12935C4.65764 20.5165 4.2746 20.8986 4.2746 21.3712V30.7748H0.854755C0.383045 30.7748 0 31.157 0 31.6296V36.7584C0 37.231 0.383045 37.6132 0.854755 37.6132H3.41942V52.1452C3.41942 52.6178 3.80246 53 4.27417 53H9.40307C9.87478 53 10.2578 52.6178 10.2578 52.1452V49.5806H42.7426V52.1452C42.7426 52.6178 43.1257 53 43.5974 53H48.7263C49.198 53 49.581 52.6178 49.581 52.1452L49.5819 37.6132H52.1465C52.6183 37.6132 53.0013 37.231 53.0013 36.7584V31.6296C53.0013 31.1566 52.6183 30.7744 52.1465 30.7744L52.1462 30.7748ZM38.4688 15.387H40.505L39.9442 16.5086L39.0729 15.6373C38.9066 15.4706 38.6877 15.387 38.4688 15.387C38.25 15.387 38.0311 15.4706 37.8644 15.6373L36.9931 16.5086L36.4327 15.387H38.4688ZM35.0494 10.2577V7.69043C35.4753 7.36974 35.8393 6.97311 36.1205 6.51838C37.4347 7.79903 39.6554 8.54811 41.0335 8.54811H41.8883V10.2576C41.8883 12.1435 40.3548 13.677 38.4689 13.677C36.5829 13.677 35.0495 12.1435 35.0495 10.2576L35.0494 10.2577ZM44.453 10.2577H43.5983V8.54821H44.453C44.9239 8.54821 45.3078 8.93126 45.3078 9.40297C45.3078 9.87468 44.9239 10.2577 44.453 10.2577ZM33.3395 4.27363C33.3395 2.85974 34.4904 1.70896 35.9042 1.70896H41.0331C42.447 1.70896 43.5977 2.85984 43.5977 4.27363V6.83829H41.0331C39.3456 6.83829 36.7589 5.46263 36.7589 4.27363C36.7589 3.80107 36.3759 3.41888 35.9042 3.41888C35.4324 3.41888 35.0494 3.80107 35.0494 4.27363C35.0494 5.38845 34.3346 6.33909 33.3399 6.69202L33.3395 4.27363ZM32.4843 10.2577C32.0135 10.2577 31.6296 9.87466 31.6296 9.40295C31.6296 8.93124 32.0135 8.54819 32.4843 8.54819H33.3391V10.2577L32.4843 10.2577ZM31.6296 19.6613C31.6296 17.7516 32.8975 16.1494 34.6282 15.6035L35.9932 18.3348C36.1162 18.58 36.3495 18.7518 36.6206 18.7963C36.8933 18.8426 37.1678 18.7518 37.3617 18.5571L38.4683 17.4504L39.5738 18.5559C39.7354 18.7175 39.953 18.8062 40.1779 18.8062C40.2233 18.8062 40.2695 18.8028 40.3145 18.7951C40.5855 18.7506 40.8188 18.5788 40.9418 18.3336L42.3069 15.6023C44.0393 16.1495 45.3072 17.7517 45.3072 19.6614V20.5162H43.5977V18.8067H41.8882V20.5162H35.0493V18.8067H33.3398V20.5162H31.6303L31.6296 19.6613ZM29.9201 22.2255H47.0171V30.7739L29.9201 30.7743V22.2255ZM14.5323 15.387H16.5685L16.0077 16.5086L15.1364 15.6373C14.9701 15.4706 14.7512 15.387 14.5323 15.387C14.3134 15.387 14.0946 15.4706 13.9278 15.6373L13.0565 16.5086L12.4962 15.387H14.5323ZM11.1129 10.2577V7.69043C11.5388 7.36974 11.9028 6.97311 12.184 6.51838C13.4982 7.79903 15.7189 8.54811 17.097 8.54811H17.9518V10.2576C17.9518 12.1435 16.4183 13.677 14.5324 13.677C12.6468 13.677 11.113 12.1435 11.113 10.2576L11.1129 10.2577ZM20.5165 10.2577H19.6617V8.54821H20.5165C20.9874 8.54821 21.3713 8.93126 21.3713 9.40297C21.3713 9.87468 20.9874 10.2577 20.5165 10.2577ZM9.40299 4.27363C9.40299 2.85974 10.5539 1.70896 11.9677 1.70896H17.0966C18.5104 1.70896 19.6612 2.85984 19.6612 4.27363V6.83829H17.0966C15.4091 6.83829 12.8224 5.46263 12.8224 4.27363C12.8224 3.80107 12.4394 3.41888 11.9676 3.41888C11.4959 3.41888 11.1129 3.80107 11.1129 4.27363C11.1129 5.38845 10.3981 6.33909 9.4034 6.69202L9.40299 4.27363ZM8.54824 10.2577C8.07739 10.2577 7.69349 9.87466 7.69349 9.40295C7.69349 8.93124 8.07739 8.54819 8.54824 8.54819H9.40299V10.2577L8.54824 10.2577ZM7.69306 19.6613C7.69306 17.7516 8.96101 16.1494 10.6917 15.6035L12.0567 18.3348C12.1797 18.58 12.413 18.7518 12.6841 18.7963C12.956 18.8426 13.2321 18.7518 13.4251 18.5571L14.5318 17.4504L15.6373 18.5559C15.7989 18.7175 16.017 18.8062 16.2418 18.8062C16.2872 18.8062 16.3334 18.8028 16.3784 18.7951C16.6494 18.7506 16.8827 18.5788 17.0058 18.3336L18.3708 15.6023C20.1032 16.1495 21.3707 17.7517 21.3707 19.6614V20.5162H19.6612V18.8067H17.9517V20.5162H11.1128V18.8067H9.40331V20.5162H7.69382L7.69306 19.6613ZM5.98357 22.2255H23.0806V30.7739L5.98357 30.7743V22.2255ZM8.54824 51.2907H5.12883V37.6133H8.54824V51.2907ZM10.2577 47.8713V37.613H42.7425V47.8713H10.2577ZM47.8714 51.2907H44.452V37.6133H47.8714V51.2907ZM51.2908 35.9029H1.70899V32.4835H51.2897L51.2908 35.9029Z" fill="#1C284C"/>
</svg>
