<svg xmlns="http://www.w3.org/2000/svg" width="71" height="60" fill="none" viewBox="0 0 71 60">
  <path fill="#1C284C" d="M69.398 54.632a42.609 42.609 0 0 0-4.206-1.513 5.203 5.203 0 0 0-1.178-5.616l-8.345-8.345a5.213 5.213 0 0 0-3.71-1.54H32.97l5.89-16.419c.934.158 1.826.14 2.576-.081.659.917 1.79 1.703 3.17 2.177s2.754.55 3.84.23c.659.918 1.788 1.703 3.17 2.177 1.38.474 2.758.549 3.84.23.659.918 1.79 1.704 3.17 2.177a7.49 7.49 0 0 0 2.404.422c.596 0 1.153-.086 1.644-.26a2.3 2.3 0 0 0 1.436-1.491 2.311 2.311 0 0 0-.332-2.06L48.237 3.083a7.405 7.405 0 0 0-8.095-2.78L14.588 7.83a2.318 2.318 0 0 0-1.529 1.424 2.293 2.293 0 0 0 .218 2.057c.64 1 1.84 1.86 3.294 2.358 1.38.474 2.755.55 3.84.23.658.917 1.79 1.703 3.17 2.177s2.754.55 3.838.23c.659.918 1.79 1.703 3.171 2.177 1.38.476 2.756.549 3.84.23.45.627 1.132 1.184 1.953 1.63L30.184 37.62h-9.213l-7.266-15.258a5.196 5.196 0 0 0-2.984-2.695 5.25 5.25 0 0 0-4.016.209c-2.607 1.242-3.72 4.38-2.483 6.997l7.957 16.689-3.69 6.478a5.222 5.222 0 0 0-.355 4.41l-6.911 3.037a1.313 1.313 0 1 0 1.054 2.404l11.768-5.174a22.593 22.593 0 0 1 14.59-.908l15.354 4.482a1.313 1.313 0 0 0 .738-2.519l-2.625-.766a42.645 42.645 0 0 1 22.025.526 39.64 39.64 0 0 1 4.254 1.52 1.31 1.31 0 0 0 1.718-.701 1.314 1.314 0 0 0-.701-1.719ZM40.882 2.819a4.77 4.77 0 0 1 5.22 1.794l7.113 9.903c-.703-.325-1.112-.73-1.202-.95a1.744 1.744 0 0 0-1.038-.973 1.751 1.751 0 0 0-1.427.134c-.24.138-.989.23-1.976-.109-.985-.338-1.52-.871-1.63-1.139a1.744 1.744 0 0 0-1.04-.97 1.75 1.75 0 0 0-1.425.136c-.239.138-.988.229-1.974-.11-.993-.341-1.526-.87-1.626-1.103a1.72 1.72 0 0 0-1.02-.998 1.738 1.738 0 0 0-1.448.127c-.241.137-.988.229-1.975-.11-.992-.341-1.53-.874-1.625-1.105a1.712 1.712 0 0 0-1.02-.995 1.744 1.744 0 0 0-1.449.127c-.239.138-.989.229-1.974-.11-.08-.027-.137-.062-.212-.092L40.882 2.82Zm-5.517 13.155a1.802 1.802 0 0 0-1.468.135c-.327.183-1.25.306-2.46-.108-1.206-.415-1.861-1.08-2.007-1.426a1.795 1.795 0 0 0-2.543-.873c-.327.184-1.253.307-2.459-.108-1.207-.415-1.862-1.079-2.006-1.424a1.805 1.805 0 0 0-1.073-1.01 1.804 1.804 0 0 0-1.472.136c-.325.183-1.247.306-2.458-.108-.773-.265-1.329-.64-1.662-.966l10.195-3.004c.606.681 1.494 1.263 2.564 1.63 1.181.407 2.36.482 3.308.236.6.78 1.577 1.443 2.76 1.848 1.183.405 2.362.481 3.31.235.603.78 1.582 1.444 2.76 1.848 1.185.407 2.364.482 3.313.235.599.781 1.575 1.444 2.756 1.849 1.183.407 2.363.484 3.312.235.599.78 1.575 1.443 2.757 1.85.733.25 1.468.377 2.148.377.153 0 .294-.02.44-.034l6.003 8.36c-.464.052-1.133.007-1.906-.26-1.208-.415-1.862-1.079-2.006-1.424a1.8 1.8 0 0 0-1.657-1.106c-.307 0-.613.079-.887.232-.327.183-1.25.306-2.459-.108-1.207-.415-1.86-1.08-2.006-1.424v-.002a1.802 1.802 0 0 0-2.545-.872c-.325.184-1.252.306-2.459-.109s-1.862-1.08-2.007-1.425a1.798 1.798 0 0 0-2.543-.872c-.327.183-1.252.304-2.46-.11s-1.861-1.078-2.005-1.423a1.806 1.806 0 0 0-1.078-1.01Zm16.594 24.27c.7 0 1.358.272 1.854.77l8.345 8.345c.84.84.987 2.082.454 3.072a45.192 45.192 0 0 0-5.785-.988l-5.566-5.566a1.31 1.31 0 0 0-.928-.385H30.144l1.883-5.249H51.96Zm-38.944 12.06-2.454 1.078c-.203-.676-.152-1.409.209-2.044l4.028-7.073c.212-.374.229-.827.045-1.215L6.591 25.747a2.635 2.635 0 0 1 1.238-3.501 2.637 2.637 0 0 1 2.014-.105c.66.234 1.188.71 1.49 1.346l7.623 16.009c.218.456.678.748 1.185.748h9.1l-1.883 5.248h-6.456c-.47 0-.905.252-1.14.662l-2.784 4.88a24.67 24.67 0 0 0-3.963 1.269Zm7.278-1.788 1.37-2.4h4.752l-.875 2.44a25.418 25.418 0 0 0-5.247-.04Zm9.058.767c-.393-.107-.79-.184-1.187-.272l1.038-2.894h20.586l3.069 3.07a45.237 45.237 0 0 0-11.854 1.373l-3.906.986-7.747-2.263Z"/>
</svg>
