<svg xmlns="http://www.w3.org/2000/svg" width="61" height="60" fill="none" viewBox="0 0 61 60">
  <path fill="#1C284C" fill-rule="evenodd" d="M47.637 26.5v-2.068a.518.518 0 0 0-1.035 0V26.5a.518.518 0 0 0 1.035 0Zm0-4.138v-2.068a.518.518 0 0 0-1.035 0v2.068a.518.518 0 0 0 1.035 0Zm0-4.137v-2.07a.518.518 0 0 0-1.035 0v2.07a.518.518 0 0 0 1.035 0Zm0-4.138V12.14l-.001-.134a.518.518 0 0 0-1.035.023l.001.112v1.946a.518.518 0 0 0 1.035 0Zm-.45-4.279a6.28 6.28 0 0 0-1.195-1.897.518.518 0 0 0-.764.7c.422.46.762.995 1 1.583a.517.517 0 1 0 .96-.386Zm-2.982-3.254a6.221 6.221 0 0 0-2.152-.638.517.517 0 0 0-.11 1.029c.64.069 1.245.254 1.793.532a.518.518 0 0 0 .47-.922Zm-8.412-.674h-2.07a.518.518 0 0 0 0 1.035h2.07a.518.518 0 0 0 0-1.035Zm4.138 0h-2.07a.518.518 0 0 0 0 1.035h2.07a.518.518 0 0 0 0-1.035Zm-8.276 0h-2.07a.518.518 0 0 0 0 1.035h2.07a.518.518 0 0 0 0-1.035Zm-4.937.332c-.133-.144-.22.01-.22.185 0 .286.232.518.518.518h.5a.518.518 0 0 0 0-1.035h-.495c-.26 0-.324.148-.303.332Zm-5.034 9.135a5.821 5.821 0 1 1-11.643 0 5.821 5.821 0 0 1 11.643 0ZM.714 42.203a1.03 1.03 0 0 0-.198.607v1.113a9.076 9.076 0 0 0 9.076 9.075h16.843a1.034 1.034 0 0 0 .838-1.642l-9.258-12.752a9.075 9.075 0 0 0-14.689 0L.714 42.203Zm49.774-2.254c-5.534 0-10.026 4.493-10.026 10.026 0 5.535 4.492 10.028 10.026 10.028 5.535 0 10.027-4.493 10.027-10.028 0-5.533-4.492-10.026-10.027-10.026Zm0 2.069a7.962 7.962 0 0 1 7.958 7.957 7.962 7.962 0 0 1-7.958 7.958 7.962 7.962 0 0 1-7.957-7.958 7.961 7.961 0 0 1 7.957-7.957Z" clip-rule="evenodd"/>
  <path fill="#1C284C" fill-rule="evenodd" d="M41.72 52.998a1.032 1.032 0 0 0 1.008-1.263 7.961 7.961 0 0 1 9.522-9.522 1.034 1.034 0 0 0 1.264-1.009V9.078A9.076 9.076 0 0 0 44.438.002H9.593A9.076 9.076 0 0 0 .518 9.078v34.845a9.076 9.076 0 0 0 9.075 9.075H41.72Zm-1.21-2.069H9.592a7.006 7.006 0 0 1-7.006-7.006V9.078a7.006 7.006 0 0 1 7.006-7.006H44.44a7.006 7.006 0 0 1 7.006 7.006v30.916c-.315-.03-.632-.046-.955-.046-5.534 0-10.026 4.493-10.026 10.026 0 .323.015.64.044.955h.001Z" clip-rule="evenodd"/>
  <path fill="#1C284C" fill-rule="evenodd" d="M51.525 53.596v-7.241c0-.571-.464-1.036-1.035-1.036a1.037 1.037 0 0 0-1.034 1.036v7.241a1.035 1.035 0 0 0 2.069 0Z" clip-rule="evenodd"/>
  <path fill="#1C284C" fill-rule="evenodd" d="m48.225 50.33 2.264-2.451 2.266 2.452a1.034 1.034 0 1 0 1.52-1.404l-3.026-3.274a1.035 1.035 0 0 0-1.52 0l-3.024 3.274a1.036 1.036 0 0 0 1.52 1.404Zm-25.087-8.19 5.81 8a3.11 3.11 0 0 1 .414 2.859h12.357a1.032 1.032 0 0 0 1.008-1.264 7.961 7.961 0 0 1 8.366-9.695 1.035 1.035 0 0 0 .915-1.64l-6.46-8.896a9.076 9.076 0 0 0-14.688 0l-7.722 10.637Z" clip-rule="evenodd"/>
</svg>
