<svg xmlns="http://www.w3.org/2000/svg" width="61" height="60" fill="none" viewBox="0 0 61 60">
  <mask id="a" width="61" height="61" x="0" y="0" maskUnits="userSpaceOnUse" style="mask-type:luminance">
    <path fill="#fff" d="M.145.002h60v60h-60v-60Z"/>
  </mask>
  <g mask="url(#a)">
    <path fill="#1C284C" d="M19.566 14.144c.489 0 .937-.204 1.249-.516a1.74 1.74 0 0 0 .516-1.248V5.322c0-.474-.19-.922-.516-1.235a1.724 1.724 0 0 0-2.484 0c-.325.313-.53.76-.53 1.235v7.058c0 .488.205.923.53 1.248.312.312.76.516 1.235.516Zm21.158 0a1.8 1.8 0 0 0 1.249-.516 1.8 1.8 0 0 0 .516-1.248V5.322c0-.488-.204-.922-.516-1.235a1.755 1.755 0 0 0-1.249-.529c-.488 0-.923.204-1.248.53-.312.312-.516.76-.516 1.234v7.058c0 .488.204.923.516 1.248a1.8 1.8 0 0 0 1.248.516Zm0 3.515a5.227 5.227 0 0 1-3.732-1.547 5.24 5.24 0 0 1-1.56-3.732v-1.765H24.858v1.765a5.285 5.285 0 0 1-5.293 5.28 5.285 5.285 0 0 1-5.28-5.28v-1.765H6.578c-.8.055-1.534.38-2.05.91h-.013a2.768 2.768 0 0 0-.814 1.967v7.695H56.59v-7.695c0-.773-.312-1.452-.814-1.954a3.197 3.197 0 0 0-2.063-.923h-7.708v1.765a5.251 5.251 0 0 1-1.548 3.732 5.229 5.229 0 0 1-3.732 1.547ZM35.431 7.087V5.323c0-1.453.598-2.769 1.561-3.733A5.285 5.285 0 0 1 40.724.043a5.285 5.285 0 0 1 5.28 5.28v1.764h7.708l.082.014c1.75.081 3.325.8 4.465 1.954a6.221 6.221 0 0 1 1.846 4.438V53.57a6.41 6.41 0 0 1-1.873 4.52 6.38 6.38 0 0 1-4.52 1.872H6.578a6.404 6.404 0 0 1-4.52-1.873A6.404 6.404 0 0 1 .187 53.57V13.493c0-1.75.705-3.298 1.845-4.438V9.04A6.823 6.823 0 0 1 6.511 7.1l.068-.014h7.708V5.323a5.31 5.31 0 0 1 1.548-3.733A5.309 5.309 0 0 1 19.566.043c1.466 0 2.782.597 3.746 1.547a5.309 5.309 0 0 1 1.547 3.733v1.764h10.572Zm14.1 35.259v8.807H10.759V30.01h38.775v12.336h-.001Zm-8.807 0v5.293h5.293v-5.293h-5.293Zm-8.822 0v5.293h5.294v-5.293h-5.294Zm14.115-8.822h-5.293v5.293h5.293v-5.293Zm-8.821 0h-5.293v5.293h5.293v-5.293Zm-14.1 14.115h5.292v-5.293h-5.293v5.293Zm-8.809-5.293v5.293h5.293v-5.293h-5.293Zm14.1-8.822h-5.292v5.293h5.293v-5.293Zm-8.807 0h-5.293v5.293h5.293v-5.293Zm37.01-8.808H3.704V53.57c0 .8.325 1.52.841 2.036h.014a2.862 2.862 0 0 0 2.022.841h47.134c.788 0 1.507-.325 2.036-.841a2.87 2.87 0 0 0 .842-2.036V24.716h-.002Z"/>
  </g>
</svg>
