<svg xmlns="http://www.w3.org/2000/svg" width="61" height="60" fill="none" viewBox="0 0 61 60">
  <path fill="#1C284C" d="m1.799 36.56 3.408 3.408 7.448 7.448 7.474 7.474c1.156 1.157 2.3 2.326 3.47 3.47 1.439 1.407 3.646 2.033 5.585 1.389a5.994 5.994 0 0 0 2.383-1.464c.407-.4.807-.806 1.213-1.213l5.76-5.76L53.793 36.06l4.053-4.053c1.463-1.463 2.364-3.396 2.295-5.497-.025-.719-.063-1.432-.094-2.152-.15-3.477-.294-6.954-.444-10.425-.107-2.45-.2-4.903-.313-7.354-.07-1.52-.632-2.97-1.733-4.046C56.47 1.47 55.069.926 53.563.857 52.75.819 51.936.787 51.117.75L40.541.3C38.239.2 35.938.087 33.637.006c-2.095-.069-4.034.832-5.497 2.295l-7.518 7.517-7.961 7.962c-2.375 2.407-4.758 4.79-7.147 7.173l-3.64 3.64c-.644.643-1.082 1.369-1.4 2.22-.37.969-.35 2.02-.17 3.026.188 1.02.782 1.99 1.495 2.721.913.938 2.633.988 3.54 0 .925-1.013.975-2.533 0-3.54a3.33 3.33 0 0 1-.244-.275l.394.507a3.282 3.282 0 0 1-.406-.682c.081.2.168.4.25.6a3.2 3.2 0 0 1-.225-.831c.031.219.063.444.087.663a3.163 3.163 0 0 1 0-.77c-.03.22-.062.444-.087.663.038-.287.113-.563.225-.832-.082.2-.169.4-.25.6.112-.243.243-.468.406-.68l-.394.506c.275-.338.6-.632.907-.938l1.92-1.92 6.397-6.398 7.755-7.755 6.63-6.629c1.043-1.044 2.088-2.095 3.132-3.133.15-.15.313-.294.482-.425l-.507.394a4.731 4.731 0 0 1 1.032-.6c-.2.082-.4.169-.6.25.4-.168.813-.281 1.244-.337-.219.031-.444.062-.663.087.844-.1 1.726.007 2.57.038l4.791.206 11.013.47c.907.037 1.851.012 2.752.137a23.347 23.347 0 0 0-.663-.087c.282.043.544.118.807.225-.2-.082-.4-.17-.6-.25.256.112.487.25.712.412l-.506-.394c.238.188.45.394.632.631l-.395-.506c.163.225.3.456.413.713-.081-.2-.169-.4-.25-.6.106.262.181.531.225.807a23.128 23.128 0 0 1-.088-.663c.1.744.082 1.52.113 2.263.069 1.627.137 3.253.207 4.872.156 3.646.312 7.299.462 10.945.044.994.176 2.05.063 3.045.031-.219.062-.444.087-.663a5.322 5.322 0 0 1-.337 1.245c.081-.2.169-.4.25-.6a5.49 5.49 0 0 1-.6 1.031c.13-.169.262-.337.394-.506-.306.394-.682.738-1.032 1.088l-22.67 22.67c-1.063 1.063-2.12 2.133-3.19 3.19-.1.094-.2.188-.306.275l.506-.394c-.212.162-.438.3-.681.406.2-.081.4-.169.6-.25a3.2 3.2 0 0 1-.832.225c.22-.031.444-.063.663-.087a3.161 3.161 0 0 1-.769 0c.219.03.444.062.663.087a3.233 3.233 0 0 1-.832-.225c.2.081.4.169.6.25a3.57 3.57 0 0 1-.681-.406c.169.13.338.262.506.394-.287-.238-.544-.513-.807-.776l-1.55-1.55-5.185-5.185-6.342-6.342-5.478-5.478c-.888-.888-1.763-1.795-2.67-2.67a127.44 127.44 0 0 1-.038-.038c-.925-.925-2.626-.994-3.54 0-.926.981-1 2.532-.012 3.52Z"/>
  <path fill="#1C284C" d="M44.905 10.553c-.606.657-.969 1.445-.975 2.352a3.35 3.35 0 0 0 .975 2.352c1.264 1.275 3.434 1.275 4.697 0 1.27-1.282 1.282-3.415 0-4.697a3.349 3.349 0 0 0-2.351-.976c-.895 0-1.69.37-2.346.97-.462.425-.731 1.15-.731 1.77 0 .612.275 1.344.731 1.769.476.438 1.101.763 1.77.732a2.712 2.712 0 0 0 1.77-.732c.031-.031.062-.063.1-.088l-.507.395a.862.862 0 0 1 .17-.094c-.2.081-.4.169-.601.25a.981.981 0 0 1 .181-.05c-.219.031-.444.063-.663.087a.847.847 0 0 1 .25 0 23.127 23.127 0 0 0-.662-.087c.062.012.118.031.181.05-.2-.081-.4-.169-.6-.25a.862.862 0 0 1 .169.094c-.17-.131-.338-.263-.507-.395.075.056.131.12.188.188l-.394-.506a.864.864 0 0 1 .093.168c-.081-.2-.168-.4-.25-.6a.978.978 0 0 1 .05.181 23.127 23.127 0 0 1-.087-.662.847.847 0 0 1 0 .25c.031-.22.063-.444.087-.663-.012.063-.031.119-.05.181.082-.2.169-.4.25-.6a.867.867 0 0 1-.093.169c.13-.17.262-.338.394-.507a1.065 1.065 0 0 1-.188.188l.507-.394a.867.867 0 0 1-.17.094c.2-.082.4-.17.601-.25a.989.989 0 0 1-.181.05c.219-.032.444-.063.663-.088a.847.847 0 0 1-.25 0c.218.031.443.063.662.087-.062-.012-.118-.03-.181-.05.2.082.4.17.6.25a.867.867 0 0 1-.169-.093c.17.13.338.262.507.394a1.062 1.062 0 0 1-.188-.188c.131.17.263.338.395.507a.867.867 0 0 1-.094-.17c.081.201.169.401.25.601a.989.989 0 0 1-.05-.181c.031.219.062.444.087.663a.847.847 0 0 1 0-.25c-.031.219-.062.443-.087.662.012-.062.031-.118.05-.18-.081.2-.169.4-.25.6a.864.864 0 0 1 .093-.17c-.13.17-.262.338-.394.507a.6.6 0 0 1 .088-.1c.444-.482.731-1.101.731-1.77 0-.613-.275-1.344-.731-1.77-.476-.437-1.101-.763-1.77-.731-.644.031-1.313.244-1.77.732Z"/>
</svg>
