<svg xmlns="http://www.w3.org/2000/svg" width="27" height="60" fill="none" viewBox="0 0 27 60">
  <path fill="#1C284C" d="m7.602 8.119-4.779-.29c-.724-.073-1.449.217-1.955.724-.507.508-.87 1.233-.797 1.957v3.116c0 1.45 1.16 2.609 2.68 2.609.507-.073 4.634-.508 7.024-1.378l.072 6.812h-5.72a2.257 2.257 0 0 0-2.245 2.247c0 1.014.724 1.883 1.665 2.173v30.29c0 1.956 1.593 3.623 3.621 3.623h12.166c1.955 0 3.62-1.594 3.62-3.623v-8.043c1.593-.29 2.824-1.739 2.824-3.406v-6.884c0-1.666-1.231-3.116-2.824-3.406v-8.55c.941-.218 1.665-1.088 1.665-2.174a2.257 2.257 0 0 0-2.245-2.247h-5.72l.073-8.116 6.951 1.014h.145c.725 0 1.377-.29 1.883-.797.507-.507.797-1.16.797-1.884v-1.521a2.8 2.8 0 0 0-.797-1.957c-.507-.507-1.231-.724-1.955-.724l-4.852.434c-2.028.145-3.549 1.811-3.621 3.84v.653l-.072 9.13h-1.232L14.12 5.8l6.952 1.015h.145a2.597 2.597 0 0 0 2.607-2.609V2.684a2.8 2.8 0 0 0-.797-1.957C22.52.22 21.795.002 21.071.002l-4.78.29c-2.027.145-3.548 1.812-3.62 3.841v.652l-.145 16.885h-1.231l-.073-9.71v-.073c.001-1.957-1.592-3.624-3.62-3.769Zm9.125 3.84c0-1.232 1.014-2.318 2.244-2.39l4.78-.29c.361 0 .651.072.868.29a1.2 1.2 0 0 1 .363.869v1.521c0 .29-.145.653-.363.87-.217.217-.506.362-.796.362l-7.096-1.087v-.145Zm-2.68-7.826c0-1.232 1.014-2.318 2.245-2.39l4.779-.29c.362 0 .652.072.87.29.216.217.361.506.361.869v1.521c0 .653-.507 1.16-1.159 1.16l-7.097-1.015.001-.145Zm5.286 54.35H7.167a2.18 2.18 0 0 1-2.172-2.175V26.162h16.438v8.479h-2.1c-.435 0-.724.29-.724.724 0 .435.29.725.724.725h2.1v10.87h-2.1c-.435 0-.724.29-.724.724 0 .435.29.725.724.725h2.1v7.971c.072 1.16-.942 2.101-2.1 2.101v.001Zm4.924-20.363v6.811c0 .87-.58 1.594-1.376 1.884v-10.58c.87.218 1.376 1.015 1.376 1.885Zm-1.086-14.203a.804.804 0 0 1-.797.797H4.126a.804.804 0 0 1-.797-.797c0-.435.362-.798.797-.798h18.248c.435 0 .796.363.796.798Zm-20.494-9.13c-.652 0-1.159-.508-1.231-1.16V10.51a1.2 1.2 0 0 1 .362-.87c.217-.217.58-.362.87-.29l4.778.29c1.232.073 2.245 1.16 2.245 2.392v1.377c-1.592.652-5.575 1.232-7.024 1.377Z"/>
</svg>
