<svg xmlns="http://www.w3.org/2000/svg" width="58" height="60" fill="none" viewBox="0 0 58 60">
  <path fill="#1C284C" d="M48.61 0c.386.114.766.248 1.138.4 1.623.757 2.598 2.036 2.811 3.82.652 5.444 1.269 10.893 1.899 16.34.274 2.365.553 4.73.822 7.095.078.678-.213 1.11-.755 1.163-.508.052-.887-.288-.965-.94-.34-2.828-.66-5.66-.99-8.49a17945.797 17945.797 0 0 0-1.736-14.886c-.193-1.62-1.4-2.725-3.03-2.74-1.572-.013-3.146 0-4.718 0h-32.22c-2.083 0-3.168.92-3.423 3.014-.516 4.227-.99 8.454-1.482 12.681l-1.468 12.56c-.482 4.161-.963 8.326-1.443 12.495-.098.851-.197 1.705-.311 2.556-.232 1.843 1.09 3.452 2.937 3.458 6.505.02 13.01 0 19.514 0a2.45 2.45 0 0 0 .275-.033v-2.191H7.24c-1.597 0-2.316-.86-2.127-2.46.608-5.136 1.195-10.273 1.797-15.41.562-4.806 1.128-9.613 1.698-14.42.322-2.731.643-5.464.962-8.198.139-1.174.84-1.822 2.024-1.824h15.32c.673 0 1.077.346 1.073.887-.005.54-.405.867-1.09.868H11.332L6.794 44.508h8.327V41.94c.025-2.782 1.125-5.04 3.343-6.697a8.147 8.147 0 0 1 6.423-1.458 8.144 8.144 0 0 1 3.099 1.319 8.22 8.22 0 0 1 2.308 2.462l.328.55c.112-.179.204-.313.29-.47 1.934-3.198 5.682-4.718 9.201-3.727a8.207 8.207 0 0 1 4.342 2.937 8.288 8.288 0 0 1 1.694 4.98c.01.874 0 1.75 0 2.66h5.358c-1.51-12.913-3.015-25.796-4.533-38.749H31.638a3.06 3.06 0 0 1-.582-.017c-.453-.093-.722-.385-.728-.855a.823.823 0 0 1 .664-.848c.19-.036.385-.048.578-.035h14.913c1.469 0 2.095.537 2.269 2.002.622 5.253 1.24 10.506 1.85 15.757.605 5.137 1.21 10.273 1.817 15.408.277 2.348.557 4.697.822 7.035.13 1.164-.704 2.095-1.888 2.108-1.495.014-2.99 0-4.485 0h-.67v2.207c.166.008.311.024.467.024 1.942 0 3.89.012 5.826 0 1.986-.016 3.3-1.591 3.058-3.565-.501-4.125-.97-8.255-1.45-12.385a4.39 4.39 0 0 1-.025-.35c-.025-.606.26-1 .76-1.054.502-.055.894.29.97.877.136 1.044.248 2.093.37 3.14.37 3.217.72 6.437 1.12 9.653.35 2.827-1.734 5.367-4.56 5.43-1.96.044-3.923.013-5.884.015h-.694v7.832c0 1.282-.58 1.868-1.84 1.879H41.98c-1.122 0-1.586-.376-1.83-1.463a2.394 2.394 0 0 0-.08-.228h-8.486c-.403 1.456-.713 1.69-2.208 1.69H27.22c-1.09-.009-1.695-.599-1.7-1.7-.01-2.421 0-4.843 0-7.265v-.737H5.881c-2.957 0-5.172-2.356-4.885-5.192.24-2.418.548-4.82.828-7.224.448-3.862.897-7.72 1.348-11.573.488-4.207.978-8.413 1.469-12.618.36-3.077.719-6.158 1.077-9.244C5.981 2.167 7.284.664 9.498.103c.07-.027.136-.062.198-.103H48.61ZM29.724 58.22c.01-.14.025-.233.025-.327 0-5.428.043-10.854-.028-16.282-.033-2.504-1.31-4.383-3.529-5.515-2.218-1.132-4.428-.986-6.45.439-2.918 2.055-3.082 4.674-2.802 7.959h2.425c0-.965-.028-1.88 0-2.798a3.977 3.977 0 0 1 1.628-3.035 3.924 3.924 0 0 1 3.377-.6c1.78.509 2.879 2.044 2.882 4.058v16.099l2.472.002Zm4.307-13.701c0-1-.028-1.935 0-2.868.073-2.072 1.797-3.714 3.89-3.737a3.878 3.878 0 0 1 2.705 1.041 3.923 3.923 0 0 1 1.24 2.631c.048.896.037 1.796.019 2.693a.92.92 0 0 0 .43.863c1.4 1.02 1.624 3.106.34 4.227-.688.602-.839 1.207-.767 2.008.03.35-.028.706.017 1.052a.912.912 0 0 0 .283.564c1.712 1.302 1.728 3.517.008 4.806a4.415 4.415 0 0 0-.398.4h2.611V56.25c0-4.783.04-9.567-.015-14.35-.033-2.818-1.401-4.873-3.979-6.008-2.397-1.057-5.111-.456-6.979 1.409-2.033 2.035-2.064 4.576-1.893 7.214l2.488.003Zm-2.5 4.012h7.812c.445 0 .892.014 1.337-.01a1.098 1.098 0 0 0 .838-1.737 1.102 1.102 0 0 0-.639-.43 2.357 2.357 0 0 0-.576-.054h-8.262c-.166 0-.334.024-.51.038v2.193Zm-.008 7.984h8.716a3.8 3.8 0 0 0 .523-.022c.253-.029.488-.146.664-.33a1.1 1.1 0 0 0 .3-.681 1.1 1.1 0 0 0-.817-1.133 2.819 2.819 0 0 0-.69-.066h-8.084c-.204 0-.406.018-.612.03v2.202Zm-6.005-12V42.35c0-.215 0-.432-.015-.644-.123-1.119-.934-1.936-1.993-2.025-1.097-.093-2.121.573-2.285 1.722-.146 1.019-.03 2.077-.03 3.12l4.323-.006Zm14.594 5.809H31.54v2.155h8.572v-2.155Zm-4.316-5.818h4.311c.017-.101.028-.203.034-.305 0-.836.027-1.675-.018-2.505a2.156 2.156 0 0 0-.654-1.425 2.132 2.132 0 0 0-1.441-.6c-1.09-.037-2.13.794-2.217 1.895-.076.964-.015 1.938-.015 2.946v-.006Z"/>
  <path fill="#1C284C" d="M37.883 27.084c-2.716 2.622-6.411 2.315-8.735-.02-1.199 1.2-2.646 1.878-4.358 1.878-1.712 0-3.132-.648-4.358-1.879-.168.157-.324.29-.484.426a5.916 5.916 0 0 1-4.359 1.439c-.694-.046-1.05-.387-1.03-.94.02-.552.394-.853 1.107-.812a4.334 4.334 0 0 0 1.998-.314 4.358 4.358 0 0 0 1.642-1.187c.682-.748 1.529-.744 2.232-.024 2.01 2.056 4.514 2.062 6.492.018.707-.73 1.53-.735 2.235-.013 2.005 2.05 4.524 2.054 6.493 0 .698-.726 1.548-.748 2.228 0 1 1.096 2.214 1.6 3.688 1.51.668-.041 1.036.256 1.065.798.028.541-.312.897-.958.948a5.883 5.883 0 0 1-4.425-1.42c-.16-.131-.316-.274-.473-.408Zm.02-7.193c-3.51 2.472-5.724 2.472-8.765-.02-1.2 1.175-2.646 1.858-4.358 1.852-1.712-.007-3.127-.65-4.35-1.879-.933.908-1.984 1.539-3.241 1.764a5.77 5.77 0 0 1-.866.096c-.538.014-.885-.279-.934-.752-.054-.512.228-.87.779-.975.247-.045.504-.044.75-.095a4.225 4.225 0 0 0 2.28-1.319c.816-.889 1.611-.889 2.435-.018 1.818 1.922 4.493 1.91 6.325-.027.778-.82 1.59-.825 2.358-.014 1.868 1.965 4.514 1.97 6.366.012.779-.82 1.599-.83 2.354-.009a4.245 4.245 0 0 0 2.892 1.447c.692.054 1.025.42.976.981-.049.533-.427.8-1.098.763a5.845 5.845 0 0 1-3.58-1.514 9.898 9.898 0 0 0-.323-.293Zm-.028-7.286c-2.498 2.454-6.195 2.475-8.73 0-1.203 1.184-2.646 1.865-4.358 1.86a5.835 5.835 0 0 1-4.203-1.722c-.99.521-1.902 1.008-2.823 1.476-.178.081-.37.125-.565.129a.808.808 0 0 1-.906-.655c-.12-.47.073-.878.5-.99 1.09-.292 1.954-.877 2.731-1.688.582-.606 1.438-.46 2.097.256 1.007 1.096 2.24 1.566 3.712 1.41a4.081 4.081 0 0 0 2.578-1.34c.857-.915 1.63-.918 2.476-.02 1.762 1.88 4.483 1.88 6.248.015.864-.911 1.636-.92 2.473 0a4.557 4.557 0 0 0 2.223 1.312c.554.156.809.57.698 1.04-.12.51-.532.747-1.123.644a1.13 1.13 0 0 1-.337-.088 142.91 142.91 0 0 1-2.275-1.252 2.865 2.865 0 0 1-.416-.387Z"/>
</svg>
