<svg xmlns="http://www.w3.org/2000/svg" width="61" height="60" fill="none" viewBox="0 0 61 60">
  <g clip-path="url(#a)">
    <mask id="b" width="60" height="60" x="0" y="0" maskUnits="userSpaceOnUse" style="mask-type:luminance">
      <path fill="#fff" d="M.568.482h59.04v59.04H.568V.483Z"/>
    </mask>
    <g mask="url(#b)">
      <path fill="#1C284C" d="M57.641 53.62H49.77V6.386a.985.985 0 0 0 .984-.984V1.467a.984.984 0 0 0-.984-.985H10.41a.984.984 0 0 0-.984.985v3.936a.984.984 0 0 0 .984.984v47.232H2.537A1.97 1.97 0 0 0 .57 55.587v2.952a.982.982 0 0 0 .985.984h57.072a.984.984 0 0 0 .984-.984v-2.952a1.97 1.97 0 0 0-1.968-1.968ZM11.393 2.45h37.392v1.968H11.393V2.45Zm.984 3.936h35.425V53.62h-9.84V40.827a7.872 7.872 0 1 0-15.744 0v12.792h-9.84V6.386ZM24.185 53.62V41.81h4.92v4.92h-.984a.984.984 0 1 0 0 1.968h.984v4.92h-4.92Zm10.712-16.207c.515.723.86 1.555 1.008 2.43h-3.44l2.431-2.43Zm-3.824 1.04v-3.44a5.864 5.864 0 0 1 2.432 1.008l-2.432 2.432Zm-1.968 0-2.431-2.432a5.864 5.864 0 0 1 2.431-1.008v3.44Zm-3.822-1.04 2.43 2.43h-3.439a5.866 5.866 0 0 1 1.009-2.43Zm5.79 11.287h.984a.984.984 0 0 0 0-1.968h-.984v-4.92h4.92V53.62h-4.92V48.7Zm26.568 8.856H2.537v-1.968H57.64v1.968Z"/>
    </g>
    <path fill="#1C284C" d="M16.313 30.986h5.905a.984.984 0 0 0 .984-.983V9.338a.984.984 0 0 0-.984-.984h-5.905a.984.984 0 0 0-.983.984v20.665a.984.984 0 0 0 .983.983Zm4.92-13.156-3.936 4.592v-2.88l3.936-4.592v2.88Zm-3.936 11.188v-3.572l3.936-4.592v8.164h-3.936Zm3.936-18.696v1.604l-3.936 4.592v-6.196h3.936Zm16.728 20.664h5.904a.984.984 0 0 0 .984-.983V9.338a.984.984 0 0 0-.983-.984H37.96a.984.984 0 0 0-.983.984v20.665a.985.985 0 0 0 .983.983Zm4.92-13.156-3.936 4.592v-2.88l3.936-4.592v2.88Zm-3.936 11.188v-3.572l3.936-4.592v8.164h-3.936Zm3.936-18.696v1.604l-3.936 4.592v-6.196h3.936ZM27.138 30.986h5.904a.984.984 0 0 0 .984-.983V9.338a.984.984 0 0 0-.984-.984h-5.904a.984.984 0 0 0-.984.984v20.665a.985.985 0 0 0 .984.983Zm4.92-13.156-3.936 4.592v-2.88l3.935-4.592.001 2.88Zm-3.936 11.188v-3.572l3.935-4.592.001 8.164h-3.936Zm3.935-18.696v1.604l-3.935 4.592v-6.196h3.935ZM19.265 38.857h-3.936a.984.984 0 0 0-.984.984v7.872a.984.984 0 0 0 .984.984h3.936a.984.984 0 0 0 .984-.984v-7.872a.984.984 0 0 0-.984-.984Zm-.984 7.872h-1.968v-5.904h1.968v5.904Zm22.632-7.872a.984.984 0 0 0-.984.984v7.872a.984.984 0 0 0 .984.984h3.936a.984.984 0 0 0 .984-.984v-7.872a.981.981 0 0 0-.984-.984h-3.936Zm2.952 7.872h-1.968v-5.904h1.968v5.904Z"/>
  </g>
  <defs>
    <clipPath id="a">
      <path fill="#fff" d="M.09.002h60v60h-60z"/>
    </clipPath>
  </defs>
</svg>
