<svg xmlns="http://www.w3.org/2000/svg" width="61" height="60" fill="none" viewBox="0 0 61 60">
  <path fill="#1C284C" d="M41.64 28.702c-.245-.489-.489-.896-.897-1.304l-11.82-11.82c-3.342-3.343-8.479 1.793-5.136 5.135l9.376 9.375L23.95 39.3c-3.342 3.342 1.793 8.479 5.135 5.136l11.821-11.82c1.305-1.223 1.305-2.69.733-3.913Z"/>
  <path fill="#1C284C" d="M30.145.002c-16.55 0-30 13.452-30 30 0 16.55 13.451 30 30 30s30-13.451 30-30c0-16.548-13.451-30-30-30Zm0 54.294c-13.452 0-24.295-10.923-24.295-24.294 0-13.451 10.924-24.294 24.294-24.294 13.37 0 24.295 10.924 24.295 24.294 0 13.37-10.843 24.294-24.294 24.294Z"/>
</svg>
