<svg xmlns="http://www.w3.org/2000/svg" width="87" height="60" fill="none" viewBox="0 0 87 60">
  <mask id="a" width="87" height="61" x="0" y="0" maskUnits="userSpaceOnUse" style="mask-type:luminance">
    <path fill="#fff" d="M.287.002h86.367v60H.287v-60Z"/>
  </mask>
  <g mask="url(#a)">
    <path fill="#1C284C" fill-rule="evenodd" d="M27.535 51.72a3.256 3.256 0 0 1-3.265 3.262 3.259 3.259 0 0 1-3.267-3.263 3.259 3.259 0 0 1 3.267-3.264 3.258 3.258 0 0 1 3.265 3.264Zm41.76.001a3.257 3.257 0 0 1 3.264-3.264 3.258 3.258 0 0 1 3.264 3.264 3.256 3.256 0 0 1-3.264 3.263 3.258 3.258 0 0 1-3.264-3.263Zm-23.639-3.266a3.258 3.258 0 0 1 3.265 3.264 3.256 3.256 0 0 1-3.265 3.263 3.257 3.257 0 0 1-3.264-3.263 3.257 3.257 0 0 1 3.264-3.264ZM72.49 24.108h1.1l8.158 9.568v.805H72.49V24.108ZM14.648 41.812h49.15V24.108h3.79v15.277h14.164v9.856h-1.404a8.165 8.165 0 0 0-7.787-5.688 8.168 8.168 0 0 0-7.786 5.688H53.443a8.165 8.165 0 0 0-7.787-5.688 8.167 8.167 0 0 0-7.786 5.688h-5.815a8.165 8.165 0 0 0-7.785-5.688 8.167 8.167 0 0 0-7.787 5.688h-1.835v-7.43Zm0-5.276 28.774-6.332 1.732 6.702H14.648v-.37ZM47.318 9.82l3.043 13.836-37.447 8.24-5.753-13.242L47.317 9.82Zm-4.054 12.64-1.99-9.122-4.18.904 1.992 9.121 4.178-.903Zm-11.421 2.508-2.007-9.121-4.18.918 2.006 9.124 4.18-.92Zm-11.44 2.522-1.992-9.121-4.18.903 1.99 9.122 4.182-.904Zm35.803-.1L51.46 5.812l6.915-1.522-.919-4.18-11.373 2.503.517 2.343L.287 15.143l9.455 21.763.002 17.237h6.721a8.17 8.17 0 0 0 7.806 5.745 8.165 8.165 0 0 0 7.803-5.745h5.778a8.169 8.169 0 0 0 7.804 5.745 8.168 8.168 0 0 0 7.803-5.745h11.295a8.169 8.169 0 0 0 7.806 5.745 8.171 8.171 0 0 0 7.806-5.745h6.288V31.868l-10.8-12.665H58.892v17.703h-8.675l-2.004-7.758 7.994-1.758Z" clip-rule="evenodd"/>
  </g>
</svg>
