<svg xmlns="http://www.w3.org/2000/svg" width="72" height="60" fill="none" viewBox="0 0 72 60">
  <path fill="#1C284C" d="M3.216 34.852c.358-2.808.57-5.535 1.085-8.2.516-2.665 1.339-5.275 2.037-7.944-.159 0-.38-.02-.61-.04-.178-.017-.433.016-.512-.085-.204-.25-.518-.676-.432-.834.334-.615-.654-1.78.77-1.892.324-.027.652 0 1.05 0L4.097 6.765a375.774 375.774 0 0 0-1.506-5.482C2.435.729 2.4.22 3.051.04c.651-.18.865.31 1.018.85 1.3 4.714 2.624 9.444 3.903 14.173.163.615.395.882 1.018.775.222-.039.502-.084.677.014.304.21.587.449.847.712-.544.58.597 1.66-.599 2.05a4.207 4.207 0 0 1-.533.1.68.68 0 0 0 .032.228c3.123 4.89 6.425 9.635 10.511 13.789 2.098 2.121 2.106 2.121 5.078 2.121h.762c.923.05 1.593.472 1.931 1.362.338.89.153 1.86-.582 2.437-.408.32-.363.578-.204.964 1.876 4.356 5.135 6.718 9.882 6.986a1.45 1.45 0 0 0 .666-.082c2.805-1.31 5.318-2.995 7.064-5.65.167-.254.31-.526.462-.791.345-.6.556-1.082-.203-1.663-.699-.54-.695-1.435-.363-2.255.144-.387.404-.72.744-.953.34-.233.744-.353 1.155-.344.965-.029 1.935.028 2.896-.027a1.93 1.93 0 0 0 1.076-.398c3.799-3.276 6.883-7.17 9.724-11.27.986-1.436 1.915-2.887 2.913-4.398-.61-.187-1.413-.084-1.344-.962.145-1.845.167-1.845 2.32-2.023.467-1.68.945-3.391 1.426-5.103.906-3.28 1.797-6.548 2.736-9.81.096-.331.407-.743.719-.836.587-.178.939.435.73 1.198a4527.334 4527.334 0 0 0-4.007 14.504c.637.297 1.833-.322 1.82.939-.018 1.763-.083 1.76-1.81 2.074 1.935 5.17 3.312 10.456 3.314 16.093h.796c1.106.043 1.886.669 2.09 1.667.218 1.074-.224 1.952-1.185 2.495-.238.15-.41.386-.48.66-1 4.89-3.735 8.66-7.45 11.804-.39.33-.79.382-1.14-.029-.388-.455-.203-.84.205-1.18a22.327 22.327 0 0 0 4.48-4.998 16.126 16.126 0 0 0 2.41-6.105h-.873c-6.633 0-13.265 0-19.9-.013-.558 0-.845.123-1.057.691-.89 2.405-2.544 4.223-4.565 5.716-3.345 2.474-7.154 3.835-11.203 4.549-6.185 1.099-12.296.742-18.203-1.6a24.373 24.373 0 0 1-6.722-4.1c.126.206.246.435.379.646 2.454 3.924 5.927 6.696 9.965 8.793 5.363 2.786 11.108 4.145 17.11 4.51 6.686.41 13.174-.488 19.42-2.97 1.152-.46 2.27-1.015 3.389-1.56.503-.244.978-.435 1.306.182.328.617-.096.925-.587 1.18A41.205 41.205 0 0 1 43.432 59.5c-8.148 1.14-16.117.363-23.833-2.577-4.789-1.824-9.095-4.422-12.513-8.341-2.24-2.567-3.78-5.495-4.418-8.869-.074-.392-.204-.535-.612-.615C.88 38.893.25 37.987.341 36.768c.086-1.124.9-1.891 2.072-1.938.297.004.603.022.803.022ZM34.093 47.81c-4.396-1.181-7.13-3.932-8.688-7.93-.204-.541-.457-.721-1.033-.72-6.372.021-12.744.013-19.117.013H4.34c.318.615.532 1.123.815 1.585 1.426 2.267 3.463 3.854 5.766 5.102 4.343 2.345 9.023 3.32 13.917 3.334a30.338 30.338 0 0 0 9.255-1.392v.008Zm-14.243-13c-4.767-4.59-8.42-9.887-11.984-15.406-1.727 5.07-2.941 10.095-2.882 15.406H19.85Zm44.337-15.223c-3.463 5.551-7.2 10.715-11.912 15.205H67.29c.008-5.269-1.288-10.189-3.103-15.205ZM4.584 37.606c.204 0 .355.022.506.022h20.26c.126 0 .291.045.372-.016.216-.164.542-.37.548-.568.006-.199-.264-.484-.48-.636-.139-.098-.395-.028-.597-.028H4.584v1.226Zm43.92 0c.186.012.335.028.485.028h20.336c.126 0 .291.041.372-.022.204-.152.51-.367.498-.535a1.1 1.1 0 0 0-.465-.658c-.134-.1-.393-.033-.597-.033H48.504v1.22ZM3.338 37.03c-.42-.302-.675-.615-.892-.599-.218.016-.508.367-.559.615-.028.148.339.529.532.533.24.004.487-.267.919-.55Zm43.027.898c.298-.456.612-.724.573-.93a.935.935 0 0 0-.63-.563c-.134-.029-.5.359-.509.568-.008.209.281.47.566.925Z"/>
  <path fill="#1C284C" d="M59.74 51.92c.19.28.489.541.54.847a.619.619 0 0 1-.419.731.607.607 0 0 1-.304.013c-.286-.056-.687-.447-.701-.708-.014-.26.35-.598.548-.897l.336.014Z"/>
</svg>
