<svg xmlns="http://www.w3.org/2000/svg" width="51" height="60" fill="none" viewBox="0 0 51 60">
  <path fill="#1C284C" d="M31.498 42.24a1.33 1.33 0 0 0-1.342 1.341c0 .79.632 1.342 1.342 1.342a1.33 1.33 0 0 0 1.342-1.342c0-.71-.631-1.342-1.342-1.342Zm0 1.972a.623.623 0 0 1-.631-.631c0-.395.315-.632.631-.632s.632.316.632.632c-.08.474-.395.631-.632.631Z"/>
  <path fill="#1C284C" d="m43.26 45.712 2.448 4.58 4.421-2.922L25.104.002.078 47.292l4.421 2.921 2.448-4.579v2.21h-.79v1.501h.79v4.105H4.104v3.632h2.842v2.92h2.29V57.16h9.078v2.842h2.29V57.16h9.08v2.842h2.288V57.16h9.08v2.842h2.21V57.16h2.842v-3.632h-2.842l-.002-7.816ZM3.63 46.898l-.553-.395L25.103 4.819 47.05 46.502l-.632.395L25.102 6.555 3.629 46.897Zm10.104-8.053h2.842v2.606h-2.842v-2.606Zm3.632 0h2.842v2.606h-2.842v-2.606Zm2.92-.71h-2.842v-3.158h2.843v3.158Zm-3.63 0h-2.843v-3.158h2.842v3.158Zm-7.5 3.395 3.079-5.921v7.263h9.473v-9.474H13.34l11.763-22.026 15.947 30v12.08h-6.079V31.897h-10.5V53.45h-4.895v-4.105h4.026v-1.5h-4.105v-1.421h-1.5v1.42H13.34v-1.42h-1.5v1.42H9.155V41.53ZM26.05 52.897v-19.5h7.421v19.5h-7.42Zm-12.71.552v-4.105h4.657v4.105H13.34Zm-4.184-4.026h2.684v4.105H9.156v-4.105Zm35.526 6.158H5.524v-.632h39l.158.632Z"/>
</svg>
