<svg xmlns="http://www.w3.org/2000/svg" width="63" height="60" fill="none" viewBox="0 0 63 60">
  <path fill="#1C284C" d="M62.29 27.855c-.152.957-.282 1.92-.469 2.871-1.042 5.33-3.57 9.817-7.435 13.48-1.33 1.258-2.874 2.28-4.32 3.41-.142.111-.294.208-.456.324 1.721 3.654 1.402 7.037-1.49 9.86-2.294 2.248-5.103 2.77-8.045 1.59-3.193-1.283-4.775-3.868-5.017-7.402l-7.694-.188c-.094 2.94-1.233 5.286-3.635 6.881a7.355 7.355 0 0 1-2.824 1.16 7.267 7.267 0 0 1-3.04-.094 7.641 7.641 0 0 1-2.892-1.349 7.89 7.89 0 0 1-2.122-2.43 8.121 8.121 0 0 1-.995-3.1 8.18 8.18 0 0 1 .299-3.252l-.944-.297c-2.562-.804-5.032-1.81-7.175-3.514C1.586 43.852.158 41.34.145 38.08c0-1.229.734-2.014 1.921-2.115.703-.061 1.422-.107 2.094-.304 2.057-.602 3.031-2.208 3.507-4.222.394-1.675.347-3.363.283-5.077-.108-2.824.387-5.586 1.303-8.254 2.119-6.178 6.034-10.82 11.488-14.136A26.692 26.692 0 0 1 36.523.062c9.017.548 16.33 4.486 21.588 12.13 2.363 3.44 3.7 7.306 4.069 11.516.024.14.06.278.11.411v3.736ZM4.366 39.749c.438 1.312 1.282 2.245 2.3 3.02 2.202 1.682 4.765 2.503 7.375 3.175a.863.863 0 0 0 .647-.19c3.638-2.89 8.361-2.246 11.157 1.51.191.222.454.364.74.4.742.083 1.493.097 2.241.118 2.203.06 4.41.101 6.612.167.535.017.867-.186 1.18-.657 2.063-3.108 6.194-4.222 9.474-2.553.444.225.76.186 1.162-.052a22.51 22.51 0 0 0 5.006-3.91c4.633-4.911 6.81-10.719 5.908-17.59-.67-5.116-2.978-9.398-6.706-12.776-6.267-5.674-13.63-7.55-21.728-5.737-7.906 1.77-13.66 6.466-16.7 14.341a17.452 17.452 0 0 0-1.208 7.009c.073 1.815.152 3.612-.167 5.404-.429 2.476-1.368 4.691-3.256 6.377-1.156 1.03-2.52 1.62-4.035 1.944h-.002Z"/>
  <path fill="#1C284C" d="M35.13 39.999a11.686 11.686 0 0 1-7.419-2.645 12.28 12.28 0 0 1-4.2-6.824c-.258-1.107.29-2.131 1.316-2.464a1.854 1.854 0 0 1 1.47.135c.224.123.422.29.582.492.16.202.28.435.351.685.388 1.229.793 2.44 1.61 3.454 1.802 2.236 4.105 3.328 6.927 3.043 3.623-.364 5.95-2.419 7.011-5.986.271-.905.67-1.662 1.645-1.876 1.416-.313 2.614 1.036 2.263 2.527-1.19 5.05-5.068 8.646-10.051 9.312-.5.064-1.003.098-1.505.147Zm-7.772-22.005a1.9 1.9 0 0 1 1.082.332c.32.218.571.53.72.895.147.366.186.768.111 1.156-.074.388-.26.745-.532 1.024-.272.28-.619.47-.996.546a1.89 1.89 0 0 1-1.124-.117 1.954 1.954 0 0 1-.87-.741 2.037 2.037 0 0 1-.32-1.114 2.04 2.04 0 0 1 .574-1.393c.36-.37.846-.58 1.355-.588Zm15.575 3.989a1.95 1.95 0 0 1-1.385-.595 2.062 2.062 0 0 1-.58-1.424c.004-.265.058-.527.16-.77.103-.244.252-.464.439-.647a1.93 1.93 0 0 1 .647-.421c.24-.095.498-.14.755-.13.255.002.507.056.74.158.235.103.447.252.626.439a2 2 0 0 1 .414.65 2.044 2.044 0 0 1-.44 2.17 1.934 1.934 0 0 1-.633.425 1.89 1.89 0 0 1-.743.145Z"/>
</svg>
