<svg width="67" height="67" viewBox="0 0 67 67" fill="none" xmlns="http://www.w3.org/2000/svg">
<g clip-path="url(#clip0_3793_6941)">
<path d="M0.77832 5.86677C0.930075 5.41998 1.04389 4.93595 1.25255 4.50777C2.3338 2.12487 4.23073 0.896187 6.86746 0.691406C6.98128 0.691406 7.07612 0.691406 7.18994 0.691406C24.9262 0.691406 42.6625 0.691406 60.3988 0.691406C63.0545 0.691406 65.0842 1.86424 66.2223 4.24714C66.5828 4.9918 66.7914 5.86677 66.8104 6.66728C66.8483 14.8771 66.8294 23.087 66.8483 31.2968C66.8483 31.8553 66.6776 32.2648 66.1275 32.4138C65.6343 32.5441 65.217 32.3579 65.0083 31.8925C64.9135 31.6505 64.9135 31.3526 64.9135 31.092C64.9135 23.087 64.9135 15.1005 64.9135 7.09545C64.9135 5.08488 63.8891 3.50249 62.106 2.90676C61.4611 2.68336 60.7213 2.64613 60.0194 2.62751C44.2749 2.62751 28.5494 2.62751 12.8048 2.62751C11.0028 2.62751 9.18171 2.68336 7.37963 2.62751C4.57218 2.53443 2.71319 4.63809 2.71319 7.22577C2.75113 18.6935 2.71319 30.1426 2.71319 41.6103C2.71319 41.8151 2.71319 42.0385 2.71319 42.2991H5.44476C5.44476 42.0757 5.44476 41.8337 5.44476 41.5917C5.44476 34.201 5.44476 26.8102 5.44476 19.4381C5.44476 19.252 5.44476 19.0658 5.44476 18.861C5.4827 18.2281 5.86209 17.8185 6.39323 17.7813C6.96231 17.7627 7.37963 18.1908 7.41757 18.8424C7.41757 19.0286 7.41757 19.2147 7.41757 19.4195C7.41757 24.6135 7.41757 29.8075 7.41757 35.0015C7.41757 35.2435 7.41757 35.5041 7.41757 35.9137C7.85386 35.5972 8.19531 35.3552 8.51779 35.1132C9.29553 34.536 10.0733 33.9962 10.832 33.3818C11.0028 33.2515 11.1355 32.935 11.1166 32.7116C10.7751 28.1134 10.4147 23.4965 10.0353 18.8983C9.73182 15.1564 9.42831 11.4145 9.12481 7.67256C9.12481 7.54225 9.08687 7.43055 9.04893 7.24438C8.8213 7.24438 8.61263 7.24438 8.40397 7.24438C7.62623 7.24438 7.41757 7.44917 7.3986 8.23105C7.3986 10.0741 7.3986 11.8985 7.3986 13.7415C7.3986 13.9463 7.3986 14.1697 7.37963 14.3745C7.30375 14.933 7.00025 15.2494 6.39323 15.2681C5.84312 15.2681 5.44476 14.8957 5.40683 14.3C5.36889 13.7787 5.40683 13.2389 5.40683 12.7176C5.40683 11.3028 5.46373 9.88792 5.40683 8.47307C5.31198 6.76036 6.4122 5.28966 8.61263 5.28966C19.4251 5.34551 30.2376 5.30828 41.0501 5.30828C47.0254 5.30828 53.0008 5.34551 58.9761 5.28966C61.1765 5.27104 62.1819 6.79759 62.1629 8.41722C62.125 19.4381 62.1439 30.4591 62.1439 41.4614V42.2991H64.8755C64.8755 42.0943 64.8755 41.8709 64.8755 41.6475C64.8755 39.8045 64.8755 37.9801 64.8755 36.1371C64.8755 35.3924 65.217 34.9828 65.843 34.9828C66.4689 34.9828 66.8104 35.3738 66.8104 36.1371C66.8104 38.3338 66.8104 40.5305 66.8104 42.7273C66.8104 43.6767 66.2793 44.2538 65.3308 44.2911C64.1357 44.3283 62.9217 44.3283 61.7266 44.2911C60.7213 44.2538 60.1901 43.6953 60.1711 42.6528C60.1522 41.4055 60.1522 40.1582 60.1711 38.9109C60.1711 38.52 60.0573 38.2593 59.7349 38.0173C58.3122 36.9934 56.9274 35.9323 55.5047 34.9084C55.2581 34.7222 54.8787 34.5919 54.5752 34.5919C40.7276 34.5919 26.8801 34.5919 13.0325 34.5919C12.729 34.5919 12.3686 34.7222 12.103 34.9084C10.6613 35.9323 9.23862 36.9934 7.83489 38.0732C7.62623 38.2407 7.45551 38.5758 7.45551 38.8551C7.41757 40.0837 7.45551 41.2938 7.43654 42.5225C7.43654 43.7698 6.88643 44.2911 5.61549 44.3097C4.68599 44.3097 3.7565 44.2724 2.84597 44.3097C1.95442 44.3655 1.25255 44.1049 0.77832 43.3416C0.77832 30.85 0.77832 18.3584 0.77832 5.86677ZM58.5208 7.263C58.4829 7.4864 58.4639 7.67256 58.4449 7.84011C58.1225 11.8054 57.819 15.7893 57.5154 19.7546C57.174 24.1109 56.8136 28.4485 56.4532 32.8047C56.4532 32.9537 56.4721 33.1771 56.586 33.2515C57.7241 34.1265 58.9002 34.9828 60.1901 35.9323V35.1132C60.1901 26.2517 60.1901 17.3903 60.1901 8.52892C60.1901 8.34275 60.1901 8.15659 60.1901 7.95181C60.1522 7.50501 59.8866 7.263 59.4313 7.263C59.1658 7.263 58.9192 7.263 58.5588 7.263H58.5208ZM11.0976 7.28162C11.1545 8.06351 11.1925 8.78955 11.2683 9.5342C11.2683 9.66452 11.477 9.8693 11.6098 9.88792C12.6721 9.90653 13.7533 9.88792 14.8346 9.88792V7.28162H11.1166H11.0976ZM56.5101 7.28162H52.7921V9.88792C53.8923 9.88792 54.9736 9.88792 56.0358 9.88792C56.1497 9.88792 56.3394 9.70175 56.3394 9.59005C56.4152 8.8454 56.4532 8.10074 56.5101 7.31885V7.28162ZM11.6477 14.3931H14.8156V11.8613H11.458C11.5339 12.7176 11.5908 13.5367 11.6667 14.3931H11.6477ZM52.8111 11.824V14.4303C53.7785 14.4303 54.689 14.4303 55.5995 14.4303C55.7323 14.4303 55.96 14.3 55.96 14.2069C56.0358 13.425 56.0738 12.6431 56.1307 11.8426H52.7921L52.8111 11.824ZM25.0969 9.85068V7.28162H21.967V9.85068H25.0969ZM42.4918 9.85068H45.6217V7.30023H42.4918V9.85068ZM16.8832 7.28162V9.83207H19.9563V7.28162H16.8832ZM16.8643 23.4965H19.9563V20.9833H16.8643V23.4965ZM50.7434 7.30023H47.6514V9.85068H50.7434V7.30023ZM16.8832 11.8426V14.3931H19.9752V11.8426H16.8832ZM21.986 11.8426V14.3745H25.1159V11.8426H21.986ZM42.5107 18.9355H45.6407V16.4037H42.5107V18.9355ZM50.7434 16.4037H47.6325V18.9541H50.7434V16.4037ZM47.6514 20.9647V23.4779H50.7434V20.9647H47.6514ZM45.6217 14.4117V11.8613H42.5297V14.4117H45.6217ZM47.6325 14.3931H50.7434V11.8613H47.6325V14.3931ZM16.8643 18.9355H19.9563V16.385H16.8643V18.9355ZM25.0969 16.4223H21.967V18.9355H25.0969V16.4223ZM45.6407 20.9647H42.4918V23.4593H45.6407V20.9647ZM25.1159 20.9833H21.986V23.4965H25.1159V20.9833ZM32.2863 16.385V18.9355H35.3214V16.385H32.2863ZM37.427 16.4037V18.9541H40.481V16.4037H37.427ZM30.1807 23.5151V20.9833H27.1267V23.5151H30.1807ZM35.3214 23.5151V20.9833H32.2863V23.5151H35.3214ZM37.427 20.9461V23.4965H40.481V20.9461H37.427ZM27.1267 9.83207H30.1997V7.28162H27.1267V9.83207ZM35.3404 7.30023H32.2863V9.8693H35.3404V7.30023ZM37.408 9.85068H40.481V7.31885H37.408V9.85068ZM30.1997 11.8613H27.1267V14.3931H30.1997V11.8613ZM35.3404 11.8426H32.2863V14.3931H35.3404V11.8426ZM37.408 14.3931H40.481V11.8613H37.408V14.3931ZM27.1077 18.9541H30.1997V16.4223H27.1077V18.9541ZM42.5107 25.5071V28.0203H45.6407V25.5071H42.5107ZM47.6514 25.5071V28.0389H50.7244V25.5071H47.6514ZM16.8643 30.0681V32.5813H19.9563V30.0681H16.8643ZM25.1159 30.0681H21.986V32.5441H25.1159V30.0681ZM45.6217 30.0867H42.4918V32.5813H45.6217V30.0867ZM50.7434 30.0681H47.6514V32.5627H50.7434V30.0681ZM16.8832 25.5071V28.0389H19.9563V25.5071H16.8832ZM25.0969 25.5257H21.967V28.0203H25.0969V25.5257ZM35.3214 28.0389V25.5257H32.2863V28.0389H35.3214ZM40.481 25.5071H37.408V28.0203H40.481V25.5071ZM27.1456 30.0681V32.5627H30.2186V30.0681H27.1456ZM35.3404 32.5813V30.0681H32.3053V32.5813H35.3404ZM37.408 30.0681V32.5813H40.4621V30.0681H37.408ZM30.2186 25.5257H27.1267V28.0203H30.2186V25.5257ZM11.8184 16.4037C11.8943 17.3159 11.9702 18.135 12.0271 18.9541H14.8156V16.4037H11.8184ZM52.7731 18.9355H55.5806C55.6375 18.0605 55.6944 17.2414 55.7513 16.4037H52.7731V18.9355ZM12.1978 20.9461C12.2737 21.8397 12.3306 22.6588 12.4065 23.4965H14.8156V20.9461H12.1978ZM55.4099 20.9647H52.7731V23.4965H55.2012C55.2771 22.6588 55.334 21.8397 55.4099 20.9647ZM54.8408 28.0389C54.9167 27.1826 54.9736 26.3634 55.0494 25.5257H52.7921V28.0389H54.8408ZM14.8156 28.0389V25.5257H12.5582C12.6341 26.3821 12.71 27.2012 12.7669 28.0389H14.8156ZM12.9187 30.0681C12.9945 30.9431 13.0704 31.7622 13.1463 32.5627H14.8156V30.0681H12.9187ZM52.7921 30.0681V32.5813H54.4804C54.5562 31.7436 54.6131 30.9245 54.689 30.0681H52.7921Z" fill="#1C284C"/>
<path d="M46.4752 54.2644C46.4373 61.2642 40.7655 66.8305 33.6899 66.756C26.1022 66.6815 20.9995 60.2589 21.1512 53.8548C21.303 47.3019 27.0317 41.8286 33.8796 41.9031C40.9552 41.9776 46.5321 47.4508 46.4942 54.283L46.4752 54.2644ZM36.2318 57.392C36.6871 55.9957 37.1613 54.5995 37.6166 53.2033C37.6545 53.0916 37.5976 52.8495 37.5028 52.7937C36.2887 51.9001 35.0557 51.0438 33.8227 50.1688C32.4949 51.1182 31.2429 52.0118 29.934 52.9426C30.4272 54.4506 30.9204 55.9213 31.4136 57.4106H36.2318V57.392ZM33.8796 59.3467C33.1019 59.3467 32.3431 59.3467 31.5654 59.3467C30.9584 59.3467 30.1806 60.4264 30.3703 60.9849C30.7118 62.0461 31.0532 63.1072 31.4326 64.1497C31.5085 64.3545 31.793 64.5965 31.9827 64.6151C33.2157 64.6524 34.4487 64.6524 35.6817 64.6151C35.8714 64.6151 36.137 64.3917 36.1939 64.2056C36.5922 63.1258 36.9527 62.0274 37.2941 60.9105C37.351 60.7429 37.2941 60.5009 37.1993 60.352C36.763 59.6259 36.1939 59.1419 35.2265 59.3094C34.7902 59.3839 34.3349 59.3094 33.8796 59.3094V59.3467ZM40.9931 59.4398C41.5812 59.4398 42.1502 59.477 42.7383 59.4398C42.9659 59.4211 43.2694 59.235 43.3453 59.0488C43.7247 58.118 44.0661 57.1686 44.3317 56.2005C44.3886 55.9957 44.2179 55.642 44.0282 55.4931C43.0418 54.7484 42.0175 54.041 41.0121 53.3336C40.4051 52.9054 39.7032 53.166 39.4756 53.8735C39.0962 55.0277 38.7547 56.2005 38.2995 57.3361C38.0149 58.0435 38.0529 58.602 38.6599 59.0488C38.9065 59.235 39.229 59.3839 39.5135 59.4398C40.0067 59.4956 40.4999 59.4398 40.9931 59.4398ZM26.5765 59.4398C27.1266 59.4398 27.6956 59.4398 28.2458 59.4398C28.8907 59.4398 29.6495 58.3786 29.4598 57.7829C29.0235 56.4425 28.5872 55.1021 28.1319 53.7618C27.9422 53.1846 27.2024 52.924 26.6903 53.2777C25.628 54.0224 24.5657 54.767 23.5224 55.5489C23.3707 55.6606 23.2758 55.9771 23.3137 56.1633C23.4845 56.8893 23.6931 57.634 23.9587 58.3228C24.395 59.4398 24.414 59.4398 25.6659 59.4398C25.9694 59.4398 26.273 59.4398 26.5575 59.4398H26.5765ZM33.007 47.9534C32.7794 47.637 32.6656 47.3391 32.438 47.1715C31.4895 46.4455 30.5221 45.7567 29.5167 45.0865C29.327 44.9562 28.9097 44.9376 28.739 45.0493C27.9612 45.5333 27.2404 46.0918 26.4816 46.613C26.1971 46.8178 26.1781 47.0412 26.2919 47.3763C26.6903 48.4933 27.0507 49.6103 27.4111 50.7273C27.6577 51.4347 28.3596 51.6767 28.9666 51.2299C30.1237 50.4108 31.2808 49.6103 32.4 48.7726C32.6277 48.605 32.7604 48.2699 32.9881 47.9534H33.007ZM39.0962 51.4906C39.6273 51.3602 40.0636 51.3044 40.2343 50.7273C40.5568 49.5731 40.9741 48.4375 41.3156 47.3019C41.3725 47.1343 41.3156 46.8178 41.2018 46.7061C40.424 46.1104 39.6273 45.5333 38.8116 45.012C38.6409 44.9003 38.2615 44.9562 38.0908 45.0865C37.1044 45.7567 36.137 46.4641 35.1695 47.1715C34.6384 47.5625 34.6384 48.3816 35.1695 48.7539C36.3267 49.5917 37.5028 50.4108 38.6599 51.2485C38.8116 51.3602 38.9824 51.4347 39.0962 51.4906ZM24.6795 48.7726C23.8259 50.2432 23.2758 51.6581 23.1999 53.3894C24.0156 52.8123 24.7175 52.3469 25.3814 51.8256C25.4952 51.7326 25.5711 51.4533 25.5142 51.3044C25.2676 50.5039 24.983 49.722 24.6795 48.7912V48.7726ZM42.928 48.7912C42.6245 49.7034 42.3589 50.448 42.1502 51.2113C42.0933 51.3789 42.1123 51.6767 42.2261 51.7512C42.928 52.2911 43.6678 52.7937 44.4835 53.3708C44.3127 51.6767 43.8575 50.2432 42.928 48.7726V48.7912ZM36.1939 44.044C34.5625 43.6717 33.064 43.6717 31.4516 44.044C32.2862 44.6583 33.045 45.1982 33.8227 45.7567C34.6005 45.1982 35.3403 44.6583 36.1939 44.044ZM38.4702 63.6657C38.4702 63.6657 38.584 63.7588 38.6409 63.8146C39.6463 63.07 40.6517 62.3253 41.657 61.5993C41.6191 61.5248 41.5812 61.4503 41.5432 61.3945C40.8603 61.3945 40.1964 61.3945 39.5135 61.3945C39.3807 61.3945 39.191 61.5434 39.1531 61.6551C38.9065 62.3253 38.6978 62.9955 38.4892 63.6657H38.4702ZM29.0045 63.796C29.0045 63.796 29.0994 63.6843 29.1373 63.6285C28.9287 62.9955 28.739 62.3625 28.5113 61.7296C28.4544 61.5993 28.3027 61.4131 28.1888 61.4131C27.487 61.3759 26.8041 61.4131 26.1022 61.4131C26.0643 61.4876 26.0453 61.562 26.0074 61.6365C27.0128 62.3625 27.9992 63.1072 29.0045 63.8332V63.796Z" fill="#1C284C"/>
</g>
<defs>
<clipPath id="clip0_3793_6941">
<rect width="66.051" height="66.051" fill="white" transform="translate(0.77832 0.691406)"/>
</clipPath>
</defs>
</svg>
