<svg width="63" height="62" viewBox="0 0 63 62" fill="none" xmlns="http://www.w3.org/2000/svg">
<g clip-path="url(#clip0_3793_6975)">
<path d="M32.3276 48.1094C34.2616 48.1094 36.1115 48.1094 37.9782 48.1094C38.8695 48.1094 39.1049 48.2775 39.3235 49.135C39.5758 50.0933 39.8112 51.0516 40.0635 52.0603C41.0725 52.0603 42.0815 52.0772 43.0737 52.0435C43.2251 52.0435 43.4269 51.8082 43.4942 51.64C44.0155 50.1437 44.5032 48.6306 45.0077 47.1343C45.2936 46.2601 45.5122 46.1256 46.454 46.1256C49.2456 46.1256 52.0204 46.1256 54.812 46.1256C55.2661 46.1256 55.4511 45.9911 55.5856 45.5707C56.0565 44.0576 56.5778 42.5613 57.0823 41.065C57.3346 40.3253 57.8391 40.0226 58.4109 40.2244C58.9827 40.4093 59.2013 40.9809 58.9659 41.7039C58.4277 43.3179 57.8728 44.9319 57.3682 46.5627C57.2673 46.8821 57.2673 47.3024 57.3682 47.6219C57.7718 48.9332 58.2427 50.2446 58.6631 51.556C58.764 51.8754 58.8818 52.0435 59.2686 52.1276C61.0512 52.5311 62.077 53.8593 62.077 55.675C62.077 57.3731 62.077 59.0543 62.077 60.7524C62.077 61.6434 61.7407 61.9629 60.8325 61.9629C41.1902 61.9629 21.5479 61.9629 1.90559 61.9629C0.997474 61.9629 0.661133 61.6434 0.661133 60.7524C0.661133 59.0207 0.661133 57.289 0.661133 55.5573C0.661133 53.5735 2.15785 52.0603 4.14226 52.0772C4.61314 52.0772 4.83176 51.9595 4.9663 51.4887C5.35309 50.211 5.82397 48.95 6.21076 47.6723C6.31166 47.3024 6.31166 46.8485 6.21076 46.4954C5.70625 44.8478 5.11765 43.217 4.59632 41.5694C4.32725 40.7456 4.89903 39.989 5.67261 40.2076C5.99214 40.2916 6.36211 40.6783 6.49665 40.9977C7.05161 42.4941 7.55612 44.024 8.027 45.5539C8.16154 45.9742 8.34653 46.1256 8.80059 46.1256C11.6259 46.1087 14.4511 46.1256 17.2764 46.1087C17.9659 46.1087 18.3359 46.3609 18.5545 47.0166C19.0085 48.4625 19.5467 49.8915 19.9839 51.3542C20.1521 51.8922 20.3539 52.1444 20.9593 52.0772C21.5143 52.0099 22.0692 52.0772 22.6747 52.0772C22.9269 51.0684 23.1792 50.0765 23.4314 49.0845C23.6332 48.2944 23.8855 48.1094 24.6927 48.1094C26.5762 48.1094 28.4429 48.1094 30.36 48.1094C30.36 47.9077 30.3937 47.7227 30.3937 47.5378C30.3937 42.8471 30.3937 38.1733 30.3937 33.4826C30.3937 31.8013 29.4856 30.6413 27.9216 30.3218C26.1053 29.9352 24.3227 31.5492 24.5077 33.3985C24.6086 34.3232 24.3564 34.8276 23.7846 34.9621C23.1287 35.1134 22.6074 34.7099 22.5065 33.9701C22.4392 33.5162 22.456 33.0623 22.3719 32.6251C22.0861 31.2465 20.8752 30.2882 19.4962 30.2882C18.1341 30.2882 16.9569 31.2465 16.6373 32.5915C16.4019 33.6003 16.0824 33.9365 15.4433 33.8693C14.8043 33.802 14.552 33.3649 14.552 32.3562C14.5688 27.8336 16.7214 24.4375 20.2698 21.8652C24.1882 19.0239 28.6447 18.0319 33.4376 18.5027C37.3391 18.8726 40.8371 20.2512 43.7801 22.8739C46.639 25.4294 48.2702 28.5733 48.2366 32.4907C48.2366 33.3817 47.9507 33.8188 47.3453 33.8861C46.723 33.9533 46.3699 33.6003 46.1849 32.726C45.8654 31.3138 44.8059 30.3891 43.4269 30.305C42.1656 30.2378 40.9212 31.0448 40.5175 32.2889C40.3662 32.7765 40.3662 33.2976 40.2989 33.802C40.2317 34.3736 40.0803 34.878 39.4244 34.9957C38.6677 35.1302 38.1295 34.5754 38.2472 33.6843C38.365 32.8101 38.1632 32.0535 37.6082 31.381C36.801 30.4227 35.5397 30.0697 34.3625 30.4732C33.1517 30.8935 32.3781 32.0031 32.3781 33.3817C32.3781 37.8202 32.3781 42.2587 32.3781 46.6972C32.3781 47.1511 32.3781 47.605 32.3781 48.1262L32.3276 48.1094ZM60.059 59.979C60.059 58.6508 60.059 57.3731 60.059 56.0953C60.059 54.5654 59.5545 54.061 58.0241 54.061C40.2317 54.061 22.456 54.061 4.66359 54.061C4.46179 54.061 4.24317 54.061 4.04136 54.061C3.26778 54.1451 2.66236 54.6327 2.64555 55.3892C2.59509 56.9023 2.64555 58.4323 2.64555 59.979H60.0758H60.059ZM24.6086 29.0609C27.2825 27.7495 29.4687 28.1698 31.3523 30.221C32.1595 29.2458 33.1517 28.607 34.3625 28.3716C35.5902 28.1362 36.7505 28.3884 37.9445 29.0105C37.8773 28.6238 37.8436 28.338 37.7764 28.0522C37.2046 25.7152 36.3133 23.5464 34.5139 21.8652C32.5631 20.0326 30.1078 20.0494 28.1402 21.8652C26.963 22.958 26.1558 24.2862 25.6176 25.7825C25.2477 26.7912 24.9786 27.8336 24.6086 29.0441V29.0609ZM18.05 52.0603C17.6464 50.8667 17.2596 49.7234 16.8896 48.5802C16.7719 48.2103 16.6037 48.1094 16.2337 48.1094C14.1652 48.1094 12.1135 48.1094 10.045 48.1094C9.42282 48.1094 8.66605 47.9245 8.24562 48.2103C7.8252 48.5129 7.77475 49.3031 7.57294 49.8747C7.3375 50.5808 7.11888 51.287 6.86663 52.0435H18.05V52.0603ZM56.6787 52.0435C56.2583 50.7658 55.8547 49.5385 55.4343 48.328C55.4006 48.2103 55.1484 48.1262 54.997 48.1262C52.3904 48.1262 49.8006 48.1262 47.1939 48.1262C47.0257 48.1262 46.7735 48.2607 46.723 48.3952C46.3026 49.5889 45.9158 50.7994 45.4954 52.0603H56.6787V52.0435ZM22.4897 29.3131C22.9101 27.8504 23.2128 26.4045 23.7678 25.0764C24.3059 23.7482 25.0795 22.5209 25.7522 21.2599C21.9515 22.6049 18.8572 24.8074 17.1082 28.8423C19.1263 27.9849 20.892 28.1867 22.4897 29.3131ZM36.8178 21.2767C38.6677 23.6473 39.6094 26.3877 40.0635 29.3803C41.762 28.153 43.5614 27.9681 45.5627 28.8087C43.7969 24.7737 40.7025 22.5545 36.8178 21.2599V21.2767ZM24.7095 52.0603H37.9445C37.7764 51.3878 37.625 50.7658 37.4737 50.1437H25.1636C25.0122 50.7994 24.8609 51.4047 24.6927 52.0603H24.7095Z" fill="#1C284C"/>
<path d="M50.1879 4.53906C54.039 4.53906 57.0997 7.63255 57.0829 11.5162C57.0829 15.3327 53.9886 18.4093 50.1543 18.4093C46.2695 18.4093 43.2088 15.3158 43.2257 11.3985C43.2257 7.59893 46.3368 4.53906 50.1879 4.53906ZM50.1711 16.4087C52.8955 16.4087 55.1321 14.1222 55.1153 11.4154C55.0817 8.72536 52.8282 6.48931 50.1543 6.50612C47.4299 6.52293 45.1933 8.79261 45.2101 11.4994C45.2101 14.1726 47.4972 16.4255 50.1711 16.4087Z" fill="#1C284C"/>
<path d="M2.81373 11.4946C3.55368 11.7131 4.31045 11.8981 5.03358 12.1671C5.38674 12.3016 5.60536 12.3184 5.90807 12.083C6.56393 11.5618 7.3207 11.2256 8.19519 11.3265C8.85105 11.4105 9.45647 11.8981 9.52374 12.4193C9.62464 13.1758 8.93514 13.8147 8.24564 13.4953C7.74113 13.2599 7.43842 13.428 7.08526 13.697C6.79937 13.8988 6.54712 14.151 6.27804 14.3695C5.87443 14.7226 5.40356 14.8234 4.98313 14.4872C4.26 13.882 3.41915 13.697 2.54466 13.5625C1.90561 13.4616 1.55245 13.0581 1.6029 12.4865C1.65335 11.8981 2.0906 11.5618 2.79691 11.4946H2.81373Z" fill="#1C284C"/>
<path d="M15.2927 7.15956C15.9149 7.27725 16.5876 7.57988 17.1594 7.46219C17.7143 7.3445 18.1516 6.73925 18.6897 6.41982C19.4128 5.99951 20.1864 5.94907 20.9096 6.45344C21.3132 6.73925 21.4141 7.15956 21.2627 7.6135C21.1114 8.06744 20.7246 8.38687 20.2537 8.23556C19.6146 8.05062 19.2951 8.40369 18.942 8.77356C18.8074 8.92487 18.6561 9.07618 18.5383 9.24431C17.9834 9.95043 17.6975 9.93362 16.8398 9.63099C16.1503 9.37881 15.3599 9.31156 14.62 9.24431C13.9305 9.17706 13.5101 8.87443 13.4932 8.286C13.4596 7.64713 13.8464 7.27725 14.5863 7.24363C14.805 7.24363 15.0404 7.24363 15.259 7.24363C15.259 7.22681 15.259 7.19319 15.259 7.17638L15.2927 7.15956Z" fill="#1C284C"/>
<path d="M15.4268 20.2829C15.1409 20.636 14.9559 21.0563 14.6532 21.174C14.3505 21.2917 13.7451 21.2244 13.6105 21.0058C13.1396 20.2661 12.467 20.451 11.8615 20.5351C10.6171 20.7032 10.6171 20.6696 10.0285 19.56C9.72578 18.9883 9.23809 18.5176 8.78403 18.0637C8.21225 17.492 8.07771 16.9372 8.49814 16.4497C8.90175 15.9957 9.52398 15.9957 10.0789 16.5169C10.6171 17.0213 11.1216 17.5761 11.5588 18.1645C11.7606 18.4335 11.9288 18.5176 12.2652 18.484C13.106 18.3999 13.9469 18.4672 14.5859 19.0556C14.9054 19.3582 15.1072 19.8122 15.4268 20.2829Z" fill="#1C284C"/>
<path d="M44.8565 5.3609C44.722 5.52902 44.5538 5.91571 44.2679 6.0334C43.982 6.15108 43.528 6.10065 43.2421 5.93252C42.8889 5.74759 42.6199 5.39452 42.3676 5.07509C42.0144 4.65478 42.0649 4.09997 42.4517 3.7469C42.8553 3.37703 43.3262 3.30978 43.7298 3.67965C44.1838 4.08315 44.7893 4.43621 44.8397 5.3609H44.8565Z" fill="#1C284C"/>
<path d="M58.1761 4.26251C58.1761 5.08632 57.0157 6.22957 56.3767 6.11188C56.074 6.06144 55.704 5.80926 55.5863 5.55707C55.4686 5.28807 55.5022 4.85095 55.6704 4.58195C55.889 4.21207 56.2422 3.85901 56.6289 3.64045C56.898 3.48914 57.3689 3.47233 57.6548 3.60682C57.9239 3.72451 58.0752 4.1112 58.1929 4.26251H58.1761Z" fill="#1C284C"/>
<path d="M42.9394 19.4775C42.7881 19.3598 42.4181 19.2085 42.3004 18.9395C42.1827 18.6537 42.1995 18.1998 42.3508 17.914C42.5695 17.5273 42.9226 17.1742 43.2926 16.9725C43.5617 16.8212 44.0326 16.8044 44.3184 16.9389C44.5707 17.0565 44.7725 17.46 44.8061 17.7627C44.8734 18.4015 43.7467 19.4943 42.9394 19.4775Z" fill="#1C284C"/>
<path d="M57.1663 19.4834C56.544 19.4834 55.4678 18.3738 55.4846 17.7349C55.4846 17.012 56.275 16.4908 56.8804 16.8775C57.3513 17.1801 57.7717 17.6172 58.0744 18.088C58.4444 18.6764 57.8726 19.4666 57.1831 19.4666L57.1663 19.4834Z" fill="#1C284C"/>
<path d="M51.1463 2.06271C51.1463 3.10509 50.8604 3.5254 50.1877 3.54221C49.4646 3.54221 49.1787 3.1219 49.1787 2.0459C49.1787 1.00353 49.4478 0.583219 50.1373 0.566406C50.8604 0.566406 51.1463 0.986717 51.1463 2.06271Z" fill="#1C284C"/>
<path d="M40.7031 12.4313C40.5013 12.4313 40.2827 12.4649 40.0809 12.4313C39.5595 12.3304 39.2568 11.9942 39.2568 11.4394C39.2568 10.8845 39.5764 10.5483 40.1145 10.4811C40.5181 10.4306 40.9385 10.4474 41.3422 10.4811C41.8803 10.5147 42.2335 10.9518 42.2335 11.473C42.2335 11.9942 41.8635 12.3977 41.3253 12.4481C41.1235 12.4481 40.9217 12.4481 40.7031 12.4481V12.4313Z" fill="#1C284C"/>
<path d="M59.5376 12.4513C59.3526 12.4513 59.1676 12.4513 58.9826 12.4513C58.4445 12.4009 58.0913 11.9974 58.0913 11.4594C58.0913 10.9214 58.4445 10.5179 58.9826 10.4843C59.3526 10.4506 59.7226 10.4674 60.0925 10.4843C60.6643 10.5179 61.0511 10.9214 61.0511 11.4762C61.0511 12.031 60.6643 12.4345 60.0925 12.4681C59.9076 12.4681 59.7226 12.4681 59.5376 12.4681V12.4513Z" fill="#1C284C"/>
<path d="M51.1298 20.9077C51.1298 21.1094 51.1634 21.328 51.1298 21.5297C51.0289 22.0509 50.6925 22.3535 50.1376 22.3535C49.5826 22.3535 49.2463 22.0509 49.179 21.5129C49.1285 21.143 49.1622 20.7732 49.179 20.4033C49.1958 19.7812 49.5994 19.3945 50.1712 19.3945C50.743 19.3945 51.1298 19.798 51.1466 20.4201C51.1466 20.5882 51.1466 20.7563 51.1466 20.9077H51.1298Z" fill="#1C284C"/>
</g>
<defs>
<clipPath id="clip0_3793_6975">
<rect width="61.4159" height="61.4159" fill="white" transform="translate(0.62793 0.566406)"/>
</clipPath>
</defs>
</svg>
