<svg width="64" height="55" viewBox="0 0 64 55" fill="none" xmlns="http://www.w3.org/2000/svg">
<g clip-path="url(#clip0_3793_7005)">
<path d="M63.7969 53.2607C63.5943 51.7599 63.3365 50.259 63.1155 48.7581C62.6183 45.4937 62.1211 42.2293 61.6239 38.9649C61.1267 35.6817 60.6479 32.3985 60.1139 29.1153C59.8561 27.4644 59.8193 27.4644 61.4214 27.4644C61.4582 27.4644 61.5134 27.4644 61.5503 27.4644C62.3237 27.4644 62.5999 27.258 62.8025 26.4513C63.1155 25.2131 63.4102 23.9748 63.7232 22.7366C63.981 21.7048 63.5759 21.1794 62.5447 21.1794C59.3037 21.1794 56.0811 21.1794 52.8401 21.1794C52.3245 21.1794 51.6615 21.3483 51.3485 21.1044C51.017 20.823 51.0354 20.1288 50.8697 19.6223C50.7224 19.172 50.8697 19.0782 51.2933 19.0782C53.2452 19.097 55.1972 19.0782 57.1307 19.0782C58.5671 19.0782 59.672 17.9338 59.672 16.4704C59.672 11.9303 59.672 7.39012 59.672 2.86873C59.672 1.36785 58.5671 0.242188 57.0755 0.242188C49.9121 0.242188 42.7304 0.242188 35.5671 0.242188C34.0386 0.242188 32.9706 1.36785 32.9706 2.92501C32.9706 7.40888 32.9706 11.9115 32.9706 16.3954C32.9706 17.9526 34.057 19.0782 35.5671 19.0782C37.1691 19.0782 38.7712 19.0782 40.3917 19.0782C40.8705 19.0782 41.5518 18.8531 41.7912 19.172C42.0306 19.491 41.5887 20.0913 41.5518 20.5979C41.515 21.1044 41.2388 21.1794 40.7968 21.1794C36.1747 21.1794 31.5526 21.1794 26.9305 21.1794C25.6047 21.1794 24.2788 21.1794 22.9529 21.1794C22.7688 21.1794 22.511 21.3108 22.4373 20.9731C22.3084 20.354 22.1427 19.7536 21.9954 19.097C24.0947 19.097 26.1203 19.097 28.1643 19.097C29.8769 19.097 30.9265 18.0276 30.9265 16.3204C30.9265 11.8928 30.9265 7.46517 30.9265 3.03757C30.9265 1.34909 29.8769 0.260948 28.2196 0.260948C21.1115 0.260948 14.0034 0.260948 6.89529 0.260948C5.27479 0.260948 4.20673 1.34909 4.20673 2.98129C4.20673 7.40888 4.20673 11.8365 4.20673 16.2641C4.20673 18.0464 5.23796 19.097 6.98736 19.097C9.01298 19.097 11.057 19.097 13.1379 19.097C13.009 19.641 12.8801 20.1101 12.8064 20.5979C12.7328 21.0481 12.5302 21.1982 12.0514 21.1982C8.46054 21.1794 4.85125 21.1982 1.26037 21.1982C0.413292 21.1982 -0.0654912 21.761 0.137071 22.5865C0.450122 23.9373 0.800002 25.2693 1.13147 26.6201C1.27879 27.2017 1.64708 27.4831 2.25477 27.4644C2.80721 27.4644 3.35965 27.4644 4.00417 27.4644C3.9121 28.0647 3.83844 28.6088 3.76478 29.1341C3.26758 32.3985 2.77038 35.6629 2.2916 38.9273C1.7944 42.173 1.31562 45.4186 0.836832 48.6643C0.59744 50.2027 0.339633 51.7599 0.118656 53.2983C-0.010247 54.2363 0.413292 54.6866 1.33403 54.6866C2.10745 54.6866 2.88087 54.649 3.65429 54.6866C5.09064 54.7616 5.18271 54.2551 5.34845 53.1294C5.95613 49.0207 6.56382 44.9309 7.18992 40.8222C7.81602 36.6197 8.46054 32.3985 9.08664 28.1961C9.1603 27.6332 9.34445 27.4456 9.95213 27.4456C24.6103 27.4644 39.2868 27.4644 53.945 27.4456C54.6447 27.4456 54.7552 27.7083 54.8473 28.3086C55.1419 30.4474 55.4734 32.5674 55.7865 34.6874C56.2836 37.9705 56.7808 41.2537 57.278 44.5369C57.7384 47.6137 58.2172 50.6717 58.6776 53.7485C58.7696 54.3864 59.1564 54.6866 59.7825 54.6866C60.7032 54.6866 61.6239 54.6866 62.5447 54.6866C63.5206 54.6866 63.9442 54.2363 63.7969 53.2607ZM35.033 3.24395C35.033 2.45598 35.1619 2.32466 35.9169 2.32466C42.8777 2.32466 49.8201 2.32466 56.7808 2.32466C57.499 2.32466 57.6463 2.47474 57.6463 3.20642C57.6463 6.5834 57.6463 9.96038 57.6463 13.3374C57.6463 13.7876 57.499 13.8627 57.1123 13.8627C53.5214 13.8627 49.9306 13.8627 46.3213 13.8627C42.712 13.8627 39.1763 13.8627 35.6039 13.8627C35.1251 13.8627 35.0146 13.7501 35.0146 13.2623C35.033 9.92286 35.0146 6.60216 35.0146 3.26271L35.033 3.24395ZM36.009 16.977C35.8617 16.977 35.7144 16.977 35.5671 16.977C35.1435 16.9019 35.033 16.6018 35.033 16.2078C35.033 15.72 35.4013 15.9451 35.5855 15.9451C39.1763 15.9451 42.7672 15.9451 46.3765 15.9451C49.9858 15.9451 53.5214 15.9451 57.0939 15.9451C57.278 15.9451 57.6463 15.72 57.6463 16.2078C57.6463 16.6018 57.5359 16.9019 57.1123 16.977C56.965 16.9957 56.8177 16.977 56.6704 16.977C49.7832 16.977 42.8961 16.977 36.009 16.977ZM48.7704 21.1607C47.0579 21.1607 45.3637 21.1607 43.5775 21.1607C43.7432 20.5041 43.8905 19.9037 44.0194 19.2846C44.0747 19.0219 44.2404 19.0595 44.4061 19.0595C45.7136 19.0595 47.021 19.0595 48.3101 19.0595C48.4206 19.0595 48.5863 19.0595 48.6047 19.1157C48.7704 19.7349 48.9177 20.3727 49.0467 21.0106C49.0835 21.1982 48.8809 21.1419 48.7704 21.1419V21.1607ZM6.26918 3.24395C6.26918 2.47474 6.39809 2.32466 7.15309 2.32466C14.1139 2.32466 21.0562 2.32466 28.017 2.32466C28.7352 2.32466 28.8825 2.47474 28.8825 3.20642C28.8825 6.56464 28.8825 9.92286 28.8825 13.2811C28.8825 13.8251 28.6984 13.8627 28.2748 13.8627C24.7024 13.8627 21.1299 13.8627 17.5574 13.8627C13.985 13.8627 10.4125 13.8627 6.84004 13.8627C6.36126 13.8627 6.25077 13.7313 6.25077 13.2623C6.26918 9.92286 6.25077 6.60216 6.25077 3.26271L6.26918 3.24395ZM7.22675 16.977C7.07943 16.977 6.93212 16.977 6.7848 16.977C6.36126 16.9019 6.25077 16.6018 6.26918 16.2078C6.26918 15.72 6.63748 15.9451 6.82163 15.9451C10.4125 15.9451 14.0034 15.9451 17.6127 15.9451C21.222 15.9451 24.7576 15.9451 28.3301 15.9451C28.5142 15.9451 28.8825 15.72 28.8825 16.2078C28.8825 16.6018 28.772 16.9019 28.3485 16.9582C28.2012 16.977 28.0538 16.9582 27.9065 16.9582C21.0194 16.9582 14.1323 16.9582 7.24517 16.9582L7.22675 16.977ZM20.1907 21.0856C20.0434 21.3295 19.1963 21.1607 18.6623 21.1607C18.294 21.1607 17.9441 21.1607 17.5758 21.1607C16.8024 21.1607 16.029 21.1419 15.274 21.1607C14.8689 21.1607 14.832 21.0294 14.9057 20.6729C15.274 19.0595 15.2556 19.0595 16.9129 19.0595C17.76 19.0595 18.6255 19.0595 19.4726 19.0595C19.7488 19.0595 19.8777 19.1157 19.9329 19.4347C20.0066 19.9975 20.467 20.6541 20.2092 21.0856H20.1907ZM7.02419 27.9897C6.80321 29.5093 6.56382 31.029 6.32443 32.5674C5.82723 35.8318 5.34845 39.0962 4.85125 42.3606C4.37246 45.6062 3.87527 48.8519 3.37807 52.0788C3.34124 52.3602 3.34124 52.7542 2.86245 52.5666C2.36526 52.6979 2.32843 52.4165 2.40209 52.0413C2.89928 48.8144 3.37807 45.6062 3.87527 42.3794C4.37246 39.1149 4.86966 35.8505 5.34845 32.5861C5.58784 31.0477 5.84564 29.4906 6.02979 27.9522C6.10345 27.2955 6.52699 27.4081 6.89529 27.4644C7.24517 27.5019 7.0426 27.8208 7.02419 27.9897ZM3.70953 25.3819C3.06502 25.3819 2.89928 25.1568 2.7888 24.5939C2.51257 23.2619 2.49416 23.2619 3.80161 23.2619H31.9946C41.5887 23.2619 51.1828 23.2619 60.7584 23.2619C61.3477 23.2619 61.4582 23.3745 61.2925 23.9748C60.9058 25.3631 60.9242 25.3819 59.5062 25.3819C40.9073 25.3819 22.3084 25.3819 3.70953 25.4007V25.3819ZM61.3109 52.5666C60.9978 52.5666 60.6111 52.7542 60.519 52.1538C60.1876 49.7337 59.8009 47.2947 59.4326 44.8746C58.9354 41.6289 58.4566 38.3833 57.9594 35.1564C57.5911 32.7737 57.2228 30.3911 56.8545 28.0084C56.7993 27.6707 56.7624 27.3143 57.2965 27.4644C57.8121 27.2955 57.7937 27.7083 57.8489 28.0084C58.2172 30.3723 58.5671 32.7362 58.917 35.1001C59.4142 38.3645 59.8929 41.6289 60.3901 44.8933C60.7584 47.276 61.1267 49.6586 61.4766 52.0413C61.495 52.1914 61.7528 52.5666 61.3109 52.5853V52.5666Z" fill="#1C284C"/>
</g>
<defs>
<clipPath id="clip0_3793_7005">
<rect width="63.7335" height="54.4631" fill="white" transform="translate(0.081543 0.226562)"/>
</clipPath>
</defs>
</svg>
