<svg width="68" height="68" viewBox="0 0 68 68" fill="none" xmlns="http://www.w3.org/2000/svg">
<g clip-path="url(#clip0_3793_6953)">
<path d="M47.1572 13.5588C47.1572 17.2711 50.1677 20.2816 53.8801 20.2816C57.5924 20.2816 60.6029 17.2711 60.6029 13.5588C60.6029 9.84644 57.5924 6.83594 53.8801 6.83594C50.1677 6.83594 47.1572 9.84644 47.1572 13.5588ZM53.8801 9.07072C56.3549 9.07072 58.3681 11.0839 58.3681 13.5588C58.3681 16.0337 56.3549 18.0468 53.8801 18.0468C51.4052 18.0468 49.392 16.0337 49.392 13.5588C49.392 11.0839 51.4052 9.07072 53.8801 9.07072Z" fill="#1C284C"/>
<path d="M55.0072 3.4786V1.24382C55.0072 0.634328 54.5085 0.117188 53.8805 0.117188C53.2526 0.117188 52.7539 0.615859 52.7539 1.24382V3.4786C52.7539 4.08809 53.2526 4.60523 53.8805 4.60523C54.5085 4.60523 55.0072 4.10656 55.0072 3.4786Z" fill="#1C284C"/>
<path d="M52.7725 23.6462V25.8809C52.7725 26.4904 53.2711 27.0076 53.8991 27.0076C54.527 27.0076 55.0257 26.5089 55.0257 25.8809V23.6462C55.0257 23.0367 54.527 22.5195 53.8991 22.5195C53.2711 22.5195 52.7725 23.0182 52.7725 23.6462Z" fill="#1C284C"/>
<path d="M66.8097 12.4375H64.5749C63.9654 12.4375 63.4482 12.9362 63.4482 13.5641C63.4482 14.1921 63.9469 14.6908 64.5749 14.6908H66.8097C67.4191 14.6908 67.9363 14.1921 67.9363 13.5641C67.9363 12.9362 67.4376 12.4375 66.8097 12.4375Z" fill="#1C284C"/>
<path d="M41.5617 12.4375C40.9522 12.4375 40.4351 12.9362 40.4351 13.5641C40.4351 14.1921 40.9337 14.6908 41.5617 14.6908H43.7965C44.406 14.6908 44.9231 14.1921 44.9231 13.5641C44.9231 12.9362 44.4244 12.4375 43.7965 12.4375H41.5617Z" fill="#1C284C"/>
<path d="M45.9575 4.05297C45.5142 3.62818 44.8124 3.62818 44.3876 4.05297C43.9628 4.47776 43.9443 5.1796 44.3876 5.62286L45.9759 7.21122C46.4192 7.63602 47.121 7.63602 47.5458 7.21122C47.9706 6.78643 47.9891 6.08459 47.5458 5.64133L45.9575 4.05297Z" fill="#1C284C"/>
<path d="M60.2157 19.8999C59.7725 20.3432 59.7725 21.045 60.2157 21.4883L61.8041 23.0766C62.2474 23.5014 62.9492 23.5014 63.374 23.0766C63.7988 22.6518 63.8173 21.95 63.374 21.5067L61.7856 19.9184C61.3424 19.4751 60.6405 19.4751 60.1973 19.9184L60.2157 19.8999Z" fill="#1C284C"/>
<path d="M63.392 4.0512C62.9488 3.60793 62.2469 3.60793 61.8037 4.0512L60.2153 5.63956C59.9198 5.9166 59.809 6.34139 59.9013 6.72925C59.9937 7.1171 60.3077 7.43108 60.6955 7.52343C61.0834 7.63424 61.5082 7.52343 61.7852 7.20945L63.3736 5.62109C63.8168 5.17783 63.8168 4.47599 63.3736 4.03273L63.392 4.0512Z" fill="#1C284C"/>
<path d="M45.9575 19.8959L44.3691 21.4842C44.0736 21.7613 43.9628 22.1861 44.0551 22.5739C44.1475 22.9618 44.4615 23.2758 44.8493 23.3681C45.2372 23.4789 45.662 23.3681 45.939 23.0541L47.5274 21.4658C47.9522 21.0225 47.9522 20.3207 47.5274 19.8959C47.1026 19.4711 46.4007 19.4526 45.9575 19.8959Z" fill="#1C284C"/>
<path d="M65.6826 56.1332H57.4822C56.5772 56.1332 55.7461 55.5791 55.3952 54.7295L45.9758 33.065C43.9072 28.0229 38.9944 24.7538 33.546 24.7538H28.707V14.6511C29.6489 14.6511 30.4985 14.0416 30.8125 13.1366C31.1449 12.2316 30.8494 11.2343 30.1107 10.6433L17.8655 0.651375C16.9975 -0.0504585 15.76 -0.0504585 14.9104 0.651375L2.66527 10.6617C1.92649 11.2528 1.63099 12.2686 1.96343 13.1551C2.27741 14.0416 3.127 14.6511 4.06893 14.6696V33.7299H2.94231C1.70486 33.7299 0.70752 34.7273 0.70752 35.9647V39.3261C0.70752 40.5636 1.70486 41.5609 2.94231 41.5609V65.0908C2.94231 66.3283 3.93965 67.3256 5.17709 67.3256H8.53851C9.77595 67.3256 10.7733 66.3283 10.7733 65.0908V63.9642H21.9842V65.0908C21.9842 66.3283 22.9815 67.3256 24.219 67.3256H27.5804C28.8178 67.3256 29.8152 66.3283 29.8152 65.0908V41.5609C31.0526 41.5609 32.0499 40.5636 32.0499 39.3261V35.9647H33.5275C34.4325 35.9647 35.2636 36.5188 35.6145 37.3684L45.0339 59.0329C47.1024 64.075 52.0153 67.3441 57.4637 67.3441H65.6641C66.9015 67.3441 67.8989 66.3467 67.8989 65.1093V58.3865C67.8989 57.149 66.9015 56.1517 65.6641 56.1517L65.6826 56.1332ZM16.3326 2.36902C16.3326 2.36902 16.4249 2.35055 16.4618 2.36902L28.6516 12.4348L4.0874 12.3979L16.3326 2.36902ZM6.30372 14.6881H26.4722V33.7299H23.1108V28.1337C23.1108 24.4214 20.1003 21.4109 16.388 21.4109C12.6756 21.4109 9.66514 24.4214 9.66514 28.1337V33.7299H6.30372V14.6881ZM20.876 33.7299H11.9184V28.1337C11.9184 25.6588 13.9315 23.6457 16.4064 23.6457C18.8813 23.6457 20.8945 25.6588 20.8945 28.1337V33.7299H20.876ZM5.19556 65.0908V41.5609H8.55698V65.0908H5.19556ZM21.9842 41.5609V44.9223H10.7733V41.5609H21.9842ZM21.9842 50.537H10.7733V47.1756H21.9842V50.537ZM10.7918 52.7718H22.0026V56.1332H10.7918V52.7718ZM10.7918 61.7294V58.368H22.0026V61.7294H10.7918ZM27.5988 65.0908H24.2374V41.5609H27.5988V65.0908ZM29.8336 39.3261H2.94231V35.9647H29.8336V39.3261ZM65.6826 65.0908H57.4822C52.9387 65.0908 48.8386 62.3574 47.1209 58.1464L37.7016 36.4818C37.0182 34.8011 35.3744 33.7115 33.5644 33.7115H28.7255V26.9886H33.5644C38.1079 26.9886 42.2081 29.7221 43.9257 33.9331L53.3451 55.5976C54.0284 57.2783 55.6722 58.368 57.4822 58.368H65.6826V65.0908Z" fill="#1C284C"/>
</g>
<defs>
<clipPath id="clip0_3793_6953">
<rect width="67.2098" height="67.2098" fill="white" transform="translate(0.708008 0.113281)"/>
</clipPath>
</defs>
</svg>
