<svg width="66" height="64" viewBox="0 0 66 64" fill="none" xmlns="http://www.w3.org/2000/svg">
<g clip-path="url(#clip0_3793_6946)">
<path d="M0.754693 57.7329C2.72237 60.5744 6.1453 62.5099 10.1626 63.0452C14.6309 63.6424 19.0992 62.4687 22.1122 59.9155L22.6451 59.4625L23.178 59.9155C28.3431 64.2807 37.4026 64.2807 42.5678 59.9155L43.1007 59.4625L43.6336 59.9155C46.6466 62.4687 51.1353 63.6424 55.5831 63.0452C59.6004 62.5099 63.0234 60.5744 64.9911 57.7329C65.5445 56.9298 65.3395 55.8179 64.5401 55.262C63.7408 54.7061 62.6339 54.912 62.0805 55.715C60.3793 58.1859 57.0999 59.6478 53.308 59.6478C49.5161 59.6478 46.2367 58.1859 44.5354 55.715C44.2075 55.2414 43.6541 54.9531 43.0802 54.9531C42.5063 54.9531 41.9529 55.2414 41.6249 55.715C39.9237 58.1859 36.6442 59.6478 32.8524 59.6478C29.0605 59.6478 25.781 58.1859 24.0798 55.715C23.7519 55.2414 23.1985 54.9531 22.6246 54.9531C22.0507 54.9531 21.4973 55.2414 21.1693 55.715C19.4681 58.1859 16.1886 59.6478 12.3968 59.6478C8.60489 59.6478 5.32544 58.1859 3.62422 55.715C3.27577 55.2208 2.72237 54.9531 2.16896 54.9531C1.82052 54.9531 1.47207 55.0561 1.16462 55.262C0.365257 55.8179 0.160291 56.9298 0.7137 57.7329H0.754693Z" fill="#1C284C"/>
<path d="M47.1797 0.636719C42.7729 0.636719 39.1655 4.24006 39.1655 8.68762V17.0886H14.1187V8.68762C14.1187 6.21676 16.1273 4.19888 18.5869 4.19888C21.0465 4.19888 23.0552 6.21676 23.0552 8.68762C23.0552 9.67597 23.8545 10.4584 24.8179 10.4584C25.7812 10.4584 26.5806 9.65538 26.5806 8.68762C26.5806 4.26066 22.9937 0.636719 18.5664 0.636719C14.1392 0.636719 10.5522 4.24006 10.5522 8.68762V37.1438C10.5522 38.1321 11.3516 38.9145 12.315 38.9145C13.2783 38.9145 14.0777 38.1115 14.0777 37.1438V32.3873H39.1245V37.1438C39.1245 38.1321 39.9239 38.9145 40.8872 38.9145C41.8506 38.9145 42.6499 38.1115 42.6499 37.1438V8.68762C42.6499 6.21676 44.6586 4.19888 47.1182 4.19888C49.5778 4.19888 51.5864 6.21676 51.5864 8.68762C51.5864 9.67597 52.3858 10.4584 53.3492 10.4584C54.3125 10.4584 55.1119 9.65538 55.1119 8.68762C55.1119 4.26066 51.525 0.636719 47.0977 0.636719L47.1797 0.636719ZM39.1655 28.8252H14.1187V20.6301H39.1655V28.8252Z" fill="#1C284C"/>
<path d="M55.6035 51.3119C59.6208 50.7766 63.0437 48.841 65.0114 45.9996C65.2779 45.6083 65.3804 45.1347 65.2984 44.6612C65.2164 44.1876 64.9499 43.7964 64.5605 43.5081C63.7611 42.9521 62.6543 43.1581 62.1009 43.9611C60.3997 46.432 57.1202 47.8939 53.3284 47.8939C49.5365 47.8939 46.257 46.432 44.5558 43.9611C44.2279 43.4875 43.6745 43.1992 43.1005 43.1992C42.5266 43.1992 41.9732 43.4875 41.6453 43.9611C39.9441 46.432 36.6646 47.8939 32.8727 47.8939C29.0809 47.8939 25.8014 46.432 24.1002 43.9611C23.7722 43.4875 23.2188 43.1992 22.6449 43.1992C22.071 43.1992 21.5176 43.4875 21.1897 43.9611C19.4885 46.432 16.209 47.8939 12.4171 47.8939C8.62526 47.8939 5.3458 46.432 3.64458 43.9611C3.37813 43.5699 2.9682 43.3022 2.49677 43.2198C2.39429 43.2198 2.29181 43.1992 2.16883 43.1992C1.82039 43.1992 1.47194 43.3022 1.16449 43.5081C0.775059 43.7758 0.508603 44.1876 0.426617 44.6612C0.344631 45.1347 0.426617 45.6083 0.713569 45.9996C2.68124 48.841 6.10418 50.7766 10.1215 51.3119C14.5898 51.909 19.058 50.7354 22.071 48.1821L22.6039 47.7292L23.1369 48.1821C25.6374 50.303 29.0809 51.456 32.8317 51.456C36.5826 51.456 40.0261 50.2824 42.5266 48.1821L43.0596 47.7292L43.5925 48.1821C46.6055 50.7354 51.0942 51.909 55.542 51.3119H55.6035Z" fill="#1C284C"/>
</g>
<defs>
<clipPath id="clip0_3793_6946">
<rect width="64.8923" height="62.5747" fill="white" transform="translate(0.447266 0.636719)"/>
</clipPath>
</defs>
</svg>
