<svg width="83" height="83" viewBox="0 0 83 83" fill="none" xmlns="http://www.w3.org/2000/svg">
<g clip-path="url(#clip0_3793_6968)">
<path d="M72.0634 71.6057C71.753 72.2072 71.2873 72.4788 70.5888 72.4788C50.7201 72.4788 30.8515 72.4788 10.9634 72.4788C10.0127 72.4788 9.48877 72.0326 9.48877 71.2564C9.48877 70.5967 9.95444 70.0923 10.6141 70.0535C11.0216 70.0341 11.4291 70.0535 11.9335 70.0535V69.452C11.9335 60.7788 11.9335 52.1057 11.9335 43.4325C11.9335 43.0057 11.7977 42.8116 11.4291 42.6176C10.1873 41.8997 9.52758 40.8325 9.48877 39.3773C9.48877 38.5236 9.48877 37.6698 9.48877 36.8161C9.48877 34.934 11.0022 33.343 12.8843 33.246C13.1753 33.246 13.447 33.246 13.738 33.246C31.6858 33.246 49.6142 33.246 67.5619 33.2266C69.7933 33.2266 71.3261 33.9251 72.0634 36.2146V40.134C71.7142 41.2012 71.1515 42.1519 70.1037 42.637C69.6963 42.831 69.6187 43.0639 69.6187 43.4713C69.6187 52.1251 69.6187 60.7788 69.6187 69.4326C69.6187 69.6266 69.6187 69.8206 69.6575 70.0729C70.1425 70.0729 70.6276 69.9564 71.0157 70.1117C71.4037 70.2475 71.7142 70.6549 72.0634 70.9266V71.6639V71.6057ZM67.1545 43.0639H14.4365V69.9758H23.2067C23.1679 68.5982 23.4589 67.3564 24.4291 66.3669C25.4186 65.3579 26.6604 65.0281 28.0768 65.1057V62.6609C27.6888 62.6609 27.3395 62.6609 27.0097 62.6609C26.2336 62.6221 25.6903 62.1176 25.6903 61.4191C25.6903 60.7594 26.1948 60.2355 26.9515 60.1773C27.3201 60.1579 27.7082 60.1773 28.0962 60.1773V52.7848C27.3007 52.7848 26.5634 52.843 25.8067 52.7848C23.9052 52.6296 22.3724 51.2131 22.1007 49.3116C21.9843 48.4385 21.9843 47.5266 22.0231 46.634C22.0425 45.8967 22.5858 45.4505 23.3813 45.4505C27.3977 45.4505 31.4142 45.4505 35.4112 45.4505C36.2455 45.4505 36.7306 45.9549 36.75 46.7699C36.75 47.449 36.75 48.1087 36.75 48.7878C36.6918 50.8445 35.0619 52.5908 33.0052 52.7654C32.2485 52.8236 31.4724 52.7654 30.6768 52.7654V60.1579C31.0843 60.1579 31.453 60.1385 31.841 60.1579C32.5977 60.2161 33.1022 60.7206 33.1022 61.3997C33.1022 62.0788 32.5395 62.6027 31.7634 62.6415C31.4142 62.6415 31.0455 62.6415 30.6768 62.6415V65.0863C32.0933 64.9893 33.3157 65.2997 34.3246 66.3281C35.3142 67.337 35.6052 68.5982 35.547 69.9564H46.0634C45.9664 68.5594 46.2963 67.337 47.2664 66.3475C48.256 65.3385 49.4978 65.0087 50.9142 65.1057V62.6609C50.5455 62.6609 50.2351 62.6609 49.9052 62.6609C49.0903 62.6415 48.5276 62.137 48.5082 61.4191C48.5082 60.7012 49.0321 60.2161 49.8858 60.1773C50.2351 60.1773 50.5649 60.1773 50.9336 60.1773V52.8042C50.1575 52.8042 49.4007 52.8624 48.6634 52.8042C46.7813 52.649 45.2873 51.3296 44.9575 49.4863C44.8022 48.6131 44.841 47.7012 44.841 46.8087C44.841 45.9743 45.3455 45.4699 46.1798 45.4699C50.1963 45.4699 54.2127 45.4699 58.2097 45.4699C59.0634 45.4699 59.5679 45.9743 59.5873 46.8281C59.5873 47.2937 59.5873 47.7594 59.5873 48.2251C59.5873 51.0773 57.841 52.8236 54.9888 52.843C54.4843 52.843 53.9992 52.843 53.4948 52.843V60.1967C53.9022 60.1967 54.2709 60.1773 54.6395 60.1967C55.3963 60.2549 55.9007 60.7594 55.9007 61.4191C55.9007 62.1176 55.3575 62.6221 54.5813 62.6609C54.2321 62.6609 53.8634 62.6609 53.4948 62.6609V65.1251C54.9112 65.0087 56.1336 65.3579 57.1425 66.3669C58.1321 67.3758 58.4037 68.637 58.3843 69.9758H67.1545V43.0639ZM40.7858 35.6907C31.6664 35.6907 22.547 35.6907 13.4082 35.6907C12.4186 35.6907 11.953 36.137 11.9335 37.1266C11.9335 37.6698 11.9335 38.2325 11.9335 38.7758C11.9335 40.231 12.2828 40.5803 13.738 40.5803C31.7634 40.5803 49.7888 40.5803 67.7948 40.5803C67.9306 40.5803 68.0858 40.5803 68.2216 40.5803C69.0948 40.5609 69.5799 40.0758 69.5993 39.2027C69.5993 38.543 69.5993 37.9027 69.5993 37.243C69.5993 36.0982 69.1724 35.6713 68.0082 35.6713C58.9276 35.6713 49.847 35.6713 40.7664 35.6713L40.7858 35.6907ZM34.2082 47.9728H24.5649C24.3127 49.5251 25.0112 50.3594 26.5246 50.3594C28.4649 50.3594 30.3858 50.3594 32.3261 50.3594C33.7425 50.3594 34.4992 49.4281 34.2276 47.9728H34.2082ZM47.344 47.9728C47.1306 49.5251 47.8485 50.3594 49.3425 50.3594C51.2828 50.3594 53.2037 50.3594 55.144 50.3594C56.5798 50.3594 57.3172 49.4281 57.0067 47.9728H47.3634H47.344ZM32.947 70.0146C33.3351 68.734 32.5589 67.6087 31.2783 67.5893C30.0559 67.5893 28.8336 67.5893 27.6112 67.5893C26.2142 67.5893 25.4574 68.637 25.8261 70.0146H32.947ZM55.8231 69.9952C55.9589 68.249 55.3381 67.5699 53.6888 67.5699C52.6022 67.5699 51.5351 67.5699 50.4485 67.5699C49.0515 67.5699 48.2754 68.5982 48.6052 69.9952H55.8231Z" fill="#1C284C"/>
<path d="M72.0632 11.4973C71.7334 12.1764 71.2095 12.3704 70.4722 12.3704C67.9886 12.3316 65.505 12.3704 63.0214 12.3704C62.808 12.3704 62.5752 12.3704 62.3229 12.3704V19.666C63.0214 19.7242 63.7005 19.7242 64.3796 19.8406C66.6304 20.1898 68.3573 22.2078 68.3961 24.4779C68.3961 24.866 68.3961 25.254 68.3961 25.6421C68.3961 26.651 67.9304 27.1167 66.902 27.1361C66.514 27.1361 66.1259 27.1361 65.7378 27.1361C62.2647 27.1361 58.7722 27.1361 55.299 27.1361C54.0961 27.1361 53.6304 26.6704 53.6692 25.4675C53.6886 24.6719 53.7274 23.857 53.9408 23.1197C54.5229 21.16 56.405 19.8018 58.4811 19.7242C58.908 19.7242 59.3349 19.7242 59.7811 19.7242V12.3704H42.0662V19.6272C42.7647 19.6854 43.4632 19.6854 44.1423 19.8018C46.3737 20.151 48.0423 22.0525 48.1587 24.3033C48.1781 24.7689 48.1781 25.2346 48.1587 25.7003C48.1393 26.5928 47.6931 27.0391 46.8005 27.0779C46.6453 27.0779 46.4707 27.0779 46.3154 27.0779C42.6677 27.0779 39.0199 27.0779 35.3722 27.0779C33.7229 27.0779 33.4513 26.7869 33.4319 25.1182C33.4319 24.1286 33.5095 23.1585 34.0139 22.2854C34.9453 20.6555 36.3617 19.8018 38.2244 19.6854C38.6513 19.666 39.0781 19.6854 39.5438 19.6854V12.3898H21.8289V19.6466C22.4304 19.6854 23.0707 19.666 23.6721 19.763C26.1363 20.1704 27.708 21.9361 27.902 24.4197C27.9214 24.7301 27.902 25.0212 27.902 25.3316C27.902 26.6704 27.4945 27.0973 26.1557 27.0973C23.5557 27.0973 20.9363 27.0973 18.3363 27.0973C17.1333 27.0973 15.9304 27.0973 14.7274 27.0973C13.5632 27.0973 13.1169 26.651 13.1363 25.5257C13.1363 24.7689 13.1363 24.0122 13.3304 23.2943C13.8736 21.1988 15.7751 19.763 17.9483 19.7048C18.3557 19.7048 18.7632 19.7048 19.1901 19.7048V12.351C18.8408 12.351 18.4915 12.351 18.1617 12.351C15.8139 12.351 13.4856 12.351 11.1378 12.351C10.4393 12.351 9.81841 12.3122 9.52736 11.5555C9.29453 10.8182 9.70199 10.3331 10.2453 9.90625C30.8513 9.90625 51.4572 9.90625 72.0826 9.90625V11.4973H72.0632ZM15.6587 24.5555H25.3602C25.4572 23.2555 24.4289 22.2272 22.9736 22.1883C21.3438 22.1495 19.7139 22.1495 18.1035 22.1883C16.6871 22.2078 15.8527 23.0421 15.6587 24.5555ZM65.9125 24.5749C65.7961 23.2943 65.0587 22.3048 63.9916 22.266C62.0319 22.1883 60.0528 22.1689 58.0931 22.266C56.9677 22.3242 56.0946 23.5466 56.2692 24.5749H65.9319H65.9125ZM45.6557 24.5555C45.5975 23.3331 44.802 22.3048 43.7154 22.2466C41.7751 22.1689 39.8154 22.1689 37.8557 22.2466C36.7498 22.2854 35.896 23.4107 35.9348 24.5555H45.6557Z" fill="#1C284C"/>
</g>
<defs>
<clipPath id="clip0_3793_6968">
<rect width="62.5747" height="62.5747" fill="white" transform="translate(9.48877 9.90625)"/>
</clipPath>
</defs>
</svg>
