<svg width="68" height="55" viewBox="0 0 68 55" fill="none" xmlns="http://www.w3.org/2000/svg">
<g clip-path="url(#clip0_3793_6992)">
<path d="M43.2758 36.7053H19.7227V38.7018H43.2758V36.7053ZM13.4886 24.4745C14.4408 23.845 15.3571 23.1795 16.3272 22.6039C17.4591 21.9384 18.7167 21.5607 20.0461 21.4348C21.5013 21.3089 22.5613 22.0823 23.6393 22.9277C24.9508 23.9709 26.2802 25.0141 27.6995 25.8954C28.7775 26.5789 30.053 26.8487 31.4005 26.9387C31.4723 26.2372 31.5442 25.5897 31.634 24.8882C29.8375 24.6904 28.2565 24.0428 26.8911 22.9457C26.1365 22.3341 25.4179 21.7046 24.6813 21.0931C23.4416 20.0678 22.0763 19.2764 20.4054 19.3663C19.4173 19.4203 18.4112 19.6002 17.4591 19.87C15.393 20.4815 13.6503 21.6326 12.0693 23.1075C12.5724 23.6112 13.0395 24.0608 13.4886 24.5105V24.4745ZM48.1266 36.6874H45.3778V38.7198H48.1266V36.6874ZM36.3231 27.6941V25.6256H33.5743C33.5743 26.2192 33.5564 26.7948 33.5923 27.3524C33.5923 27.4783 33.8438 27.6941 33.9875 27.6941C34.7421 27.7301 35.4967 27.6941 36.3231 27.6941Z" fill="#1C284C"/>
<path d="M67.8713 32.3149C67.5838 33.538 67.1886 34.6891 66.3442 35.6784C65.3022 36.9015 63.9907 37.6569 62.4097 37.9807C62.0683 38.0526 61.6731 38.2685 61.4575 38.5383C59.9843 40.4268 58.6908 42.4233 58.0081 44.7436C57.7206 45.6969 57.5589 46.7041 57.505 47.6934C57.4332 49.3122 57.4871 50.913 57.4871 52.6037H61.2419V54.7081H25.9752V52.6037H49.7977V48.5028H18.717V52.5857H22.4359V54.6901H7.27282V52.6217H11.0456C11.0456 51.6864 11.0636 50.841 11.0456 49.9957C10.9917 48.5927 11.0456 47.1718 10.8121 45.8048C10.3989 43.4666 9.15922 41.4521 7.84772 39.5095C7.82975 39.4736 7.79382 39.4376 7.77586 39.4016C7.23688 38.5383 6.57215 37.9987 5.45828 37.7289C2.44003 37.0454 0.445834 34.0776 0.661423 31.0019C0.894978 27.8543 3.24849 25.3721 6.41046 24.9584C6.76977 24.9045 6.9135 24.7966 6.9674 24.4009C7.63213 20.0841 10.1653 17.2782 14.2435 16.0551C19.9566 14.3644 25.508 14.832 30.6642 18.1056C32.856 19.4906 35.1017 20.7856 37.4014 22.1705C37.1498 22.6921 36.8804 23.3037 36.557 24.0052C35.4251 23.3936 34.3472 22.836 33.3052 22.2245C31.9577 21.4331 30.6103 20.5877 29.2808 19.7603C26.4602 17.9797 23.3881 17.2243 20.0644 17.2962C17.639 17.3502 15.2676 17.6559 13.0937 18.8251C10.8121 20.0661 9.50057 22.0087 9.05142 24.5627C8.97956 24.9764 9.08736 25.1923 9.50057 25.3542C11.387 26.0556 12.6625 27.3686 13.3632 29.2752C14.8723 33.4121 16.4353 37.531 17.9624 41.6679C18.1241 42.0996 18.3217 42.2075 18.7709 42.2075C29.1012 42.2075 39.4135 42.2075 49.7438 42.2075C50.175 42.2075 50.3906 42.0816 50.5343 41.6679C52.0794 37.4411 53.6604 33.2322 55.2413 29.0234C55.403 28.5737 55.6186 28.16 55.8342 27.6384C50.0133 27.4586 44.3002 26.883 38.7308 24.8685C38.9644 24.221 39.1979 23.6095 39.4495 22.926C40.4016 23.2138 41.3179 23.5195 42.2521 23.7713C46.6357 24.9584 51.1272 25.3901 55.6725 25.516C56.0139 25.516 56.3732 25.516 56.7145 25.534C57.6308 25.588 58.4931 25.4801 59.4094 25.1743C63.0025 24.0052 66.7574 26.2715 67.7275 30.1206C67.7635 30.2465 67.8174 30.3544 67.8533 30.4803V32.3149H67.8713ZM53.1034 40.8405C54.4329 40.8405 55.6366 40.8225 56.8403 40.8405C57.2715 40.8405 57.4871 40.6607 57.7206 40.3189C58.6009 38.9879 59.5172 37.6749 60.4514 36.3979C60.6131 36.182 60.9724 36.0561 61.2599 35.9662C62.0324 35.7144 62.8947 35.6244 63.6134 35.2467C65.2842 34.3654 66.0926 32.279 65.6435 30.3904C65.1944 28.4478 63.5235 27.0988 61.4395 26.9729C59.5891 26.865 57.9003 27.9982 57.2355 29.7968C56.5169 31.7214 55.7983 33.6459 55.0796 35.5525C54.4329 37.2612 53.8041 38.9879 53.1214 40.8046L53.1034 40.8405ZM15.3933 40.8405C15.3035 40.5707 15.2496 40.3549 15.1777 40.157C13.8842 36.7036 12.5907 33.2502 11.3151 29.7968C10.5605 27.7823 8.2789 26.5772 6.2308 27.1168C3.96712 27.7104 2.47596 29.8508 2.81731 32.0271C3.17663 34.3294 4.75761 35.7324 7.25485 35.9842C7.56027 36.0201 7.93755 36.2 8.09924 36.4338C9.05142 37.7109 9.93175 39.0419 10.848 40.3369C10.9917 40.5348 11.2073 40.7866 11.387 40.8046C12.6985 40.8405 13.992 40.8225 15.3754 40.8225L15.3933 40.8405ZM19.0044 44.3479C19.1841 44.8335 19.3458 45.2113 19.4536 45.607C19.5973 46.2185 19.9207 46.3984 20.5495 46.3984C27.125 46.3624 33.7184 46.3984 40.2938 46.3984C42.9348 46.3984 45.5937 46.3984 48.2347 46.3984C48.4503 46.3984 48.7737 46.2725 48.8455 46.1286C49.115 45.589 49.2947 45.0134 49.5103 44.3839H19.0044V44.3479ZM12.2493 42.945C12.5188 44.0421 12.7524 45.0674 13.0398 46.0746C13.0757 46.2185 13.3452 46.3624 13.5069 46.3624C14.1896 46.3984 14.8544 46.3624 15.5371 46.3624C16.1659 46.3624 16.8126 46.3624 17.5133 46.3624C17.1001 45.2652 16.7587 44.276 16.3635 43.3047C16.2916 43.1428 16.076 42.945 15.9323 42.945C14.7106 42.909 13.489 42.945 12.2493 42.945ZM56.2834 42.945C55.0257 42.945 53.7681 42.945 52.5105 42.945C52.4207 42.945 52.277 43.0529 52.2411 43.1608C51.8278 44.204 51.4506 45.2652 51.0374 46.3624C52.4387 46.3624 53.7502 46.3624 55.0617 46.3624C55.2054 46.3624 55.4569 46.2185 55.4929 46.0926C55.7803 45.0674 56.0139 44.0421 56.2834 42.945ZM13.1476 52.5497H16.5072V48.5208H13.1476V52.5497ZM51.9895 52.5497H55.3491V48.5208H51.9895V52.5497Z" fill="#1C284C"/>
<path d="M43.2762 36.7031V38.6996H19.7231V36.7031H43.2762Z" fill="#1C284C"/>
<path d="M13.4886 24.4714C13.0395 24.0218 12.5724 23.5721 12.0693 23.0685C13.6324 21.5936 15.393 20.4424 17.4591 19.8309C18.4112 19.5431 19.4173 19.3633 20.4054 19.3273C22.0583 19.2374 23.4416 20.0288 24.6813 21.054C25.4179 21.6655 26.1365 22.313 26.8911 22.9066C28.2565 24.0038 29.8375 24.6513 31.634 24.8491C31.5622 25.5506 31.4903 26.1981 31.4005 26.8996C30.053 26.8097 28.7775 26.5399 27.6995 25.8564C26.2802 24.9571 24.9508 23.9318 23.6393 22.8886C22.5793 22.0432 21.5013 21.2698 20.0461 21.3957C18.7167 21.5216 17.477 21.8814 16.3272 22.5649C15.3571 23.1404 14.4408 23.8059 13.4886 24.4355V24.4714Z" fill="#1C284C"/>
<path d="M48.1267 36.6836V38.7161H45.3779V36.6836H48.1267Z" fill="#1C284C"/>
<path d="M36.3236 27.6974C35.4971 27.6974 34.7426 27.7153 33.988 27.6974C33.8443 27.6974 33.6107 27.4815 33.5928 27.3556C33.5568 26.798 33.5748 26.2404 33.5748 25.6289H36.3236V27.6974Z" fill="#1C284C"/>
<path d="M54.2175 7.40378C54.2175 6.09076 53.2653 5.02956 51.9358 5.13748C50.7681 5.22741 49.6003 5.13748 48.4325 5.17345C48.0193 5.17345 47.8396 5.04755 47.66 4.66983C46.2766 1.774 44.0129 0.191189 40.7971 0.227162C37.671 0.263135 35.4612 1.84595 34.1138 4.63386C33.4131 6.09076 33.4491 7.65559 33.5209 9.22042C33.5569 9.778 33.9701 10.0658 34.545 10.0658C35.8924 10.0658 37.2578 10.0658 38.6052 10.0658C41.4079 10.0658 44.2285 10.0658 47.0312 10.0658C47.9295 10.0658 48.2528 9.74203 48.2528 8.86069C48.2528 8.33908 48.2528 7.83545 48.2528 7.31385C48.2528 7.27787 48.2528 7.2419 48.2888 7.13398H52.1514V22.6383C52.8161 22.6923 53.4809 22.7463 54.1636 22.7822C54.1636 17.6561 54.1636 12.5299 54.1815 7.40378H54.2175ZM46.2946 8.05129H35.5331C35.2457 4.9756 37.7249 2.24165 40.833 2.16971C43.959 2.11575 46.4742 4.79574 46.2946 8.05129Z" fill="#1C284C"/>
<path d="M57.1462 22.8885C57.1462 17.0609 57.1462 11.2513 57.1821 5.42364C57.1821 3.51707 55.7269 2.04218 53.9303 2.1501C52.4391 2.24003 50.93 2.1501 49.4389 2.16808C48.7023 2.16808 48.2891 2.52781 48.2891 3.15734C48.2891 3.76888 48.7023 4.1466 49.4389 4.1466C50.93 4.1466 52.4391 4.1466 53.9303 4.1466C54.7927 4.1466 55.1879 4.52431 55.1879 5.36968C55.1879 11.1793 55.1879 17.0069 55.1879 22.8166C55.7808 22.8346 56.3557 22.8705 56.9485 22.8705C57.0204 22.8705 57.0743 22.8705 57.1462 22.8705V22.8885Z" fill="#1C284C"/>
</g>
<defs>
<clipPath id="clip0_3793_6992">
<rect width="67.2098" height="54.4631" fill="white" transform="translate(0.661621 0.226562)"/>
</clipPath>
</defs>
</svg>
