<svg width="71" height="72" viewBox="0 0 71 72" fill="none" xmlns="http://www.w3.org/2000/svg">
<g clip-path="url(#clip0_3793_7009)">
<path d="M58.2941 66.8333H12.7343C12.7343 68.0053 12.7343 69.1338 12.7343 70.2624C12.7343 71.2173 12.3063 71.673 11.3647 71.673C9.86673 71.673 8.36876 71.673 6.87078 71.673C5.972 71.673 5.54401 71.239 5.54401 70.3275C5.54401 69.1989 5.54401 68.0487 5.54401 66.8116C4.73082 66.8116 3.98183 66.8116 3.21145 66.8116C1.75627 66.8116 0.771888 65.7916 0.750488 64.3375C0.750488 63.5562 0.750488 62.7749 0.750488 61.9719C0.750488 60.5612 1.75627 59.5194 3.14725 59.4977C3.70364 59.4977 4.23863 59.4977 4.92342 59.4977C3.53244 57.7398 2.91185 55.83 3.16865 53.7031C3.42544 51.5545 4.49542 49.8617 6.27159 48.5595C6.1218 48.4076 5.9934 48.2991 5.8864 48.1905C3.55384 46.1939 2.63366 43.633 3.38264 40.638C4.15303 37.6213 6.1646 35.7982 9.20334 35.2122C9.63134 35.1254 10.1021 35.1254 10.5515 35.1254C17.7418 35.1254 24.9321 35.1254 32.1224 35.1254H33.1281C33.1281 34.8216 33.1281 34.5612 33.1281 34.3007C33.1281 31.4142 33.1281 28.5061 33.1281 25.6196C33.1281 23.8617 33.9627 22.9718 35.6533 22.7765C38.371 22.4944 41.0888 22.1471 43.8707 21.8433V18.1104C43.0576 17.7197 42.223 17.3942 41.4954 16.895C39.227 15.3324 38.264 12.5328 39.0344 9.71139C39.9332 6.36915 41.9448 3.7431 44.2987 1.37749C44.7909 0.900031 45.4115 0.856625 45.9251 1.35579C48.3219 3.7431 50.3762 6.39085 51.2322 9.7548C52.1952 13.5094 50.312 16.8082 46.6527 17.9151C46.5671 17.9368 46.4601 17.9585 46.3531 18.0019V21.5611C47.8725 21.3875 49.3919 21.2139 50.8898 21.062C52.024 20.9318 53.1582 20.7581 54.3138 20.693C56.1327 20.5845 57.1171 21.5611 57.1171 23.4059C57.1171 29.6997 57.1171 35.9935 57.1171 42.2874C57.1171 42.6997 57.3311 43.1338 57.5451 43.481C58.1871 44.436 58.9789 45.3258 59.5567 46.3024C60.1345 47.2573 60.5411 48.3425 61.0333 49.3625C62.1246 49.1238 63.2802 48.8633 64.4572 48.668C65.1848 48.5595 65.9552 48.5378 66.6828 48.5378C67.4103 48.5378 67.8383 48.9936 67.8597 49.7315C67.9025 53.4209 67.0466 56.7632 64.179 59.4977C65.3774 59.4977 66.4474 59.4977 67.5173 59.4977C69.3577 59.4977 70.2565 60.431 70.2565 62.2974C70.2565 62.9919 70.2565 63.6647 70.2565 64.3592C70.2565 65.7699 69.2293 66.7899 67.8383 66.8116C67.068 66.8116 66.2976 66.8116 65.463 66.8116C65.463 68.027 65.463 69.1555 65.463 70.2841C65.463 71.239 65.035 71.673 64.0934 71.673C62.5954 71.673 61.0975 71.673 59.5995 71.673C58.7007 71.673 58.2727 71.2173 58.2727 70.3058C58.2727 69.1772 58.2727 68.027 58.2727 66.8333H58.2941ZM35.5463 35.1905C38.585 35.9284 40.6394 37.7515 41.3242 40.8767C42.009 44.0453 40.832 46.5628 38.4138 48.4944C42.0518 51.7715 42.5012 55.3959 39.8262 59.4326H47.5301C44.7481 56.8066 43.8921 53.5295 43.8921 49.8834C43.8921 48.9502 44.2987 48.5161 45.1975 48.5161C45.9037 48.5161 46.6099 48.5161 47.2947 48.6246C48.4717 48.8199 49.6273 49.1021 50.8256 49.3408C51.489 47.1488 52.6874 45.2173 54.1854 43.4376C54.4422 43.1338 54.6348 42.6563 54.6348 42.244C54.6562 36.1238 54.6348 30.0036 54.6348 23.9051V23.0586C48.1935 23.7965 41.8592 24.5127 35.5035 25.2289V35.1471L35.5463 35.1905ZM9.43874 37.7515C7.04198 38.1421 5.24441 40.6163 5.60821 42.9602C6.0148 45.6079 7.91937 47.3007 10.5729 47.3007C15.238 47.3007 19.9032 47.3007 24.5897 47.3007C27.821 47.3007 31.031 47.3224 34.2623 47.3007C37.4295 47.279 39.6122 44.5445 39.0344 41.441C38.6064 39.1622 36.6163 37.5779 34.1553 37.5779C27.3716 37.5779 20.5665 37.5779 13.7829 37.5779C13.6117 37.5779 13.4405 37.5779 13.2693 37.5779C12.3277 37.7081 11.6429 38.4677 11.6215 39.3575C11.6215 40.2473 12.2849 41.0286 13.2265 41.1805C13.4619 41.2239 13.7187 41.2022 13.9755 41.2022C17.9558 41.2022 21.9147 41.2022 25.8951 41.2022C28.2918 41.2022 30.6886 41.2022 33.0853 41.2022C33.9627 41.2022 34.4977 41.7665 34.3907 42.5695C34.3051 43.264 33.8129 43.6329 32.9141 43.6329C26.43 43.6329 19.9246 43.6329 13.4405 43.6329C13.1195 43.6329 12.7985 43.6112 12.4775 43.5244C9.93093 42.8951 8.73255 40.5728 9.50294 37.7298L9.43874 37.7515ZM9.48154 49.8183C8.94655 50.0136 8.56135 50.1438 8.21896 50.3174C6.20739 51.3158 5.20161 53.5295 5.6938 55.7865C6.1646 57.8917 8.09056 59.4543 10.3375 59.4977C12.5417 59.5411 14.7244 59.4977 16.9286 59.4977C22.6423 59.4977 28.356 59.4977 34.0911 59.4977C37.3653 59.4977 39.5908 56.7849 38.9702 53.5946C38.5208 51.3375 36.5307 49.7532 34.0483 49.7532C27.3288 49.7532 20.6093 49.7532 13.8899 49.7532C12.4133 49.7532 11.5145 50.4476 11.5359 51.5762C11.5359 52.7264 12.4133 53.3992 13.9113 53.3992C20.2242 53.3992 26.537 53.3992 32.8713 53.3992C33.8129 53.3992 34.3265 53.855 34.3051 54.658C34.3051 55.4176 33.7915 55.8517 32.8713 55.8517C26.3231 55.8517 19.7962 55.8517 13.2479 55.8517C12.1779 55.8517 11.2363 55.461 10.4659 54.7231C9.09635 53.3992 8.81815 51.7932 9.46014 49.8183H9.48154ZM67.8597 61.9936H3.21145V64.3375H67.8383V61.9936H67.8597ZM45.1119 4.00354C43.6354 5.71806 42.2658 7.38918 41.6238 9.47266C41.3242 10.4276 41.1316 11.5344 41.3028 12.5111C41.688 14.7247 43.8065 16.0052 45.9679 15.5061C48.0437 15.0503 49.3491 12.9234 48.9211 10.7748C48.3861 8.12708 46.8239 6.08701 45.0905 4.00354H45.1119ZM65.3346 51.0553C60.3699 51.2289 57.2455 54.3976 57.1813 59.2807C62.2958 59.2807 65.1634 56.0253 65.3346 51.0553ZM46.4173 51.0553C46.5029 56.0687 50.3762 59.9752 54.5492 59.3024C54.3566 53.855 51.2322 51.3592 46.4173 51.0553ZM55.8759 45.3258C54.592 46.8233 53.629 48.3859 53.1582 50.2523C53.1154 50.4476 53.1154 50.7298 53.2224 50.86C54.1426 51.9234 55.0842 52.9869 55.9187 53.9201C56.6463 53.052 57.4381 52.032 58.3155 51.0987C58.6151 50.7732 58.7221 50.5345 58.5937 50.1438C58.0587 48.3642 57.1599 46.8233 55.8759 45.3475V45.3258ZM10.2947 69.1989V66.8333H7.98356V69.1989H10.2947ZM63.0448 66.855H60.7337V69.1989H63.0448V66.855Z" fill="#1C284C"/>
</g>
<defs>
<clipPath id="clip0_3793_7009">
<rect width="69.5274" height="70.6862" fill="white" transform="translate(0.750488 0.988281)"/>
</clipPath>
</defs>
</svg>
