<?xml version="1.0" encoding="utf-8"?>
<!-- Generator: Adobe Illustrator 27.4.0, SVG Export Plug-In . SVG Version: 6.00 Build 0)  -->
<svg version="1.1" id="Capa_1" xmlns="http://www.w3.org/2000/svg" xmlns:xlink="http://www.w3.org/1999/xlink" x="0px" y="0px"
	 viewBox="0 0 31.9 32" style="enable-background:new 0 0 31.9 32;" xml:space="preserve">
<style type="text/css">
	.st0{fill:none;}
	.st1{fill:#CBF000;}
</style>
<rect x="-90.5" y="-115.9" class="st0" width="181" height="53"/>
<g>
	<path id="Vector_8" class="st1" d="M15.5,17.4h-2.4v2.4h2.4V17.4z"/>
	<path id="Vector_9" class="st1" d="M18.8,17.4h-2.4v2.4h2.4V17.4z"/>
	<path id="Vector_10" class="st1" d="M15.5,20.6h-2.4v2.4h2.4V20.6z"/>
	<path id="Vector_11" class="st1" d="M18.8,20.6h-2.4v2.4h2.4V20.6z"/>
	<path id="Vector_12" class="st1" d="M24.2,8.6l-7.9-7.8c-0.2-0.2-0.4-0.3-0.6-0.3c-0.2,0-0.5,0.1-0.6,0.3L7.7,8
		c-2.1,2-3.2,4.8-3.2,7.7c0,2.9,1.1,5.6,3.2,7.7l7.4,7.9c0.2,0.2,0.4,0.3,0.6,0.3c0.2,0,0.5-0.1,0.6-0.2l7.8-7.3l0,0
		c1-1,1.8-2.2,2.4-3.5c0.6-1.3,0.8-2.7,0.8-4.2c0-1.4-0.3-2.8-0.8-4.2C26,10.8,25.2,9.6,24.2,8.6z M9.2,9.5l6.4-6.3l7,6.9
		c1.1,1.1,1.9,2.4,2.3,3.9c0.4,1.5,0.4,3,0,4.5L22.4,16v-3.4h-2.3v1.1l-4.4-4.4l0,0l0,0l-8.7,8.5c-0.2-0.7-0.3-1.4-0.3-2.2
		C6.7,13.4,7.6,11.2,9.2,9.5L9.2,9.5z M15.8,28.7l-6.5-6.9l0,0c-0.5-0.5-1-1.1-1.4-1.8l7.8-7.6l8.4,8.2c-0.4,0.6-0.8,1.2-1.4,1.7
		L15.8,28.7z"/>
</g>
</svg>
