<svg width="52" height="53" viewBox="0 0 52 53" fill="none" xmlns="http://www.w3.org/2000/svg">
<path d="M51.618 24.446V28.0742C51.5862 28.2184 51.5422 28.3602 51.5226 28.5069C51.3735 29.5338 51.3075 30.5802 51.0728 31.5875C49.1462 39.9318 44.3152 45.9779 36.6065 49.7039C35.455 50.2613 34.2228 50.6525 32.9637 51.1439V31.9248H38.4964C38.7751 29.7636 39.0465 27.6757 39.3252 25.5291H33.0175C32.9784 25.4337 32.9417 25.3897 32.9441 25.3457C32.9564 23.7174 32.9221 22.0867 33.0004 20.4609C33.0542 19.3387 33.7143 18.6224 34.8169 18.4048C35.4843 18.2727 36.1811 18.2605 36.8657 18.2385C37.7336 18.2116 38.604 18.2312 39.4988 18.2312V12.5371C39.401 12.5102 39.3081 12.4637 39.2128 12.4589C37.4867 12.3855 35.7582 12.2657 34.0321 12.2657C32.8048 12.2657 31.6019 12.5469 30.4895 13.1019C27.7048 14.4905 26.5142 16.8938 26.3357 19.8619C26.2354 21.5537 26.3063 23.2529 26.299 24.9497C26.299 25.1281 26.2843 25.309 26.2746 25.5364H20.7883V31.9615H26.2574V52.0461C24.26 52.1243 22.3261 51.9238 20.4216 51.5008C14.3485 50.1586 9.34144 47.0659 5.51279 42.1639C1.01669 36.4209 -0.697155 29.8712 0.253896 22.6613C0.904229 17.7202 2.90168 13.3341 6.15335 9.54947C10.1776 4.86267 15.2311 1.93617 21.3286 0.850654C22.1819 0.699073 23.0424 0.586609 23.8981 0.457031C25.1401 0.457031 26.3846 0.457031 27.6266 0.457031C28.2231 0.532822 28.8221 0.598833 29.4162 0.686848C33.6531 1.30784 37.5356 2.83099 40.9804 5.38343C46.5229 9.4859 49.9555 14.9306 51.2146 21.7224C51.3808 22.6246 51.4835 23.539 51.6155 24.4485L51.618 24.446Z" fill="#1C284C"/>
</svg>
