<svg width="53" height="53" viewBox="0 0 53 53" fill="none" xmlns="http://www.w3.org/2000/svg">
<path d="M24.5188 0.445312C25.7608 0.445312 27.0052 0.445312 28.2472 0.445312C29.0589 0.552886 29.8755 0.633567 30.6823 0.772924C35.4131 1.59195 39.6281 3.53073 43.2562 6.6846C47.8624 10.6868 50.7473 15.6915 51.8353 21.7107C51.9991 22.6129 52.1042 23.5272 52.2362 24.4367V28.0649C52.202 28.2263 52.1604 28.3876 52.136 28.5514C52.0211 29.3974 51.9599 30.2555 51.7912 31.0917C50.5273 37.4092 47.4052 42.6289 42.3101 46.575C35.9779 51.4793 28.8096 53.0954 20.9787 51.4671C14.8836 50.2007 9.90589 47.0175 6.08946 42.1131C1.6227 36.375 -0.0764821 29.835 0.872124 22.6447C1.5249 17.706 3.5248 13.32 6.77402 9.53775C10.8007 4.85095 15.8542 1.9269 21.9468 0.838935C22.8001 0.684909 23.6607 0.57489 24.5188 0.445312ZM11.7151 26.2533C11.6882 26.2533 11.6589 26.2533 11.632 26.2533C11.632 27.5124 11.5953 28.7739 11.6417 30.033C11.6931 31.4242 11.7053 32.8299 11.9376 34.1942C12.4705 37.3309 14.248 39.4775 17.3236 40.4775C18.7661 40.9469 20.2599 41.0105 21.7512 41.0031C25.729 40.9836 29.7142 41.0422 33.6822 40.8271C36.6771 40.6657 38.9704 39.1279 40.2906 36.3383C40.8505 35.155 41.1072 33.8788 41.1317 32.5855C41.1952 29.1089 41.2246 25.6323 41.2099 22.1581C41.205 20.8868 41.1414 19.5984 40.9312 18.349C40.4031 15.1878 38.633 13.0241 35.5354 12.0193C34.11 11.5572 32.6333 11.4888 31.1566 11.4961C27.1617 11.5181 23.1668 11.5328 19.1744 11.6526C17.5803 11.7015 16.1012 12.298 14.8176 13.2979C12.6295 15.002 11.8178 17.3613 11.7249 20.0091C11.6515 22.0897 11.7102 24.1727 11.7102 26.2557L11.7151 26.2533Z" fill="#1C284C"/>
<path d="M14.198 26.2402C14.2787 23.9274 14.3105 21.6243 14.4523 19.3311C14.6283 16.4632 16.638 14.39 19.4985 14.2824C23.2391 14.1431 26.9846 14.1406 30.7277 14.1406C31.9281 14.1406 33.1554 14.2091 34.3241 14.4633C36.769 14.9939 38.3166 16.7957 38.4046 19.3017C38.5341 23.0081 38.5488 26.7219 38.5488 30.4307C38.5488 31.6654 38.4852 32.9269 38.2261 34.1274C37.7004 36.5698 35.8839 38.1345 33.3926 38.2201C29.652 38.3496 25.9064 38.3619 22.1634 38.3619C20.9458 38.3619 19.7038 38.2885 18.5181 38.0318C16.105 37.5111 14.6014 35.7019 14.4547 33.2228C14.3154 30.8953 14.2787 28.5604 14.198 26.2378V26.2402ZM26.4345 33.8315C30.6495 33.8315 34.0087 30.4747 34.0112 26.2598C34.016 22.0424 30.6666 18.6807 26.4541 18.671C22.2147 18.6612 18.8457 22.0277 18.8506 26.2671C18.8579 30.4796 22.2196 33.834 26.4345 33.8315ZM34.3314 20.1061C35.2923 20.111 36.0966 19.3237 36.1088 18.3629C36.1211 17.3874 35.302 16.5659 34.3265 16.5733C33.3657 16.5806 32.576 17.3801 32.5785 18.3433C32.5785 19.3066 33.3682 20.1012 34.3314 20.1061Z" fill="#1C284C"/>
<path d="M26.4418 31.1858C23.6816 31.1858 21.4934 28.9928 21.4959 26.2277C21.4983 23.4992 23.6938 21.3086 26.4271 21.3086C29.1898 21.3086 31.3755 23.4992 31.3706 26.2643C31.3682 28.9952 29.1752 31.1834 26.4394 31.1834L26.4418 31.1858Z" fill="#1C284C"/>
</svg>
