<svg width="52" height="52" viewBox="0 0 52 52" fill="none" xmlns="http://www.w3.org/2000/svg">
<path d="M27.8586 51.7621H23.6804C23.6007 51.7435 23.5209 51.7129 23.4399 51.7063C21.3999 51.5308 19.4158 51.0935 17.4808 50.4276C4.57136 45.983 -2.60633 32.2199 1.3008 19.0722C5.06041 6.42418 17.5021 -1.29141 30.4421 1.24191C40.6791 3.24624 47.2827 9.55694 50.3778 19.5201C50.8509 21.0433 51.0489 22.6236 51.2363 24.2026V28.3814C51.1499 29.0034 51.0914 29.6308 50.9745 30.2475C48.9957 40.6439 42.9702 47.4916 32.9206 50.7905C31.2794 51.3288 29.569 51.5561 27.86 51.7621H27.8586ZM21.9195 30.7233C21.9195 33.4414 21.9195 36.1608 21.9195 38.8788C21.9195 39.5939 21.9381 39.6139 22.6345 39.6152C23.9608 39.6178 25.2871 39.6178 26.6121 39.6152C27.3098 39.6152 27.3257 39.5966 27.3257 38.8788C27.3271 36.0438 27.3217 33.2088 27.3324 30.3751C27.3364 29.4567 27.4679 28.5555 27.9012 27.7275C28.4806 26.6176 29.7378 26.0182 31.1 26.191C32.4183 26.3598 33.1439 27.0297 33.4682 28.3787C33.6197 29.0114 33.6662 29.6534 33.6662 30.302C33.6622 33.1862 33.6649 36.0704 33.6662 38.9559C33.6662 39.5766 33.6994 39.6139 34.3067 39.6152C35.6822 39.6192 37.0577 39.6192 38.4345 39.6152C39.0431 39.6139 39.0923 39.5673 39.091 38.9613C39.087 35.4803 39.083 31.9993 39.0671 28.5183C39.0631 27.5374 38.9129 26.5685 38.6591 25.6221C38.2006 23.9155 37.2836 22.5625 35.5679 21.9205C33.0123 20.9649 29.2554 21.1549 27.4573 24.0046C27.4068 24.0843 27.355 24.2053 27.2407 24.1747C27.0892 24.1348 27.1344 23.9846 27.133 23.8783C27.1251 23.3972 27.1051 22.9147 27.1357 22.4362C27.1649 21.9683 26.9722 21.8341 26.5244 21.8407C25.2154 21.862 23.905 21.8474 22.596 21.8487C21.9395 21.8487 21.9209 21.866 21.9209 22.5146C21.9195 25.25 21.9209 27.9853 21.9209 30.7207L21.9195 30.7233ZM12.8707 30.7246C12.8707 33.4932 12.876 36.2605 12.864 39.029C12.8627 39.4517 12.9996 39.6271 13.4355 39.6218C14.8601 39.6059 16.2861 39.6072 17.7107 39.6218C18.14 39.6258 18.2928 39.4637 18.2928 39.0357C18.2835 33.4999 18.2835 27.964 18.2928 22.4282C18.2928 22.0029 18.1546 21.8381 17.7174 21.8447C16.326 21.8647 14.9332 21.85 13.5418 21.8527C12.888 21.8527 12.872 21.8687 12.8707 22.5213C12.8707 25.2566 12.8707 27.9906 12.8707 30.726V30.7246ZM15.5778 19.2928C17.3067 19.2875 18.7287 17.8667 18.7513 16.1215C18.7739 14.375 17.3267 12.9582 15.5339 12.9728C13.7784 12.9861 12.367 14.4069 12.383 16.1441C12.3989 17.8693 13.8488 19.2981 15.5778 19.2928Z" fill="#1C284C"/>
</svg>
