<svg width="52" height="52" viewBox="0 0 52 52" fill="none" xmlns="http://www.w3.org/2000/svg">
<path d="M51.8546 23.9929V27.6211C51.8204 27.7824 51.7788 27.9438 51.7568 28.1076C51.6419 28.9535 51.5808 29.8117 51.4121 30.6478C50.1481 36.9653 47.026 42.1851 41.9334 46.1311C35.6012 51.0355 28.4328 52.6515 20.6019 51.0233C14.5069 49.7568 9.52917 46.5736 5.7103 41.6717C1.24109 35.9336 -0.458088 29.3936 0.490518 22.2032C1.1433 17.2646 3.14319 12.8785 6.39241 9.09634C10.4191 4.40955 15.4726 1.48549 21.5652 0.397529C22.4185 0.243503 23.2791 0.133484 24.1372 0.00390625C25.3792 0.00390625 26.6236 0.00390625 27.8656 0.00390625C28.6773 0.11148 29.4939 0.192161 30.3007 0.331518C35.0315 1.15055 39.2465 3.08932 42.8746 6.24319C47.4808 10.2454 50.3657 15.2501 51.4537 21.2693C51.6175 22.1715 51.7226 23.0858 51.8546 23.9953V23.9929ZM23.6971 22.4013C23.2253 22.3695 22.7925 22.3059 22.3598 22.3182C21.8073 22.3353 21.2523 22.3793 20.7095 22.4697C15.8442 23.2717 12.4948 27.8753 13.2282 32.7382C14.0351 38.0948 19.3453 41.6057 24.5797 40.2439C28.8216 39.1412 31.5427 35.6206 31.5403 31.2174C31.5403 27.9096 31.5207 24.5992 31.5109 21.2913C31.5109 21.1202 31.5109 20.9515 31.5109 20.8659C32.726 21.4527 33.8702 22.0834 35.0755 22.5626C36.3028 23.0492 37.606 23.2619 38.9311 23.1861V18.4699C35.1464 18.3966 31.7114 15.5557 31.462 11.1231H26.7434C26.7434 11.3652 26.7434 11.5657 26.7434 11.7661C26.7434 18.1814 26.7434 24.5968 26.7361 31.0121C26.7361 31.3641 26.7092 31.7162 26.6603 32.0634C26.3694 34.1977 24.5113 35.782 22.3231 35.7771C20.1741 35.7722 18.2891 34.1317 18.0031 32.0169C17.7146 29.8752 19.0641 27.7482 21.1447 27.2445C21.9515 27.049 22.8194 27.1199 23.6947 27.0661V22.3964L23.6971 22.4013Z" fill="#1C284C"/>
</svg>
