<svg width="52" height="53" viewBox="0 0 52 53" fill="none" xmlns="http://www.w3.org/2000/svg">
<g clip-path="url(#clip0_3105_15016)">
<path d="M51.2363 24.1821V28.4399C51.1127 29.3235 51.0449 30.2204 50.8565 31.0898C48.6153 41.4457 42.5159 48.2102 32.583 51.376C31.0457 51.8656 29.4486 52.0708 27.8534 52.2617H23.6741C22.5585 52.1094 21.4419 51.9773 20.3393 51.7336C7.73256 48.9425 -1.26808 36.738 0.44571 23.011C1.15156 17.3628 3.40272 12.4184 7.30985 8.36993C13.854 1.59024 21.8497 -1.08609 30.9669 0.903633C40.9606 3.08532 47.392 9.49937 50.3899 19.4592C50.8525 20.9969 51.0499 22.5895 51.2363 24.1821ZM41.465 25.7483C41.483 25.0363 41.4092 24.1648 41.2706 23.2954C39.9487 14.9993 32.1384 9.27491 23.9523 10.6105C13.6237 12.2956 8.00075 23.7789 12.9118 33.1699C13.0913 33.5132 13.1132 33.8159 13.0145 34.1785C12.3964 36.4384 11.7912 38.7013 11.1831 40.9643C11.0236 41.5595 11.0565 41.594 11.6417 41.4376C13.9178 40.8322 16.1948 40.234 18.4659 39.6093C18.8657 39.4996 19.1887 39.5525 19.5526 39.7353C22.4797 41.205 25.5654 41.6966 28.7826 41.1481C36.3905 39.8511 41.5408 33.0886 41.464 25.7483H41.465Z" fill="#1C284C"/>
<path d="M26.2812 38.8815C23.9732 38.8469 21.8237 38.2446 19.8407 37.0512C19.4938 36.842 19.1847 36.8206 18.8099 36.9273C17.6454 37.2584 16.474 37.5631 15.3035 37.8749C14.5249 38.0821 14.5079 38.0628 14.7273 37.2492C15.0343 36.1107 15.3284 34.967 15.6574 33.8345C15.7751 33.4282 15.7292 33.1083 15.5059 32.7447C14.0015 30.303 13.3345 27.6185 13.6276 24.7655C14.1201 19.9725 16.5019 16.4013 20.743 14.245C28.4286 10.3367 37.7613 15.4009 38.9128 24.0525C39.8669 31.2201 35.0535 37.7043 28.0119 38.725C27.4396 38.8083 26.8584 38.8307 26.2812 38.8815ZM30.2571 33.2871C30.6269 33.2891 30.9879 33.2586 31.3458 33.1723C32.8462 32.8097 33.7544 31.8174 33.9658 30.307C34.0206 29.915 33.9937 29.5656 33.58 29.3665C32.6219 28.9054 31.6678 28.4341 30.7107 27.9689C30.3019 27.7709 29.9939 27.8775 29.7247 28.2533C29.4017 28.7023 29.0378 29.1197 28.6908 29.5504C28.4496 29.85 28.1624 29.913 27.8045 29.7677C25.5673 28.8607 23.8535 27.3362 22.6133 25.2408C22.4049 24.8884 22.4199 24.5887 22.6771 24.2698C22.9612 23.9184 23.2195 23.5456 23.4847 23.178C23.699 22.8814 23.7289 22.5696 23.5844 22.2242C23.1945 21.2928 22.8207 20.3544 22.4358 19.4209C22.3451 19.2016 22.2355 18.9893 22.0111 18.8796C21.4628 18.6114 20.4698 18.7404 20.0321 19.1569C19.3632 19.7947 18.8956 20.5514 18.7132 21.4848C18.4938 22.6092 18.6543 23.6868 19.1668 24.6802C20.7619 27.7699 22.9762 30.2837 26.0279 31.9332C27.3419 32.6431 28.7317 33.216 30.2571 33.2881V33.2871Z" fill="#1C284C"/>
</g>
<defs>
<clipPath id="clip0_3105_15016">
<rect width="51" height="52" fill="white" transform="translate(0.236328 0.261719)"/>
</clipPath>
</defs>
</svg>
