<svg width="53" height="52" viewBox="0 0 53 52" fill="none" xmlns="http://www.w3.org/2000/svg">
<path d="M52.487 24.0085V27.6367C52.4528 27.7834 52.4137 27.9276 52.3893 28.0743C52.1399 29.5241 52.003 31.0057 51.6289 32.4237C47.7758 47.0293 32.2852 55.1829 18.0292 50.1392C6.28406 45.9854 -0.874498 33.8686 1.21586 21.593C2.21092 15.7449 4.89782 10.7745 9.28635 6.7649C12.9781 3.391 17.303 1.26397 22.2417 0.408264C23.1145 0.256683 23.9946 0.146664 24.8699 0.0195312C26.0801 0.0195312 27.2879 0.0195312 28.4981 0.0195312C29.3269 0.131995 30.1606 0.21512 30.982 0.359367C34.9574 1.04882 38.6051 2.54018 41.8519 4.94837C47.392 9.05574 50.827 14.4931 52.0861 21.2849C52.2523 22.1871 52.355 23.1015 52.487 24.0085ZM26.6669 35.5116C29.4051 35.5116 32.1409 35.5189 34.8792 35.5043C35.3779 35.5018 35.8913 35.4676 36.373 35.3502C38.7518 34.761 40.2456 32.7489 40.2554 30.1353C40.2652 27.2626 40.2627 24.3924 40.2554 21.5196C40.2554 21.1016 40.2383 20.6737 40.1527 20.2679C39.6344 17.7986 37.6223 16.1458 35.0919 16.1409C29.4833 16.1287 23.8748 16.1361 18.2639 16.1409C18.0121 16.1409 17.7578 16.1458 17.5133 16.1898C14.7971 16.6837 13.1297 18.6812 13.1174 21.4879C13.1028 24.3752 13.1101 27.2651 13.1174 30.1525C13.1174 30.5705 13.1394 30.9984 13.2275 31.4042C13.7653 33.8809 15.7628 35.4969 18.3079 35.5091C21.095 35.5238 23.8822 35.5116 26.6718 35.5116H26.6669Z" fill="#1C284C"/>
<path d="M23.1069 29.9986V21.6445C25.5151 23.0479 27.8622 24.4146 30.2899 25.8301C27.8622 27.2384 25.5151 28.6002 23.1069 29.9962V29.9986Z" fill="#1C284C"/>
</svg>
