<svg xmlns="http://www.w3.org/2000/svg" width="25" height="21" fill="none" viewBox="0 0 25 21">
  <path fill="#CBF000" d="M12.192 18.4a2.505 2.505 0 0 0 2.495-2.496v-3.585c.492-.493.808-1.16.808-1.899V7.925a2.67 2.67 0 0 0-2.67-2.671h-1.23a2.67 2.67 0 0 0-2.672 2.671v2.495c0 .738.316 1.406.808 1.899v3.584c-.035 1.371 1.09 2.496 2.46 2.496Zm2.284-15.783a2.285 2.285 0 1 1-4.57 0 2.285 2.285 0 0 1 4.57 0Zm4.112 13.743c1.09 0 1.969-.878 1.969-1.968V11.37c.386-.457.597-1.02.597-1.652v-.95c0-1.44-1.16-2.6-2.6-2.6a2.595 2.595 0 0 0-2.602 2.6v.95c0 .633.246 1.23.598 1.652v3.022c.07 1.09.948 1.969 2.038 1.969ZM20.38 4.2a1.792 1.792 0 1 1-3.584 0 1.792 1.792 0 0 1 3.585 0Zm-12.793 0a1.792 1.792 0 1 1-3.585 0 1.792 1.792 0 0 1 3.585 0Z"/>
  <path fill="#CBF000" d="M23.896 14.814c-.105-.21-.246-.457-.387-.703a.193.193 0 0 0-.175-.105c-.07 0-.141 0-.176.07a42.141 42.141 0 0 1-3.128 2.53c-.492.352-1.02.704-1.582 1.09a.32.32 0 0 0-.105.246c.035.106.105.176.21.176.528.035 1.055.105 1.582.14-.14.07-.281.141-.457.176-2.003.773-4.675 1.195-7.522 1.195-2.847 0-5.518-.422-7.522-1.195-1.757-.668-2.776-1.546-2.776-2.355 0-.667.738-1.405 2.003-2.003v.351c0 1.09.879 1.969 1.969 1.969s1.968-.879 1.968-1.969V11.37c.387-.457.598-1.02.598-1.652v-.95c0-1.44-1.16-2.6-2.601-2.6s-2.6 1.16-2.6 2.6v.95c0 .633.245 1.23.597 1.652v1.195c-2.11.878-3.41 2.109-3.41 3.514C.382 18.892 5.408 21 12.086 21c4.64 0 8.506-1.019 10.404-2.6l2.285.105c.07 0 .14-.035.175-.07.035-.036.07-.106.035-.176-.105-1.16-.527-2.285-1.09-3.445h.001Z"/>
</svg>
