<svg width="16" height="17" viewBox="0 0 16 17" fill="none" xmlns="http://www.w3.org/2000/svg">
<g clip-path="url(#clip0_68_1895)">
<path d="M0 8.49951C0 6.45924 0 4.41953 0 2.38037C0 1.31089 0.759451 0.550781 1.82933 0.550781H14.1108C15.179 0.550781 15.9401 1.30978 15.9401 2.38037C15.9401 6.47458 15.9401 10.569 15.9401 14.6636C15.9401 15.7308 15.1801 16.4931 14.1108 16.4931H1.82933C0.761668 16.4931 0 15.7325 0 14.6636C0 12.6085 0 10.5538 0 8.49951ZM1.79441 2.33823V14.6952H14.1452V2.33823H1.79441Z" fill="#1C284C"/>
<path d="M12.3944 8.51251H10.6355V5.86737H7.98242V4.09766H12.3956L12.3944 8.51251Z" fill="#1C284C"/>
<path d="M3.54492 8.52734H5.30441V11.173H7.95805V12.9433H3.54492V8.52734Z" fill="#1C284C"/>
</g>
<defs>
<clipPath id="clip0_68_1895">
<rect width="15.939" height="15.939" fill="white" transform="translate(0 0.550781)"/>
</clipPath>
</defs>
</svg>
