<svg width="32" height="30" viewBox="0 0 32 30" fill="none" xmlns="http://www.w3.org/2000/svg">
<g id="Capa 1">
<path id="Vector" d="M0 14.9573C0 11.1181 0 7.27991 0 3.44278C0 1.43032 1.52127 0 3.66438 0H28.2657C30.4055 0 31.9301 1.42823 31.9301 3.44278C31.9301 11.147 31.9301 18.8515 31.9301 26.5563C31.9301 28.5646 30.4077 29.9991 28.2657 29.9991H3.66438C1.52572 29.9991 0 28.5678 0 26.5563C0 22.6893 0 18.823 0 14.9573ZM3.59443 3.36349V26.6158H28.3346V3.36349H3.59443Z" fill="#1C284C"/>
<path id="Vector_2" d="M24.8281 14.9872H21.3047V10.0098H15.9902V6.67969H24.8303L24.8281 14.9872Z" fill="#1C284C"/>
<path id="Vector_3" d="M7.09961 15.0078H10.6241V19.9863H15.9397V23.3174H7.09961V15.0078Z" fill="#1C284C"/>
</g>
</svg>
