<svg width="28" height="28" viewBox="0 0 28 28" fill="none" xmlns="http://www.w3.org/2000/svg">
<g id="Group">
<path id="Vector" d="M19.3646 13.3933C19.2503 13.1651 19.1363 12.9749 18.9461 12.7846C17.1198 10.9583 15.256 9.09451 13.4298 7.26833C11.8702 5.70872 9.47313 8.10531 11.0331 9.665L15.4083 14.0402C13.9626 15.4859 12.5549 16.8936 11.1095 18.339C9.54987 19.8986 11.9465 22.2957 13.5062 20.7357L19.0224 15.2194C19.6312 14.649 19.6312 13.9643 19.3646 13.3935L19.3646 13.3933Z" fill="#1C284C"/>
<path id="Vector_2" d="M14 0C6.27697 0 0 6.27735 0 14C0 21.723 6.27735 28 14 28C21.723 28 28 21.7227 28 14C28 6.27735 21.723 0 14 0ZM14 25.3372C7.72265 25.3372 2.66276 20.2394 2.66276 14C2.66276 7.72265 7.7606 2.66276 14 2.66276C20.2394 2.66276 25.3372 7.7606 25.3372 14C25.3372 20.2394 20.2774 25.3372 14 25.3372Z" fill="#1C284C"/>
</g>
</svg>
