<svg width="17" height="12" viewBox="0 0 17 12" fill="none" xmlns="http://www.w3.org/2000/svg">
<g id="Capa 1">
<path id="Vector" d="M0 11.7817C0.182678 12.034 0.294977 12.0529 0.585815 11.9129C1.37863 11.5318 2.2175 11.2891 3.08277 11.1273C4.00496 10.9548 4.93595 10.8973 5.87212 10.938C6.66752 10.9726 7.45671 11.0774 8.22779 11.2749C8.50983 11.3471 8.76444 11.2749 9.02475 11.2179C10.2155 10.9584 11.4182 10.8724 12.6328 10.9685C13.969 11.0744 15.2576 11.371 16.4727 11.9425C16.7702 12.0824 17 11.9364 17 11.6061C17 9.30463 17 7.00365 17 4.70267C17 3.60917 17 2.51567 17 1.42217C17 1.10923 16.8929 1.00339 16.5725 1.00187C16.247 1.00034 15.921 1.00187 15.5686 1.00187C15.5686 0.89043 15.5701 0.78968 15.5686 0.688929C15.5644 0.447738 15.4801 0.344952 15.2451 0.285927C14.1341 0.00759074 13.0085 -0.0743327 11.8736 0.0701782C10.6171 0.230463 9.48067 0.66654 8.56417 1.56414C8.54916 1.57889 8.53001 1.59009 8.51035 1.60484C8.31318 1.44354 8.12481 1.27664 7.92247 1.12755C7.14052 0.549506 6.24731 0.24064 5.28992 0.0966379C4.09346 -0.0834918 2.91096 0.00352002 1.74037 0.290506C1.54992 0.33732 1.46764 0.425349 1.4516 0.617182C1.44125 0.739813 1.44953 0.86397 1.44953 1.00543C1.09349 1.00543 0.7628 1.01255 0.432116 1.00288C0.233395 0.996778 0.0884933 1.05886 0.000518799 1.23695V11.7822L0 11.7817ZM14.8969 0.888903V9.4008C12.7942 9.19217 10.7367 9.21762 8.84103 10.3065C8.83689 10.278 8.83275 10.2628 8.83275 10.2475C8.83638 7.61985 8.83948 4.9922 8.84776 2.36505C8.84776 2.30297 8.88295 2.22817 8.92642 2.18085C9.27677 1.80329 9.68922 1.50409 10.1524 1.27511C10.8422 0.933681 11.5791 0.766782 12.3461 0.704703C13.2067 0.634992 14.0533 0.713353 14.8969 0.889412V0.888903ZM2.12591 9.40029V0.885342C3.17488 0.673155 4.21559 0.599373 5.2656 0.777976C6.34304 0.961668 7.3056 1.36976 8.06737 2.16609C8.12377 2.22461 8.16466 2.32384 8.16466 2.40474C8.16983 4.98813 8.1688 7.57151 8.16828 10.1554C8.16828 10.2012 8.16414 10.2475 8.16155 10.3045C6.26335 9.22423 4.21869 9.18454 2.12539 9.4008L2.12591 9.40029ZM6.54901 10.2882C6.54642 10.305 6.54384 10.3218 6.54125 10.3391C4.52091 10.134 2.56734 10.4047 0.668615 11.1548V1.66845H1.43038C1.43038 1.74223 1.43038 1.80634 1.43038 1.86995C1.43038 4.47064 1.43038 7.07183 1.43038 9.67252C1.43038 10.0048 1.57373 10.1284 1.90131 10.0893C2.22475 10.0506 2.54871 10.0094 2.87318 9.98698C3.62977 9.93406 4.38843 9.90964 5.1414 10.0216C5.61336 10.0918 6.07963 10.1982 6.54849 10.2882H6.54901ZM10.4712 10.3299C11.1626 10.1005 11.8783 9.9824 12.6085 9.95594C13.4608 9.9249 14.3095 9.9763 15.153 10.1061C15.3461 10.1356 15.5039 10.0262 15.5417 9.8384C15.5572 9.75953 15.5619 9.6771 15.5619 9.59619C15.5629 7.024 15.5629 4.45181 15.5629 1.87911C15.5629 1.81041 15.5629 1.74172 15.5629 1.66743H16.3304V11.1532C14.4389 10.4053 12.491 10.1366 10.4722 10.3299H10.4712Z" fill="#CBF000"/>
</g>
</svg>
