<svg width="22" height="17" viewBox="0 0 22 17" fill="none" xmlns="http://www.w3.org/2000/svg">
<g id="Layer 2">
<g id="Layer 1">
<path id="Vector" d="M22 13.7959C21.8742 13.9953 21.6937 14.058 21.4574 14.0549C20.6226 14.044 19.7842 14.0513 18.9479 14.0502C18.6057 14.0502 18.469 13.9166 18.4622 13.5753C18.4575 13.3551 18.4549 13.1345 18.4648 12.9148C18.4768 12.6434 18.6213 12.4875 18.8957 12.4849C19.7827 12.4772 20.6696 12.4704 21.5565 12.4927C21.7068 12.4968 21.8529 12.6481 22.001 12.7279L22 13.7959Z" fill="#CBF000"/>
<path id="Vector_2" d="M1.15457 6.63669H0V5.07603H0.285904C3.93275 5.07603 7.57924 5.07758 11.2254 5.08069C11.4195 5.08069 11.5155 5.02579 11.5937 4.84916C11.8833 4.19288 12.1916 3.54489 12.489 2.89172C12.5333 2.79486 12.5746 2.73633 12.7029 2.73633C15.5689 2.74116 18.4345 2.74254 21.2998 2.74047C21.3308 2.74314 21.3617 2.74747 21.3922 2.75342C21.327 2.84873 21.2712 2.93523 21.2106 3.01811C20.9383 3.39209 20.6597 3.76244 20.3931 4.14108C20.3584 4.19735 20.3087 4.24299 20.2495 4.27298C20.1903 4.30296 20.1239 4.31611 20.0576 4.31098C17.9227 4.3058 15.7878 4.30459 13.653 4.30735H13.3561V4.57981C13.3561 6.57816 13.3573 8.57669 13.3598 10.5754C13.3598 10.7308 13.3206 10.808 13.1698 10.8753C12.5151 11.1654 12.0993 11.6921 11.8066 12.3199C11.6636 12.6271 11.5582 12.9508 11.4299 13.2823C10.4986 13.2823 9.5517 13.2823 8.60842 13.2772C8.57453 13.2705 8.54269 13.256 8.5155 13.2349C8.4883 13.2137 8.46652 13.1865 8.45191 13.1554C8.15922 12.3168 7.56237 11.7227 6.85961 11.2234C5.58608 10.319 4.14665 9.77978 2.65139 9.35866C2.21158 9.23486 1.76864 9.12091 1.32257 9.02457C1.17544 8.99245 1.14153 8.93806 1.14362 8.80132C1.15301 8.16835 1.15353 7.53538 1.15666 6.90242C1.15509 6.82265 1.15457 6.74547 1.15457 6.63669Z" fill="#CBF000"/>
<path id="Vector_3" d="M21.5994 11.71H21.1204C20.4328 11.71 19.7452 11.7126 19.057 11.71C18.673 11.71 18.3162 11.7758 18.0136 12.0809C17.0745 10.6922 15.6658 10.5327 14.1528 10.6533V5.08821C14.218 5.08355 14.2864 5.07474 14.3542 5.07474C16.1526 5.07474 17.951 5.07474 19.7494 5.0706C19.8121 5.06628 19.8747 5.08014 19.9296 5.11048C19.9845 5.14082 20.0294 5.18635 20.0587 5.24153C20.5434 5.98793 21.0364 6.72916 21.5196 7.47556C21.5716 7.54993 21.6022 7.63695 21.6083 7.7273C21.614 9.02224 21.6119 10.3172 21.6114 11.6121C21.6098 11.6318 21.6046 11.6546 21.5994 11.71ZM20.4145 9.35478C20.4145 8.72596 20.4876 8.10439 20.3879 7.51182C20.3264 7.14924 20.0003 6.83016 19.7927 6.49141C19.7702 6.45515 19.7551 6.40698 19.7222 6.38781C19.6414 6.33601 19.5537 6.25624 19.4671 6.25417C18.9094 6.24226 18.3511 6.24796 17.7934 6.24796H17.302V9.35582L20.4145 9.35478Z" fill="#CBF000"/>
<path id="Vector_4" d="M1.40283 4.25414C1.81186 3.89156 2.21515 3.5181 2.63566 3.16639C2.70714 3.10734 2.85635 3.11459 2.96383 3.12858C3.3619 3.18659 3.65772 3.0571 3.8998 2.73285C4.0858 2.49785 4.29252 2.27979 4.51752 2.08123C4.60493 2.00531 4.71475 1.95952 4.83055 1.9507C5.12324 1.93309 5.41801 1.95588 5.7107 1.93827C5.81845 1.93001 5.91942 1.88284 5.99451 1.80567C6.46824 1.25299 6.92631 0.687873 7.39795 0.134156C7.45997 0.0638175 7.5464 0.019249 7.64003 0.00932358C8.05532 -0.00310786 8.47078 -0.00310786 8.88642 0.00932358C8.93202 0.0148603 8.97603 0.0294542 9.01583 0.0522356C9.05562 0.075017 9.0904 0.10552 9.11807 0.141926C9.40606 0.556307 9.68414 0.980012 9.957 1.40527C9.98226 1.45507 10.0221 1.49614 10.0712 1.52313C10.1204 1.55011 10.1766 1.56175 10.2325 1.55652C10.5184 1.54668 10.8064 1.54461 11.0917 1.55963C11.1617 1.56325 11.2274 1.64406 11.2947 1.69016C11.2999 1.69327 11.3004 1.70311 11.303 1.70932C11.4147 1.98541 11.6161 2.26304 11.6129 2.53809C11.6098 2.80329 11.3964 3.06642 11.2717 3.32852C11.147 3.59062 11.0109 3.8496 10.8935 4.11688C10.8298 4.26243 10.7427 4.3075 10.5841 4.30698C8.59947 4.3018 6.61484 4.30059 4.63021 4.30335H1.41744L1.40283 4.25414Z" fill="#CBF000"/>
<path id="Vector_5" d="M4.82407 17C3.29751 17 2.05894 15.7672 2.0699 14.263C2.06959 13.7212 2.2312 13.1914 2.53429 12.7407C2.83738 12.2901 3.26831 11.9388 3.77255 11.7315C4.27679 11.5241 4.83166 11.4699 5.36695 11.5757C5.90223 11.6815 6.39386 11.9426 6.77961 12.326C7.16536 12.7093 7.4279 13.1977 7.53398 13.7292C7.64007 14.2607 7.58494 14.8116 7.37558 15.312C7.16621 15.8124 6.81202 16.2399 6.35782 16.5404C5.90363 16.8409 5.36986 17.0009 4.82407 17ZM3.93036 14.263C3.92991 14.3802 3.95272 14.4964 3.99749 14.6048C4.04225 14.7133 4.10809 14.8119 4.19125 14.8951C4.3592 15.0631 4.58749 15.158 4.8259 15.1589C5.06431 15.1598 5.29331 15.0666 5.46253 14.8999C5.63175 14.7331 5.72732 14.5065 5.72822 14.2698C5.72582 14.0333 5.63071 13.8071 5.46307 13.6391C5.29543 13.4711 5.06847 13.3746 4.83033 13.3701C4.59224 13.3717 4.36436 13.4663 4.19595 13.6334C4.02754 13.8005 3.93214 14.0267 3.93036 14.263Z" fill="#CBF000"/>
<path id="Vector_6" d="M17.7974 14.263C17.7998 14.9882 17.5119 15.6847 16.997 16.1991C16.4822 16.7136 15.7826 17.0039 15.0521 17.0062C14.3217 17.0086 13.6202 16.7227 13.102 16.2116C12.5839 15.7004 12.2914 15.0059 12.2891 14.2807C12.2818 12.7946 13.5167 11.5457 15.0021 11.5354C15.3664 11.5308 15.728 11.5979 16.0661 11.7327C16.4042 11.8676 16.7121 12.0676 16.972 12.3212C17.2319 12.5747 17.4386 12.8769 17.5803 13.2102C17.7219 13.5435 17.7957 13.9013 17.7974 14.263ZM15.9448 14.2817C15.946 14.1629 15.9236 14.045 15.8788 13.9348C15.834 13.8246 15.7677 13.7243 15.6838 13.6396C15.5998 13.555 15.4998 13.4876 15.3895 13.4414C15.2792 13.3953 15.1609 13.3712 15.0412 13.3706C14.803 13.3764 14.5763 13.4736 14.4086 13.6417C14.2409 13.8098 14.1453 14.0358 14.1417 14.2724C14.1432 14.509 14.2387 14.7354 14.4074 14.9025C14.5761 15.0696 14.8044 15.1639 15.0427 15.1648C15.1606 15.1664 15.2776 15.1447 15.3869 15.1011C15.4963 15.0574 15.5958 14.9926 15.6797 14.9105C15.7636 14.8283 15.8303 14.7304 15.8758 14.6225C15.9213 14.5145 15.9447 14.3987 15.9448 14.2817Z" fill="#CBF000"/>
</g>
</g>
</svg>
