<svg xmlns="http://www.w3.org/2000/svg" width="28" height="19" fill="none" viewBox="0 0 28 19">
  <path fill="#1C284C" fill-rule="evenodd" d="M8.996 16.24c0 .568-.458 1.025-1.025 1.025a1.023 1.023 0 0 1-1.026-1.025c0-.568.458-1.025 1.026-1.025.568 0 1.025.457 1.025 1.025Zm13.113 0c0-.567.458-1.025 1.025-1.025a1.024 1.024 0 1 1 0 2.05 1.023 1.023 0 0 1-1.025-1.024Zm-7.423-1.025c.568 0 1.025.457 1.025 1.025 0 .568-.457 1.025-1.025 1.025a1.023 1.023 0 0 1-1.025-1.025c0-.568.457-1.025 1.025-1.025Zm8.427-7.645h.345l2.562 3.004v.253h-2.907V7.57ZM4.949 13.129h15.434v-5.56h1.19v4.798h4.448v3.095h-.44a2.564 2.564 0 0 0-2.446-1.786c-1.146 0-2.115.75-2.445 1.786h-3.558a2.564 2.564 0 0 0-2.446-1.786c-1.146 0-2.116.75-2.445 1.786h-1.826a2.564 2.564 0 0 0-2.444-1.786c-1.146 0-2.116.75-2.445 1.786h-.577v-2.333Zm0-1.657 9.036-1.988.544 2.104h-9.58v-.116Zm10.259-8.39.956 4.345-11.76 2.588-1.806-4.158 12.61-2.774Zm-1.272 3.97-.625-2.864-1.313.283.625 2.865 1.313-.284Zm-3.587.788-.63-2.865-1.313.289.63 2.865 1.313-.29Zm-3.592.792L6.13 5.767l-1.312.284.625 2.864 1.313-.283ZM17.999 8.6l-1.49-6.776 2.171-.478-.288-1.312L14.82.82l.162.735-14.544 3.2 2.97 6.833v5.413h2.11a2.565 2.565 0 0 0 4.902 0h1.815a2.565 2.565 0 0 0 4.9 0h3.548a2.566 2.566 0 0 0 4.902 0h1.974v-6.995L24.17 6.03h-5.327v5.56h-2.724l-.63-2.437L18 8.6Z" clip-rule="evenodd"/>
</svg>
