<svg width="6" height="6" viewBox="0 0 6 6" fill="none" xmlns="http://www.w3.org/2000/svg">
<g clip-path="url(#clip0_1114_4529)">
<path d="M3 0C1.34312 0 0 1.34312 0 3C0 4.65688 1.34312 6 3 6C4.65688 6 6 4.65688 6 3C6 1.34312 4.65688 0 3 0ZM3 4.39146C2.72472 4.39151 2.4556 4.30993 2.22669 4.15702C1.99778 4.00412 1.81935 3.78676 1.71398 3.53244C1.60861 3.27813 1.58103 2.99827 1.63472 2.72828C1.68841 2.45828 1.82097 2.21027 2.01562 2.01562C2.21027 1.82097 2.45828 1.68841 2.72828 1.63472C2.99827 1.58103 3.27813 1.60861 3.53244 1.71398C3.78676 1.81935 4.00412 1.99778 4.15702 2.22669C4.30993 2.4556 4.39151 2.72472 4.39146 3C4.39138 3.36901 4.24476 3.72289 3.98383 3.98383C3.72289 4.24476 3.36901 4.39138 3 4.39146Z" fill="#CBF000"/>
</g>
<defs>
<clipPath id="clip0_1114_4529">
<rect width="6" height="6" fill="white"/>
</clipPath>
</defs>
</svg>
