<svg width="37" height="36" viewBox="0 0 37 36" fill="none" xmlns="http://www.w3.org/2000/svg">
<g clip-path="url(#clip0_3918_6334)">
<path d="M36.4977 18.0344C36.4977 22.1224 36.4977 26.2104 36.4977 30.2984C36.4977 33.6496 34.1611 35.9977 30.8236 35.9977C22.5995 36 14.3753 36 6.14881 35.9977C2.87108 35.9977 0.509181 33.6381 0.506886 30.365C0.504591 23.5386 0.511477 16.7146 0.5 9.89059C0.5 9.30528 0.699694 8.87146 1.10826 8.46748C3.74331 5.8508 6.36917 3.22494 8.98585 0.589901C9.37835 0.195103 9.80069 0 10.3653 0C17.2215 0.0114767 24.0777 0.00459067 30.9361 0.00918133C34.1174 0.0114767 36.4931 2.39174 36.4977 5.57536C36.5046 9.72762 36.4977 13.8822 36.4977 18.0344ZM18.5115 33.3443C22.6798 33.3443 26.8504 33.3512 31.0187 33.342C32.6094 33.3397 33.8374 32.1461 33.8397 30.5761C33.8489 22.189 33.8489 13.8018 33.8397 5.41469C33.8397 3.89059 32.6209 2.67177 31.1037 2.66718C24.7364 2.6557 18.3692 2.66488 12.0019 2.6557C11.5888 2.6557 11.4648 2.81408 11.474 3.20658C11.4946 3.97093 11.4832 4.73757 11.4786 5.50191C11.4625 8.18516 9.62165 10.4047 6.9912 10.8914C5.9583 11.0819 4.91163 10.9487 3.87184 10.9763C3.16718 10.9946 3.16488 10.9809 3.16488 11.6787C3.16488 17.8829 3.16488 24.0872 3.16488 30.2938C3.16488 32.1897 4.31484 33.3443 6.20161 33.3466C10.3057 33.3466 14.4097 33.3466 18.5138 33.3466L18.5115 33.3443ZM5.21691 8.2609C7.74178 8.72915 9.23604 6.59908 8.73106 4.74216C8.38906 4.96021 5.49235 7.85004 5.21691 8.2609Z" fill="#CBF000"/>
<path d="M14.3592 26.7005C15.6997 26.7281 16.79 26.1726 17.715 25.2499C20.8183 22.1558 23.9216 19.064 27.0065 15.9538C28.1496 14.8015 28.2965 13.4794 27.4908 12.2836C26.6209 10.9936 24.6538 10.6952 23.5406 11.7809C20.7908 14.4664 18.0892 17.2002 15.3761 19.9224C14.9927 20.3057 14.995 20.8658 15.3302 21.1917C15.663 21.5154 16.2139 21.4993 16.6018 21.116C18.0478 19.6837 19.4847 18.2399 20.9239 16.8008C21.1075 16.6171 21.2934 16.4312 21.5253 16.3073C22.0486 16.0272 22.6247 16.1053 23.0585 16.5162C23.5038 16.9362 23.6209 17.5422 23.3363 18.077C23.2376 18.2606 23.1045 18.4328 22.9553 18.582C21.4748 20.0716 20.0035 21.5728 18.4954 23.0372C16.4641 25.0089 13.2024 24.1481 12.5092 21.458C12.1741 20.1611 12.4977 18.9882 13.4411 18.038C16.1014 15.3547 18.7479 12.6554 21.4656 10.0318C23.1113 8.44347 25.1175 8.04408 27.2521 8.9186C29.3432 9.77476 30.461 11.4343 30.6079 13.6722C30.7043 15.1665 30.1993 16.5162 29.1389 17.5858C25.8497 20.9071 22.588 24.2583 19.207 27.4855C17.0976 29.4963 14.4993 29.9737 11.7655 28.9201C9.0639 27.878 7.49619 25.8329 7.1496 22.9431C6.86957 20.6087 7.66146 18.6187 9.3095 16.9637C11.3087 14.9553 13.3195 12.9561 15.3187 10.9477C15.6836 10.5804 16.0876 10.3348 16.6178 10.4289C17.1412 10.5207 17.5176 10.826 17.6783 11.331C17.8504 11.8727 17.7035 12.3455 17.2927 12.7541C15.3302 14.7074 13.3745 16.6676 11.4166 18.6256C10.7395 19.3027 10.1863 20.051 9.93613 20.9989C9.16719 23.9117 11.3294 26.7074 14.3569 26.6982L14.3592 26.7005Z" fill="#CBF000"/>
</g>
<defs>
<clipPath id="clip0_3918_6334">
<rect width="36" height="36" fill="white" transform="translate(0.5)"/>
</clipPath>
</defs>
</svg>
