<svg xmlns="http://www.w3.org/2000/svg" width="25" height="25" fill="none" viewBox="0 0 25 25">
  <path fill="#CBF000" d="M12.919.05a1.797 1.797 0 0 0-.838 0L0 2.967v2.27l12.187-2.942c.207-.05.422-.05.628 0L25 5.236V2.968L12.919.05ZM0 24.107h25V25H0v-.893Zm23.66-.893v-2.232h-6.695v.446a1.34 1.34 0 0 1 1.339 1.34v.446h5.357Zm-5.803-11.607h3.571v4.464h-3.571v-4.464Zm0-3.571h3.571v2.678h-3.571V8.036ZM1.339 23.214h5.357v-.447a1.34 1.34 0 0 1 1.34-1.339v-.446H1.338v2.232Zm7.589-2.232v.447h7.143v-.447a.447.447 0 0 0-.446-.446h-6.25c-.247 0-.446.2-.446.446Z"/>
  <path fill="#CBF000" d="M23.66 5.83 12.604 3.164a.473.473 0 0 0-.209 0L1.34 5.83v14.26h7.044c.15-.165.336-.29.545-.365V8.482a1.339 1.339 0 0 1 1.34-1.339h4.464a1.34 1.34 0 0 1 1.339 1.34v11.242c.209.075.396.2.544.365h7.045V5.83ZM7.59 16.072a.893.893 0 0 1-.893.893H3.124a.893.893 0 0 1-.893-.893V8.036a.893.893 0 0 1 .893-.893h3.572a.893.893 0 0 1 .893.893v8.035Zm14.731 0a.892.892 0 0 1-.893.893h-3.57a.892.892 0 0 1-.894-.893V8.036a.892.892 0 0 1 .893-.893h3.572a.892.892 0 0 1 .892.893v8.035Z"/>
  <path fill="#CBF000" d="M3.125 8.036h3.571v2.678H3.125V8.036Zm11.607 0h-4.464c-.247 0-.447.2-.447.446v11.16h5.357V8.483a.446.446 0 0 0-.446-.446Zm-.447 6.25a.446.446 0 1 1-.893 0v-.893a.446.446 0 1 1 .893 0v.892Zm-11.16-2.679h3.571v4.464H3.125v-4.464Zm4.464 11.161v.446h9.821v-.446a.446.446 0 0 0-.446-.447H8.036c-.247 0-.447.2-.447.447Z"/>
</svg>
