<svg width="27" height="27" viewBox="0 0 27 27" fill="none" xmlns="http://www.w3.org/2000/svg">
<g clip-path="url(#clip0_1047_10764)">
<mask id="mask0_1047_10764" style="mask-type:luminance" maskUnits="userSpaceOnUse" x="0" y="0" width="27" height="27">
<path d="M0.215332 0.216095H26.7834V26.7842H0.215332V0.216095Z" fill="white"/>
</mask>
<g mask="url(#mask0_1047_10764)">
<path d="M25.8985 24.1276H22.356V2.873C22.4734 2.873 22.5861 2.82624 22.6691 2.74323C22.7521 2.66021 22.7989 2.54753 22.7989 2.43012V0.658979C22.7989 0.541355 22.7521 0.428883 22.6691 0.345869C22.5861 0.262648 22.4734 0.216095 22.356 0.216095H4.64411C4.3996 0.216095 4.20123 0.41426 4.20123 0.658979V2.43012C4.20123 2.54753 4.24799 2.66021 4.331 2.74323C4.41402 2.82624 4.52669 2.873 4.64411 2.873V24.1276H1.10163C0.866796 24.1278 0.641642 24.2211 0.475618 24.3871C0.309589 24.5532 0.21627 24.7783 0.216064 25.0132V26.3416C0.216064 26.459 0.262619 26.5717 0.345839 26.6547C0.428853 26.7377 0.541325 26.7843 0.658949 26.7843H26.3416C26.4591 26.7843 26.5717 26.7377 26.6548 26.6547C26.7378 26.5717 26.7843 26.459 26.7843 26.3416V25.0132C26.7841 24.7783 26.6908 24.5532 26.5248 24.3871C26.3587 24.2211 26.1336 24.1278 25.8988 24.1276H25.8985ZM5.08687 1.10165H21.9134V1.98722H5.08687V1.10165ZM5.52975 2.87279L21.4708 2.873V24.1276H17.0428V18.3711C17.0428 17.1055 16.3677 15.936 15.2716 15.3032C14.1756 14.6704 12.8252 14.6704 11.7292 15.3032C10.6333 15.936 9.95802 17.1055 9.95802 18.3711V24.1276H5.52997L5.52975 2.87279ZM10.8433 24.1274V18.8139H13.0573V21.0279H12.6144C12.3699 21.0279 12.1717 21.226 12.1717 21.4705C12.1717 21.7151 12.3699 21.9134 12.6144 21.9134H13.0573V24.1274L10.8433 24.1274ZM15.6633 16.8342C15.8954 17.1599 16.0506 17.534 16.1169 17.9282H14.569L15.6633 16.8342ZM13.9428 17.3022V15.7544C14.3373 15.8207 14.7114 15.9758 15.0371 16.208L13.9428 17.3022ZM13.0573 17.3022L11.963 16.208C12.2887 15.9758 12.6628 15.8207 13.0573 15.7544V17.3022ZM11.337 16.8342L12.431 17.9282H10.8832C10.9495 17.534 11.1049 17.1599 11.337 16.8342ZM13.9428 21.9136H14.3857C14.6302 21.9136 14.8284 21.7152 14.8284 21.4707C14.8284 21.2262 14.6302 21.028 14.3857 21.028H13.9428V18.814H16.1568V24.1275H13.9428V21.9136ZM25.8982 25.8987H1.10149V25.0132H25.8982V25.8987Z" fill="white"/>
</g>
<path d="M7.30083 13.9428H9.95775C10.0752 13.9428 10.1878 13.8963 10.2709 13.8133C10.3539 13.7301 10.4006 13.6176 10.4006 13.5002V4.20098C10.4006 4.08356 10.3539 3.97088 10.2709 3.88787C10.1878 3.80485 10.0752 3.7583 9.95775 3.7583H7.30083C7.05632 3.7583 6.85815 3.95647 6.85815 4.20098V13.5002C6.85815 13.6176 6.90471 13.7301 6.98772 13.8133C7.07094 13.8963 7.18341 13.9428 7.30083 13.9428ZM9.51483 8.02235L7.7437 10.0887V8.79301L9.51483 6.72667V8.02235ZM7.7437 13.0571V11.4497L9.51483 9.38337V13.0571H7.7437ZM9.51483 4.64382V5.36564L7.7437 7.43199V4.64387L9.51483 4.64382Z" fill="white"/>
<path d="M17.0425 13.9428H19.6994C19.8169 13.9428 19.9295 13.8963 20.0126 13.8133C20.0956 13.7301 20.1421 13.6176 20.1421 13.5002V4.20098C20.1421 4.08356 20.0956 3.97088 20.0126 3.88787C19.9295 3.80485 19.8169 3.7583 19.6994 3.7583H17.0425C16.798 3.7583 16.5999 3.95647 16.5999 4.20098V13.5002C16.5999 13.6176 16.6464 13.7301 16.7294 13.8133C16.8124 13.8963 16.9251 13.9428 17.0425 13.9428ZM19.2565 8.02235L17.4854 10.0887V8.79301L19.2565 6.72667V8.02235ZM17.4854 13.0571V11.4497L19.2565 9.38337V13.0571H17.4854ZM19.2565 4.64382V5.36564L17.4854 7.43199V4.64387L19.2565 4.64382Z" fill="white"/>
<path d="M12.1719 13.9428H14.8288H14.8286C14.946 13.9428 15.0587 13.8963 15.1417 13.8133C15.2247 13.7301 15.2715 13.6176 15.2715 13.5002V4.20098C15.2715 4.08356 15.2247 3.97088 15.1417 3.88787C15.0587 3.80485 14.946 3.7583 14.8286 3.7583H12.1719C11.9274 3.7583 11.729 3.95647 11.729 4.20098V13.5002C11.729 13.6176 11.7758 13.7301 11.8588 13.8133C11.9418 13.8963 12.0545 13.9428 12.1719 13.9428ZM14.3859 8.02235L12.6147 10.0887L12.6145 8.79301L14.3857 6.72667L14.3859 8.02235ZM12.6145 13.0571V11.4497L14.3857 9.38337L14.3859 13.0571H12.6145ZM14.3857 4.64382V5.36564L12.6145 7.43199V4.64387L14.3857 4.64382Z" fill="white"/>
<path d="M8.62906 17.4846H6.85792C6.61341 17.4846 6.41504 17.6828 6.41504 17.9273V21.4698C6.41504 21.5872 6.4618 21.6999 6.54481 21.7829C6.62783 21.8659 6.74051 21.9127 6.85792 21.9127H8.62906C8.74648 21.9127 8.85916 21.8659 8.94217 21.7829C9.02519 21.6999 9.07195 21.5872 9.07195 21.4698V17.9273C9.07195 17.8099 9.02518 17.6974 8.94217 17.6144C8.85916 17.5312 8.74648 17.4846 8.62906 17.4846ZM8.18618 21.0271H7.30061V18.3702H8.18618V21.0271Z" fill="white"/>
<path d="M18.3706 17.4846C18.1261 17.4846 17.9277 17.6828 17.9277 17.9273V21.4698C17.9277 21.5872 17.9745 21.6999 18.0575 21.7829C18.1405 21.8659 18.2532 21.9127 18.3706 21.9127H20.1418C20.2594 21.9127 20.3719 21.8659 20.4549 21.7829C20.5381 21.6999 20.5846 21.5872 20.5846 21.4698V17.9273C20.5846 17.8099 20.5381 17.6974 20.4549 17.6144C20.3719 17.5312 20.2594 17.4846 20.1418 17.4846H18.3706ZM19.6991 21.0271H18.8135V18.3702H19.6991V21.0271Z" fill="white"/>
</g>
<defs>
<clipPath id="clip0_1047_10764">
<rect width="27" height="27" fill="white"/>
</clipPath>
</defs>
</svg>
