<svg width="18" height="17" viewBox="0 0 18 17" fill="none" xmlns="http://www.w3.org/2000/svg">
<path d="M17.2902 7.63517V8.78994C17.2801 8.83585 17.2661 8.88098 17.2599 8.92767C17.2124 9.25449 17.1914 9.58754 17.1167 9.90813C16.5035 12.5639 14.9659 14.4883 12.5124 15.6742C12.1459 15.8516 11.7537 15.9761 11.353 16.1325V10.0155H13.1139C13.2026 9.32764 13.289 8.6631 13.3777 7.97989H11.3701C11.3576 7.94954 11.346 7.93553 11.3467 7.92153C11.3506 7.40328 11.3397 6.88426 11.3646 6.36679C11.3817 6.00962 11.5918 5.78163 11.9428 5.71237C12.1552 5.67035 12.377 5.66646 12.5949 5.65946C12.8711 5.6509 13.1481 5.65712 13.4329 5.65712V3.84482C13.4018 3.83626 13.3722 3.82148 13.3419 3.81992C12.7925 3.79657 12.2424 3.75845 11.693 3.75845C11.3024 3.75845 10.9195 3.84793 10.5655 4.02457C9.67916 4.46656 9.30021 5.23148 9.2434 6.17615C9.2115 6.71462 9.23406 7.25543 9.23173 7.79547C9.23173 7.85227 9.22706 7.90986 9.22395 7.98222H7.47779V10.0272H9.2185V16.4197C8.58275 16.4446 7.96724 16.3808 7.36106 16.2461C5.42815 15.8189 3.83451 14.8346 2.61593 13.2744C1.18492 11.4465 0.639439 9.36188 0.942138 7.06712C1.14912 5.49449 1.78487 4.0985 2.8198 2.89393C4.10063 1.40222 5.70906 0.470778 7.64976 0.125282C7.92133 0.0770365 8.19524 0.0412417 8.46759 0C8.86289 0 9.25896 0 9.65426 0C9.84413 0.0241225 10.0348 0.0451325 10.2239 0.0731457C11.5724 0.270795 12.8081 0.75558 13.9045 1.56796C15.6686 2.87369 16.7611 4.60663 17.1618 6.76831C17.2147 7.05545 17.2474 7.34648 17.2894 7.63595L17.2902 7.63517Z" fill="#CBF000"/>
</svg>
