<svg width="67" height="67" viewBox="0 0 67 67" fill="none" xmlns="http://www.w3.org/2000/svg">
<path d="M3.06642 39.375H9.64042L8.45337 64.4241C8.42068 65.1281 8.11355 65.7912 7.59781 66.2715C7.08206 66.7517 6.39873 67.0108 5.69424 66.9932C4.98975 66.9757 4.32017 66.6829 3.82896 66.1776C3.33776 65.6723 3.06403 64.9947 3.06642 64.29V39.375ZM12.2333 39.375H18.8073V64.29C18.8097 64.9947 18.5359 65.6723 18.0447 66.1776C17.5535 66.6829 16.8839 66.9757 16.1795 66.9932C15.475 67.0108 14.7916 66.7517 14.2759 66.2715C13.7601 65.7912 13.453 65.1281 13.4203 64.4241L12.2333 39.375ZM26.3962 49.5933H30.5363L29.7882 65.372C29.7703 65.8173 29.5779 66.2377 29.2526 66.5424C28.9274 66.847 28.4954 67.0116 28.0499 67.0005C27.6043 66.9894 27.1811 66.8035 26.8714 66.483C26.5618 66.1625 26.3906 65.7331 26.3948 65.2875L26.3962 49.5933ZM32.1696 49.5933H36.3097V65.2875C36.314 65.7331 36.1428 66.1625 35.8331 66.483C35.5234 66.8035 35.1002 66.9894 34.6547 67.0005C34.2091 67.0116 33.7771 66.847 33.4519 66.5424C33.1266 66.2377 32.9343 65.8173 32.9163 65.372L32.1696 49.5933ZM42.2902 39.375H48.8642L47.6772 64.4241C47.6445 65.1281 47.3373 65.7912 46.8216 66.2715C46.3058 66.7517 45.6225 67.0108 44.918 66.9932C44.2135 66.9757 43.5439 66.6829 43.0527 66.1776C42.5615 65.6723 42.2878 64.9947 42.2902 64.29V39.375ZM51.7575 39.375H58.3315V64.29C58.3339 64.9947 58.0601 65.6723 57.5689 66.1776C57.0777 66.6829 56.4081 66.9757 55.7036 66.9932C54.9992 67.0108 54.3158 66.7517 53.8001 66.2715C53.2843 65.7912 52.9772 65.1281 52.9445 64.4241L51.7575 39.375Z" fill="#CBF000"/>
<path d="M10.9372 16.1871C17.8 16.1871 21.8744 21.0476 21.8744 24.6933V39.8596C21.8744 41.2027 20.7865 42.2906 19.4435 42.2906H2.43098C2.11174 42.2906 1.79562 42.2277 1.50068 42.1055C1.20574 41.9834 0.937754 41.8043 0.712017 41.5786C0.486279 41.3528 0.307216 41.0848 0.185048 40.7899C0.0628795 40.4949 0 40.1788 0 39.8596V24.6933C0 21.0476 4.07448 16.1871 10.9372 16.1871ZM31.3534 36.9007C35.4643 36.9007 37.904 39.8129 37.904 41.996V52.5001C37.9033 52.8859 37.7497 53.2556 37.4769 53.5284C37.2041 53.8011 36.8344 53.9547 36.4486 53.9555H26.2581C25.8723 53.9547 25.5026 53.8011 25.2298 53.5284C24.957 53.2556 24.8035 52.8859 24.8027 52.5001V41.996C24.8027 39.8129 27.2424 36.9007 31.3534 36.9007ZM63.6488 50.597C63.7127 51.0127 63.686 51.4372 63.5705 51.8416C63.4549 52.2459 63.2533 52.6205 62.9795 52.9396C62.7057 53.2588 62.366 53.5149 61.9839 53.6905C61.6018 53.8661 61.1862 53.957 60.7657 53.9569H42.2906V24.6758C42.2907 22.4999 43.1123 20.4043 44.5911 18.8081C46.0698 17.2119 48.0967 16.2329 50.2663 16.0669C52.4358 15.9008 54.5881 16.56 56.2925 17.9126C57.9969 19.2652 59.1279 21.2114 59.4591 23.3619L63.6488 50.597ZM4.37489 6.56233C4.37489 4.82189 5.06627 3.15274 6.29695 1.92206C7.52763 0.691387 9.19678 0 10.9372 0C12.6777 0 14.3468 0.691387 15.5775 1.92206C16.8082 3.15274 17.4995 4.82189 17.4995 6.56233C17.4995 8.30277 16.8082 9.97192 15.5775 11.2026C14.3468 12.4333 12.6777 13.1247 10.9372 13.1247C9.19678 13.1247 7.52763 12.4333 6.29695 11.2026C5.06627 9.97192 4.37489 8.30277 4.37489 6.56233ZM26.9785 30.6242C26.9785 29.4639 27.4394 28.3511 28.2598 27.5307C29.0803 26.7102 30.1931 26.2493 31.3534 26.2493C32.5136 26.2493 33.6264 26.7102 34.4469 27.5307C35.2673 28.3511 35.7282 29.4639 35.7282 30.6242C35.7282 31.7845 35.2673 32.8973 34.4469 33.7177C33.6264 34.5382 32.5136 34.9991 31.3534 34.9991C30.1931 34.9991 29.0803 34.5382 28.2598 33.7177C27.4394 32.8973 26.9785 31.7845 26.9785 30.6242ZM43.5957 12.8942C42.677 12.7353 42.1243 11.7597 42.486 10.8993C43.2837 9.00352 43.8612 6.92836 44.2272 5.19007C44.9184 2.07078 47.3757 0 50.3229 0C53.4086 0.0014583 55.965 2.37994 56.4696 5.50652C56.8385 7.17919 57.3854 9.11435 58.1379 10.8993C58.4995 11.7597 57.9468 12.7353 57.0281 12.8942C55.2446 13.202 45.3763 13.202 43.5957 12.8942Z" fill="#CBF000"/>
</svg>
