<svg width="26" height="26" viewBox="0 0 26 26" fill="none" xmlns="http://www.w3.org/2000/svg">
<g id="googleMaps 1" clip-path="url(#clip0_105_1955)">
<g id="Layer 2">
<g id="Layer 1">
<path id="Vector" d="M0.00724676 14.0776C0.00724676 11.2212 0.0260991 8.3653 8.28775e-05 5.50935C-0.0030258 5.06977 0.0813475 4.63396 0.2483 4.22724C0.415252 3.82052 0.661453 3.45101 0.972596 3.14017C1.28374 2.82933 1.65362 2.58337 2.06074 2.41659C2.46786 2.2498 2.9041 2.16551 3.34411 2.16861C6.7839 2.18444 10.2233 2.17276 13.6631 2.17502C13.8007 2.17502 13.9041 2.14714 14.0104 2.04281C14.818 1.24953 15.7606 0.669825 16.8439 0.33496C18.5131 -0.179578 20.1585 -0.108386 21.7557 0.597503C23.6598 1.439 24.9477 2.86772 25.6351 4.82982C25.927 5.67369 26.0466 6.56744 25.9869 7.45826C25.9005 8.88661 25.3648 10.1617 24.6088 11.3553C24.3776 11.72 24.1288 12.071 23.8992 12.4383C23.8526 12.5246 23.8298 12.6217 23.8332 12.7197C23.8297 16.0465 23.8287 19.3738 23.8302 22.7016C23.8302 24.5593 22.3718 26.0042 20.5122 26.0031C14.7695 26.0001 9.02683 26.0001 3.28416 26.0031C1.63269 26.0031 0.250065 24.8083 0.041558 23.1731C-0.0131138 22.7403 0.00573858 22.297 0.00385334 21.8586C0.00360198 19.2645 0.00448175 16.6709 0.00649267 14.0776H0.00724676ZM12.4551 4.34015H12.2224C9.2606 4.34015 6.2989 4.34015 3.33732 4.34015C2.60849 4.34015 2.17376 4.77671 2.17376 5.51161C2.17376 11.0156 2.17376 16.5197 2.17376 22.0239C2.17376 22.0895 2.17941 22.155 2.18243 22.2209L2.22881 22.248L13.1907 11.1655C12.6078 10.208 12.1236 9.11563 11.9702 7.90462C11.8167 6.69361 11.9871 5.51085 12.4551 4.34015ZM18.9621 16.946C19.5523 15.4209 20.2996 13.9614 21.192 12.5908C21.7391 11.7527 22.3171 10.9335 22.851 10.0886C23.3985 9.22223 23.7849 8.29448 23.82 7.24657C23.8498 6.36327 23.6812 5.52441 23.2544 4.75223C22.2304 2.89786 20.3745 1.95165 18.2774 2.23152C16.7749 2.43191 15.6004 3.19392 14.8127 4.48592C13.8999 5.98433 13.8501 7.55921 14.5601 9.15669C14.9669 10.0713 15.5495 10.8819 16.1207 11.6974C16.9879 12.9347 17.7529 14.2309 18.3788 15.6069C18.5764 16.0401 18.7604 16.4815 18.9621 16.946ZM11.3458 16.2838L3.80825 23.8233H18.8856L11.3458 16.2838ZM17.5452 19.2949C17.0173 16.984 15.8368 14.9857 14.4696 13.1024L12.9056 14.6558L17.5452 19.2949ZM21.6625 15.9884L21.6301 15.9813C21.5717 16.0943 21.5125 16.2096 21.4548 16.3244C20.9725 17.2709 20.6069 18.2722 20.3659 19.3066C20.2754 19.7021 20.1329 20.0742 19.7837 20.3255C19.4941 20.5338 19.1669 20.6016 18.8034 20.5745L21.5558 23.3219C21.5935 23.1099 21.6591 22.9117 21.6599 22.7132C21.6671 20.518 21.6637 18.3227 21.6633 16.1274L21.6625 15.9884Z" fill="#1C284C"/>
<path id="Vector_2" d="M8.79439 6.38045C8.53763 6.63734 8.29066 6.88557 8.03125 7.14547C7.44193 6.59967 6.75608 6.38496 5.97107 6.57669C5.38326 6.72021 4.93683 7.07164 4.62954 7.59033C4.01344 8.62957 4.39011 9.96338 5.46658 10.5728C6.45256 11.133 7.80125 10.7672 8.34005 9.77165H6.51251V8.68607H9.72834C9.81242 9.75282 9.0768 11.1672 7.6757 11.7044C6.92857 11.9918 6.10162 11.994 5.35296 11.7106C4.60429 11.4273 3.98644 10.8781 3.61755 10.1683C2.8578 8.72261 3.32383 6.88783 4.68647 5.9774C6.04912 5.06698 7.8054 5.34045 8.79439 6.38045Z" fill="#1C284C"/>
<path id="Vector_3" d="M20.573 7.0351C20.6047 7.9346 19.8336 8.68607 18.931 8.67251C18.0283 8.65895 17.3274 7.92707 17.333 7.00346C17.3383 6.13071 18.0781 5.42482 18.9826 5.42971C19.4066 5.432 19.8123 5.60241 20.1105 5.90346C20.4088 6.2045 20.5751 6.61155 20.573 7.0351Z" fill="#1C284C"/>
</g>
</g>
</g>
<defs>
<clipPath id="clip0_105_1955">
<rect width="26" height="26" fill="white"/>
</clipPath>
</defs>
</svg>
