<?xml version="1.0" encoding="utf-8"?>
<!-- Generator: Adobe Illustrator 27.4.0, SVG Export Plug-In . SVG Version: 6.00 Build 0)  -->
<svg version="1.1" id="Capa_1" xmlns="http://www.w3.org/2000/svg" xmlns:xlink="http://www.w3.org/1999/xlink" x="0px" y="0px"
	 viewBox="0 0 64 65" style="enable-background:new 0 0 64 65;" xml:space="preserve">
<style type="text/css">
	.st0{fill:#1C284C;}
	.st1{fill:#CBF000;}
</style>
<g>
	<path class="st0" d="M0,32C0,14.3,14.3,0,32,0s32,14.6,32,32.2C64,50.2,49.5,65,31.5,65H0V32z"/>
</g>
<path class="st1" d="M31.9,47.4c-2.3,0-4.3-0.4-6.1-1.2c-1.8-0.8-3.2-1.9-4.2-3.3c-1-1.4-1.5-3-1.5-4.8h8c0,0.6,0.2,1.1,0.5,1.5
	c0.3,0.4,0.8,0.8,1.4,1c0.6,0.2,1.3,0.4,2,0.4c0.7,0,1.4-0.1,1.9-0.4c0.6-0.3,1-0.6,1.3-1.1c0.3-0.5,0.5-1,0.5-1.6
	c0-0.6-0.2-1.1-0.5-1.6c-0.4-0.5-0.9-0.8-1.5-1.1c-0.7-0.3-1.4-0.4-2.3-0.4h-3v-5.5h3c0.8,0,1.5-0.1,2.1-0.4
	c0.6-0.3,1.1-0.6,1.4-1.1c0.3-0.4,0.5-1,0.5-1.6c0-0.6-0.1-1.1-0.4-1.5c-0.3-0.4-0.7-0.8-1.2-1c-0.5-0.2-1.1-0.4-1.7-0.4
	c-0.7,0-1.4,0.1-1.9,0.4c-0.6,0.3-1,0.6-1.3,1.1c-0.3,0.5-0.5,1-0.5,1.6h-7.6c0-1.8,0.5-3.4,1.5-4.7c1-1.4,2.3-2.4,4-3.2
	c1.7-0.8,3.6-1.2,5.8-1.2c2.1,0,4,0.4,5.7,1.1c1.7,0.7,3,1.7,3.9,3c0.9,1.3,1.4,2.7,1.4,4.4c0,1.6-0.5,3-1.7,4
	c-1.1,1-2.6,1.7-4.3,1.8v0.2c2.3,0.3,4.1,1,5.3,2.2c1.2,1.2,1.8,2.7,1.7,4.4c0,1.7-0.5,3.2-1.5,4.5c-1,1.3-2.4,2.3-4.3,3.1
	C36.3,47.1,34.2,47.4,31.9,47.4L31.9,47.4z"/>
</svg>
