<svg width="71" height="67" viewBox="0 0 71 67" fill="none" xmlns="http://www.w3.org/2000/svg">
<path d="M70.1084 35.0544C70.1084 15.6944 54.414 0 35.054 0H33.3271C14.9208 0 -0.000343323 14.9212 -0.000343323 33.3274C-0.000343323 51.7336 14.9208 66.6548 33.3271 66.6548H70.1084V35.0544Z" fill="#CBF000"/>
<path d="M36.3727 18.2188C42.285 18.2188 47.0479 22.9816 47.0479 28.8939C47.0479 34.8062 42.285 39.569 36.3727 39.569C30.4604 39.569 25.6976 34.8062 25.6976 28.8939C25.698 22.9816 30.4604 18.2188 36.3727 18.2188ZM29.1467 29.0582C29.3109 29.2224 29.5573 29.3046 29.8037 29.3046C29.968 29.3046 30.2144 29.2224 30.3787 29.0582L30.6247 28.8939V35.0526C30.6247 35.4633 31.0353 35.8739 31.446 35.8739H34.7305C35.1411 35.8739 35.5518 35.4633 35.5518 35.0526V33.4104C35.5518 32.9997 35.8803 32.5891 36.3731 32.5891C36.8659 32.5891 37.1944 32.9176 37.1944 33.4104V35.0526C37.1944 35.4633 37.605 35.8739 38.0157 35.8739H41.3002C41.7108 35.8739 42.1215 35.4633 42.1215 35.0526L42.1207 28.8939L42.3671 29.1403C42.6956 29.4688 43.1884 29.3867 43.5166 29.0582C43.8451 28.7296 43.763 28.2368 43.4344 27.9087L36.8651 22.1607C36.5365 21.9143 36.1259 21.9143 35.7978 22.1607L29.2284 27.9087C28.9003 28.1547 28.9003 28.6475 29.1467 29.0582Z" fill="#1C284C"/>
<path d="M26.3544 43.8359C27.34 44.4109 28.4073 44.493 29.3929 44.493H29.9678H30.6248C30.9534 44.493 31.2819 44.493 31.364 44.5751C31.5283 44.6573 32.1032 45.0679 32.3496 45.2322C32.9245 45.6428 33.5812 46.1356 34.3203 46.5459L30.4609 53.1974C30.2966 53.4438 30.0502 53.6081 29.7217 53.6081H29.6396C29.3111 53.526 29.0647 53.3617 28.9825 53.0332L27.997 49.3381L24.3019 50.3236C23.9733 50.4057 23.6448 50.3236 23.3984 49.9951C23.2341 49.7487 23.152 49.338 23.3163 49.0917L26.3544 43.8359Z" fill="#1C284C"/>
<path d="M41.4641 44.493C41.5462 44.493 41.7926 44.4109 42.2033 44.4109H42.7782H43.3531C44.3387 44.4109 45.406 44.3287 46.3911 43.8359L49.3474 49.009C49.5117 49.3375 49.5117 49.6661 49.2653 49.9125C49.101 50.1588 48.6904 50.3231 48.3619 50.241L44.6667 49.2554L43.6812 52.9505C43.599 53.2791 43.3526 53.5255 43.0241 53.5255H42.942C42.6135 53.5255 42.3671 53.3612 42.2028 53.1148L38.3434 46.4633C39.1647 46.1348 39.8213 45.642 40.3141 45.2317C40.7248 44.9857 41.2176 44.575 41.464 44.4929L41.4641 44.493Z" fill="#1C284C"/>
<path d="M21.5921 28.8919C21.5921 28.317 21.3458 27.7425 21.1815 27.0033C20.853 25.936 20.4423 24.8683 20.7708 23.801C21.1815 22.6515 22.1666 21.9945 23.0702 21.3375C23.6451 20.9268 24.1375 20.5983 24.466 20.188C24.7945 19.7774 24.9587 19.1207 25.123 18.4636C25.4515 17.3963 25.7801 16.2465 26.7653 15.5894C27.6687 14.9323 28.9003 14.9323 29.968 14.9323C30.7072 14.9323 31.3638 14.9323 31.8566 14.7681C32.3494 14.6038 32.8421 14.1931 33.3345 13.7825C34.1555 13.208 35.1411 12.4688 36.3726 12.4688C37.6041 12.4688 38.5897 13.2079 39.4106 13.8646C39.9855 14.2752 40.4779 14.6859 40.8886 14.8501C41.4639 15.0144 42.1206 15.0144 42.7775 14.9322C43.8449 14.9322 45.0769 14.9322 45.9799 15.5893C46.8833 16.2464 47.2936 17.4779 47.6221 18.4635C47.7864 19.1206 48.0328 19.7773 48.2792 20.1879C48.6077 20.5986 49.1005 21.0092 49.675 21.3374C50.5784 21.9945 51.5636 22.6512 51.9743 23.8009C52.3028 24.8682 51.9743 25.9359 51.5637 27.0033C51.3173 27.6603 51.153 28.317 51.153 28.8918C51.153 29.4667 51.3994 30.0413 51.5637 30.7804C51.8922 31.8477 52.3028 32.9154 51.9743 33.9828C51.5637 35.1322 50.5785 35.7893 49.675 36.4463C49.1001 36.8569 48.6077 37.1855 48.2792 37.5957C47.9507 38.0064 47.7864 38.663 47.6221 39.3201C47.2936 40.3874 46.9651 41.5373 45.9799 42.1944C45.0764 42.8514 43.8449 42.8514 42.7775 42.8514C42.0384 42.8514 41.3817 42.8514 40.889 43.0157C40.3962 43.1799 39.9034 43.5906 39.411 44.0012C38.5076 44.6583 37.5224 45.397 36.373 45.397C35.2235 45.397 34.1558 44.6579 33.3349 44.0012C32.76 43.5906 32.2676 43.1799 31.857 43.0157C31.3642 42.8514 30.7075 42.8514 29.9684 42.8514C28.9011 42.8514 27.6691 42.9335 26.766 42.1944C25.8626 41.5373 25.4523 40.3058 25.1238 39.3201C24.9595 38.6631 24.7131 38.0064 24.4667 37.5957C24.1382 37.1851 23.6454 36.8566 23.0709 36.4463C22.1675 35.7892 21.1824 35.1325 20.7716 33.9828C20.4431 32.9154 20.7716 31.8477 21.1823 30.7804C21.3458 30.0412 21.5921 29.4664 21.5921 28.8919ZM36.3726 41.209C43.1883 41.209 48.6897 35.7073 48.6897 28.8919C48.6897 22.0762 43.188 16.5748 36.3726 16.5748C29.5572 16.5748 24.0556 22.0765 24.0556 28.8919C24.0559 35.7076 29.5576 41.209 36.3726 41.209Z" fill="#1C284C"/>
</svg>
