<svg width="71" height="67" viewBox="0 0 71 67" fill="none" xmlns="http://www.w3.org/2000/svg">
<path d="M0 35.0544C0 15.6944 15.6944 0 35.0544 0H36.7813C55.1876 0 70.1087 14.9212 70.1087 33.3274C70.1087 51.7336 55.1876 66.6548 36.7813 66.6548H0V35.0544Z" fill="#CBF000"/>
<path d="M23.655 22.5681C24.6624 22.6453 25.388 21.8391 25.6165 20.8867C25.7323 20.405 25.9475 19.4384 26.0184 18.9491C26.1776 17.8116 25.246 16.8045 24.1029 16.7172C22.9578 16.6291 21.8855 17.4839 21.872 18.6327C21.8644 19.1262 21.9071 20.1171 21.9726 20.6083C22.1083 21.6505 22.6499 22.4923 23.655 22.5681Z" fill="#1C284C"/>
<path d="M42.3834 20.8867C42.6128 21.8391 43.3382 22.6452 44.3449 22.5681C45.3503 22.492 45.8919 21.6511 46.0266 20.6083C46.0925 20.1174 46.1359 19.1262 46.1292 18.6327C46.116 17.4842 45.0435 16.6291 43.8973 16.7172C42.7529 16.8039 41.8227 17.8116 41.9829 18.9491C42.0511 19.4387 42.2672 20.4051 42.3834 20.8867Z" fill="#1C284C"/>
<path d="M34.1165 37.5508C31.5221 37.5508 29.4189 39.6536 29.4189 42.2474C29.4189 44.8411 31.5221 46.9446 34.1165 46.9446C36.709 46.9446 38.8125 44.8415 38.8125 42.2474C38.8121 39.6536 36.7093 37.5508 34.1165 37.5508ZM34.2867 44.4303L31.8843 42.444L32.8363 41.2926L33.9513 42.2146L35.5012 39.8469L36.7513 40.6652L34.2867 44.4303Z" fill="#1C284C"/>
<path d="M51.3507 37.5429L53 37.1003L51.9318 31.2977L50.0388 26.2406V26.2415C49.5979 25.069 48.4567 24.2305 47.1183 24.2305H43.0971C42.0006 24.2305 41.0373 24.7959 40.4818 25.6453L40.4815 25.6427L37.7831 29.5703L34.0002 30.6713L30.2169 29.5709L27.5202 25.6434L27.5193 25.646C26.9628 24.7962 25.9988 24.2311 24.9023 24.2311H20.8827C19.5443 24.2311 18.4025 25.0697 17.9615 26.2422L17.9605 26.2412L16.0683 31.2977L15 37.1003L16.6503 37.5429L17.751 32.8734L19.6023 29.1909L17.7209 50.1746H19.9575L22.4493 37.3386L22.8363 42.5314L23.1723 50.1743H25.4089L25.7052 45.6426C28.38 52.3956 33.5182 54.1818 33.8103 54.2776C33.8712 54.2978 33.9344 54.3074 33.998 54.3074H34.0013C34.0648 54.3074 34.1284 54.2974 34.189 54.2776C34.4813 54.1816 39.6188 52.3959 42.293 45.6434L42.589 50.1741H44.8262L45.1622 42.5312L45.5482 37.3384L48.0417 50.1744H50.2772L48.3959 29.1907L50.2465 32.8733L51.3507 37.5429ZM26.1821 28.7274L29.0834 31.6953L34.0005 32.3216L38.9176 31.6953L41.8196 28.7274L42.2715 34.9366C41.9735 34.9548 41.6196 34.9693 41.2168 34.9693C39.2844 34.9693 36.5221 34.6598 34.3379 33.1846C34.1403 33.0509 33.8629 33.0509 33.6649 33.1846C31.4807 34.6597 28.718 34.9693 26.7857 34.9693C26.3825 34.9693 26.0283 34.9548 25.7303 34.9366L26.1821 28.7274ZM42.6911 36.4256C42.6911 49.137 35.3041 52.5684 34.001 53.0744C32.698 52.5686 25.3101 49.1369 25.3101 36.4256V36.1055C25.6815 36.1363 26.1874 36.1644 26.7849 36.1644C28.79 36.1644 31.6288 35.8496 34.0008 34.3893C36.3731 35.8496 39.2114 36.1644 41.2163 36.1644C41.8136 36.1644 42.3191 36.1363 42.6908 36.1055L42.6905 36.4256H42.6911Z" fill="#1C284C"/>
</svg>
