<svg width="102" height="100" viewBox="0 0 102 100" fill="none" xmlns="http://www.w3.org/2000/svg">
<g id="Group">
<path id="Vector" d="M19.3098 47.4469C25.6724 47.4469 30.8471 42.2458 30.8471 35.8514C30.8471 29.4577 25.6712 24.2578 19.3098 24.2578C12.9481 24.2578 7.77246 29.4589 7.77246 35.8514C7.77246 42.2441 12.9483 47.4469 19.3098 47.4469Z" fill="#1C284C"/>
<path id="Vector_2" d="M75.7504 37.6771C81.515 37.6771 86.206 32.9642 86.206 27.1706C86.206 21.3769 81.515 16.6641 75.7504 16.6641C69.9858 16.6641 65.2949 21.3769 65.2949 27.1706C65.2959 32.964 69.9868 37.6771 75.7504 37.6771Z" fill="#1C284C"/>
<path id="Vector_3" d="M100.19 87.3879H85.1755L89.8384 56.3453L98.3826 29.3163C98.5577 28.7633 98.4584 28.1595 98.1187 27.6911C97.7771 27.2228 97.2351 26.9462 96.6567 26.9462H91.408C90.8053 26.9462 90.2427 27.2472 89.9068 27.7494L80.5858 41.6474H70.7125L60.8382 27.7109C60.4994 27.2322 59.95 26.9463 59.3632 26.9463L53.2121 26.9453C52.6066 26.9453 52.0403 27.25 51.7043 27.757C51.3683 28.2639 51.3075 28.9072 51.5424 29.4687L62.8027 56.4254L67.4263 87.3861L53.768 87.3852C52.7675 87.3852 51.957 88.2006 51.957 89.2051L51.9579 96.1997H33.9626L37.0092 74.9255L43.8584 68.7256C44.3788 68.2554 44.5828 67.5246 44.3807 66.8502L39.1945 49.4856C38.9652 48.7162 38.2604 48.1905 37.4602 48.1905H12.7165C11.9153 48.1905 11.2087 48.7209 10.9803 49.4912L5.79243 67.029C5.57903 67.7532 5.8308 68.5328 6.42699 68.9918L14.2514 75.0166L17.5807 96.1996H1.81105C0.810524 96.1996 0 97.0151 0 98.0195C0.000935886 99.0231 0.810524 99.8385 1.81105 99.8385H53.7664C54.766 99.8385 55.5774 99.0231 55.5774 98.0186V91.0259H100.189C101.189 91.0259 102 90.2105 102 89.206C102 88.2015 101.189 87.387 100.189 87.387L100.19 87.3879Z" fill="#1C284C"/>
<path id="Vector_4" d="M75.7505 11.3218C76.7501 11.3218 77.5616 10.5083 77.5616 9.50193V1.81989C77.5616 0.814482 76.7501 0 75.7505 0C74.7509 0 73.9395 0.813543 73.9395 1.81989V9.50193C73.9404 10.5064 74.7518 11.3218 75.7505 11.3218Z" fill="#1C284C"/>
<path id="Vector_5" d="M62.8667 12.4213C63.2111 12.9658 63.797 13.263 64.3951 13.263C64.7283 13.263 65.0662 13.1709 65.3666 12.9781C66.2108 12.4382 66.4579 11.3124 65.9207 10.4659L61.8127 3.98671C61.2764 3.13838 60.1533 2.89007 59.3137 3.42993C58.4695 3.96978 58.2224 5.09558 58.7596 5.94213L62.8667 12.4213Z" fill="#1C284C"/>
<path id="Vector_6" d="M85.7132 12.9741C86.0145 13.167 86.3505 13.2591 86.6847 13.2591C87.2818 13.2591 87.8677 12.9619 88.2131 12.4174L92.3211 5.93822C92.8574 5.08989 92.6093 3.96691 91.766 3.42602C90.9237 2.88616 89.8034 3.13447 89.267 3.9828L85.159 10.4619C84.6218 11.3093 84.8689 12.4333 85.7132 12.9741Z" fill="#1C284C"/>
</g>
</svg>
