<svg width="71" height="67" viewBox="0 0 71 67" fill="none" xmlns="http://www.w3.org/2000/svg">
<path d="M70.1084 35.0544C70.1084 15.6944 54.414 0 35.054 0H33.3271C14.9208 0 -0.000343323 14.9212 -0.000343323 33.3274C-0.000343323 51.7336 14.9208 66.6548 33.3271 66.6548H70.1084V35.0544Z" fill="#CBF000"/>
<path fill-rule="evenodd" clip-rule="evenodd" d="M19.5342 41.3467L17.7028 39.9954C17.2283 40.1738 16.6926 40.1998 16.1722 40.0338L13.503 39.1812C12.2749 38.7891 11.5971 37.4749 11.989 36.247C12.9043 33.3799 15.0503 26.6601 15.9664 23.7919C16.3584 22.5638 17.6717 21.8859 18.9006 22.2779L21.5689 23.1306C22.2301 23.3414 22.7306 23.8187 22.992 24.4054L33.7174 24.765C34.628 24.796 35.4937 25.1714 36.1377 25.8155L38.8069 28.4838L45.2038 25.0847C45.2533 24.4536 45.5578 23.8447 46.0967 23.4244L48.3081 21.7033C49.3253 20.9113 50.7924 21.0944 51.5839 22.1115C53.4329 24.4865 57.7671 30.0533 59.6161 32.4278C60.408 33.445 60.225 34.9121 59.2078 35.7036L56.9973 37.4247C56.4241 37.8709 55.7077 38.0086 55.0501 37.8607L52.8948 39.6648C52.9463 40.3381 52.7567 41.0309 52.3082 41.6037C51.9393 42.0754 51.4481 42.3966 50.9147 42.5583C51.0677 43.3317 50.8971 44.1644 50.3739 44.8332C49.8498 45.5019 49.0824 45.8689 48.2952 45.905C48.2674 46.4616 48.0727 47.0153 47.7039 47.4871C47.1798 48.1558 46.4123 48.5219 45.6251 48.558C45.5973 49.1146 45.4027 49.6683 45.0338 50.141C44.0843 51.3543 42.3322 51.5716 41.1143 50.6313L39.3784 49.2726L32.8004 52.8437C31.4639 53.6055 29.7578 53.1444 28.9875 51.8098C28.7382 51.3775 28.6168 50.9057 28.6131 50.44C27.6904 50.3978 26.8071 49.9001 26.3109 49.0419C26.1288 48.7263 26.0148 48.3899 25.9652 48.0493C24.7738 48.3639 23.4716 47.8588 22.8256 46.7411C22.6435 46.4256 22.5295 46.0891 22.4799 45.7485C21.2885 46.0632 19.9863 45.5581 19.3403 44.4404C18.7606 43.4357 18.8742 42.2197 19.5327 41.3477L19.5342 41.3467ZM33 41.9464L25.7205 46.149C25.2742 46.4066 24.7024 46.2537 24.4447 45.807C24.1889 45.3635 24.3381 44.7968 24.7779 44.5359L30.4486 41.2628C30.8949 41.0052 31.0482 40.4333 30.7906 39.9871C30.5329 39.5408 29.9611 39.3874 29.5148 39.6451L22.2353 43.8477C21.789 44.1054 21.2172 43.9524 20.9595 43.5057C20.7028 43.0613 20.8538 42.4913 21.2969 42.2328C21.3145 42.2217 21.3335 42.2106 21.3511 42.198L35.174 32.7734L38.4966 36.096C39.5912 37.1767 41.3572 37.173 42.4457 36.083C43.5394 34.9903 43.5394 33.2141 42.4457 32.1214L40.1894 29.8642L45.8224 26.8701L53.496 36.7263L52.0923 37.9019C52.0112 37.8208 51.9232 37.743 51.831 37.6702L48.8745 35.356C47.6575 34.4166 45.906 34.634 44.956 35.8472C44.5871 36.3189 44.3929 36.8727 44.3646 37.4292C43.5773 37.4658 42.81 37.8319 42.2859 38.5011C41.7627 39.1698 41.5912 40.003 41.7451 40.776C41.2117 40.9368 40.7205 41.2579 40.3516 41.7306C39.8275 42.3993 39.657 43.2324 39.8108 44.0054C39.2765 44.1672 38.7863 44.4883 38.4165 44.9601C37.7487 45.8127 37.6546 46.9332 38.0763 47.8549L31.9033 51.2048C31.8969 51.2085 31.8894 51.2131 31.882 51.2169C31.4367 51.4745 30.8639 51.3216 30.6063 50.8749C30.3505 50.4305 30.5006 49.8623 30.9413 49.6028L36.6096 46.3307C37.0559 46.073 37.2093 45.5012 36.9516 45.0549C36.694 44.6087 36.1221 44.4553 35.6759 44.7129L29.2049 48.4484C28.7586 48.7061 28.1868 48.5531 27.9291 48.1064C27.6733 47.6629 27.8225 47.0948 28.2632 46.8353L33.933 43.5622C34.3792 43.3046 34.5326 42.7328 34.275 42.2865C34.0173 41.8402 33.4455 41.6868 32.9992 41.9445L33 41.9464ZM14.0713 37.4022L16.7405 38.2539C16.9861 38.3322 17.2483 38.1969 17.3271 37.9513L21.3045 25.4974C21.3828 25.2518 21.2475 24.9886 21.0019 24.9098L18.3327 24.0581C18.0871 23.9798 17.8248 24.1151 17.746 24.3607L13.7686 36.8146C13.6903 37.0602 13.8256 37.3234 14.0713 37.4022Z" fill="#1C284C"/>
</svg>
