<?xml version="1.0" encoding="utf-8"?>
<!-- Generator: Adobe Illustrator 27.4.0, SVG Export Plug-In . SVG Version: 6.00 Build 0)  -->
<svg version="1.1" id="Capa_1" xmlns="http://www.w3.org/2000/svg" xmlns:xlink="http://www.w3.org/1999/xlink" x="0px" y="0px"
	 viewBox="0 0 64 65" style="enable-background:new 0 0 64 65;" xml:space="preserve">
<style type="text/css">
	.st0{fill:#1C284C;}
	.st1{fill:#CBF000;}
</style>
<g>
	<path class="st0" d="M0,32C0,14.3,14.3,0,32,0s32,14.6,32,32.2C64,50.2,49.5,65,31.5,65H0V32z"/>
</g>
<path class="st1" d="M21.1,47.2v-5.7l10.9-9c0.6-0.5,1.3-1.1,1.8-1.7c0.5-0.5,0.9-1.1,1.2-1.6c0.3-0.6,0.4-1.2,0.4-1.9
	c0-0.7-0.2-1.4-0.5-1.9c-0.3-0.5-0.8-1-1.3-1.2c-0.6-0.3-1.2-0.4-1.9-0.4c-0.7,0-1.4,0.1-1.9,0.4c-0.5,0.3-1,0.7-1.3,1.3
	c-0.3,0.6-0.5,1.3-0.5,2.1h-7.5c0-2,0.5-3.8,1.4-5.3c0.9-1.5,2.2-2.6,3.9-3.4c1.7-0.8,3.6-1.2,5.9-1.2c2.3,0,4.3,0.4,6.1,1.1
	c1.7,0.7,3,1.8,4,3.1c0.9,1.3,1.4,2.9,1.4,4.7c0,1.1-0.2,2.2-0.7,3.3c-0.5,1.1-1.3,2.3-2.5,3.6c-1.2,1.3-2.9,2.9-5.1,4.8l-2.7,2.3
	v0.2h11.4v6.3H21.1L21.1,47.2z"/>
</svg>
