<svg width="109" height="105" viewBox="0 0 109 105" fill="none" xmlns="http://www.w3.org/2000/svg">
<g id="Group">
<path id="Vector" d="M0 94.2031C0 100.025 4.71627 104.762 10.5587 104.762H98.4413C104.264 104.762 109 100.046 109 94.2031H0Z" fill="#1C284C"/>
<path id="Vector_2" d="M16.125 31.8203H20.3878V81.2581H16.125V31.8203Z" fill="#1C284C"/>
<path id="Vector_3" d="M88.5928 31.8203H92.8556V81.2581H88.5928V31.8203Z" fill="#1C284C"/>
<path id="Vector_4" d="M101.854 29.844C101.854 25.976 98.7163 22.818 94.8281 22.818H88.5919V27.8706H94.8281C95.9138 27.8706 96.8015 28.7583 96.8015 29.844V83.2271C96.8015 84.3127 95.9138 85.2005 94.8281 85.2005L14.1511 85.2015C13.0654 85.2015 12.1777 84.3137 12.1777 83.2281V29.8424C12.1777 28.7567 13.0654 27.869 14.1511 27.869H20.3873V22.8164H14.1511C10.2629 22.8164 7.125 25.9745 7.125 29.8425V90.2733H101.856L101.854 29.844Z" fill="#1C284C"/>
<path id="Vector_5" d="M84.6449 14H24.333V81.2589H84.6449V14ZM38.4234 76.207C34.5352 76.207 31.3973 73.049 31.3973 69.181C31.3973 65.313 34.5554 62.1549 38.4234 62.1549C42.3115 62.1549 45.4494 65.313 45.4494 69.181C45.4494 73.05 42.2914 76.207 38.4234 76.207ZM38.4234 54.6565C34.5352 54.6565 31.3973 51.4985 31.3973 47.6305C31.3973 43.7423 34.5554 40.6044 38.4234 40.6044C42.3115 40.6044 45.4494 43.7625 45.4494 47.6305C45.4494 51.5186 42.2914 54.6565 38.4234 54.6565ZM38.4234 33.1252C34.5352 33.1252 31.3973 29.9671 31.3973 26.0991C31.3973 22.2311 34.5352 19.0539 38.4234 19.0539C42.3115 19.0539 45.4494 22.212 45.4494 26.08C45.4494 29.948 42.2914 33.1252 38.4234 33.1252ZM70.3762 74.313H53.0885C52.0028 74.313 51.1151 73.4253 51.1151 72.3396C51.1151 71.2539 52.0028 70.3662 53.0885 70.3662H70.3964C71.482 70.3662 72.3697 71.2539 72.3697 72.3396C72.3697 73.4253 71.481 74.313 70.3762 74.313ZM77.6194 67.9586H53.0885C52.0028 67.9586 51.1151 67.0709 51.1151 65.9852C51.1151 64.8996 52.0028 64.0119 53.0885 64.0119H77.6194C78.7051 64.0119 79.5928 64.8996 79.5928 65.9852C79.5928 67.0709 78.7051 67.9586 77.6194 67.9586ZM51.114 50.8082C51.114 49.7225 52.0017 48.8348 53.0874 48.8348H70.3953C71.4809 48.8348 72.3686 49.7225 72.3686 50.8082C72.3686 51.8938 71.4809 52.7816 70.3953 52.7816H53.0884C51.9826 52.7816 51.114 51.8938 51.114 50.8082ZM77.6194 46.4272H53.0885C52.0028 46.4272 51.1151 45.5395 51.1151 44.4539C51.1151 43.3682 52.0028 42.4805 53.0885 42.4805H77.6194C78.7051 42.4805 79.5928 43.3682 79.5928 44.4539C79.5928 45.5395 78.7051 46.4272 77.6194 46.4272ZM51.114 29.2577C51.114 28.172 52.0017 27.2843 53.0874 27.2843H70.3953C71.4809 27.2843 72.3686 28.172 72.3686 29.2577C72.3686 30.3433 71.4809 31.231 70.3953 31.231H53.0884C51.9826 31.231 51.114 30.3625 51.114 29.2577ZM77.6194 24.8959H53.0885C52.0028 24.8959 51.1151 24.0081 51.1151 22.9225C51.1151 21.8368 52.0028 20.9491 53.0885 20.9491H77.6194C78.7051 20.9491 79.5928 21.8368 79.5928 22.9225C79.5928 24.0081 78.7051 24.8959 77.6194 24.8959Z" fill="#1C284C"/>
<path id="Vector_6" d="M84.6449 0.441406H24.333V10.0528H84.6449V0.441406ZM32.3658 8.19757C31.2801 8.19757 30.3924 7.30985 30.3924 6.2242C30.3924 5.13854 31.2801 4.25082 32.3658 4.25082C33.4515 4.25082 34.3392 5.13854 34.3392 6.2242C34.3392 7.30885 33.4515 8.19757 32.3658 8.19757ZM39.4503 8.19757C38.3646 8.19757 37.4769 7.30985 37.4769 6.2242C37.4769 5.13854 38.3646 4.25082 39.4503 4.25082C40.5359 4.25082 41.4237 5.13854 41.4237 6.2242C41.4237 7.30885 40.5359 8.19757 39.4503 8.19757ZM46.5358 8.19757C45.4501 8.19757 44.5624 7.30985 44.5624 6.2242C44.5624 5.13854 45.4501 4.25082 46.5358 4.25082C47.6215 4.25082 48.5092 5.13854 48.5092 6.2242C48.5092 7.30885 47.6205 8.19757 46.5358 8.19757Z" fill="#1C284C"/>
</g>
</svg>
