<svg width="106" height="99" viewBox="0 0 106 99" fill="none" xmlns="http://www.w3.org/2000/svg">
<g id="Group">
<path id="Vector" d="M1.06021 98.3117H1.4136C2.00259 98.3117 2.47381 97.8405 2.47381 97.2515L2.47289 75.3454C2.47289 74.7564 2.0017 74.2852 1.41269 74.2852H1.06021C0.471216 74.2852 0 74.7563 0 75.3454V97.3693C0 97.8405 0.471196 98.3117 1.06021 98.3117Z" fill="#1C284C"/>
<path id="Vector_2" d="M55.7096 75.7021L30.5042 83.3572C30.033 84.4174 29.3262 85.242 28.266 85.7132C27.5592 86.0665 26.8524 86.1843 26.1456 86.1843C25.0854 86.1843 24.0253 85.8309 23.2015 85.1241L18.8438 81.709C18.3726 81.2378 18.2548 80.531 18.6082 80.0598C19.0794 79.5886 19.7862 79.4708 20.2574 79.8242L24.6151 83.2393C25.3219 83.8283 26.3821 83.9461 27.2058 83.4749C27.9126 83.1215 28.3838 82.4147 28.5016 81.7079C28.6194 80.8834 28.3838 80.1766 27.7948 79.5876L20.611 73.1095C19.6686 72.2849 18.255 71.9315 16.9601 72.2849L4.94727 76.1732V96.431L23.7914 97.8446C24.4982 97.8446 25.205 97.7268 25.794 97.3734L57.5941 80.2961C58.6543 79.7071 59.1255 78.5291 58.7721 77.4698C58.4178 76.1731 57.0051 75.3485 55.7092 75.7019L55.7096 75.7021Z" fill="#1C284C"/>
<path id="Vector_3" d="M63.2461 14.9298C62.6571 14.9298 61.9503 15.0476 61.3613 15.2832C58.8885 16.3434 57.7114 19.1696 58.7707 21.7603C59.8309 24.2331 62.6571 25.4111 65.1309 24.351C67.6038 23.2908 68.7817 20.4645 67.7216 17.9907C67.0157 16.1077 65.131 14.9298 63.2461 14.9298Z" fill="#1C284C"/>
<path id="Vector_4" d="M52.5275 34.4804C52.4097 34.5982 52.1741 34.5982 52.0563 34.5982C51.5851 34.5982 51.1139 34.3626 50.9961 33.8915C50.6427 33.0669 50.0537 32.4779 49.2291 32.1245C48.4045 31.7711 47.5799 31.7711 46.8731 32.1245C46.5197 32.2423 46.2841 32.2423 45.9307 32.1245C45.5773 32.0067 45.3417 31.7711 45.2239 31.4177L42.2798 24.2338C42.162 23.8804 42.162 23.6449 42.2798 23.2915C42.3976 22.9381 42.6332 22.7025 42.9866 22.5847C43.8112 22.2313 44.4002 21.6423 44.6358 20.9355C44.9892 20.1109 44.9892 19.2863 44.6358 18.4626C44.518 18.1092 44.518 17.8736 44.6358 17.5202C44.7536 17.1668 44.9892 16.9313 45.3426 16.8135L74.0802 4.91841C74.4336 4.80061 74.6692 4.80061 75.0226 4.91841C75.376 5.03621 75.6116 5.2718 75.7294 5.6252C76.0828 6.44978 76.6718 7.0388 77.3786 7.27439C78.2032 7.62779 79.0278 7.62779 79.8514 7.27439C80.2048 7.15659 80.4404 7.15659 80.7938 7.27439C81.1472 7.39219 81.3828 7.62779 81.5006 7.98118L84.4447 15.165C84.6803 15.754 84.4447 16.4608 83.7379 16.6964C82.0888 17.4032 81.382 19.1693 82.0888 20.8185C82.3244 21.4075 82.0888 22.1143 81.382 22.3499L79.1438 23.2923L81.4997 24.5881L89.037 21.4083C89.626 21.1727 89.8616 20.5837 89.626 19.9947L83.7371 5.86154L81.6167 0.679271C81.3811 0.0902813 80.7921 -0.145315 80.2031 0.0902812L37.4508 17.7565C36.8618 17.9921 36.6262 18.5811 36.8618 19.1701L44.8722 38.7202C45.1078 39.3092 45.6968 39.5448 46.2858 39.3092L67.6038 30.4761C67.2504 29.8871 67.1326 29.1803 67.0148 28.4735L52.5275 34.4804Z" fill="#1C284C"/>
<path id="Vector_5" d="M92.689 21.4043C92.9246 21.9932 92.689 22.7001 91.9823 22.9357L84.0915 26.233L87.1534 27.8822C87.7424 28.2356 87.978 28.9424 87.6246 29.5314C87.2712 30.1204 86.5644 30.356 85.9754 30.0026L75.6109 24.4669L75.1397 24.2313C73.7261 23.5245 72.0778 23.6423 70.8998 24.5847C69.8396 25.4092 69.2506 26.5873 69.3684 27.882C69.3684 29.1778 70.0752 30.3549 71.2532 31.0618L81.4999 37.5399C82.5601 38.1289 83.7381 38.3645 84.9151 38.0111L100.462 33.3001L100.463 12.571L87.0363 7.74219L92.689 21.4043Z" fill="#1C284C"/>
<path id="Vector_6" d="M102.819 11.0407V34.3604C102.819 34.9494 103.291 35.4206 103.88 35.4206H104.94C105.529 35.4206 106 34.9494 106 34.3604L105.999 11.0407C105.999 10.4517 105.528 9.98047 104.939 9.98047H103.879C103.291 9.98047 102.819 10.4517 102.819 11.0407Z" fill="#1C284C"/>
<path id="Vector_7" d="M43.1064 64.0469H47.582V74.2936H43.1064V64.0469Z" fill="#1C284C"/>
<path id="Vector_8" d="M51.9386 74.2875V57.9172L53.47 59.4486C53.9412 59.9197 54.648 59.9197 55.1192 59.4486C55.5904 58.9774 55.5904 58.2706 55.1192 57.6816L40.2784 42.8417C39.8072 42.3705 39.1004 42.3705 38.6292 42.8417L23.5546 57.7994C23.0834 58.2706 23.0834 58.9774 23.5546 59.4486C24.0258 59.9198 24.7326 59.9198 25.2038 59.4486L26.7352 57.9172V74.2885H40.2795V62.6282C40.2795 61.9214 40.8685 61.2146 41.6931 61.2146H48.8769C49.5837 61.2146 50.2905 61.8036 50.2905 62.6282V74.2885L51.9386 74.2875ZM38.3943 69.812C38.3943 70.5188 37.8053 71.2256 36.9807 71.2256H29.7968C29.09 71.2256 28.3832 70.6366 28.3832 69.812V62.6281C28.3832 61.9214 28.9722 61.2145 29.7968 61.2145H36.9807C37.6875 61.2145 38.3943 61.8035 38.3943 62.6281V69.812Z" fill="#1C284C"/>
</g>
</svg>
