<svg width="29" height="38" viewBox="0 0 29 38" fill="none" xmlns="http://www.w3.org/2000/svg">
<g id="Group">
<path id="Vector" d="M14.5443 37.8603C20.3832 37.8603 25.1166 36.8225 25.1166 35.5422C25.1166 35.4163 25.0582 35.2933 24.9697 35.1728L24.982 35.1722L24.9232 35.1057C24.9083 35.0885 24.8945 35.0714 24.8777 35.0546L23.7288 33.7592H23.7282V27.7491C23.2209 28.0217 22.7059 28.1808 22.426 28.2642C20.548 28.8321 17.6784 29.1576 14.5435 29.1576C14.2558 29.1576 13.9681 29.1576 13.6955 29.1425C10.6972 29.0895 7.2822 28.7715 5.36661 27.7266L5.38179 33.64C5.36661 33.6778 5.35918 33.7156 5.35918 33.7611V33.7615L4.17672 35.0859L4.17833 35.0866C4.04433 35.2338 3.97168 35.3862 3.97168 35.5422C3.97168 36.8224 8.70535 37.8602 14.544 37.8602L14.5443 37.8603Z" fill="#CBF000"/>
<path id="Vector_2" d="M13.7712 27.6362C14.0285 27.6436 14.2862 27.6436 14.5436 27.6436C17.6101 27.6436 20.3134 27.3181 21.9866 26.8106C23.0844 26.4773 23.7279 26.0685 23.7279 25.6294C23.7279 25.054 22.6071 24.5316 20.8203 24.168C20.8051 24.4557 20.7218 24.7434 20.5781 24.9933C20.3207 25.4398 19.9116 25.7579 19.4195 25.8945C17.8144 26.3336 16.1712 26.5609 14.5432 26.5609C12.9152 26.5609 11.2723 26.3336 9.66683 25.8945C9.17474 25.7582 8.75822 25.4401 8.50826 24.9933C8.36424 24.7434 8.28126 24.4557 8.26608 24.168C6.4792 24.5315 5.3584 25.054 5.3584 25.6294C5.35872 26.6898 9.06914 27.5529 13.7708 27.6362L13.7712 27.6362Z" fill="#CBF000"/>
<path id="Vector_3" d="M27.1738 12.3258C29.4321 9.78586 28.9678 5.58858 28.9471 5.41136C28.8799 4.83951 28.3949 4.40843 27.8192 4.40843H25.1134C25.1117 4.33094 25.1169 4.29638 25.0982 3.8692C25.5373 3.56632 25.795 3.20274 25.795 2.77138C25.795 0.083239 15.6938 0 14.5432 0C12.0256 0 3.20538 0.259605 3.20538 2.77303C3.20538 3.20119 3.46209 3.56251 3.89574 3.86862C3.88895 4.0488 3.88217 4.2251 3.88217 4.40688V4.4085L1.18081 4.40818C0.604763 4.40818 0.120105 4.83924 0.052902 5.4111C0.0322367 5.58869 -0.432088 9.78602 1.82623 12.3255C2.83304 13.4576 4.19075 14.0721 5.85951 14.1686C7.02544 16.4711 9.10073 18.1858 11.5418 18.9297C11.2899 19.2465 11.0839 19.6036 10.9448 19.9982C10.5105 21.2295 10.3287 22.4606 10.3739 23.6918C10.3413 23.6831 10.3087 23.6773 10.2764 23.6683C10.0665 23.6072 9.84563 23.7338 9.7875 23.9463C9.72906 24.1581 9.8537 24.377 10.0655 24.4352C11.5509 24.8439 13.0464 25.0487 14.5428 25.0487C16.0388 25.0487 17.5347 24.8443 19.0197 24.4352C19.2315 24.377 19.3561 24.1581 19.2977 23.9463C19.2393 23.7338 19.0181 23.6066 18.8088 23.6683C18.7766 23.6773 18.7439 23.6828 18.7113 23.6915C18.7565 22.4603 18.5747 21.2291 18.1405 19.9982C17.9981 19.5943 17.7843 19.2307 17.5244 18.9084C19.9358 18.1541 21.9826 16.4512 23.144 14.1686C24.8114 14.0714 26.1679 13.457 27.1741 12.3259L27.1738 12.3258ZM3.52775 10.8214C2.48837 9.65741 2.28685 7.8153 2.2723 6.67971H3.97263C4.116 8.35326 4.43986 10.0343 4.94357 11.7081C4.38335 11.5312 3.90708 11.2467 3.52767 10.8214H3.52775ZM14.4952 4.18657C8.66505 4.18172 5.37853 3.29961 4.7222 2.771C4.86622 2.65734 5.12357 2.52883 5.49457 2.39999C9.11422 1.5437 11.6105 1.36251 14.5427 1.36251C17.2682 1.36251 19.9483 1.56755 23.4932 2.39743C23.8723 2.53046 24.1396 2.65962 24.2798 2.77263C23.6223 3.30315 20.3285 4.18275 14.4943 4.18655L14.4952 4.18657ZM25.4759 10.8162C25.0959 11.2437 24.6183 11.5298 24.0568 11.7074C24.5615 10.0316 24.8786 8.35541 25.0223 6.67963H26.7246C26.7072 7.81621 26.504 9.65997 25.4759 10.8162Z" fill="#CBF000"/>
</g>
</svg>
