<svg width="71" height="67" viewBox="0 0 71 67" fill="none" xmlns="http://www.w3.org/2000/svg">
<path d="M70.1084 35.0544C70.1084 15.6944 54.414 0 35.054 0H33.3271C14.9208 0 -0.000343323 14.9212 -0.000343323 33.3274C-0.000343323 51.7336 14.9208 66.6548 33.3271 66.6548H70.1084V35.0544Z" fill="#CBF000"/>
<path d="M31.6318 46.5742H40.6136C41.4468 46.5742 42.1367 47.2512 42.1367 48.0974V48.3186C42.1367 49.1519 41.4598 49.8418 40.6136 49.8418H39.1295V50.2064C39.1295 51.7554 37.8799 53.0054 36.3306 53.0054H35.9272C34.3782 53.0054 33.1282 51.7558 33.1282 50.2064V49.8418H31.6442C30.8109 49.8418 30.121 49.1648 30.121 48.3186V48.0974C30.1087 47.2512 30.7986 46.5742 31.6316 46.5742H31.6318Z" fill="#1C284C"/>
<path d="M37.516 16.6372C42.5667 17.2098 47.4353 22.0393 48.0207 27.0906C48.4764 30.9047 47.1226 34.4063 44.7273 36.8793C43.3343 38.3114 42.5663 40.2247 42.5663 42.2294C42.5663 43.2448 41.7463 44.0778 40.7179 44.0778H31.489C30.4736 44.0778 29.6406 43.2577 29.6406 42.2294C29.6406 40.2509 28.9117 38.3373 27.5319 36.9313C25.41 34.7703 24.1084 31.8154 24.1084 28.5615C24.1342 21.4669 30.2653 15.8177 37.5161 16.6379L37.516 16.6372ZM37.2948 39.4565C37.2948 40.1073 37.8154 40.628 38.4662 40.628C39.117 40.628 39.6376 40.1073 39.6376 39.4565V34.4058C39.6376 32.8178 40.9263 31.5291 42.5144 31.5291C43.1652 31.5291 43.6858 31.0084 43.6858 30.3576C43.6858 29.7068 43.1652 29.1862 42.5144 29.1862C39.6376 29.1862 37.2944 31.5294 37.2944 34.4062L37.2948 39.4565ZM29.7316 31.5158C31.3197 31.5158 32.6084 32.8045 32.6084 34.3926V39.4433C32.6084 40.0941 33.129 40.6147 33.7798 40.6147C34.4306 40.6147 34.9512 40.0941 34.9512 39.4433V34.3926C34.9512 31.5158 32.608 29.1726 29.7313 29.1726C29.0805 29.1726 28.5598 29.6933 28.5598 30.3441C28.5731 30.9952 29.0937 31.5158 29.7316 31.5158Z" fill="#1C284C"/>
</svg>
