<?xml version="1.0" encoding="utf-8"?>
<!-- Generator: Adobe Illustrator 27.4.0, SVG Export Plug-In . SVG Version: 6.00 Build 0)  -->
<svg version="1.1" id="Capa_1" xmlns="http://www.w3.org/2000/svg" xmlns:xlink="http://www.w3.org/1999/xlink" x="0px" y="0px"
	 viewBox="0 0 71 73" style="enable-background:new 0 0 71 73;" xml:space="preserve">
<style type="text/css">
	.st0{fill:#1C284C;}
	.st1{clip-path:url(#SVGID_00000088819230965927315480000013899910857912862359_);}
	.st2{fill:#CBF000;}
</style>
<path class="st0" d="M0.4,35.3c0-19.4,15.7-35.1,35.1-35.1s35.1,15.7,35.1,35.1v1.2c0,20-16.2,36.3-36.3,36.3H0.4V35.3z"/>
<g>
	<defs>
		<rect id="SVGID_1_" x="17.6" y="19.8" width="35.9" height="33.5"/>
	</defs>
	<clipPath id="SVGID_00000029045673481232771880000005926481503295409805_">
		<use xlink:href="#SVGID_1_"  style="overflow:visible;"/>
	</clipPath>
	<g style="clip-path:url(#SVGID_00000029045673481232771880000005926481503295409805_);">
		<path class="st2" d="M53.4,38.7V52c-0.3,0.9-0.9,1.2-1.9,1.2c-3.9,0-7.9,0-11.8,0c-0.2,0-0.3,0-0.5,0c-0.8-0.1-1.3-0.7-1.3-1.7
			c0-4,0-7.9,0-11.9c0-1.8,0.1-3.6,0.3-5.4c0.4-2.6,1-5.2,2.3-7.5c2.4-4.4,6-6.8,11-7c1.1,0,1.5,0.2,1.9,1.2v6.6
			c-0.3,0.8-0.9,1.2-1.7,1.2c-1.1,0-1.9,0.6-2.6,1.4c-0.7,0.9-1,1.9-1.3,3c-0.3,1.4-0.5,2.9-0.5,4.4h0.4c1.3,0,2.7,0,4,0
			c0.6,0,1.1,0.2,1.4,0.7C53.3,38.4,53.4,38.6,53.4,38.7z"/>
		<path class="st2" d="M17.6,52V37.7c0-0.2,0-0.3,0.1-0.5c0.1-2,0.4-4.1,0.9-6.1c0.7-2.8,1.9-5.4,3.9-7.5c2.5-2.6,5.6-3.8,9.2-3.8
			c0.8,0,1.4,0.6,1.4,1.4c0,0.2,0,0.4,0,0.6c0,1.8,0,3.6,0,5.3c0,1-0.5,1.5-1.5,1.6c-0.4,0-0.8,0.1-1.2,0.2
			c-1.1,0.4-1.7,1.2-2.2,2.1c-0.7,1.3-0.9,2.8-1.1,4.2c-0.1,0.8-0.1,1.5-0.2,2.3h0.5c1.4,0,2.7,0,4.1,0c1,0,1.6,0.6,1.6,1.6
			c0,4.1,0,8.3,0,12.4c0,0.4-0.1,0.8-0.4,1.1c-0.4,0.4-0.8,0.5-1.3,0.5c-4,0-7.9,0-11.9,0C18.5,53.2,17.9,52.9,17.6,52z"/>
	</g>
</g>
</svg>
