<svg width="18" height="17" viewBox="0 0 18 17" fill="none" xmlns="http://www.w3.org/2000/svg">
<path d="M8.40987 0C8.80517 0 9.20125 0 9.59654 0C9.85489 0.0342384 10.1148 0.0599173 10.3716 0.104272C11.8773 0.364951 13.2188 0.98202 14.3736 1.98583C15.8396 3.25965 16.7578 4.85252 17.1041 6.76831C17.1562 7.05545 17.1897 7.34648 17.2317 7.63595V8.79072C17.2208 8.84207 17.2076 8.89343 17.1998 8.94557C17.1632 9.21481 17.1438 9.48794 17.0901 9.75406C16.6878 11.7648 15.6941 13.4261 14.0724 14.6821C12.057 16.243 9.77552 16.7574 7.28312 16.2391C5.3432 15.8361 3.75889 14.8229 2.54421 13.2619C1.12253 11.4356 0.581721 9.35409 0.883642 7.06557C1.09141 5.49371 1.72793 4.09772 2.76209 2.89393C4.04369 1.40222 5.65212 0.471557 7.59126 0.125282C7.86283 0.0762583 8.13674 0.0412417 8.40987 0ZM4.33472 8.21411C4.32616 8.21411 4.31682 8.21411 4.30826 8.21411C4.30826 8.61485 4.29659 9.01638 4.31138 9.41712C4.32772 9.85989 4.33161 10.3073 4.40553 10.7415C4.57517 11.7399 5.14088 12.4231 6.11979 12.7414C6.57889 12.8908 7.05434 12.911 7.52901 12.9087C8.79505 12.9024 10.0634 12.9211 11.3264 12.8526C12.2796 12.8013 13.0095 12.3118 13.4297 11.424C13.6079 11.0473 13.6896 10.6411 13.6974 10.2295C13.7176 9.12298 13.7269 8.01646 13.7223 6.91072C13.7207 6.50608 13.7005 6.096 13.6336 5.69836C13.4655 4.69222 12.9021 4.00356 11.9162 3.68374C11.4625 3.53667 10.9925 3.51489 10.5225 3.51722C9.25105 3.52422 7.97956 3.52889 6.70884 3.56702C6.20149 3.58258 5.73071 3.77245 5.32219 4.09071C4.62575 4.63308 4.3674 5.38399 4.33783 6.22672C4.31449 6.88893 4.33316 7.55191 4.33316 8.21489L4.33472 8.21411Z" fill="#CBF000"/>
<path d="M5.125 8.21042C5.15068 7.47429 5.16079 6.74128 5.20593 6.01138C5.26195 5.09861 5.90159 4.43875 6.81202 4.40451C8.00258 4.36015 9.1947 4.35938 10.386 4.35938C10.7681 4.35938 11.1587 4.38116 11.5307 4.46209C12.3088 4.63095 12.8014 5.20444 12.8294 6.00204C12.8707 7.18171 12.8753 8.36372 12.8753 9.54416C12.8753 9.93713 12.8551 10.3386 12.7726 10.7207C12.6053 11.4981 12.0272 11.9961 11.2342 12.0233C10.0437 12.0646 8.85154 12.0685 7.6602 12.0685C7.27268 12.0685 6.87739 12.0451 6.49998 11.9634C5.73195 11.7977 5.25339 11.2218 5.20671 10.4328C5.16235 9.69201 5.15068 8.94888 5.125 8.20964V8.21042ZM9.01962 10.6266C10.3611 10.6266 11.4303 9.55817 11.4311 8.21665C11.4327 6.87434 10.3666 5.80439 9.02585 5.80128C7.67654 5.79817 6.60426 6.86967 6.60581 8.21898C6.60815 9.55973 7.6781 10.6273 9.01962 10.6266ZM11.533 6.25805C11.8388 6.25961 12.0949 6.00904 12.0987 5.70323C12.1026 5.39275 11.842 5.1313 11.5315 5.13363C11.2257 5.13596 10.9743 5.39042 10.9751 5.69701C10.9751 6.0036 11.2264 6.2565 11.533 6.25805Z" fill="#CBF000"/>
<path d="M9.02146 9.78434C8.14293 9.78434 7.44649 9.08634 7.44727 8.20626C7.44804 7.33784 8.14682 6.64062 9.01679 6.64062C9.89609 6.64062 10.5918 7.33784 10.5902 8.21793C10.5894 9.08712 9.89142 9.78356 9.02068 9.78356L9.02146 9.78434Z" fill="#CBF000"/>
</svg>
