<svg width="36" height="48" viewBox="0 0 36 48" fill="none" xmlns="http://www.w3.org/2000/svg">
<path d="M3.34208 41.7556L17.7524 47.2763C17.9054 47.3393 18.0745 47.3393 18.2279 47.2763L32.6382 41.7556H32.6378C32.926 41.6453 33.1194 41.3486 33.1209 41.0144V33.317L35.5417 32.2839C35.7305 32.2033 35.8796 32.0393 35.9522 31.8323C36.0247 31.6249 36.0144 31.394 35.9236 31.1955L33.0415 24.8862C32.9646 24.7007 32.8213 24.5582 32.6454 24.4921L24.4746 21.3687V21.2979H30.9592C31.2284 21.2963 31.4744 21.1312 31.5971 20.869C31.7197 20.6068 31.699 20.2917 31.5427 20.0519L24.4746 9.21583V7.75694C24.4739 7.12961 24.2458 6.52847 23.8403 6.08505L18.5013 0.233242C18.3661 0.0837457 18.182 0 17.99 0C17.7976 0 17.6135 0.0837497 17.4784 0.233242L12.1393 6.08505C11.7339 6.52845 11.5057 7.12958 11.505 7.75694V9.21583L4.4369 20.0519C4.28066 20.2917 4.25992 20.6068 4.38256 20.869C4.50555 21.1312 4.75153 21.2963 5.0204 21.2979H11.505V21.3687L3.34149 24.5234H3.34185C3.16594 24.5899 3.02257 24.7323 2.94534 24.9178L0.0632839 31.2272C-0.0210946 31.4326 -0.0210946 31.6682 0.0632839 31.8737C0.139797 32.0835 0.294605 32.247 0.48839 32.3234L2.85917 33.2618V41.0144C2.86024 41.3486 3.05367 41.6453 3.34184 41.7556L3.34208 41.7556ZM24.4752 11.9285L29.5618 19.7202H24.4752V11.9285ZM17.2698 45.4224L4.30012 40.4538V33.8369L14.1349 37.7801C14.4567 37.912 14.8185 37.7766 14.9994 37.4568L17.269 33.5136L17.2698 45.4224ZM17.9902 29.9258L16.5493 29.3736V27.607H19.4314V29.3736L17.9902 29.9258ZM15.1085 26.0295V25.2409H20.8727V26.0295H15.1085ZM31.6798 40.4541L18.7101 45.4227V33.127L21.7363 37.5433V37.5437C21.8721 37.7421 22.0859 37.8591 22.3126 37.8591C22.4016 37.8599 22.49 37.8411 22.5722 37.804L31.6793 33.9159L31.6798 40.4541ZM34.288 31.1322L22.5577 36.1164L19.1568 31.1478L32.0395 26.211L34.288 31.1322ZM24.4752 24.4523V23.0406L30.2394 25.2408L20.8723 28.8212V27.6069H21.5928C21.7837 27.6069 21.9671 27.5235 22.1022 27.376C22.2374 27.228 22.3132 27.0273 22.3132 26.8183V25.2408H23.7544C23.9453 25.2408 24.1287 25.1578 24.2639 25.0099C24.3987 24.862 24.4748 24.6612 24.4748 24.4522L24.4752 24.4523ZM17.9905 1.9046L22.0182 6.31315H13.9625L17.9905 1.9046ZM12.9469 7.89066H23.0342V20.509H12.9469V7.89066ZM12.9469 22.0869H23.0342V23.664L12.9469 23.6644V22.0869ZM6.41902 19.7208L11.5056 11.9291V19.7208H6.41902ZM11.5056 23.0414V24.4531C11.5056 24.662 11.5818 24.8628 11.7169 25.0107C11.8521 25.1587 12.0352 25.2416 12.2264 25.2416H13.6673V26.8191C13.6673 27.0281 13.7434 27.2289 13.8782 27.3768C14.0134 27.5243 14.1968 27.6077 14.3877 27.6077H15.1081V28.822L5.742 25.2416L11.5056 23.0414ZM1.69924 31.1173L3.93987 26.2117L16.9095 31.1803L14.0922 36.1093L3.83269 31.9688L1.69924 31.1173Z" fill="#1C284C"/>
<path d="M17.9901 10.2539C17.0344 10.2539 16.118 10.6691 15.4426 11.4087C14.7669 12.148 14.3872 13.1511 14.3872 14.1971C14.3872 15.2428 14.7669 16.2458 15.4426 16.9854C16.118 17.7247 17.0344 18.1403 17.9901 18.1403C18.9454 18.1403 19.8617 17.7247 20.5375 16.9854C21.2129 16.2458 21.5925 15.2427 21.5925 14.1971C21.5925 13.1511 21.2128 12.148 20.5375 11.4087C19.8617 10.6691 18.9453 10.2539 17.9901 10.2539ZM17.9901 16.5629C17.4166 16.5629 16.8667 16.314 16.4616 15.8702C16.0562 15.4264 15.8284 14.8245 15.8284 14.1972C15.8284 13.5695 16.0562 12.9679 16.4616 12.5242C16.8667 12.0804 17.4166 11.8311 17.9901 11.8311C18.5632 11.8311 19.1131 12.0804 19.5185 12.5242C19.9236 12.968 20.1513 13.5695 20.1513 14.1972C20.1513 14.8245 19.9236 15.4265 19.5185 15.8702C19.1131 16.314 18.5631 16.5629 17.9901 16.5629Z" fill="#1C284C"/>
<path d="M5.7417 6.3125H7.18255V7.88961H5.7417V6.3125Z" fill="#1C284C"/>
<path d="M5.7417 9.47266H7.18255V11.0498H5.7417V9.47266Z" fill="#1C284C"/>
<path d="M7.18213 7.89062H8.62297V9.46774H7.18213V7.89062Z" fill="#1C284C"/>
<path d="M4.30029 7.89062H5.74114V9.46774H4.30029V7.89062Z" fill="#1C284C"/>
<path d="M28.7983 6.3125H30.2392V7.88961H28.7983V6.3125Z" fill="#1C284C"/>
<path d="M28.7983 9.47266H30.2392V11.0498H28.7983V9.47266Z" fill="#1C284C"/>
<path d="M30.2397 7.89062H31.6806V9.46774H30.2397V7.89062Z" fill="#1C284C"/>
<path d="M27.3569 7.89062H28.7978V9.46774H27.3569V7.89062Z" fill="#1C284C"/>
<path d="M5.7417 12.6211H7.18255V14.1982H5.7417V12.6211Z" fill="#1C284C"/>
<path d="M28.7983 12.6211H30.2392V14.1982H28.7983V12.6211Z" fill="#1C284C"/>
</svg>
