<?xml version="1.0" encoding="utf-8"?>
<!-- Generator: Adobe Illustrator 27.4.0, SVG Export Plug-In . SVG Version: 6.00 Build 0)  -->
<svg version="1.1" id="Capa_1" xmlns="http://www.w3.org/2000/svg" xmlns:xlink="http://www.w3.org/1999/xlink" x="0px" y="0px"
	 viewBox="0 0 11.5 17" style="enable-background:new 0 0 11.5 17;" xml:space="preserve">
<style type="text/css">
	.st0{fill:#1C284C;}
</style>
<path class="st0" d="M5.7,0.3C2.6,0.3,0,2.9,0,6c0,4.3,5.7,10.7,5.7,10.7s5.7-6.4,5.7-10.7C11.5,2.9,8.9,0.3,5.7,0.3z M1.6,6
	c0-2.3,1.8-4.1,4.1-4.1S9.8,3.8,9.8,6c0,2.4-2.4,5.9-4.1,8.1C4,12,1.6,8.4,1.6,6z"/>
<path class="st0" d="M5.7,8.4c1.1,0,2.1-0.9,2.1-2.1c0-1.1-0.9-2.1-2.1-2.1S3.7,5.2,3.7,6.3C3.7,7.5,4.6,8.4,5.7,8.4z"/>
</svg>
