<svg width="40" height="37" viewBox="0 0 40 37" fill="none" xmlns="http://www.w3.org/2000/svg">
<g id="&#240;&#159;&#166;&#134; icon &#34;location on&#34;">
<path id="Vector" d="M19.9997 3.02344C13.5497 3.02344 8.33301 7.75104 8.33301 13.5964C8.33301 21.526 19.9997 33.2318 19.9997 33.2318C19.9997 33.2318 31.6663 21.526 31.6663 13.5964C31.6663 7.75104 26.4497 3.02344 19.9997 3.02344ZM11.6663 13.5964C11.6663 9.4276 15.3997 6.04427 19.9997 6.04427C24.5997 6.04427 28.333 9.4276 28.333 13.5964C28.333 17.9464 23.533 24.4562 19.9997 28.5193C16.533 24.4865 11.6663 17.901 11.6663 13.5964Z" fill="#1C284C"/>
<path id="Vector_2" d="M20.0007 17.3724C22.3018 17.3724 24.1673 15.6818 24.1673 13.5964C24.1673 11.5109 22.3018 9.82031 20.0007 9.82031C17.6995 9.82031 15.834 11.5109 15.834 13.5964C15.834 15.6818 17.6995 17.3724 20.0007 17.3724Z" fill="#1C284C"/>
</g>
</svg>
