<svg xmlns="http://www.w3.org/2000/svg" width="13" height="16" fill="none" viewBox="0 0 13 16">
  <path fill="#fff" d="M6.624.501C3.406.501.804 2.85.804 5.751c0 3.938 5.82 9.75 5.82 9.75s5.82-5.812 5.82-9.75c0-2.902-2.603-5.25-5.82-5.25Zm-4.158 5.25c0-2.07 1.863-3.75 4.158-3.75 2.294 0 4.157 1.68 4.157 3.75 0 2.16-2.395 5.393-4.157 7.41-1.73-2.002-4.158-5.272-4.158-7.41Z"/>
  <path fill="#fff" d="M6.624 7.626c1.148 0 2.079-.84 2.079-1.875 0-1.035-.931-1.875-2.079-1.875-1.148 0-2.079.84-2.079 1.875 0 1.036.931 1.875 2.079 1.875Z"/>
</svg>
