<svg width="22" height="29" viewBox="0 0 22 29" fill="none" xmlns="http://www.w3.org/2000/svg">
<g id="ubicaci&#195;&#179;n 1" clip-path="url(#clip0_105_1949)">
<g id="&#240;&#159;&#166;&#134; icon &#34;location on&#34;">
<path id="Vector" d="M11.0003 2.41797C5.84033 2.41797 1.66699 6.20005 1.66699 10.8763C1.66699 17.2201 11.0003 26.5846 11.0003 26.5846C11.0003 26.5846 20.3337 17.2201 20.3337 10.8763C20.3337 6.20005 16.1603 2.41797 11.0003 2.41797ZM4.33366 10.8763C4.33366 7.5413 7.32033 4.83464 11.0003 4.83464C14.6803 4.83464 17.667 7.5413 17.667 10.8763C17.667 14.3563 13.827 19.5642 11.0003 22.8146C8.22699 19.5884 4.33366 14.3201 4.33366 10.8763Z" fill="#CBF000"/>
<path id="Vector_2" d="M11.0003 13.8971C12.8413 13.8971 14.3337 12.5447 14.3337 10.8763C14.3337 9.20794 12.8413 7.85547 11.0003 7.85547C9.15938 7.85547 7.66699 9.20794 7.66699 10.8763C7.66699 12.5447 9.15938 13.8971 11.0003 13.8971Z" fill="#CBF000"/>
</g>
</g>
<defs>
<clipPath id="clip0_105_1949">
<rect width="22" height="29" fill="white"/>
</clipPath>
</defs>
</svg>
