<svg width="72" height="72" viewBox="0 0 72 72" fill="none" xmlns="http://www.w3.org/2000/svg">
<path d="M31.4647 18.3867L21.7433 2.18531C21.3436 1.51883 20.7781 0.967245 20.1019 0.584274C19.4256 0.201304 18.6617 9.54177e-06 17.8846 0H2.25412C0.433023 0 -0.632914 2.04891 0.410523 3.54094L16.0579 25.8947C20.2372 21.9895 25.5529 19.3092 31.4647 18.3867ZM69.7457 0H54.1152C52.5346 0 51.0693 0.829687 50.2565 2.18531L40.5351 18.3867C46.4469 19.3092 51.7626 21.9895 55.9419 25.8933L71.5893 3.54094C72.6327 2.04891 71.5668 0 69.7457 0ZM35.9999 22.5C22.3312 22.5 11.2499 33.5812 11.2499 47.25C11.2499 60.9188 22.3312 72 35.9999 72C49.6686 72 60.7499 60.9188 60.7499 47.25C60.7499 33.5812 49.6686 22.5 35.9999 22.5ZM49.0105 44.6147L43.6766 49.8122L44.938 57.1556C45.163 58.4719 43.7765 59.4773 42.5966 58.8558L35.9999 55.3894L29.4046 58.8558C28.2233 59.4816 26.8382 58.4705 27.0632 57.1556L28.3246 49.8122L22.9907 44.6147C22.0316 43.6809 22.5618 42.0511 23.8836 41.8598L31.2566 40.7855L34.5515 34.103C34.8482 33.5011 35.4219 33.2044 35.9971 33.2044C36.5751 33.2044 37.153 33.5053 37.4497 34.103L40.7446 40.7855L48.1176 41.8598C49.4394 42.0511 49.9696 43.6809 49.0105 44.6147Z" fill="#CBF000"/>
</svg>
