<svg width="193" height="59" viewBox="0 0 193 59" fill="none" xmlns="http://www.w3.org/2000/svg">
<path d="M1 30C1 13.9837 13.9837 1 30 1H193V29C193 45.5685 179.569 59 163 59H30C13.9837 59 1 46.0163 1 30Z" fill="#1C284C"/>
<path d="M98.31 41H94.644L93.89 27.87L88.014 41H85.986L80.11 27.922L79.356 41H75.69L76.99 21.656H81.02L87 34.994L92.98 21.656H97.01L98.31 41ZM103.588 24.698C102.366 24.698 101.482 23.84 101.482 22.618C101.482 21.396 102.366 20.512 103.588 20.512C104.81 20.512 105.668 21.396 105.668 22.618C105.668 23.84 104.81 24.698 103.588 24.698ZM101.82 41V26.986H105.356V41H101.82ZM113.608 41.26C111.476 41.26 109.578 40.714 108.304 39.596L109.63 37.464C110.956 38.244 112.282 38.504 113.66 38.504C114.96 38.504 115.844 37.958 115.844 37.1C115.844 36.242 114.856 35.774 113.452 35.41L112.282 35.098C109.916 34.474 108.304 33.564 108.304 31.354C108.304 28.572 110.488 26.726 113.816 26.726C115.922 26.726 117.716 27.168 119.094 28.104L117.612 30.418C116.494 29.794 115.298 29.508 114.05 29.508C112.776 29.508 111.892 29.976 111.892 30.782C111.892 31.614 112.776 32.004 113.998 32.316L115.168 32.654C117.56 33.278 119.458 34.37 119.458 36.84C119.458 39.492 117.118 41.26 113.608 41.26ZM124.104 24.698C122.882 24.698 121.998 23.84 121.998 22.618C121.998 21.396 122.882 20.512 124.104 20.512C125.326 20.512 126.184 21.396 126.184 22.618C126.184 23.84 125.326 24.698 124.104 24.698ZM122.336 41V26.986H125.872V41H122.336ZM133.968 24.932L137.504 20.746H141.612L136.984 24.932H133.968ZM136.178 41.26C131.68 41.26 128.664 38.348 128.664 33.98C128.664 29.638 131.68 26.726 136.178 26.726C140.65 26.726 143.666 29.638 143.666 33.98C143.666 38.348 140.65 41.26 136.178 41.26ZM136.178 38.218C138.466 38.218 140 36.528 140 33.98C140 31.432 138.466 29.742 136.178 29.742C133.864 29.742 132.33 31.432 132.33 33.98C132.33 36.528 133.864 38.218 136.178 38.218ZM154.49 26.726C157.844 26.726 160.08 28.91 160.08 32.186V41H156.544V32.758C156.544 30.938 155.244 29.742 153.268 29.742C151.292 29.742 149.992 30.938 149.992 32.758V41H146.456V26.986H149.862L149.914 28.754C150.98 27.428 152.618 26.726 154.49 26.726Z" fill="white"/>
<circle cx="29.5" cy="29.5" r="29.5" fill="#CBF000"/>
<path d="M26.993 19.7099C27.7249 19.7099 28.4135 19.4176 28.9301 18.8781C29.4468 18.3385 29.7266 17.6193 29.7266 16.8549C29.7266 16.0906 29.4468 15.3714 28.9301 14.8318C28.4135 14.2922 27.7249 14 26.993 14C25.4863 14 24.2598 15.2813 24.2598 16.8546C24.2598 18.4288 25.4866 19.7099 26.993 19.7099Z" fill="#1C284C"/>
<path d="M43.9954 15.0574C43.9094 14.9677 43.8018 14.9225 43.694 14.9225H37.6032V14.473C37.6032 14.2256 37.4096 14.0234 37.1728 14.0234C36.9359 14.0234 36.7424 14.2256 36.7424 14.473V22.5433L33.5141 23.5773L31.8998 21.5093C31.4908 20.9697 30.8451 20.6326 30.1565 20.6326H23.7426C23.1184 20.6326 22.5374 20.9248 22.1716 21.4193L19.9544 24.3863C19.9328 24.4089 19.9328 24.4312 19.9114 24.4538C19.7179 24.7909 19.6962 25.1955 19.8468 25.5775C19.8468 25.6001 19.8468 25.6001 19.8685 25.6224L21.7626 29.3764C22.0207 30.0058 22.731 30.3207 23.3768 30.0959V43.4482C23.3768 44.3698 24.1087 45.1342 25.0125 45.1342C25.9166 45.1342 26.6482 44.3924 26.6482 43.4482V32.6808C26.6482 32.591 26.6912 32.5009 26.7341 32.4335C26.7771 32.366 26.8847 32.3437 26.971 32.3437C27.1432 32.3437 27.2938 32.5009 27.2938 32.6808V43.4482C27.2938 44.3698 28.0256 45.1342 28.9295 45.1342C29.8335 45.1342 30.5651 44.3924 30.5651 43.4482V24.0715L32.2224 26.0946C32.244 26.1172 32.244 26.1395 32.2654 26.1395C32.4806 26.3417 32.7604 26.4543 33.0618 26.4543C33.1478 26.4543 33.234 26.4543 33.2986 26.4317H33.3416L36.6992 25.3978V39.8745C36.6992 40.1218 36.8927 40.324 37.1296 40.324C37.3664 40.324 37.56 40.1218 37.56 39.8745V20.1608H43.6508C43.8876 20.1608 44.0812 19.9586 44.0812 19.7112V15.4403C44.1247 15.2604 44.0814 15.148 43.9955 15.058L43.9954 15.0574ZM23.3763 26.8364L22.5154 25.1504L23.3763 24.0489V26.8364Z" fill="#1C284C"/>
<path d="M28.973 46.2093C28.1982 46.2093 27.4879 45.8721 26.9929 45.3326C26.4979 45.8722 25.7877 46.2093 25.0128 46.2093C23.5061 46.2093 22.3009 44.9505 22.3009 43.3995V39.3533L18.0609 47.041C17.8887 47.3333 18.1039 47.7153 18.4267 47.7153L35.5804 47.7156C35.9032 47.7156 36.1184 47.3335 35.9462 47.0413L31.6632 39.3086V43.3997C31.6846 44.9508 30.458 46.2095 28.9727 46.2095L28.973 46.2093Z" fill="#1C284C"/>
</svg>
