<svg width="87" height="85" viewBox="0 0 87 85" fill="none" xmlns="http://www.w3.org/2000/svg">
<g clip-path="url(#clip0_7_8428)">
<path fill-rule="evenodd" clip-rule="evenodd" d="M81.3104 36H75.7979V41.5385H81.3104V36Z" fill="#CBF000"/>
<path fill-rule="evenodd" clip-rule="evenodd" d="M81.3365 52.5655V44.9197C83.2413 44.5735 84.9634 43.5633 86.1996 42.0671C87.4358 40.5706 88.107 38.6839 88.0948 36.7394C88.0885 35.6527 87.8658 34.5785 87.4397 33.5797C87.0136 32.5811 86.3931 31.6781 85.6142 30.924L56.7864 2.38155C55.2365 0.851498 53.1492 -0.00402881 50.9761 1.42652e-05L50.9624 0.0138607C48.7998 0.0104546 46.7221 0.858448 45.1742 2.37599L41.6847 5.81537C41.0864 4.88228 40.2647 4.11462 39.2951 3.58251C38.3254 3.05043 37.2386 2.77082 36.1336 2.76925H30.0974C28.3342 2.77362 26.6447 3.48047 25.3994 4.73468C24.1542 5.98892 23.4549 7.68815 23.4549 9.45968V23.8597L16.2252 31.0154C15.1445 32.0865 14.3807 33.4376 14.0185 34.9186C13.6563 36.3996 13.7099 37.9523 14.1734 39.4048C14.637 40.8569 15.4922 42.1516 16.6441 43.1446C17.7961 44.1379 19.1996 44.7906 20.6986 45.0305V66.4615H17.9423V47.1245C16.8201 46.6768 15.7739 46.0437 14.8492 45.2462C13.3104 43.9197 12.168 42.1903 11.5488 40.2505C10.9296 38.3106 10.858 36.2362 11.3418 34.2579C11.8256 32.2795 12.8473 30.4734 14.2908 29.0429L20.6986 22.7005V16.617C15.6999 16.7098 11.6683 20.8875 11.6683 26.0183H11.4439C6.84388 26.0183 3.08537 29.831 3.08537 34.5611V36.3096C3.08537 38.0584 3.6183 39.6925 4.48779 41.0685C1.82317 42.645 0 45.5979 0 49.0093C0 54.0545 4.01095 58.1538 8.94755 58.1538H13.7814V66.4615C10.7495 66.4615 8.26882 68.9538 8.26882 72H26.1979H26.2111H75.8239H75.8372H85.4444C85.4444 70.3241 84.7068 68.8292 83.5448 67.8162C84.0878 66.9774 84.5227 66.0661 84.8347 65.1046C85.2278 63.9443 85.4444 62.7045 85.4444 61.4232C85.4444 58.2087 84.1363 55.2838 82.0054 53.1723L81.9875 53.1548C81.7777 52.9507 81.5608 52.7541 81.3365 52.5655ZM37.2361 9.45968V15.2539L28.9673 23.446V9.45968C28.9659 9.30939 28.994 9.1603 29.05 9.02095C29.1062 8.8816 29.1892 8.75477 29.2942 8.64774C29.3992 8.54068 29.5241 8.45553 29.6622 8.39718C29.8 8.33883 29.948 8.30843 30.0974 8.30771H36.1336C36.2822 8.30757 36.4294 8.33762 36.5661 8.39605C36.7028 8.45445 36.8263 8.54005 36.9294 8.64763C37.0322 8.75524 37.1126 8.88263 37.1653 9.02217C37.2179 9.16174 37.2422 9.31056 37.2361 9.45968ZM26.2111 66.4615V36.6076L50.9704 12.0877L75.7975 36.6485V41.5385H75.8239V49.9998C75.217 49.899 74.5916 49.8461 73.9508 49.8461C73.1672 49.8461 72.402 49.9265 71.6631 50.0785V40.7512C71.6631 39.6626 70.7739 38.7692 69.6904 38.7692H59.8544C58.7709 38.7692 57.8817 39.6626 57.8817 40.7512V50.6334C57.8817 51.722 58.7709 52.6154 59.8544 52.6154H66.5163C65.336 53.627 64.36 54.8695 63.6586 56.2649C60.6396 57.2754 58.46 59.9522 57.9884 63.108C57.9443 63.3038 57.9203 63.5026 57.9167 63.702C57.8762 64.0277 57.8801 64.2846 57.8814 64.3722L57.8817 64.3962C57.8817 65.1115 57.9696 65.803 58.1339 66.4615H55.1254C55.1254 64.9418 54.1268 63.6923 52.9124 63.6923H52.3642V41.8769C52.3642 40.1566 51.104 38.7692 49.5415 38.7692H38.6542C37.0917 38.7692 35.8315 40.1566 35.8315 41.8769V63.6923H35.2883C34.0739 63.6923 33.0753 64.9418 33.0753 66.4615H26.2111ZM61.0222 66.4615C61.4616 67.5933 62.252 68.5457 63.2564 69.2031H78.0576V69.2308L78.1078 69.2039C79.1042 68.6647 79.9754 67.935 80.6794 67.0697C80.7249 67.0137 80.7698 66.957 80.8139 66.8999C81.001 66.6579 81.1755 66.4056 81.3365 66.1445C81.7044 65.5482 82.0018 64.9055 82.2196 64.2295C82.5228 63.3403 82.6881 62.3957 82.6881 61.4232C82.6881 59.701 82.1959 58.089 81.3365 56.7235C81.0209 56.2217 80.656 55.7535 80.2475 55.3251C80.189 55.2639 80.1298 55.2035 80.0697 55.1437C78.9019 54.0069 77.4543 53.1817 75.8239 52.8195C75.2228 52.686 74.5968 52.6154 73.9508 52.6154C70.5054 52.6154 67.5011 54.6715 66.0678 57.6166C65.7922 58.2281 65.241 58.6725 64.607 58.8669C62.5122 59.5337 60.9687 61.4232 60.6931 63.6737C60.6655 63.7294 60.6655 63.7848 60.6931 63.8405C60.638 64.0072 60.638 64.2016 60.638 64.3962C60.638 65.1276 60.7741 65.8232 61.0222 66.4615ZM48.2348 55.3846C48.9958 55.3846 49.6129 54.7646 49.6129 54C49.6129 53.2354 48.9958 52.6154 48.2348 52.6154C47.4737 52.6154 46.8566 53.2354 46.8566 54C46.8566 54.7646 47.4737 55.3846 48.2348 55.3846Z" fill="#CBF000"/>
</g>
<defs>
<clipPath id="clip0_7_8428">
<rect width="87" height="85" fill="white"/>
</clipPath>
</defs>
</svg>
