<svg xmlns="http://www.w3.org/2000/svg" width="21" height="25" fill="none" viewBox="0 0 21 25">
  <path fill="#CBF000" d="M13.533 2.45a2.45 2.45 0 1 1 4.9 0 2.45 2.45 0 0 1-4.9 0Zm-1.008 3.712-.16.114-2.439 1.921-2.576-2.13a1.09 1.09 0 0 0-.696-.255H1.887A1.888 1.888 0 0 0 0 7.7v4.741a1.888 1.888 0 0 0 1.53 1.851v9.488a1.199 1.199 0 0 0 1.043 1.214 1.163 1.163 0 0 0 1.276-1.158V17.05a.441.441 0 0 1 .354-.444.426.426 0 0 1 .51.42v6.755a1.198 1.198 0 0 0 1.04 1.213 1.163 1.163 0 0 0 1.276-1.157V8.649l2.183 1.808a1.096 1.096 0 0 0 1.377.015l1.12-.882v2.851a1.888 1.888 0 0 0 1.53 1.852v9.488a1.198 1.198 0 0 0 1.04 1.213 1.162 1.162 0 0 0 1.276-1.157V17.05a.44.44 0 0 1 .354-.444.684.684 0 0 1 .143 0c.21.042.36.23.355.444v6.73a1.2 1.2 0 0 0 1.053 1.214 1.162 1.162 0 0 0 1.275-1.157v-9.554a1.887 1.887 0 0 0 1.53-1.852V7.705a1.888 1.888 0 0 0-1.887-1.887h-4.782c-.275 0-.547.061-.796.178a1.811 1.811 0 0 0-.275.166Zm-8.26-1.26a2.451 2.451 0 1 0 0-4.903 2.451 2.451 0 0 0 0 4.903Z"/>
</svg>
