<svg xmlns="http://www.w3.org/2000/svg" width="28" height="21" fill="none" viewBox="0 0 28 21">
  <mask id="a" width="28" height="21" x="0" y="0" maskUnits="userSpaceOnUse" style="mask-type:luminance">
    <path fill="#fff" d="M0 0h27.552v21H0V0Z"/>
  </mask>
  <g mask="url(#a)">
    <path fill="#CBF000" d="M15.357 8.582a1.558 1.558 0 1 1-3.116 0 1.558 1.558 0 0 1 3.116 0Zm-7.46-3.49H4.84c-1.716 0-2.298 1.224-3.16 3.006L.1 11.358a.966.966 0 0 0 .447 1.293.972.972 0 0 0 1.299-.446l2.187-4.224v11.95a1.052 1.052 0 1 0 2.105 0v-6.126h.47v6.135a1.052 1.052 0 0 0 2.105 0V7.98l1.815 3.635c.363-.7.762-1.303 1.439-1.544l-.908-1.973c-.862-1.783-1.443-3.006-3.16-3.006ZM6.369 4.69a2.34 2.34 0 1 0 0-4.682 2.34 2.34 0 0 0 0 4.682Zm21.086 6.669-1.581-3.26c-.863-1.783-1.443-3.006-3.16-3.006h-3.058c-1.717 0-2.298 1.224-3.16 3.006l-.961 1.975c.687.227 1.091.707 1.456 1.4l1.857-3.492-1.063 5.397.49.979a1.137 1.137 0 0 1-1.114 1.565h1.687v4.01a1.053 1.053 0 0 0 2.104 0v-4.01h.471v4.018a1.053 1.053 0 0 0 2.105 0v-4.018h1.639l-1.64-7.941 2.181 4.225a.972.972 0 0 0 1.747-.848Zm-6.27-6.669a2.34 2.34 0 1 0 0-4.681 2.34 2.34 0 0 0 0 4.681Zm-4.263 7.72c-.574-1.186-.96-2-2.104-2h-2.035c-1.143 0-1.53.815-2.103 2l-1.053 2.17a.641.641 0 0 0 .298.862c.325.154.752-.068.864-.297l1.456-2.812-.915 4.718h.915v3.237a.7.7 0 0 0 1.401 0V17.05h.314v3.242a.7.7 0 1 0 1.4 0V17.05h.97l-.97-4.718 1.452 2.812c.156.297.509.469.865.296a.643.643 0 0 0 .298-.86l-1.053-2.17Z"/>
  </g>
</svg>
