<svg xmlns="http://www.w3.org/2000/svg" width="20" height="18" fill="none" viewBox="0 0 20 18">
  <path fill="#fff" d="m1.446 10.967 1.028 1.023 2.245 2.234 2.252 2.242c.349.347.694.698 1.046 1.041.434.422 1.099.61 1.683.417.275-.092.513-.235.718-.44.123-.12.244-.241.366-.363l1.736-1.728 4.597-4.576 1.222-1.216c.44-.439.712-1.018.691-1.649-.007-.215-.018-.43-.028-.645l-.134-3.128c-.032-.735-.06-1.47-.094-2.206a1.784 1.784 0 0 0-.522-1.214 1.814 1.814 0 0 0-1.205-.503c-.245-.011-.49-.02-.737-.032L13.123.09c-.694-.03-1.387-.063-2.08-.088-.632-.02-1.217.25-1.658.689L7.12 2.945l-2.4 2.388c-.716.722-1.434 1.437-2.154 2.152L1.469 8.577a1.8 1.8 0 0 0-.422.666c-.111.29-.106.606-.051.908.056.306.236.597.45.816.276.282.794.297 1.067 0a.763.763 0 0 0 0-1.062 1 1 0 0 1-.073-.082l.119.152a.983.983 0 0 1-.123-.205l.076.18a.957.957 0 0 1-.068-.25c.01.067.019.134.026.2a.945.945 0 0 1 0-.231c-.01.066-.019.133-.026.199a.967.967 0 0 1 .068-.25l-.076.18c.034-.073.074-.14.123-.204l-.12.152c.084-.101.182-.19.274-.282l.579-.575 1.928-1.92 2.337-2.326 1.998-1.989.944-.94a1.6 1.6 0 0 1 .146-.127l-.153.118c.096-.073.2-.133.311-.18l-.18.075c.12-.05.244-.085.374-.101l-.2.026c.255-.03.52.002.775.011l1.444.062 3.32.14c.272.012.557.005.829.042a7.037 7.037 0 0 0-.2-.026c.085.013.164.036.243.067l-.181-.075c.077.034.147.075.215.124l-.153-.118c.072.056.136.118.19.19l-.118-.153c.049.068.09.137.124.214l-.075-.18c.032.079.054.16.067.242a6.766 6.766 0 0 1-.026-.199c.03.224.025.456.034.68l.062 1.461c.047 1.094.095 2.19.14 3.283.013.299.053.616.019.914.01-.066.018-.133.026-.199a1.59 1.59 0 0 1-.102.374l.076-.18c-.05.11-.11.211-.181.309l.119-.152c-.093.118-.206.221-.311.327l-6.833 6.8c-.32.32-.639.64-.961.957-.03.029-.06.057-.093.083l.153-.118a.992.992 0 0 1-.206.122l.181-.075a.97.97 0 0 1-.25.067 6.83 6.83 0 0 1 .2-.026.956.956 0 0 1-.232 0c.066.01.133.019.2.026a.976.976 0 0 1-.251-.067l.18.075a1.073 1.073 0 0 1-.205-.122l.153.118c-.087-.071-.164-.154-.243-.233l-.468-.465-1.562-1.555-1.912-1.903-1.65-1.643c-.268-.267-.532-.539-.806-.801l-.01-.012c-.28-.277-.793-.298-1.068 0-.279.295-.301.76-.004 1.056Z"/>
  <path fill="#fff" d="M14.438 3.164a1.03 1.03 0 0 0-.294.706c-.002.262.11.52.294.705a1.016 1.016 0 0 0 1.416 0 1.005 1.005 0 0 0 0-1.409 1.012 1.012 0 0 0-.709-.292c-.27 0-.509.11-.707.29a.757.757 0 0 0-.22.531.77.77 0 0 0 .22.531c.144.131.332.229.534.22a.82.82 0 0 0 .533-.22.18.18 0 0 1 .03-.026l-.152.118a.26.26 0 0 1 .05-.028l-.18.075a.3.3 0 0 1 .054-.015 7.03 7.03 0 0 1-.2.026.256.256 0 0 1 .076 0 7.074 7.074 0 0 0-.2-.026c.019.004.036.01.055.015l-.181-.075a.26.26 0 0 1 .05.028l-.152-.118c.023.017.04.035.057.056l-.12-.152a.288.288 0 0 1 .03.05c-.025-.06-.052-.12-.076-.18a.299.299 0 0 1 .015.055 6.766 6.766 0 0 1-.027-.199.249.249 0 0 1 0 .075c.01-.065.02-.133.027-.198l-.015.054.075-.18a.259.259 0 0 1-.028.05l.119-.151a.32.32 0 0 1-.057.056c.05-.04.102-.079.153-.118a.26.26 0 0 1-.051.028l.18-.075a.297.297 0 0 1-.054.015c.066-.01.134-.02.2-.027a.255.255 0 0 1-.075 0c.066.01.133.02.2.027-.02-.004-.037-.01-.055-.015l.18.075a.26.26 0 0 1-.05-.028l.152.118a.322.322 0 0 1-.056-.056l.119.151a.259.259 0 0 1-.029-.05l.076.18a.29.29 0 0 1-.015-.054l.026.198a.255.255 0 0 1 0-.075c-.01.066-.019.133-.026.2.003-.02.009-.036.015-.055l-.076.18a.259.259 0 0 1 .029-.05l-.12.151c.008-.011.018-.02.027-.03a.786.786 0 0 0 .22-.53.768.768 0 0 0-.22-.532c-.143-.131-.332-.229-.533-.22-.194.01-.396.074-.534.22Z"/>
</svg>
