<svg width="17" height="16" viewBox="0 0 17 16" fill="none" xmlns="http://www.w3.org/2000/svg">
<g id="&#240;&#159;&#166;&#134; icon &#34;tag&#34;">
<path id="Vector" d="M16.2441 7.87869V1.5C16.2441 0.671563 15.5726 0 14.7441 0H8.36545C7.96763 2.08024e-06 7.5861 0.158039 7.30479 0.439344L0.683476 7.06066C0.0976944 7.64644 0.0976944 8.59619 0.683476 9.18197L7.06217 15.5607C7.64795 16.1464 8.5977 16.1464 9.18348 15.5607L15.8048 8.93935C16.0861 8.65804 16.2441 8.27652 16.2441 7.87869ZM12.7441 2C13.5726 2 14.2441 2.67156 14.2441 3.5C14.2441 4.32844 13.5726 5 12.7441 5C11.9157 5 11.2441 4.32844 11.2441 3.5C11.2441 2.67156 11.9157 2 12.7441 2Z" fill="#CBF000"/>
</g>
</svg>
