<svg width="30" height="30" viewBox="0 0 30 30" fill="none" xmlns="http://www.w3.org/2000/svg">
<g id="Group">
<path id="Vector" d="M0.810146 18.2789L2.51418 19.9829C3.75547 21.2242 4.99701 22.4657 6.23837 23.7071C7.4829 24.9516 8.73042 26.1991 9.97495 27.4437C10.5534 28.0221 11.1256 28.6068 11.7103 29.179C12.4295 29.8826 13.5333 30.1951 14.5028 29.8732C14.9593 29.72 15.3533 29.4824 15.6942 29.1415C15.8975 28.9414 16.0976 28.7381 16.3007 28.535C17.2607 27.575 18.2205 26.6152 19.1805 25.6552L26.8071 18.0286C27.4826 17.3531 28.1579 16.6778 28.8334 16.0023C29.565 15.2707 30.0154 14.3045 29.9809 13.2538C29.9685 12.8944 29.9496 12.5378 29.934 12.1781C29.859 10.4396 29.787 8.70095 29.712 6.96559C29.6589 5.73993 29.612 4.51402 29.5556 3.28836C29.5211 2.52844 29.2398 1.80302 28.6894 1.26529C28.1452 0.733758 27.4449 0.461635 26.6914 0.427125C26.285 0.408256 25.8783 0.392616 25.4687 0.373997C23.7051 0.299021 21.9447 0.223798 20.181 0.148822C19.0304 0.0986733 17.8796 0.0425646 16.729 0.00185131C15.6816 -0.0326571 14.7121 0.41769 13.9805 1.14933L10.2218 4.90803C8.89608 6.23372 7.57007 7.55973 6.24114 8.88866C5.05343 10.0925 3.86203 11.2839 2.66745 12.4753L0.847683 14.2951C0.525689 14.6171 0.306724 14.9798 0.147309 15.4051C-0.0371463 15.8897 -0.0277153 16.415 0.0629012 16.9184C0.156498 17.4284 0.453629 17.9129 0.810146 18.2789C1.2667 18.7478 2.12672 18.7729 2.58006 18.2789C3.04281 17.7724 3.06789 17.0125 2.58006 16.509C2.53636 16.4653 2.49565 16.4184 2.45816 16.3715C2.5237 16.4559 2.58949 16.5403 2.65528 16.6247C2.5741 16.5184 2.50508 16.4057 2.45195 16.2838C2.49267 16.3839 2.53636 16.4839 2.57708 16.584C2.52073 16.4494 2.48324 16.3119 2.46462 16.1682C2.48026 16.2776 2.4959 16.3901 2.50831 16.4996C2.49267 16.3715 2.49267 16.2431 2.50831 16.115C2.49267 16.2245 2.47703 16.337 2.46462 16.4464C2.48349 16.3027 2.52098 16.1649 2.57708 16.0306C2.53637 16.1307 2.49267 16.2307 2.45195 16.3308C2.50831 16.2089 2.57385 16.0962 2.65528 15.9899C2.58974 16.0743 2.52395 16.1587 2.45816 16.2431C2.5957 16.0743 2.75831 15.9273 2.91148 15.7742C3.23049 15.4551 3.5525 15.1331 3.87148 14.8142C4.93774 13.7479 6.00406 12.6816 7.07032 11.6153C8.36176 10.3239 9.65624 9.0294 10.9477 7.73797C12.0514 6.63421 13.1584 5.52721 14.2622 4.42345C14.7843 3.90136 15.3067 3.37607 15.8287 2.85695C15.9037 2.78198 15.9851 2.70998 16.0695 2.64444C15.9851 2.70997 15.9007 2.77577 15.8163 2.84156C15.9757 2.71966 16.1477 2.61961 16.3322 2.54141C16.2321 2.58212 16.1321 2.62581 16.032 2.66653C16.2321 2.58213 16.4384 2.52577 16.6542 2.49772C16.5447 2.51336 16.4322 2.529 16.3227 2.54141C16.7448 2.49127 17.1857 2.54464 17.608 2.56028C18.4054 2.59479 19.2029 2.62905 20.0033 2.66356C21.8387 2.74176 23.6743 2.81996 25.5097 2.89816C25.963 2.91703 26.4352 2.90437 26.8856 2.96693C26.7761 2.95129 26.6636 2.93565 26.5541 2.92324C26.6949 2.94508 26.8262 2.98257 26.9576 3.0357C26.8575 2.99498 26.7575 2.95129 26.6574 2.91057C26.7855 2.96693 26.9012 3.0357 27.0139 3.11688C26.9295 3.05134 26.8451 2.98555 26.7607 2.91975C26.8796 3.0136 26.9859 3.11688 27.0765 3.23555C27.0109 3.15114 26.9451 3.06673 26.8793 2.98232C26.9605 3.09478 27.0295 3.21047 27.0857 3.33882C27.0449 3.23877 27.0012 3.13873 26.9605 3.03867C27.0137 3.17 27.0511 3.30456 27.073 3.4421C27.0573 3.33261 27.0417 3.22015 27.0293 3.11067C27.0794 3.48282 27.07 3.8706 27.0856 4.24252C27.1202 5.05558 27.1544 5.86864 27.1889 6.67845C27.2671 8.50146 27.3453 10.3276 27.4203 12.1507C27.4422 12.6479 27.5079 13.1762 27.4516 13.6735C27.4672 13.564 27.4829 13.4515 27.4953 13.3421C27.464 13.5578 27.4076 13.7641 27.3265 13.9642C27.3672 13.8642 27.4109 13.7641 27.4516 13.6641C27.3704 13.8485 27.2701 14.0173 27.1514 14.1799C27.217 14.0955 27.2828 14.0111 27.3486 13.9267C27.1954 14.1238 27.0077 14.2956 26.8327 14.4709L15.4977 25.8059C14.9661 26.3374 14.4376 26.8722 13.9028 27.4008C13.8527 27.4477 13.8028 27.4946 13.7496 27.5383C13.834 27.4728 13.9185 27.407 14.0029 27.3412C13.8966 27.4224 13.7839 27.4914 13.662 27.5445C13.7621 27.5038 13.8621 27.4601 13.9622 27.4194C13.8276 27.4757 13.6901 27.5132 13.5463 27.5318C13.6558 27.5162 13.7683 27.5006 13.8777 27.4881C13.7496 27.5038 13.6213 27.5038 13.4932 27.4881C13.6027 27.5038 13.7151 27.5194 13.8246 27.5318C13.6809 27.513 13.5431 27.4755 13.4088 27.4194C13.5088 27.4601 13.6089 27.5038 13.7089 27.5445C13.587 27.4881 13.4743 27.4226 13.3681 27.3412C13.4525 27.4067 13.5369 27.4725 13.6213 27.5383C13.4775 27.4194 13.3492 27.2818 13.2179 27.1505C12.9584 26.8911 12.6987 26.6314 12.4423 26.375L9.85021 23.7829C8.79336 22.726 7.7365 21.6692 6.6794 20.6121L3.94031 17.873C3.49617 17.4288 3.05848 16.9755 2.60515 16.5378C2.59894 16.5316 2.59273 16.5254 2.58628 16.5189C2.12352 16.0562 1.27298 16.0217 0.816403 16.5189C0.353393 17.0095 0.315909 17.7851 0.809949 18.2791L0.810146 18.2789Z" fill="#1C284C"/>
<path id="Vector_2" d="M22.3629 5.27366C22.0595 5.60186 21.8783 5.99608 21.875 6.44942C21.8718 6.8871 22.0565 7.31561 22.3629 7.62519C22.9945 8.26296 24.0796 8.26296 24.7112 7.62519C25.346 6.98417 25.3522 5.91791 24.7112 5.2769C24.4016 4.96731 23.9734 4.78906 23.5354 4.78906C23.0883 4.78906 22.6911 4.97351 22.3629 5.27366C22.1315 5.48617 21.9969 5.84914 21.9969 6.15848C21.9969 6.46483 22.1345 6.83076 22.3629 7.04329C22.6005 7.26226 22.9133 7.42487 23.2477 7.40923C23.5886 7.39359 23.8793 7.27467 24.1325 7.04329C24.1481 7.02765 24.1638 7.01201 24.1826 6.9996C24.0982 7.06513 24.0138 7.13093 23.9294 7.19672C23.9575 7.17785 23.9825 7.16221 24.0138 7.1498C23.9138 7.19051 23.8137 7.2342 23.7137 7.27492C23.745 7.26251 23.773 7.25606 23.8043 7.24985C23.6948 7.26549 23.5823 7.28113 23.4729 7.29354C23.5166 7.28734 23.554 7.28734 23.598 7.29354C23.4885 7.2779 23.376 7.26226 23.2666 7.24985C23.2978 7.25606 23.3259 7.26549 23.3572 7.27492C23.2571 7.23421 23.1571 7.19052 23.057 7.1498C23.0883 7.16221 23.1134 7.17785 23.1414 7.19672C23.057 7.13118 22.9726 7.06539 22.8882 6.9996C22.9257 7.02765 22.9538 7.05893 22.9821 7.09344C22.9165 7.00903 22.8507 6.92463 22.7849 6.84021C22.8038 6.86827 22.8194 6.89334 22.8319 6.92462C22.7911 6.82457 22.7474 6.72452 22.7067 6.62447C22.7191 6.65575 22.7256 6.6838 22.7318 6.71509C22.7162 6.6056 22.7005 6.49314 22.6881 6.38366C22.6943 6.42735 22.6943 6.46484 22.6881 6.50879C22.7038 6.3993 22.7194 6.28684 22.7318 6.17736C22.7256 6.20864 22.7162 6.2367 22.7067 6.26798C22.7474 6.16793 22.7911 6.06788 22.8319 5.96783C22.8194 5.99911 22.8038 6.02418 22.7849 6.05223C22.8505 5.96783 22.9163 5.88342 22.9821 5.79901C22.954 5.83649 22.9227 5.86454 22.8882 5.89285C22.9726 5.82731 23.057 5.76152 23.1414 5.69573C23.1134 5.7146 23.0883 5.73024 23.057 5.74265C23.1571 5.70194 23.2571 5.65824 23.3572 5.61752C23.3259 5.62994 23.2978 5.63639 23.2666 5.6426C23.3761 5.62696 23.4885 5.61132 23.598 5.59891C23.5543 5.60511 23.5168 5.60511 23.4729 5.59891C23.5824 5.61455 23.6948 5.63019 23.8043 5.6426C23.773 5.63639 23.745 5.62696 23.7137 5.61752C23.8137 5.65824 23.9138 5.70193 24.0138 5.74265C23.9825 5.73024 23.9575 5.7146 23.9294 5.69573C24.0138 5.76127 24.0982 5.82706 24.1826 5.89285C24.1452 5.8648 24.1171 5.83352 24.0888 5.79901C24.1543 5.88341 24.2201 5.96782 24.2859 6.05223C24.2671 6.02418 24.2514 5.99911 24.239 5.96783C24.2797 6.06788 24.3234 6.16792 24.3641 6.26798C24.3517 6.2367 24.3453 6.20864 24.3391 6.17736C24.3547 6.28685 24.3703 6.39931 24.3827 6.50879C24.3765 6.46509 24.3765 6.42761 24.3827 6.38366C24.3671 6.49315 24.3515 6.60561 24.3391 6.71509C24.3453 6.6838 24.3547 6.65575 24.3641 6.62447C24.3234 6.72452 24.2797 6.82457 24.239 6.92462C24.2514 6.89334 24.2671 6.86826 24.2859 6.84021C24.2204 6.92462 24.1546 7.00903 24.0888 7.09344C24.1012 7.07457 24.1169 7.05893 24.1325 7.04329C24.3544 6.80247 24.4984 6.49289 24.4984 6.15848C24.4984 5.85213 24.3609 5.4862 24.1325 5.27367C23.8949 5.05471 23.5821 4.89209 23.2477 4.90773C22.9257 4.92337 22.591 5.02962 22.3629 5.27366Z" fill="#1C284C"/>
</g>
</svg>
