<svg width="18" height="17" viewBox="0 0 18 17" fill="none" xmlns="http://www.w3.org/2000/svg">
<path d="M17.1731 7.63517V8.78994C17.1622 8.8413 17.149 8.89265 17.142 8.94479C17.1054 9.21403 17.086 9.48716 17.0323 9.75328C16.63 11.764 15.6363 13.4254 14.0154 14.6813C12 16.2422 9.71848 16.7566 7.22607 16.2383C5.28616 15.8353 3.70185 14.8221 2.48639 13.2619C1.06393 11.4356 0.523123 9.35409 0.825044 7.06557C1.03281 5.49371 1.66933 4.09772 2.70349 2.89392C3.9851 1.40222 5.59352 0.471556 7.53266 0.125282C7.80424 0.0762583 8.07814 0.0412417 8.35127 0C8.74657 0 9.14265 0 9.53795 0C9.79629 0.0342384 10.0562 0.0599172 10.313 0.104272C11.8187 0.36495 13.1602 0.98202 14.315 1.98583C15.781 3.25965 16.6992 4.85252 17.0455 6.76831C17.0976 7.05545 17.1311 7.34648 17.1731 7.63595V7.63517ZM8.21121 7.1286C8.06103 7.11848 7.92329 7.09825 7.78556 7.10214C7.6097 7.10759 7.43306 7.12159 7.26031 7.15038C5.7118 7.40562 4.64574 8.87086 4.87919 10.4186C5.13597 12.1235 6.82611 13.2409 8.49212 12.8075C9.8422 12.4566 10.7083 11.336 10.7075 9.93459C10.7075 8.88176 10.7013 7.82815 10.6982 6.77532C10.6982 6.72085 10.6982 6.66716 10.6982 6.63992C11.0849 6.82667 11.4491 7.02744 11.8327 7.17995C12.2233 7.3348 12.6381 7.4025 13.0598 7.37838V5.87734C11.8553 5.85399 10.762 4.94979 10.6826 3.53901H9.18078C9.18078 3.61604 9.18078 3.67985 9.18078 3.74366C9.18078 5.78552 9.18078 7.82737 9.17844 9.86923C9.17844 9.98128 9.16988 10.0933 9.15432 10.2038C9.06172 10.8832 8.47033 11.3874 7.77389 11.3858C7.0899 11.3843 6.48995 10.8621 6.3989 10.189C6.30708 9.50739 6.73662 8.8304 7.39882 8.6701C7.65561 8.60785 7.93185 8.63042 8.21043 8.6133V7.12704L8.21121 7.1286Z" fill="#CBF000"/>
</svg>
