<svg width="193" height="59" viewBox="0 0 193 59" fill="none" xmlns="http://www.w3.org/2000/svg">
<path d="M1 30C1 13.9837 13.9837 1 30 1H193V29C193 45.5685 179.569 59 163 59H30C13.9837 59 1 46.0163 1 30Z" fill="#1C284C"/>
<path d="M82.164 41L73.948 21.76H77.848L83.88 36.45L89.834 21.76H93.76L85.57 41H82.164ZM97.2911 24.698C96.0691 24.698 95.1851 23.84 95.1851 22.618C95.1851 21.396 96.0691 20.512 97.2911 20.512C98.5131 20.512 99.3711 21.396 99.3711 22.618C99.3711 23.84 98.5131 24.698 97.2911 24.698ZM95.5231 41V26.986H99.0591V41H95.5231ZM107.311 41.26C105.179 41.26 103.281 40.714 102.007 39.596L103.333 37.464C104.659 38.244 105.985 38.504 107.363 38.504C108.663 38.504 109.547 37.958 109.547 37.1C109.547 36.242 108.559 35.774 107.155 35.41L105.985 35.098C103.619 34.474 102.007 33.564 102.007 31.354C102.007 28.572 104.191 26.726 107.519 26.726C109.625 26.726 111.419 27.168 112.797 28.104L111.315 30.418C110.197 29.794 109.001 29.508 107.753 29.508C106.479 29.508 105.595 29.976 105.595 30.782C105.595 31.614 106.479 32.004 107.701 32.316L108.871 32.654C111.263 33.278 113.161 34.37 113.161 36.84C113.161 39.492 110.821 41.26 107.311 41.26ZM117.807 24.698C116.585 24.698 115.701 23.84 115.701 22.618C115.701 21.396 116.585 20.512 117.807 20.512C119.029 20.512 119.887 21.396 119.887 22.618C119.887 23.84 119.029 24.698 117.807 24.698ZM116.039 41V26.986H119.575V41H116.039ZM127.671 24.932L131.207 20.746H135.315L130.687 24.932H127.671ZM129.881 41.26C125.383 41.26 122.367 38.348 122.367 33.98C122.367 29.638 125.383 26.726 129.881 26.726C134.353 26.726 137.369 29.638 137.369 33.98C137.369 38.348 134.353 41.26 129.881 41.26ZM129.881 38.218C132.169 38.218 133.703 36.528 133.703 33.98C133.703 31.432 132.169 29.742 129.881 29.742C127.567 29.742 126.033 31.432 126.033 33.98C126.033 36.528 127.567 38.218 129.881 38.218ZM148.193 26.726C151.547 26.726 153.783 28.91 153.783 32.186V41H150.247V32.758C150.247 30.938 148.947 29.742 146.971 29.742C144.995 29.742 143.695 30.938 143.695 32.758V41H140.159V26.986H143.565L143.617 28.754C144.683 27.428 146.321 26.726 148.193 26.726Z" fill="white"/>
<circle cx="29.5" cy="29.5" r="29.5" fill="#CBF000"/>
<path d="M30.0561 33.8782L26.7586 29.5311V23.0088H36.4849C36.6101 23.0088 36.7115 22.9072 36.7115 22.7822V15.9833C36.7115 15.8581 36.6099 15.7568 36.4849 15.7568L26.758 15.7563V14.9064C26.758 14.4058 26.3522 14 25.8515 14C25.3509 14 24.9451 14.4058 24.9451 14.9064V29.54L15.0432 42.6355C14.9345 42.7805 15.0432 42.998 15.2334 42.998H24.1357C24.0812 42.5086 24.1992 42.0007 24.5073 41.5746L30.0561 33.8782Z" fill="#1C284C"/>
<path d="M35.1667 30.4006C35.074 30.2725 34.8813 30.2728 34.7889 30.4011L25.979 42.6339C25.8695 42.7859 25.9795 42.9967 26.168 42.9967H43.8342C44.023 42.9967 44.133 42.7855 44.023 42.6335L35.1667 30.4006Z" fill="#1C284C"/>
</svg>
