<svg width="29" height="28" viewBox="0 0 29 28" fill="none" xmlns="http://www.w3.org/2000/svg">
<g id="waze 1" clip-path="url(#clip0_105_1939)">
<g id="Layer 2">
<g id="Layer 1">
<path id="Vector" d="M29 12.9975C28.9291 13.444 28.8688 13.8935 28.7815 14.3372C28.2948 16.8241 27.115 18.9184 25.3116 20.6274C24.6908 21.2148 23.9707 21.692 23.2961 22.2189C23.2294 22.2707 23.1584 22.3159 23.0832 22.3699C23.8863 24.0753 23.7373 25.6537 22.388 26.9715C21.3174 28.0202 20.0064 28.2639 18.6336 27.7129C17.1437 27.1146 16.4052 25.9083 16.2924 24.2592L12.7019 24.1716C12.6579 25.5435 12.1266 26.6381 11.0056 27.3824C10.6071 27.6539 10.1585 27.8381 9.68775 27.9238C9.21702 28.0094 8.7342 27.9945 8.2693 27.88C7.78202 27.7684 7.32253 27.554 6.91983 27.2506C6.51713 26.9471 6.17995 26.5611 5.92957 26.1168C5.67919 25.6726 5.52105 25.1798 5.46512 24.6695C5.40919 24.1593 5.45669 23.6426 5.60462 23.1522L5.16405 23.0136C3.96864 22.6385 2.81579 22.1685 1.81618 21.3739C0.672554 20.4625 0.00638501 19.2898 0 17.7691C0 17.1955 0.342662 16.8292 0.896739 16.7818C1.2245 16.7533 1.56007 16.7321 1.87365 16.6402C2.83352 16.3593 3.28828 15.6098 3.51034 14.67C3.69408 13.8884 3.67209 13.1003 3.64229 12.3006C3.59192 10.9827 3.8232 9.69402 4.25029 8.44912C5.23925 5.56601 7.06608 3.39947 9.61157 1.85247C11.8296 0.49026 14.3979 -0.145984 16.9756 0.0281766C21.1833 0.283578 24.5958 2.12101 27.0497 5.6886C28.1522 7.29398 28.7765 9.09784 28.9482 11.0622C28.9595 11.1277 28.9766 11.1919 28.9993 11.2542L29 12.9975ZM1.97013 18.5477C2.17445 19.1599 2.56819 19.5956 3.04281 19.9575C4.0708 20.7419 5.26692 21.125 6.48504 21.4388C6.59304 21.4513 6.70146 21.4193 6.78655 21.3498C8.48426 20.0013 10.6885 20.3019 11.9932 22.0547C12.0823 22.1583 12.2052 22.2247 12.3387 22.2415C12.6849 22.2802 13.0353 22.2868 13.3844 22.2962C14.4124 22.324 15.4418 22.3437 16.4698 22.3743C16.7195 22.3824 16.8742 22.2875 17.0203 22.0678C17.983 20.6172 19.9106 20.0976 21.4416 20.8762C21.6487 20.9813 21.7963 20.963 21.9836 20.8521C22.8417 20.3598 23.6281 19.7457 24.3198 19.0278C26.4815 16.7358 27.4974 14.0256 27.0767 10.8192C26.7638 8.43161 25.6869 6.43364 23.9473 4.85745C21.023 2.2093 17.5872 1.33437 13.8079 2.18011C10.1188 3.00615 7.43357 5.1975 6.01468 8.87236C5.6049 9.90953 5.41294 11.0241 5.45138 12.143C5.48543 12.9902 5.52232 13.8286 5.37334 14.6649C5.17328 15.82 4.73484 16.854 3.85371 17.6406C3.31453 18.1215 2.67816 18.3966 1.97084 18.5477H1.97013Z" fill="#CBF000"/>
<path id="Vector_2" d="M16.3253 18.6653C15.0688 18.6688 13.8483 18.2337 12.8634 17.4311C11.8786 16.6285 11.1877 15.5058 10.9037 14.2469C10.7831 13.7302 11.0385 13.2522 11.5174 13.0968C11.6301 13.0598 11.7488 13.0463 11.8666 13.0572C11.9845 13.068 12.099 13.103 12.2035 13.16C12.308 13.2171 12.4004 13.295 12.4752 13.3893C12.5499 13.4836 12.6057 13.5923 12.639 13.7091C12.8199 14.2826 13.0086 14.8474 13.3903 15.321C14.231 16.3645 15.3058 16.8738 16.6225 16.741C18.3131 16.571 19.3993 15.6122 19.8945 13.9477C20.0208 13.5252 20.2067 13.172 20.6621 13.072C21.3226 12.9261 21.8817 13.5558 21.7178 14.2512C21.163 16.6075 19.3532 18.2858 17.0276 18.5967C16.7942 18.6266 16.5594 18.6427 16.3253 18.6653Z" fill="#CBF000"/>
<path id="Vector_3" d="M12.6991 8.39455C12.8787 8.39354 13.0544 8.44745 13.2041 8.54944C13.3537 8.65143 13.4705 8.79689 13.5396 8.96732C13.6087 9.13775 13.627 9.32546 13.5921 9.5066C13.5572 9.68773 13.4707 9.8541 13.3437 9.98457C13.2166 10.115 13.0548 10.2037 12.8786 10.2393C12.7024 10.2749 12.52 10.2558 12.3544 10.1845C12.1888 10.1132 12.0476 9.9928 11.9486 9.83871C11.8497 9.68461 11.7976 9.50375 11.7989 9.3191C11.8025 9.07482 11.8986 8.84162 12.0667 8.669C12.2348 8.49638 12.4616 8.39793 12.6991 8.39455Z" fill="#CBF000"/>
<path id="Vector_4" d="M19.9674 10.2558C19.7249 10.2543 19.4927 10.1546 19.3211 9.97825C19.1496 9.80193 19.0525 9.5632 19.0508 9.31375C19.0521 9.18997 19.0775 9.06771 19.1254 8.95415C19.1733 8.84059 19.2428 8.73801 19.3298 8.65244C19.4167 8.56686 19.5194 8.50001 19.6318 8.45581C19.7443 8.41161 19.8641 8.39095 19.9844 8.39504C20.1032 8.39619 20.2206 8.42139 20.3299 8.46921C20.4392 8.51703 20.5383 8.58653 20.6215 8.67374C20.7047 8.76094 20.7704 8.86415 20.8148 8.97747C20.8593 9.09079 20.8816 9.212 20.8804 9.33418C20.8793 9.45637 20.8548 9.57712 20.8083 9.68956C20.7618 9.802 20.6943 9.90392 20.6095 9.98951C20.5247 10.0751 20.4244 10.1427 20.3142 10.1883C20.204 10.234 20.0862 10.257 19.9674 10.2558Z" fill="#CBF000"/>
</g>
</g>
</g>
<defs>
<clipPath id="clip0_105_1939">
<rect width="29" height="28" fill="white"/>
</clipPath>
</defs>
</svg>
