<svg width="18" height="17" viewBox="0 0 18 17" fill="none" xmlns="http://www.w3.org/2000/svg">
<path d="M17.1191 7.63517V8.78994C17.1082 8.83663 17.0957 8.88254 17.0879 8.92923C17.0086 9.39067 16.965 9.86222 16.8459 10.3135C15.6196 14.9622 10.6892 17.5573 6.15187 15.952C2.41366 14.6299 0.135247 10.7734 0.800562 6.86636C1.11727 5.00504 1.97245 3.42306 3.36922 2.14691C4.54422 1.07306 5.92076 0.396076 7.49262 0.123725C7.77042 0.0754802 8.05055 0.0404636 8.32913 0C8.71431 0 9.09871 0 9.48389 0C9.74769 0.0357947 10.013 0.0622517 10.2745 0.108162C11.5398 0.3276 12.7008 0.802269 13.7341 1.56874C15.4974 2.87603 16.5907 4.60663 16.9914 6.76832C17.0444 7.05545 17.077 7.34648 17.1191 7.63517ZM8.90106 11.2963C9.77259 11.2963 10.6433 11.2987 11.5149 11.294C11.6736 11.2932 11.837 11.2823 11.9903 11.245C12.7474 11.0575 13.2229 10.417 13.226 9.5852C13.2291 8.67088 13.2283 7.75734 13.226 6.84302C13.226 6.70995 13.2206 6.57378 13.1933 6.44461C13.0284 5.65868 12.3879 5.13265 11.5826 5.1311C9.79749 5.12721 8.01242 5.12954 6.22657 5.1311C6.14643 5.1311 6.0655 5.13265 5.98768 5.14666C5.12316 5.30384 4.59247 5.93959 4.58858 6.8329C4.58391 7.75189 4.58624 8.67166 4.58858 9.59065C4.58858 9.72371 4.59558 9.85989 4.62359 9.98906C4.79479 10.7773 5.43053 11.2917 6.24058 11.2956C7.12767 11.3002 8.01475 11.2963 8.90262 11.2963H8.90106Z" fill="#CBF000"/>
<path d="M7.76758 9.54174V6.88281C8.53405 7.32947 9.28107 7.76445 10.0538 8.215C9.28107 8.66321 8.53405 9.09664 7.76758 9.54096V9.54174Z" fill="#CBF000"/>
</svg>
