<svg xmlns="http://www.w3.org/2000/svg" width="61" height="60" fill="none" viewBox="0 0 61 60">
  <path fill="#1C284C" d="M60.815 27.891v4.218c-.037.168-.088.333-.111.504-.174 1.194-.25 2.41-.523 3.581-2.24 9.702-7.857 16.731-16.82 21.063-1.338.649-2.771 1.103-4.235 1.675V36.586h6.433c.324-2.512.64-4.94.963-7.436h-7.334c-.045-.11-.088-.162-.085-.213.014-1.893-.025-3.789.066-5.68.062-1.304.83-2.137 2.112-2.39.776-.153 1.586-.168 2.382-.193 1.009-.031 2.02-.009 3.061-.009v-6.62c-.114-.031-.222-.085-.332-.09-2.007-.086-4.017-.226-6.024-.226a9.187 9.187 0 0 0-4.119.973c-3.237 1.614-4.622 4.408-4.83 7.86-.116 1.966-.033 3.942-.042 5.915 0 .207-.017.418-.028.682H24.97v7.47h6.359v23.352a26.363 26.363 0 0 1-6.785-.634C17.483 57.787 11.66 54.19 7.21 48.49 1.982 41.814-.01 34.2 1.095 25.816c.757-5.745 3.079-10.844 6.86-15.245C12.633 5.122 18.509 1.72 25.598.458 26.59.28 27.591.15 28.586 0h4.335c.693.088 1.39.165 2.08.267 4.927.722 9.44 2.493 13.446 5.46 6.444 4.77 10.435 11.1 11.899 18.997.193 1.05.312 2.113.466 3.17l.003-.003Z"/>
</svg>
