<svg xmlns="http://www.w3.org/2000/svg" width="61" height="60" fill="none" viewBox="0 0 61 60">
  <path fill="#1C284C" d="M14.095 9.347c1.608.123 2.766-1.163 3.13-2.683.185-.769.529-2.311.642-3.092C18.121 1.757 16.634.149 14.81.01c-1.827-.14-3.538 1.224-3.56 3.057-.012.787.056 2.369.16 3.153.217 1.663 1.081 3.006 2.685 3.127Zm29.889-2.683c.366 1.52 1.523 2.806 3.13 2.683 1.605-.121 2.469-1.463 2.684-3.127.105-.784.174-2.366.164-3.153C49.94 1.234 48.229-.131 46.4.01c-1.826.138-3.311 1.747-3.055 3.562.108.781.453 2.323.639 3.092ZM30.791 33.257a7.496 7.496 0 1 0-.001 14.992 7.496 7.496 0 0 0 .001-14.992Zm.272 10.98-3.834-3.17 1.52-1.838 1.778 1.471 2.474-3.778 1.995 1.306-3.933 6.008Z"/>
  <path fill="#1C284C" d="m58.293 33.246 2.632-.706-1.704-9.26-3.021-8.07v.001a4.976 4.976 0 0 0-4.661-3.21h-6.417c-1.75 0-3.288.903-4.174 2.259v-.005l-4.307 6.268-6.037 1.757-6.037-1.756-4.304-6.268-.001.005a4.987 4.987 0 0 0-4.177-2.258H9.671a4.977 4.977 0 0 0-4.662 3.21l-.002-.002-3.02 8.069-1.704 9.26 2.633.706 1.757-7.451 2.954-5.877-3.002 33.487h3.57L12.17 32.92l.617 8.287.537 12.197h3.569l.473-7.232C21.635 56.95 29.835 59.8 30.3 59.952a.95.95 0 0 0 .3.048h.005a.963.963 0 0 0 .3-.047c.466-.154 8.665-3.003 12.933-13.78l.472 7.231h3.57l.536-12.197.616-8.287 3.98 20.484h3.567l-3.002-33.486 2.953 5.876 1.762 7.452ZM18.128 19.178l4.63 4.736 7.847 1 7.847-1 4.63-4.736.722 9.91a28.42 28.42 0 0 1-1.683.051c-3.084 0-7.492-.494-10.978-2.848a.98.98 0 0 0-1.074 0c-3.485 2.354-7.894 2.848-10.978 2.848-.643 0-1.209-.023-1.684-.052l.72-9.909Zm26.346 12.285c0 20.286-11.789 25.762-13.868 26.57-2.08-.808-13.87-6.284-13.87-26.57v-.51c.593.049 1.4.094 2.354.094 3.2 0 7.73-.503 11.515-2.833 3.786 2.33 8.316 2.833 11.515 2.833.953 0 1.76-.045 2.353-.095v.511Z"/>
</svg>
