<svg xmlns="http://www.w3.org/2000/svg" width="61" height="60" fill="none" viewBox="0 0 61 60">
  <path fill="#1C284C" d="M25 37V23c4.694 2.352 9.268 4.642 14 7.014l-14 6.982V37Z"/>
  <path fill="#1C284C" d="M60.019 27.885v4.218c-.04.17-.085.338-.114.509-.29 1.685-.449 3.407-.884 5.055-4.479 16.978-22.485 26.456-39.057 20.593C6.311 53.432-2.01 39.347.42 25.078 1.577 18.279 4.7 12.502 9.801 7.84c4.292-3.922 9.32-6.394 15.06-7.39C25.876.277 26.899.149 27.916 0h4.218c.963.13 1.932.227 2.887.395 4.621.801 8.861 2.535 12.635 5.334 6.44 4.775 10.433 11.095 11.897 18.99.193 1.05.313 2.112.466 3.166ZM30.005 41.257c3.183 0 6.363.008 9.546-.009.58-.002 1.177-.042 1.736-.179 2.766-.685 4.502-3.024 4.514-6.062.01-3.339.008-6.675 0-10.015 0-.486-.02-.983-.12-1.455-.602-2.87-2.941-4.791-5.883-4.797-6.52-.014-13.039-.006-19.56 0-.294 0-.59.006-.873.057-3.158.574-5.096 2.896-5.11 6.158a1315.74 1315.74 0 0 0 0 10.072c0 .486.025.984.128 1.455.625 2.88 2.947 4.758 5.905 4.772 3.24.017 6.48.003 9.723.003h-.006Z"/>
</svg>
