<svg xmlns="http://www.w3.org/2000/svg" width="66" height="60" fill="none" viewBox="0 0 66 60">
  <path fill="#1C284C" d="M65.19 34.021v23.824c-.534 1.62-1.68 2.164-3.324 2.155-7.048-.042-14.094-.019-21.143-.019-.271.008-.543 0-.814-.023-1.498-.173-2.37-1.278-2.37-3.023V35.697c-.034-3.234.15-6.467.55-9.677.638-4.715 1.758-9.278 4.035-13.482C46.366 4.71 52.804.319 61.802.007c1.978-.067 2.601.34 3.388 2.118V13.98c-.515 1.43-1.537 2.084-3.043 2.125-1.956.047-3.45 1.007-4.601 2.547-1.212 1.602-1.84 3.458-2.3 5.387-.622 2.579-.847 5.202-.964 7.924h7.984c1.081 0 1.962.345 2.545 1.299.147.231.253.502.38.759ZM.948 57.845V32.132c.032-.31.08-.62.094-.926a53.61 53.61 0 0 1 1.546-10.88c1.284-5.04 3.388-9.67 6.995-13.476C14.041 2.137 19.581.007 25.99.007c1.453 0 2.5 1.072 2.594 2.546.021.336.017.672.017 1.007v9.578c0 1.77-.872 2.708-2.61 2.921-.706.052-1.406.173-2.09.359-1.933.632-3.136 2.083-4.014 3.843-1.187 2.38-1.691 4.95-1.988 7.565-.154 1.348-.23 2.704-.345 4.135h.858c2.448 0 4.893-.014 7.338 0 1.806.014 2.846 1.05 2.848 2.864.01 7.432.01 14.867 0 22.304a2.775 2.775 0 0 1-.69 1.97c-.628.695-1.424.89-2.323.887-7.108 0-14.217-.028-21.325.014-1.63.01-2.776-.544-3.312-2.155Z"/>
</svg>
