<svg xmlns="http://www.w3.org/2000/svg" width="61" height="60" fill="none" viewBox="0 0 61 60">
  <path fill="#1C284C" d="M17.018 0h-6.62a.822.822 0 0 0-.82.821v2.821h8.262V.822A.823.823 0 0 0 17.018 0Zm15.428 40.705v3.593h2.83V42.41c0-.27.218-.488.488-.488h2.279v-2.83h-3.984l-1.613 1.613ZM60.8 51.569c0-.924-.752-1.677-1.676-1.677h-7.476l-4.565 4.566h9.91v-.155c0-.27.22-.489.489-.489H60.8V51.57Zm-20.734 2.889-2.208-1.841a.49.49 0 0 1-.062-.689l1.698-2.036H2.474a1.68 1.68 0 0 0-1.677 1.677v2.889h30.67v-.153c0-.27.22-.488.49-.488h3.806c.27 0 .488.218.488.488v.153h3.815ZM28.978 0h2.718v3.642h-2.718V0Zm14.665 52.167 2.275-2.275h-5l2.725 2.275Z"/>
  <path fill="#1C284C" d="M34.524 38.115h2.713V36.47a.49.49 0 0 1 .489-.489h3.697c.27 0 .489.22.489.489v3.698a.49.49 0 0 1-.489.489H39.02v1.755c0 .27-.219.488-.488.488h-2.28v1.889c0 .27-.218.488-.488.488h-1.24v3.643h7.336v-4.133c0-.27.22-.488.49-.488h4.619c.27 0 .488.219.488.488v3.573l4.88-4.88a.49.49 0 0 1 .693.001l1.768 1.769V42.9h-.083a.489.489 0 0 1-.488-.489v-3.806c0-.27.218-.489.488-.489h.082v-20.56H34.524v20.56Zm11.955-16.427c0-.27.219-.488.489-.488h3.695c.27 0 .489.219.489.488v3.696c0 .27-.219.488-.489.488h-3.695a.489.489 0 0 1-.489-.488v-3.696Zm0 7.392c0-.27.219-.488.489-.488h3.695c.27 0 .489.219.489.488v3.696c0 .27-.219.488-.489.488h-3.695a.489.489 0 0 1-.489-.488V29.08Zm0 7.391c0-.27.219-.488.489-.488h3.695c.27 0 .489.218.489.488v3.696c0 .27-.219.488-.489.488h-3.695a.489.489 0 0 1-.489-.488V36.47Zm-9.24-14.783c0-.27.22-.488.49-.488h3.695c.27 0 .488.219.488.488v3.696c0 .27-.218.488-.488.488h-3.696a.489.489 0 0 1-.488-.488v-3.696Zm0 7.392c0-.27.22-.488.49-.488h3.695c.27 0 .488.219.488.488v3.696c0 .27-.218.488-.488.488h-3.696a.489.489 0 0 1-.488-.488V29.08Zm18.044 10.012h-.082v2.83h2.279c.27 0 .489.219.489.488v1.888h2.83v-3.593l-1.614-1.613h-3.902Z"/>
  <path fill="#1C284C" d="m41.733 54.565 1.22 1.017 1.694-.076.912-.912v-.002l8.606-8.606-1.482-1.481-8.66 8.66a.488.488 0 0 1-.659.03l-3.158-2.636-1.344 1.611 2.869 2.392s0 .002.002.003Zm-6.458.225h-2.83v3.594l1.614 1.613h3.984v-2.83h-2.28a.489.489 0 0 1-.488-.489V54.79ZM6.798 48.91h4.568v-5.98c0-.27.219-.489.488-.489h5.544c.27 0 .488.219.488.489v5.98h15.656v-3.643h-1.59a.489.489 0 0 1-.49-.489v-4.284c0-.13.052-.254.144-.346l1.9-1.9a.827.827 0 0 1 .036-.032V4.614H6.796l.002 44.296ZM22.453 9.668c0-.27.22-.489.489-.489h5.544c.27 0 .489.22.489.489v3.696c0 .27-.219.488-.489.488h-5.544a.489.489 0 0 1-.489-.489V9.668Zm0 8.316c0-.27.22-.489.489-.489h5.544a.49.49 0 0 1 .489.489v3.695c0 .27-.219.488-.489.488h-5.544a.489.489 0 0 1-.489-.488v-3.695Zm0 8.314c0-.27.22-.488.489-.488h5.544c.27 0 .489.219.489.488v3.697c0 .27-.219.488-.489.488h-5.544a.489.489 0 0 1-.489-.489v-3.696Zm0 8.316c0-.27.22-.488.489-.488h5.544c.27 0 .489.218.489.488v3.696c0 .27-.219.488-.489.488h-5.544a.489.489 0 0 1-.489-.488v-3.696ZM11.366 9.668c0-.27.219-.488.489-.488h5.543c.27 0 .489.218.489.488v3.696c0 .27-.22.488-.489.488h-5.543a.489.489 0 0 1-.489-.488V9.668Zm0 8.316a.49.49 0 0 1 .489-.489h5.543c.27 0 .489.22.489.489v3.695a.49.49 0 0 1-.489.489h-5.543a.489.489 0 0 1-.489-.489v-3.695Zm0 8.315a.49.49 0 0 1 .489-.489h5.543a.49.49 0 0 1 .489.489v3.696c0 .27-.219.488-.488.488h-5.544a.489.489 0 0 1-.488-.488v-3.696Zm0 8.315c0-.27.219-.488.489-.488h5.543c.27 0 .489.219.489.488v3.696a.49.49 0 0 1-.489.489h-5.543a.489.489 0 0 1-.489-.489v-3.696Zm43.427 12.134-2.17 2.17h2.17v-2.17Zm6.007 8.687h-2.83v1.247c0 .27-.219.489-.488.489H55.2V60h3.982l1.617-1.618v-2.948Z"/>
</svg>
