<svg xmlns="http://www.w3.org/2000/svg" width="61" height="60" fill="none" viewBox="0 0 61 60">
  <path fill="#1C284C" d="M31.529.119a4.313 4.313 0 0 0-2.011 0L.523 7.12v5.447l29.25-7.059a3.206 3.206 0 0 1 1.506 0l29.243 7.058V7.123L31.53.119ZM.523 57.857h60V60h-60v-2.143Zm56.787-2.143v-5.358H41.237v1.072a3.214 3.214 0 0 1 3.215 3.214v1.072h12.856ZM43.38 27.856h8.571v10.715H43.38V27.856Zm0-8.571h8.571v6.43H43.38v-6.43ZM3.737 55.714h12.857v-1.072a3.214 3.214 0 0 1 3.214-3.214v-1.071H3.738v5.357Zm18.214-5.357v1.072h17.143v-1.072a1.071 1.071 0 0 0-1.071-1.072h-15c-.591 0-1.07.48-1.07 1.072h-.002Z"/>
  <path fill="#1C284C" d="M57.308 13.994 30.774 7.59a1.135 1.135 0 0 0-.501 0L3.737 13.993v34.222h16.907a3.213 3.213 0 0 1 1.308-.874V20.357a3.214 3.214 0 0 1 3.214-3.213H35.88a3.215 3.215 0 0 1 3.214 3.213v26.984c.501.178.95.479 1.307.874h16.907V13.994ZM18.736 38.57a2.142 2.142 0 0 1-2.142 2.142H8.022a2.142 2.142 0 0 1-2.143-2.142V19.285a2.143 2.143 0 0 1 2.143-2.142h8.572a2.143 2.143 0 0 1 2.142 2.142v19.286Zm35.357 0a2.14 2.14 0 0 1-2.143 2.142h-8.571a2.14 2.14 0 0 1-2.143-2.142V19.285a2.142 2.142 0 0 1 2.143-2.142h8.572-.001a2.142 2.142 0 0 1 2.143 2.142v19.286Z"/>
  <path fill="#1C284C" d="M8.022 19.285h8.572v6.43H8.022v-6.43Zm27.858 0H25.165c-.592 0-1.071.48-1.071 1.072v26.785H36.95V20.356a1.072 1.072 0 0 0-1.072-1.07Zm-1.072 15a1.072 1.072 0 1 1-2.143 0v-2.143a1.071 1.071 0 1 1 2.143 0v2.143ZM8.022 27.856h8.572v10.715H8.022V27.856Zm10.715 26.786v1.071H42.31v-1.071a1.07 1.07 0 0 0-1.072-1.071H19.809c-.591 0-1.071.48-1.071 1.07Z"/>
</svg>
