<svg xmlns="http://www.w3.org/2000/svg" width="92" height="60" fill="none" viewBox="0 0 92 60">
  <path fill="#1C284C" fill-rule="evenodd" d="m77.026 37.755 3.434-2.534c.89.334 1.894.383 2.87.072l5.005-1.599a4.378 4.378 0 0 0 2.839-5.502L83.716 4.84a4.378 4.378 0 0 0-5.502-2.838L73.211 3.6a4.364 4.364 0 0 0-2.668 2.39l-20.11.675a6.744 6.744 0 0 0-4.538 1.97l-5.005 5.002-11.994-6.373a4.37 4.37 0 0 0-1.674-3.113L23.075.923a4.377 4.377 0 0 0-6.142.766L1.873 21.032a4.377 4.377 0 0 0 .765 6.142L6.783 30.4a4.37 4.37 0 0 0 3.65.817l4.042 3.383a5.23 5.23 0 0 0 1.1 3.635 5.235 5.235 0 0 0 2.613 1.79A5.25 5.25 0 0 0 23.1 46.3a5.244 5.244 0 0 0 5.006 4.974 5.237 5.237 0 0 0 1.109 2.969 5.256 5.256 0 0 0 7.349.92l3.255-2.548 12.333 6.695a5.255 5.255 0 0 0 7.15-1.938c.467-.81.694-1.695.702-2.569a5.256 5.256 0 0 0 4.964-4.482 5.258 5.258 0 0 0 6.535-4.314 5.258 5.258 0 0 0 5.887-2.453 5.26 5.26 0 0 0-.36-5.799l-.004-.001Zm-25.248 1.124 13.65 7.88a1.752 1.752 0 0 0 1.766-3.025l-10.632-6.137a1.752 1.752 0 0 1-.641-2.392 1.752 1.752 0 0 1 2.392-.641l13.649 7.88a1.752 1.752 0 0 0 1.76-3.028 1.353 1.353 0 0 1-.102-.065L47.702 21.68l-6.23 6.23a5.254 5.254 0 0 1-7.405-7.453l4.23-4.232-10.561-5.614-14.388 18.48 2.632 2.205c.152-.152.317-.298.49-.435l5.543-4.34a5.257 5.257 0 0 1 7.347.922 5.233 5.233 0 0 1 1.11 2.966 5.245 5.245 0 0 1 3.897 2.01 5.243 5.243 0 0 1 1.014 4.265 5.22 5.22 0 0 1 2.613 1.79 5.237 5.237 0 0 1 1.014 4.266 5.253 5.253 0 0 1 3.252 7.218l11.574 6.28.04.023a1.752 1.752 0 0 0 1.764-3.026L45.01 47.099a1.752 1.752 0 0 1 1.75-3.033l12.134 7.004a1.752 1.752 0 0 0 1.765-3.024l-10.63-6.137a1.752 1.752 0 0 1 1.75-3.034l-.001.004Zm35.491-8.52-5.004 1.597a.876.876 0 0 1-1.1-.568l-7.458-23.35a.877.877 0 0 1 .568-1.103l5.004-1.597a.876.876 0 0 1 1.1.568l7.458 23.35a.877.877 0 0 1-.568 1.103Z" clip-rule="evenodd"/>
</svg>
