<svg xmlns="http://www.w3.org/2000/svg" width="61" height="60" fill="none" viewBox="0 0 61 60">
  <path fill="#1C284C" d="M28.547 0h4.332c.944.125 1.893.219 2.83.38 5.497.952 10.395 3.205 14.611 6.87 5.353 4.65 8.705 10.466 9.97 17.46.19 1.05.312 2.112.465 3.169v4.216c-.04.187-.088.375-.116.565-.134.983-.205 1.98-.4 2.952-1.47 7.34-5.098 13.406-11.018 17.992-7.358 5.699-15.688 7.577-24.788 5.685-7.082-1.472-12.867-5.171-17.302-10.87-5.19-6.668-7.164-14.267-6.062-22.623.758-5.739 3.082-10.835 6.858-15.23C12.607 5.119 18.478 1.722 25.558.457 26.55.278 27.55.151 28.547 0ZM13.669 29.99h-.097c0 1.463-.043 2.929.011 4.392.06 1.616.074 3.25.344 4.835.62 3.645 2.685 6.14 6.259 7.301 1.676.546 3.412.62 5.145.611 4.622-.023 9.253.046 13.864-.204 3.48-.188 6.145-1.975 7.68-5.216.65-1.376.948-2.859.976-4.361.074-4.04.108-8.08.091-12.117-.005-1.478-.08-2.975-.324-4.426-.613-3.674-2.67-6.188-6.27-7.356-1.656-.537-3.372-.616-5.088-.608-4.642.026-9.284.043-13.923.182-1.853.057-3.572.75-5.063 1.912-2.543 1.98-3.486 4.722-3.594 7.799-.085 2.417-.017 4.838-.017 7.258l.006-.003Z"/>
  <path fill="#1C284C" d="M16.554 29.972c.094-2.688.13-5.364.295-8.029.205-3.332 2.54-5.742 5.864-5.867 4.347-.161 8.7-.164 13.049-.164 1.395 0 2.82.08 4.179.375 2.84.616 4.64 2.71 4.741 5.622.15 4.307.168 8.623.168 12.932 0 1.435-.074 2.9-.375 4.296-.61 2.838-2.722 4.656-5.617 4.756-4.346.15-8.699.164-13.048.164-1.415 0-2.858-.085-4.236-.383-2.804-.605-4.552-2.708-4.722-5.588-.162-2.705-.204-5.418-.298-8.117v.003Zm14.219 8.821c4.898 0 8.801-3.9 8.804-8.799a8.756 8.756 0 0 0-8.781-8.818c-4.927-.011-8.842 3.9-8.836 8.827a8.76 8.76 0 0 0 8.813 8.79Zm9.176-15.95a2.069 2.069 0 0 0 2.066-2.025c.014-1.133-.938-2.088-2.071-2.08a2.062 2.062 0 0 0-2.032 2.057c0 1.12.918 2.043 2.037 2.049Z"/>
  <path fill="#1C284C" d="M30.782 35.722c-3.208 0-5.75-2.548-5.748-5.761a5.709 5.709 0 0 1 5.73-5.716c3.21 0 5.75 2.545 5.745 5.758a5.705 5.705 0 0 1-5.73 5.716l.003.003Z"/>
</svg>
