<svg xmlns="http://www.w3.org/2000/svg" width="40" height="60" fill="none" viewBox="0 0 40 60">
  <path fill="#1C284C" d="M27.565 49.413H12.779a2.51 2.51 0 0 0-2.507 2.508v.364a2.51 2.51 0 0 0 2.507 2.507h2.443v.6A4.6 4.6 0 0 0 19.83 60h.664a4.6 4.6 0 0 0 4.608-4.608v-.6h2.442a2.51 2.51 0 0 0 2.508-2.507v-.364c.02-1.393-1.116-2.508-2.487-2.508ZM17.879.13C9.564 1.071 1.549 9.021.586 17.336c-.75 6.279 1.479 12.043 5.422 16.114a12.595 12.595 0 0 1 3.557 8.807 3.04 3.04 0 0 0 3.043 3.043H27.8a3.04 3.04 0 0 0 3.043-3.043c0-3.257 1.2-6.407 3.471-8.721a19.6 19.6 0 0 0 5.636-13.778C39.907 8.08 29.815-1.22 17.879.13V.129Zm.364 37.564a1.92 1.92 0 0 1-1.928 1.928 1.92 1.92 0 0 1-1.929-1.928v-8.315a4.737 4.737 0 0 0-4.735-4.735 1.92 1.92 0 0 1-1.929-1.928 1.92 1.92 0 0 1 1.929-1.929c4.735 0 8.593 3.857 8.593 8.593l-.001 8.314Zm12.45-13.072a4.737 4.737 0 0 0-4.736 4.736v8.314A1.92 1.92 0 0 1 24.03 39.6a1.92 1.92 0 0 1-1.928-1.928v-8.314c0-4.736 3.857-8.593 8.593-8.593a1.92 1.92 0 0 1 1.928 1.928c-.022 1.072-.879 1.93-1.929 1.93Z"/>
</svg>
