<svg xmlns="http://www.w3.org/2000/svg" width="58" height="60" fill="none" viewBox="0 0 58 60">
  <path fill="#1C284C" d="M3.159 35.26h5.887L7.983 57.694a2.413 2.413 0 0 1-4.824-.12V35.26Zm8.209 0h5.887v22.312a2.413 2.413 0 0 1-4.824.12l-1.063-22.431Zm12.683 9.151h3.708l-.67 14.13a1.52 1.52 0 0 1-3.04-.075l.002-14.055Zm5.17 0h3.708v14.055a1.52 1.52 0 0 1-3.04.075l-.668-14.13Zm9.064-9.15h5.887l-1.063 22.432a2.413 2.413 0 0 1-4.825-.12V35.26Zm8.478 0h5.887v22.311a2.413 2.413 0 0 1-4.824.12l-1.063-22.431Z"/>
  <path fill="#1C284C" d="M10.207 14.496c6.146 0 9.795 4.353 9.795 7.617v13.582a2.176 2.176 0 0 1-2.177 2.177H2.59a2.177 2.177 0 0 1-2.177-2.177V22.113c0-3.264 3.648-7.617 9.794-7.617Zm18.283 18.55c3.682 0 5.866 2.607 5.866 4.562v9.407a1.306 1.306 0 0 1-1.303 1.303h-9.126a1.306 1.306 0 0 1-1.303-1.303v-9.407c0-1.955 2.185-4.563 5.866-4.563ZM57.411 45.31a2.612 2.612 0 0 1-2.581 3.009H38.285V22.098A7.732 7.732 0 0 1 53.66 20.92l3.752 24.39ZM4.331 5.877a5.877 5.877 0 1 1 11.753 0 5.877 5.877 0 0 1-11.754 0Zm20.241 21.548a3.918 3.918 0 1 1 7.837 0 3.918 3.918 0 0 1-7.837 0Zm14.881-15.878c-.822-.142-1.317-1.016-.993-1.786.714-1.698 1.231-3.556 1.559-5.113C40.638 1.854 42.839 0 45.478 0c2.763.001 5.053 2.131 5.504 4.931.33 1.498.82 3.231 1.494 4.83.324.77-.17 1.644-.993 1.786-1.598.276-10.435.276-12.03 0Z"/>
</svg>
