<svg xmlns="http://www.w3.org/2000/svg" width="61" height="60" fill="none" viewBox="0 0 61 60">
  <mask id="a" width="22" height="22" x="0" y="0" maskUnits="userSpaceOnUse" style="mask-type:luminance">
    <path fill="#fff" d="M.157 0h21.069v21.069H.157V0Z"/>
  </mask>
  <g mask="url(#a)">
    <path fill="#1C284C" d="M21.158 6.001v-6h-21v21h6V10.2l10.8 10.8 4.2-4.2L10.358 6h10.8Z"/>
  </g>
  <mask id="b" width="22" height="22" x="0" y="38" maskUnits="userSpaceOnUse" style="mask-type:luminance">
    <path fill="#fff" d="M.157 38.932h21.069V60H.157V38.932Z"/>
  </mask>
  <g mask="url(#b)">
    <path fill="#1C284C" d="m16.957 39-10.8 10.8V39h-6v21h21v-6h-10.8l10.8-10.8-4.2-4.2Z"/>
  </g>
  <mask id="c" width="22" height="22" x="39" y="38" maskUnits="userSpaceOnUse" style="mask-type:luminance">
    <path fill="#fff" d="M39.09 38.932h21.067V60H39.09V38.932Z"/>
  </mask>
  <g mask="url(#c)">
    <path fill="#1C284C" d="M54.157 49.8 43.357 39l-4.2 4.2 10.8 10.8h-10.8v6h21V39h-6v10.8Z"/>
  </g>
  <mask id="d" width="22" height="22" x="39" y="0" maskUnits="userSpaceOnUse" style="mask-type:luminance">
    <path fill="#fff" d="M39.09 0h21.067v21.069H39.09V0Z"/>
  </mask>
  <g mask="url(#d)">
    <path fill="#1C284C" d="M39.157 0v6h10.8l-10.8 10.8 4.2 4.2 10.8-10.8V21h6V0h-21Z"/>
  </g>
</svg>
