<svg xmlns="http://www.w3.org/2000/svg" width="68" height="60" fill="none" viewBox="0 0 68 60">
  <path fill="#1C284C" d="M66.658 25.419c-.62 0-1.129.507-1.129 1.128v1.795L36.737 34.99v-1.48c0-.62-.508-1.129-1.129-1.129-.62 0-1.128.508-1.128 1.129v13.262c0 .621.507 1.129 1.128 1.129.621 0 1.129-.508 1.129-1.129v-1.478l2.98.688c-.023.08-.057.158-.057.248v3.353a3.648 3.648 0 0 0 2.867 3.578l7.867 1.76c.27.058.542.091.813.091a3.67 3.67 0 0 0 2.28-.801 3.655 3.655 0 0 0 1.376-2.856v-1.862l10.677 2.472v1.795c0 .62.508 1.128 1.129 1.128.62 0 1.129-.507 1.129-1.128V26.559a1.15 1.15 0 0 0-1.14-1.14ZM52.583 51.344c0 .43-.191.825-.53 1.095-.338.271-.767.373-1.185.271l-7.867-1.76a1.4 1.4 0 0 1-1.095-1.367v-1.93l10.677 2.46v1.231Zm-31.523-24.3 3.216-2.461 3.206 2.46 3.194-2.46 3.206 2.46 3.205-2.46 3.194 2.46V14.787H21.06v12.258Zm19.222-14.516L35.519 0h-9.695L21.06 12.528h19.222Zm20.61 0a10.806 10.806 0 0 0-1.174-3.092l-4.92-7.314a4.264 4.264 0 0 0-3.68-2.11L37.935.01l4.763 12.517h18.194ZM23.408 0H10.224a4.278 4.278 0 0 0-3.68 2.11l-4.92 7.314A10.4 10.4 0 0 0 .45 12.517h18.206L23.408 0Z"/>
  <path fill="#1C284C" d="m42.54 31.333 18.647-4.312V14.877c0-.035 0-.057-.012-.09l-18.635-.001v16.547ZM54.887 55.97a5.952 5.952 0 0 1-3.69 1.299c-.44 0-.88-.045-1.31-.147L42.02 55.36a5.899 5.899 0 0 1-4.628-5.711 3.34 3.34 0 0 1-1.794.52 3.396 3.396 0 0 1-3.386-3.387V33.51a3.396 3.396 0 0 1 3.386-3.386c1.412 0 2.62.869 3.127 2.088l3.499-.813-5.147-3.973-3.194 2.472-3.206-2.472-3.205 2.472-3.206-2.472-5.462 4.199v-16.84H.168c0 .034-.012.057-.012.09v40.373A4.759 4.759 0 0 0 4.91 60h51.525c2.63 0 4.74-2.133 4.74-4.752v-1.986l-4.153-.96a5.917 5.917 0 0 1-2.134 3.669ZM17.55 43.34l-1.987 1.942a.633.633 0 0 0-.18.554l.474 2.73c.09.509-.452.904-.903.655l-2.46-1.286a.67.67 0 0 0-.587 0l-2.46 1.286c-.463.237-.994-.146-.904-.654l.475-2.731a.632.632 0 0 0-.181-.554L6.85 43.341a.629.629 0 0 1 .35-1.072l2.754-.395a.648.648 0 0 0 .475-.339l1.23-2.494a.623.623 0 0 1 1.117 0l1.23 2.494a.62.62 0 0 0 .475.339l2.743.395c.495.078.698.71.325 1.072Z"/>
</svg>
