<svg xmlns="http://www.w3.org/2000/svg" width="73" height="60" fill="none" viewBox="0 0 73 60">
  <path fill="#1C284C" d="M34.972 52.449c3.98 0 7.245-3.265 7.245-7.245V34.796c1.429-1.429 2.346-3.367 2.346-5.51V22.04a7.751 7.751 0 0 0-7.755-7.755h-3.57a7.751 7.751 0 0 0-7.756 7.755v7.244c0 2.143.919 4.082 2.347 5.51v10.408c-.101 3.98 3.164 7.246 7.143 7.246Zm6.631-45.817a6.633 6.633 0 1 1-13.265 0 6.633 6.633 0 0 1 13.265 0Zm11.939 39.899a5.705 5.705 0 0 0 5.715-5.714l-.001-8.776c1.123-1.326 1.735-2.958 1.735-4.795V24.49a7.534 7.534 0 0 0-7.55-7.551 7.534 7.534 0 0 0-7.551 7.55v2.756c0 1.837.714 3.57 1.735 4.796v8.775c.203 3.163 2.754 5.714 5.917 5.714Zm5.204-35.305a5.204 5.204 0 1 1-10.408 0 5.204 5.204 0 0 1 10.408 0Zm-37.141 0a5.204 5.204 0 1 1-10.408 0 5.204 5.204 0 0 1 10.408 0Z"/>
  <path fill="#1C284C" d="M68.952 42.041A43.964 43.964 0 0 0 67.829 40a.561.561 0 0 0-.51-.306c-.204 0-.408 0-.51.204-2.653 2.347-5.714 4.898-9.082 7.346-1.428 1.021-2.958 2.042-4.591 3.163-.205.205-.307.409-.307.715.102.306.306.51.613.51 1.53.102 3.06.306 4.591.408-.408.204-.816.409-1.326.51-5.817 2.245-13.572 3.47-21.837 3.47-8.266 0-16.02-1.225-21.838-3.47-5.102-1.938-8.06-4.49-8.06-6.836 0-1.939 2.142-4.081 5.816-5.816v1.02a5.705 5.705 0 0 0 5.714 5.715 5.705 5.705 0 0 0 5.715-5.715v-8.877c1.123-1.327 1.735-2.959 1.735-4.796V24.49a7.534 7.534 0 0 0-7.55-7.55 7.534 7.534 0 0 0-7.551 7.55v2.755c0 1.837.714 3.571 1.734 4.796v3.469C4.463 38.06.688 41.633.688 45.714.688 53.877 15.28 60 34.667 60c13.469 0 24.692-2.959 30.203-7.55 2.245.101 4.388.203 6.633.305a.78.78 0 0 0 .51-.204c.102-.102.204-.306.102-.51-.307-3.368-1.532-6.633-3.164-10h.001Z"/>
</svg>
