<svg xmlns="http://www.w3.org/2000/svg" width="47" height="60" fill="none" viewBox="0 0 47 60">
  <path fill="#1C284C" fill-rule="evenodd" d="M33.248 42.807H14.517v2.801c0 1.5.315 2.937.877 3.998.561 1.06 1.323 1.655 2.117 1.655h12.742c.794 0 1.556-.595 2.117-1.655.562-1.06.877-2.498.877-3.998v-2.8Zm-18.731-2.26h18.73V5.652c0-1.5-.315-2.936-.876-3.997C31.809.596 31.048 0 30.254 0H17.512c-.795 0-1.556.596-2.118 1.656-.561 1.06-.877 2.498-.877 3.997v34.893ZM19.62 30.47h8.525c.33 0 .599-.506.599-1.131 0-.624-.269-1.131-.6-1.131H19.62c-.33 0-.6.507-.6 1.13 0 .625.269 1.132.6 1.132Zm0-7.937h8.525c.33 0 .599-.507.599-1.131s-.269-1.131-.6-1.131H19.62c-.33 0-.6.506-.6 1.13 0 .625.269 1.132.6 1.132Zm0-7.937h8.525c.33 0 .599-.507.599-1.131s-.269-1.131-.6-1.131H19.62c-.33 0-.6.506-.6 1.13 0 .625.269 1.132.6 1.132Zm14.215 35.125a9.208 9.208 0 0 1-.617 1.484c-.786 1.485-1.852 2.318-2.965 2.318h-1.887l5.143 5.606c.79.862 1.73 1.096 2.611.65.882-.447 1.633-1.535 2.09-3.027l.518-1.696-4.893-5.334Zm.472-2.096 5.02 5.471 7.051-23.056c.456-1.492.58-3.265.344-4.93-.236-1.664-.813-3.082-1.603-3.944L34.856 9.98a3.37 3.37 0 0 0-.41-.382v14.553l5.88 6.41c.285.311.384 1.004.218 1.544-.165.541-.531.726-.818.415l-5.281-5.757v6.393l3.815 4.158c.286.312.384 1.004.22 1.544-.166.541-.532.726-.819.415l-3.216-3.506v9.84c0 .687-.047 1.364-.139 2.018h.001ZM13.93 49.722l-4.893 5.333.518 1.697c.457 1.491 1.208 2.58 2.09 3.026.881.446 1.82.213 2.61-.65l5.143-5.605h-1.887c-1.112 0-2.178-.834-2.964-2.319a9.203 9.203 0 0 1-.617-1.483Zm-5.492 3.375 5.02-5.472a14.637 14.637 0 0 1-.139-2.017v-9.84l-3.216 3.505c-.286.312-.653.127-.818-.414-.165-.54-.067-1.232.219-1.544l3.815-4.159v-6.392L8.038 32.52c-.286.313-.653.127-.818-.414-.165-.54-.067-1.232.22-1.544l5.88-6.41V9.599c-.14.11-.278.237-.411.382L2.646 21.167c-.79.861-1.367 2.28-1.603 3.944-.237 1.665-.113 3.437.343 4.93l7.052 23.056Z" clip-rule="evenodd"/>
</svg>
