<svg xmlns="http://www.w3.org/2000/svg" width="61" height="60" fill="none" viewBox="0 0 61 60">
  <path fill="#1C284C" d="m26.663 15.322-8.102-13.5A3.75 3.75 0 0 0 15.346 0H2.32C.803 0-.086 1.707.784 2.95l13.04 18.629a24.252 24.252 0 0 1 12.839-6.257ZM58.563 0H45.538a3.75 3.75 0 0 0-3.216 1.821l-8.1 13.501a24.26 24.26 0 0 1 12.838 6.256L60.1 2.95C60.97 1.707 60.08 0 58.563 0ZM30.442 18.75c-11.39 0-20.625 9.234-20.625 20.625C9.817 50.765 19.05 60 30.442 60c11.39 0 20.625-9.234 20.625-20.625 0-11.39-9.235-20.625-20.625-20.625Zm10.842 18.429-4.445 4.331 1.051 6.12c.188 1.097-.968 1.934-1.95 1.416l-5.498-2.888-5.496 2.889c-.985.521-2.139-.322-1.952-1.417l1.052-6.12-4.446-4.33c-.8-.778-.358-2.136.744-2.296l6.144-.895 2.746-5.569a1.324 1.324 0 0 1 1.204-.749c.482 0 .964.251 1.211.75l2.746 5.568 6.144.895c1.101.16 1.543 1.518.744 2.296Z"/>
</svg>
