<svg xmlns="http://www.w3.org/2000/svg" width="80" height="60" fill="none" viewBox="0 0 80 60">
  <mask id="a" width="80" height="60" x="0" y="0" maskUnits="userSpaceOnUse" style="mask-type:luminance">
    <path fill="#fff" d="M.967 0h78.72v60H.967V0Z"/>
  </mask>
  <g mask="url(#a)">
    <path fill="#1C284C" d="M44.845 24.522a4.452 4.452 0 1 1-8.904 0 4.452 4.452 0 0 1 8.904 0ZM23.533 14.55h-8.736c-4.905 0-6.566 3.495-9.029 8.589L1.25 32.452a2.76 2.76 0 0 0 1.279 3.695c1.375.671 3.04.1 3.71-1.274l6.25-12.07v34.145a3.006 3.006 0 1 0 6.013 0V39.445h1.345V56.97a3.007 3.007 0 0 0 6.013 0V22.802l5.186 10.384c1.037-2 2.176-3.722 4.111-4.41l-2.595-5.638c-2.463-5.093-4.123-8.588-9.028-8.588Zm-4.37-1.152A6.688 6.688 0 1 0 19.164.021a6.688 6.688 0 0 0 0 13.377Zm60.245 19.053-4.519-9.313c-2.463-5.094-4.122-8.588-9.028-8.588h-8.737c-4.904 0-6.565 3.495-9.028 8.588L45.35 28.78c1.964.65 3.118 2.02 4.16 4.002l5.305-9.98-3.037 15.42 1.4 2.798c.743 1.525-.134 4.473-3.183 4.473h4.82V56.95a3.007 3.007 0 0 0 6.013 0V45.493h1.345V56.97a3.007 3.007 0 0 0 6.013 0V45.493h4.684l-4.684-22.69 6.231 12.07a2.778 2.778 0 0 0 3.712 1.275 2.762 2.762 0 0 0 1.28-3.696ZM61.491 13.398a6.688 6.688 0 1 0 0-13.376 6.688 6.688 0 1 0 0 13.376Zm-12.179 22.06c-1.64-3.39-2.744-5.717-6.01-5.717h-5.814c-3.265 0-4.37 2.327-6.01 5.717l-3.007 6.199a1.831 1.831 0 0 0 .85 2.46c.93.442 2.15-.194 2.47-.848l4.16-8.034-2.614 13.481h2.614v9.246a2.002 2.002 0 0 0 4.003 0v-9.247h.895v9.262a2.002 2.002 0 1 0 4.003 0v-9.261h2.767l-2.767-13.482L49 43.268c.445.85 1.453 1.34 2.47.848a1.836 1.836 0 0 0 .851-2.46l-3.009-6.198Z"/>
  </g>
</svg>
