<svg xmlns="http://www.w3.org/2000/svg" width="28" height="60" fill="none" viewBox="0 0 28 60">
  <path fill="#1C284C" d="M14.27 0c-2.576 0-4.665 4.03-4.665 8.998V15c-.068 1.453 1.1 1.453 1.033 0V8.998c0-3.895 1.613-7.006 3.632-7.006 2.02 0 3.63 3.11 3.63 7.006V15c-.016 1.363 1.052 1.363 1.036 0V8.998C18.936 4.029 16.846 0 14.27 0ZM6.492 10.998c-.715 0-1.34.59-1.78 1.492-.437.902-.706 2.085-.807 3.352L.792 54.847c-.115 1.448.201 2.79.697 3.698.496.908 1.175 1.454 1.891 1.454L25.161 60c.716 0 1.39-.547 1.887-1.455.496-.908.812-2.25.697-3.697l-3.112-39.006c-.101-1.267-.366-2.45-.805-3.351-.438-.902-1.063-1.492-1.78-1.492h-2.073V15c0 4.001-3.112 4.001-3.112 0v-4.002h-5.188V15c.116 4.213-3.223 4.213-3.107 0v-4.002H6.492Zm7.776 9.479h.002c.141 0 .276.11.373.304l1.307 2.62 1.81-1.007c.283-.156.576.171.646.72l.455 3.527 1.828.874c.285.137.455.702.374 1.246l-.522 3.495 1.358 2.521c.211.393.211 1.045 0 1.438l-1.358 2.521.522 3.495c.08.544-.089 1.109-.374 1.245l-1.829.875-.453 3.526c-.071.55-.364.877-.646.72l-1.81-1.003-1.308 2.615c-.204.407-.542.407-.746 0l-1.308-2.615-1.812 1.003c-.282.157-.575-.17-.646-.72l-.454-3.525-1.829-.875c-.284-.137-.453-.702-.372-1.246l.52-3.494-1.356-2.522c-.21-.393-.21-1.044 0-1.437l1.356-2.522-.52-3.494c-.081-.544.088-1.11.372-1.246l1.83-.875.453-3.526c.07-.55.364-.876.646-.72L12.59 23.4l1.308-2.62c.097-.193.231-.303.371-.304Zm0 2.441-1.15 2.305c-.134.265-.332.368-.516.265l-1.594-.885-.398 3.104c-.047.36-.192.64-.38.73l-1.609.77.46 3.072c.052.356-.001.74-.14.996l-1.195 2.222 1.196 2.219c.138.257.191.64.138.996l-.459 3.072 1.61.77c.187.089.332.37.379.73l.398 3.104 1.594-.885c.184-.102.383 0 .516.267l1.15 2.303 1.15-2.303c.134-.268.334-.37.52-.267l1.592.885.4-3.104c.046-.36.192-.642.38-.73l1.606-.77-.456-3.072c-.054-.355-.001-.739.136-.996l1.196-2.219-1.196-2.222c-.137-.258-.19-.64-.136-.996l.458-3.072-1.609-.77c-.187-.088-.333-.37-.38-.73l-.399-3.104-1.593.885c-.185.104-.384.002-.518-.265l-1.15-2.305Zm-1.944 6.227c.385-.023.773.237 1.072.78.598 1.09.627 2.937.062 4.09-.564 1.154-1.523 1.208-2.12.12-.599-1.09-.627-2.94-.062-4.092.282-.577.663-.877 1.048-.899Zm4.794 1.992-4.941 10.09c-.475.97-1.23-.403-.755-1.373l4.942-10.09c.092-.188.215-.31.352-.325.477-.053.734 1.047.403 1.698Zm-5.088.28c-.18.367-.171.916.02 1.263.19.347.474.33.654-.038.18-.367.17-.915-.02-1.261-.095-.174-.213-.257-.33-.25-.118.008-.234.101-.324.285Zm4.102 4.657c.385-.022.774.238 1.073.782.598 1.088.624 2.932.059 4.085-.564 1.154-1.52 1.212-2.119.123-.598-1.088-.626-2.936-.061-4.09.282-.576.663-.878 1.048-.9Zm-.294 2.274c-.18.367-.171.917.02 1.264.19.346.474.33.654-.038.18-.367.172-.917-.019-1.264-.095-.173-.214-.254-.332-.248-.117.008-.233.102-.323.285v.001Z"/>
</svg>
