<svg xmlns="http://www.w3.org/2000/svg" width="30" height="60" fill="none" viewBox="0 0 30 60">
  <path fill="#1C284C" d="M20.157 5.882c0-1.558.368-3.053 1.023-4.155C21.834.624 22.723.003 23.65 0c.927-.003 1.816.613 2.473 1.712.657 1.099 1.028 2.592 1.031 4.15.004 1.558-.361 3.055-1.013 4.162-.653 1.106-1.54 1.733-2.467 1.74-.931.009-1.826-.607-2.486-1.712-.66-1.104-1.031-2.604-1.031-4.17Zm-1.438 8.906-.23.275-3.48 4.61-3.678-5.111c-.278-.393-.63-.61-.993-.612H3.533c-.714 0-1.4.477-1.905 1.327-.505.85-.79 2.001-.79 3.202v11.38c.001 1.051.22 2.07.618 2.881.399.81.953 1.363 1.567 1.562v22.77c-.009.71.138 1.399.413 1.936.275.538.658.886 1.076.978.466.076.93-.182 1.277-.711.346-.53.544-1.28.544-2.068V40.92c-.008-.515.206-.965.506-1.065.18-.061.366.017.507.213.141.196.222.489.221.797v16.208c-.01.708.137 1.397.412 1.934.274.538.656.887 1.073.98.467.076.93-.183 1.277-.712.346-.529.544-1.28.544-2.067v-36.45l3.117 4.34c.275.382.62.594.979.601.357.007.706-.193.986-.565l1.599-2.118v6.843c0 1.052.218 2.07.617 2.882.399.81.953 1.363 1.567 1.562v22.77c-.009.708.138 1.397.412 1.934.274.538.656.887 1.074.98.466.076.93-.182 1.276-.712.347-.529.544-1.28.544-2.067V40.92c-.008-.514.206-.964.506-1.065a.588.588 0 0 1 .204 0c.3.101.514.55.506 1.066v16.152c-.009.713.14 1.405.418 1.944.278.538.665.884 1.086.97.466.076.93-.183 1.276-.712.347-.529.544-1.28.544-2.067v-22.93c.614-.199 1.169-.751 1.567-1.562.399-.81.617-1.83.618-2.882V18.492c0-1.201-.284-2.353-.79-3.203-.505-.849-1.19-1.326-1.905-1.326h-6.826c-.393 0-.78.147-1.136.428a2.78 2.78 0 0 0-.393.398ZM6.926 11.765c.929 0 1.818-.62 2.475-1.723.656-1.104 1.024-2.6 1.024-4.16s-.368-3.056-1.024-4.16C8.744.62 7.854 0 6.926 0c-.928 0-1.818.62-2.474 1.723-.656 1.103-1.024 2.6-1.024 4.16s.368 3.055 1.024 4.159c.656 1.103 1.547 1.723 2.474 1.723Z"/>
</svg>
