<svg xmlns="http://www.w3.org/2000/svg" width="47" height="60" fill="none" viewBox="0 0 47 60">
  <path fill="#1C284C" d="M23.334 8.386a15.539 15.539 0 0 0-15.57 15.57c0 8.623 6.946 15.57 15.57 15.57a15.54 15.54 0 0 0 15.57-15.57 15.54 15.54 0 0 0-15.57-15.57Zm10.539 15.81c-.24.24-.6.36-.959.36-.24 0-.598-.12-.838-.36l-.359-.24v8.983c0 .599-.599 1.198-1.198 1.198h-4.79c-.6 0-1.198-.6-1.198-1.198v-2.395c0-.6-.48-1.198-1.198-1.198-.719 0-1.198.479-1.198 1.198v2.395c0 .599-.599 1.198-1.198 1.198h-4.79c-.6 0-1.198-.6-1.198-1.198l.001-8.983-.36.36c-.479.479-1.197.359-1.676-.12-.48-.48-.36-1.198.12-1.677l9.581-8.383c.48-.36 1.079-.36 1.557 0l9.582 8.383c.478.36.478 1.078.119 1.677Zm4.073 21.551c-1.438.839-2.995.959-4.432.959h-1.797c-.48 0-.958 0-1.078.12-.24.12-1.078.718-1.438.958-.838.599-1.796 1.317-2.874 1.916l5.63 9.701c.239.36.598.6 1.077.6h.12c.48-.12.839-.36.958-.84l1.438-5.389 5.39 1.438c.478.12.958 0 1.317-.48.24-.359.36-.958.12-1.317l-4.431-7.666Zm-22.039.959c-.12 0-.479-.12-1.078-.12h-1.677c-1.437 0-2.994-.12-4.431-.839l-4.312 7.545c-.24.48-.24.959.12 1.318.24.36.838.599 1.318.48l5.389-1.438 1.438 5.39c.12.478.479.838.958.838h.12c.479 0 .838-.24 1.078-.6l5.629-9.7c-1.198-.48-2.156-1.198-2.875-1.797-.599-.359-1.317-.958-1.677-1.078Z"/>
  <path fill="#1C284C" d="M44.89 23.953c0-.838.36-1.676.6-2.754.478-1.557 1.077-3.114.598-4.67-.599-1.677-2.036-2.636-3.353-3.594-.839-.599-1.557-1.078-2.036-1.676-.48-.6-.719-1.557-.959-2.515-.479-1.557-.958-3.234-2.395-4.193-1.317-.958-3.114-.958-4.671-.958-1.078 0-2.036 0-2.755-.24-.718-.24-1.437-.838-2.155-1.437C26.567 1.078 25.129 0 23.333 0c-1.796 0-3.234 1.078-4.431 2.036-.839.599-1.557 1.198-2.156 1.437-.839.24-1.797.24-2.755.12-1.557 0-3.354 0-4.67.958-1.318.959-1.917 2.755-2.396 4.192-.24.959-.599 1.916-.958 2.515-.48.6-1.198 1.198-2.036 1.677-1.318.958-2.755 1.916-3.354 3.593-.479 1.557 0 3.114.6 4.67.359.959.598 1.917.598 2.755 0 .839-.36 1.677-.599 2.755-.479 1.557-1.078 3.114-.599 4.67.6 1.677 2.036 2.635 3.354 3.593.839.6 1.557 1.079 2.036 1.677.479.599.719 1.557.958 2.515.48 1.557.958 3.234 2.395 4.192 1.318.959 3.114.959 4.671.959 1.078 0 2.036 0 2.755.24.718.239 1.437.838 2.155 1.437 1.318.958 2.755 2.035 4.431 2.035 1.677 0 3.234-1.078 4.431-2.035.839-.6 1.557-1.198 2.156-1.438.719-.24 1.676-.24 2.754-.24 1.557 0 3.354.12 4.671-.958 1.318-.958 1.916-2.754 2.395-4.192.24-.958.6-1.916.959-2.515.479-.599 1.198-1.078 2.035-1.677 1.318-.958 2.755-1.916 3.354-3.593.48-1.556 0-3.113-.599-4.67-.238-1.078-.598-1.917-.598-2.755ZM23.333 41.918c-9.941 0-17.965-8.024-17.965-17.965 0-9.94 8.024-17.964 17.965-17.964 9.94 0 17.964 8.024 17.964 17.964 0 9.941-8.024 17.965-17.964 17.965Z"/>
</svg>
