<svg xmlns="http://www.w3.org/2000/svg" width="74" height="60" fill="none" viewBox="0 0 74 60">
  <path fill="#1C284C" fill-rule="evenodd" d="M67.758 30h-4.594v4.615h4.594V30Z" clip-rule="evenodd"/>
  <path fill="#1C284C" fill-rule="evenodd" d="M67.78 43.805v-6.372a6.845 6.845 0 0 0 4.053-2.377 6.904 6.904 0 0 0 1.58-4.44 6.812 6.812 0 0 0-2.068-4.846L47.322 1.985A6.874 6.874 0 0 0 42.48 0l-.011.012a6.874 6.874 0 0 0-4.824 1.968l-2.908 2.866a5.523 5.523 0 0 0-1.991-1.86 5.492 5.492 0 0 0-2.635-.678h-5.03a5.536 5.536 0 0 0-3.915 1.638 5.589 5.589 0 0 0-1.62 3.937v12l-6.025 5.963a6.882 6.882 0 0 0-1.839 3.253 6.904 6.904 0 0 0 .13 3.738 6.874 6.874 0 0 0 2.058 3.117 6.825 6.825 0 0 0 3.379 1.571v17.86h-2.297V39.27a9.124 9.124 0 0 1-2.578-1.566 9.181 9.181 0 0 1-2.75-4.163 9.222 9.222 0 0 1-.172-4.994 9.195 9.195 0 0 1 2.457-4.346l5.34-5.285v-5.07c-4.166.078-7.525 3.56-7.525 7.835h-.187c-3.834 0-6.966 3.177-6.966 7.119v1.457a7.42 7.42 0 0 0 1.169 3.966A7.671 7.671 0 0 0 0 40.84c0 4.204 3.342 7.62 7.456 7.62h4.029v6.924c-2.527 0-4.594 2.077-4.594 4.615h64.313a4.61 4.61 0 0 0-1.583-3.486 9.625 9.625 0 0 0 1.075-2.26c.327-.967.508-2 .508-3.068a9.653 9.653 0 0 0-2.866-6.876l-.015-.014c-.175-.17-.356-.334-.543-.491ZM31.03 7.883v4.829l-6.89 6.826V7.883a.96.96 0 0 1 .272-.677.944.944 0 0 1 .67-.283h5.03a.915.915 0 0 1 .86.595c.043.117.063.24.058.365Zm-9.187 47.502V30.506l20.632-20.433 20.69 20.468v4.074h.022v7.051a9.52 9.52 0 0 0-3.468.066V33.96c0-.907-.74-1.651-1.644-1.651H49.88c-.903 0-1.644.744-1.644 1.651v8.235c0 .908.74 1.652 1.644 1.652h5.551a9.824 9.824 0 0 0-2.381 3.042c-2.516.842-4.332 3.072-4.725 5.702a2.457 2.457 0 0 0-.06.495c-.034.271-.03.486-.03.559v.02c0 .596.074 1.172.21 1.72h-2.506c0-1.266-.832-2.307-1.844-2.307h-.457v-18.18c0-1.433-1.05-2.59-2.352-2.59h-9.073c-1.302 0-2.352 1.157-2.352 2.59v18.18h-.453c-1.012 0-1.844 1.041-1.844 2.308h-5.72Zm29.009 0a4.825 4.825 0 0 0 1.862 2.284h12.334v.023l.042-.022a7.155 7.155 0 0 0 2.69-2.55 7.301 7.301 0 0 0 .736-1.595 7.327 7.327 0 0 0-1.792-7.572 7.36 7.36 0 0 0-3.537-1.937 7.192 7.192 0 0 0-1.561-.17c-2.871 0-5.375 1.714-6.57 4.168-.23.51-.688.88-1.217 1.042-1.745.556-3.032 2.13-3.261 4.006a.148.148 0 0 0 0 .138c-.046.14-.046.301-.046.463 0 .61.113 1.19.32 1.722Zm-10.656-9.231c.634 0 1.148-.517 1.148-1.154 0-.637-.514-1.154-1.148-1.154-.634 0-1.149.517-1.149 1.154 0 .637.515 1.154 1.149 1.154Z" clip-rule="evenodd"/>
</svg>
