<svg xmlns="http://www.w3.org/2000/svg" width="61" height="60" fill="none" viewBox="0 0 61 60">
  <path fill="#1C284C" d="M60.74 27.877v4.216c-.04.188-.089.375-.114.566-.134.983-.205 1.98-.4 2.952-1.47 7.341-5.098 13.407-11.016 17.992-7.358 5.7-15.688 7.578-24.789 5.686-7.083-1.472-12.867-5.171-17.305-10.868C1.923 41.753-.052 34.153 1.05 25.797c.759-5.739 3.083-10.836 6.859-15.23C12.589 5.12 18.46 1.721 25.54.456 26.532.278 27.532.151 28.53 0h4.332c.944.125 1.892.219 2.83.38 5.498.952 10.396 3.205 14.612 6.87 5.353 4.652 8.705 10.467 9.97 17.462.19 1.049.312 2.111.465 3.168v-.003Zm-32.722-1.85c-.548-.036-1.051-.11-1.554-.096a14.41 14.41 0 0 0-1.918.176C18.892 27.04 15 32.39 15.852 38.04c.938 6.225 7.109 10.305 13.192 8.722 4.93-1.281 8.091-5.373 8.088-10.49 0-3.843-.022-7.69-.033-11.534v-.495c1.412.682 2.741 1.415 4.142 1.972 1.426.565 2.94.813 4.48.724v-5.48c-4.398-.085-8.39-3.387-8.68-8.538h-5.483v.748c0 7.455 0 14.91-.008 22.365a8.9 8.9 0 0 1-.088 1.222c-.338 2.48-2.498 4.321-5.04 4.315-2.498-.005-4.688-1.912-5.02-4.37-.336-2.488 1.232-4.96 3.65-5.545.938-.227 1.946-.145 2.963-.208v-5.426l.003.006Z"/>
</svg>
