<svg xmlns="http://www.w3.org/2000/svg" width="50" height="60" fill="none" viewBox="0 0 50 60">
  <path fill="#1C284C" d="M17.482 10.16a5.05 5.05 0 0 0 5.08-5.08A5.051 5.051 0 0 0 17.482 0c-2.8 0-5.08 2.28-5.08 5.08 0 2.801 2.28 5.08 5.08 5.08Z"/>
  <path fill="#1C284C" d="M49.082 1.881a.79.79 0 0 0-.56-.24h-11.32v-.8c0-.44-.36-.8-.8-.8-.44 0-.8.36-.8.8V15.2l-6 1.84-3-3.68a4.157 4.157 0 0 0-3.24-1.56h-11.92c-1.16 0-2.24.52-2.92 1.4l-4.12 5.28c-.04.04-.04.08-.08.12-.36.6-.4 1.32-.12 2 0 .04 0 .04.04.08l3.52 6.68c.48 1.12 1.8 1.68 3 1.28V52.4c0 1.64 1.36 3 3.04 3s3.04-1.32 3.04-3V33.24c0-.16.08-.32.16-.44s.28-.16.44-.16c.32 0 .6.28.6.6V52.4c0 1.64 1.36 3 3.04 3s3.04-1.32 3.04-3V17.92l3.08 3.6c.04.04.04.08.08.08.4.36.92.56 1.48.56.16 0 .32 0 .44-.04h.08l6.24-1.84v25.761c0 .44.36.8.8.8.44 0 .8-.36.8-.8v-35.08h11.32c.44 0 .8-.36.8-.8v-7.6c.08-.32 0-.52-.16-.68V1.88Zm-38.32 20.96-1.6-3 1.6-1.96v4.96Z"/>
  <path fill="#1C284C" d="M21.162 57.32c-1.44 0-2.76-.6-3.68-1.56a5.1 5.1 0 0 1-3.68 1.56c-2.8 0-5.04-2.24-5.04-5v-7.2L.882 58.8c-.32.52.08 1.2.68 1.2h31.88c.6 0 1-.68.68-1.2l-7.96-13.76v7.28c.04 2.76-2.24 5-5 5Z"/>
</svg>
