<svg xmlns="http://www.w3.org/2000/svg" width="59" height="60" fill="none" viewBox="0 0 59 60">
  <path fill="#1C284C" d="M23.507 60a31.06 31.06 0 0 1-11.033-6.891 31.049 31.049 0 0 1 11.033-6.892 9.293 9.293 0 0 0 0 13.783Zm7.558-6.893a1.328 1.328 0 1 1-2.655 0 1.328 1.328 0 0 1 2.655 0Z"/>
  <path fill="#1C284C" d="M29.737 46.475a6.637 6.637 0 0 0-6.64 6.64 6.64 6.64 0 1 0 6.64-6.64Zm0 10.622a3.984 3.984 0 1 1 0-7.967 3.984 3.984 0 0 1 0 7.967Z"/>
  <path fill="#1C284C" d="M47 53.109A31.067 31.067 0 0 1 35.964 60a9.295 9.295 0 0 0 0-13.782 31.062 31.062 0 0 1 11.034 6.89ZM29.736 0C11.637 0 .525 4.634.525 7.967c.005.258.068.513.186.743.69 1.474 3.187 3.028 6.878 4.263.54.182.904.69.903 1.261v13.278L24.85 12.309a1.328 1.328 0 0 1 1.846 0l7.263 7.263 9.494-8.631a1.328 1.328 0 0 1 1.832 0l5.696 5.776v-2.483a1.328 1.328 0 0 1 .904-1.261c3.69-1.235 6.187-2.789 6.864-4.236.125-.238.193-.502.2-.77C58.949 4.634 47.834 0 29.737 0ZM15.13 15.934a5.311 5.311 0 1 1 0-10.622 5.311 5.311 0 0 1 0 10.622Zm38.507-.757v33.01c3.36-1.328 5.311-2.948 5.311-4.369V12.441a20.276 20.276 0 0 1-5.311 2.735Zm-9.295-1.394L30.665 26.21a1.326 1.326 0 0 1-.929.346 1.328 1.328 0 0 1-.89-2.311l3.134-2.855-6.227-6.267L8.49 31.058v4.647a80.697 80.697 0 0 1 21.245-2.51 80.698 80.698 0 0 1 21.245 2.577v-15.31l-6.638-6.68ZM.523 12.455v31.364c0 1.42 1.952 3 5.312 4.368v-33.01a20.486 20.486 0 0 1-5.312-2.735v.013Z"/>
</svg>
