<svg width="132" height="66" viewBox="0 0 132 66" fill="none" xmlns="http://www.w3.org/2000/svg">
<g clip-path="url(#clip0_1327_7102)">
<path d="M80.1123 0.0589092C80.2401 0.0369291 80.3691 0.0227832 80.4986 0.0165514C90.1292 -0.190727 99.7018 1.55073 108.636 5.13533C113.485 7.0675 117.803 9.93154 121.883 13.1442C125.263 15.8184 128.421 18.7604 131.325 21.9416C131.547 22.1638 131.721 22.4285 131.837 22.7198C131.953 23.0111 132.008 23.3228 132 23.6359C131.962 32.5832 131.944 41.5392 131.944 50.5038C131.959 50.6918 131.918 50.8801 131.826 51.0447C131.711 50.582 131.603 50.1226 131.499 49.6632C129.639 42.3092 126.417 35.558 122.276 29.2272C119.337 24.6887 115.914 20.4795 112.067 16.6729C107.849 12.6032 103.032 9.19722 97.7824 6.57224C92.32 3.74034 86.5145 1.61918 80.5085 0.260923C80.3775 0.231599 80.2531 0.182724 80.1221 0.143625L80.1123 0.0589092Z" fill="#1C284C"/>
<path d="M0.0325027 14.9023C0.798631 17.3558 1.45344 19.7735 2.32434 22.1227C5.20551 30.0664 9.56327 37.163 14.8509 43.748C23.7236 54.7969 35.4152 61.3428 48.901 65.1061C49.9225 65.3929 50.9637 65.6209 52.0015 65.9728C51.7527 65.9728 51.5006 65.9728 51.2485 65.9728C44.6382 66.1781 38.185 65.1713 31.7777 63.6366C22.3517 61.3754 14.2681 56.6965 7.1241 50.3167C4.90102 48.3292 2.84819 46.1526 0.710232 44.0706C0.47524 43.8593 0.289794 43.5992 0.16702 43.3086C0.0442461 43.0181 -0.0128538 42.7042 -0.000237849 42.3893C0.0325027 35.4654 0.0292286 28.5416 0.0325027 21.6144C0.0357767 19.3923 0.0325027 17.1734 0.0325027 14.9023Z" fill="#1C284C"/>
<path d="M88.1336 30.0748C88.1336 31.251 88.114 32.3035 88.1336 33.3526C88.1696 35.0339 88.2384 36.7119 88.294 38.3932V38.6246C88.3137 40.0224 88.4807 40.2244 89.7935 40.5209H86.0742C86.0742 40.4883 86.0971 40.4297 86.1168 40.4264C87.1448 40.2635 87.3053 40.068 87.3085 38.8461C87.3085 35.3076 87.3085 31.7691 87.3085 28.2306C87.3085 27.9862 87.3446 27.7419 87.3642 27.4975L87.5312 27.4062L97.7462 38.3639C97.7462 37.735 97.7462 37.2691 97.7462 36.8032C97.6938 34.4474 97.6284 32.0917 97.5792 29.7359C97.5465 28.1622 97.5531 28.1622 95.9946 27.7158H99.5666C98.6564 27.8201 98.5287 28.4456 98.532 29.1853C98.532 30.2116 98.5123 31.2347 98.5058 32.2578L98.4665 40.0778C98.4665 40.2635 98.437 40.4492 98.4076 40.8402C94.7537 37.3734 91.4895 33.7501 88.1336 30.0748Z" fill="#1C284C"/>
<path d="M53.6751 34.8374C54.9585 36.3427 56.2485 37.9099 57.604 39.4218C57.8805 39.737 58.2232 39.9879 58.6079 40.1568C58.9926 40.3257 59.4099 40.4085 59.8303 40.3993C59.9174 40.416 60.0021 40.4433 60.0824 40.4807C57.9641 40.9988 56.5923 40.5524 55.3252 38.92C54.4805 37.835 53.662 36.7337 52.8566 35.6194C52.755 35.4448 52.6056 35.3025 52.426 35.209C52.2463 35.1156 52.0437 35.0748 51.8416 35.0915C51.38 35.1208 50.9118 35.0426 50.4469 35.072C50.2995 35.072 50.0442 35.2935 50.0442 35.3978C50.0442 36.7011 50.0212 38.0272 50.1064 39.3338C50.1653 40.2005 50.3847 40.3113 51.2588 40.3797C51.3105 40.3783 51.3617 40.3891 51.4084 40.4112C51.4551 40.4333 51.4958 40.466 51.5273 40.5068H47.6246C48.4792 40.4286 48.6069 39.8063 48.6069 39.1513C48.6494 38.0924 48.6691 37.0302 48.6723 35.968C48.6723 33.8208 48.6723 31.6768 48.6723 29.5329C48.6723 28.1644 48.6232 28.0992 47.4609 27.7669C49.2322 27.7669 51.1475 27.5681 53.0006 27.8157C55.5282 28.1416 56.481 30.5038 55.1779 32.7846C54.7198 33.499 54.2179 34.1845 53.6751 34.8374ZM50.0212 31.3673V32.7553C50.0212 34.5734 50.0376 34.5897 51.8809 34.6321H51.9988C53.148 34.5962 53.7962 34.1303 54.1498 33.0388C54.2677 32.6923 54.3392 32.3319 54.3626 31.9668C54.4674 29.9271 53.5932 27.8776 50.6924 28.1546C50.2308 28.197 49.9918 28.3664 50.0147 28.8779C50.0474 29.7055 50.0212 30.5364 50.0212 31.3673Z" fill="#1C284C"/>
<path d="M24.6731 14.2175L29.2142 23.4613L33.5916 14.1914L33.7684 14.2272C33.86 15.0027 33.955 15.7782 34.0401 16.5537C34.2857 18.8345 34.5083 21.086 34.7833 23.3472C34.9438 24.6929 35.1107 24.8102 36.309 25.1002H33.7946C33.5392 22.373 33.2936 19.7338 33.0514 17.0945L32.8811 17.0587L29.0439 25.1295L28.8573 25.1686C28.2025 23.8653 27.5051 22.562 26.8601 21.2586C26.2151 19.9553 25.5898 18.5738 24.804 17.2086C24.7549 17.7006 24.7025 18.1861 24.6632 18.6846C24.5159 20.4571 24.3817 22.2264 24.2278 23.9956C24.1754 24.5919 24.2802 25.0415 24.9906 25.1425H22.4893C23.1637 25.0089 23.3209 24.543 23.3863 23.9272C23.7138 20.8155 24.0673 17.7104 24.4209 14.602C24.4441 14.4765 24.478 14.3534 24.5224 14.2338L24.6731 14.2175Z" fill="#1C284C"/>
<path d="M59.3389 27.7188H63.1695C62.148 27.9045 62.1709 28.6734 62.1676 29.4196C62.1676 31.4528 62.148 33.4827 62.1676 35.5126C62.1811 36.1493 62.2623 36.7827 62.4099 37.4024C62.5834 38.2547 63.0623 39.0151 63.7574 39.5421C64.4526 40.069 65.3165 40.3264 66.1882 40.2664C67.9889 40.1948 69.3837 38.9631 69.662 37.0342C69.7942 35.9237 69.8576 34.8062 69.8519 33.6879C69.8748 32.2185 69.8748 30.7555 69.8158 29.2795C69.7667 28.0902 69.7176 28.0902 68.5782 27.722H71.885C70.7293 27.911 70.9028 28.7972 70.9028 29.5858C70.8668 31.7525 70.8668 33.916 70.785 36.0795C70.6867 38.5917 69.3215 40.2762 66.9314 40.7161C64.7869 41.1071 62.7341 40.5923 61.6176 38.9305C60.8613 37.7999 60.7369 36.5096 60.7107 35.2128C60.6747 33.3002 60.7107 31.3843 60.7107 29.4717C60.7074 28.1814 60.6714 28.1358 59.3389 27.7188Z" fill="#1C284C"/>
<path d="M75.9583 40.5451H72.3994C73.8269 40.4767 74.1117 39.3558 74.4915 38.3229C75.7357 34.9343 76.9798 31.5468 78.224 28.1603C78.3156 27.9127 78.4335 27.6748 78.5972 27.2969C78.7707 27.6423 78.8951 27.8508 78.9803 28.0724C80.3073 31.474 81.6312 34.8746 82.9517 38.2741C83.0565 38.5445 83.1743 38.8084 83.3053 39.0691C83.6851 39.8283 84.1827 40.4441 85.142 40.5158H82.0611C82.0393 40.1725 81.9845 39.8321 81.8974 39.4992C81.4816 38.336 81.0102 37.1923 80.5878 36.0324C80.5555 35.8754 80.4661 35.7358 80.3369 35.6402C80.2076 35.5446 80.0475 35.4998 79.8872 35.5143C78.905 35.5143 77.9031 35.5143 76.9111 35.5338C76.7945 35.5403 76.6809 35.573 76.5788 35.6294C76.4767 35.6859 76.3888 35.7646 76.3217 35.8597C75.8961 37.0001 75.4901 38.1405 75.1496 39.3135C74.9073 40.0759 74.9925 40.1574 75.9583 40.5451ZM76.6131 34.9213H80.1753C79.5598 33.2335 78.9934 31.6043 78.4237 30.0013H78.224L76.6131 34.9213Z" fill="#1C284C"/>
<path d="M113.609 40.5568H110.558C110.516 40.1792 110.443 39.8055 110.342 39.4392C109.926 38.2793 109.458 37.1324 109.032 35.9724C109 35.832 108.917 35.7081 108.8 35.6236C108.682 35.5391 108.538 35.4998 108.394 35.513C107.382 35.513 106.37 35.513 105.359 35.513C105.214 35.4904 105.065 35.5236 104.943 35.6059C104.822 35.6882 104.736 35.8134 104.704 35.9561C104.36 37.0216 103.967 38.0708 103.637 39.1362C103.362 40.016 103.496 40.231 104.494 40.5308H100.88C100.884 40.5007 100.892 40.4712 100.903 40.4428C102.055 40.4428 102.491 39.6608 102.828 38.7452C104.111 35.2263 105.401 31.7106 106.698 28.1981C106.793 27.9375 106.917 27.6898 107.094 27.2891C107.261 27.6344 107.372 27.8267 107.451 28.032L111.291 37.9078C111.409 38.2141 111.527 38.5237 111.668 38.8202C112.067 39.6673 112.529 40.4428 113.609 40.5568ZM108.639 34.9395L106.898 30L106.734 29.9772L105.097 34.9265L108.639 34.9395Z" fill="#1C284C"/>
<path d="M26.042 27.7596C27.8231 27.7596 29.6664 27.6684 31.4933 27.789C32.7473 27.8737 33.7589 28.5644 34.0831 29.871C34.2683 30.5275 34.2676 31.2222 34.081 31.8782C33.8943 32.5343 33.5291 33.1263 33.0255 33.5887C32.6072 33.9814 32.1107 34.2824 31.5682 34.4721C31.0256 34.6618 30.4491 34.736 29.8759 34.69C29.8242 34.6866 29.7745 34.6693 29.7318 34.64C29.6892 34.6108 29.6553 34.5707 29.6336 34.5239C29.9631 34.503 30.2911 34.4628 30.6158 34.4033C32.2529 34.0188 33.1565 32.6406 32.9077 30.956C32.6261 29.1379 31.2903 28.0073 29.542 28.1115C28.6711 28.1637 28.6645 28.1669 28.6678 29.0141C28.6678 32.1855 28.6678 35.3558 28.6678 38.525C28.6678 38.7173 28.6678 38.9128 28.6874 39.105C28.7922 40.1607 28.933 40.2943 29.997 40.4083C30.0366 40.4137 30.0738 40.4299 30.1045 40.4553C30.1351 40.4806 30.1581 40.514 30.1706 40.5517H26.1238C26.2188 40.48 26.2679 40.4116 26.3137 40.4116C26.9293 40.4377 27.1323 40.0402 27.1912 39.5384C27.2622 38.9828 27.3004 38.4236 27.3058 37.8636C27.3058 35.1201 27.3058 32.3734 27.3058 29.6299C27.3091 28.2321 27.2567 28.1604 26.042 27.7596Z" fill="#1C284C"/>
<path d="M44.2452 38.5376C44.1863 39.1341 44.0834 39.7254 43.9374 40.3069C43.8785 40.4894 43.4463 40.6555 43.1844 40.6588C41.9599 40.6588 40.7387 40.5936 39.5142 40.5708C38.6891 40.5545 37.8771 40.5708 36.9964 40.5122C38.0245 40.4177 38.067 39.7041 38.0736 38.9645C38.1031 35.8333 38.1915 32.6988 38.1358 29.5676C38.1096 28.0329 38.2176 28.2121 36.8262 27.668H43.7672C43.6984 28.3001 43.6231 28.9713 43.5347 29.7435C43.0796 28.4402 42.8799 28.3066 41.531 28.2805C41.0039 28.2805 40.48 28.2805 39.9562 28.261C39.6288 28.261 39.5109 28.3913 39.5142 28.7106C39.5142 30.141 39.5142 31.5714 39.5338 33.0018C39.5338 33.1452 39.7434 33.3993 39.8612 33.4026C40.755 33.4286 41.6489 33.4286 42.5427 33.3765C42.8704 33.311 43.1876 33.2014 43.4856 33.0507C43.4201 33.761 43.3546 34.4778 43.2892 35.1946C43.1516 34.2171 42.5099 34.0184 41.6783 34.0282C41.1348 34.0282 40.5913 33.9858 40.0413 33.9597C39.6877 33.9402 39.5043 34.0673 39.5076 34.455C39.5076 35.8886 39.5076 37.319 39.5076 38.7494C39.5076 39.5412 39.7826 39.8898 40.5586 39.9517C41.3678 40.0197 42.1822 39.9913 42.9847 39.867C43.3121 39.8149 43.6035 39.4076 43.8556 39.1144C43.9616 38.9222 44.0315 38.7124 44.0618 38.4953L44.2452 38.5376Z" fill="#1C284C"/>
<path d="M52.7444 20.4495C53.8936 21.7529 55.0854 23.1604 56.3753 24.4833C56.742 24.8613 57.4034 24.959 57.8126 25.135C57.1851 25.3238 56.5148 25.3191 55.89 25.1213C55.2652 24.9236 54.7153 24.5421 54.3127 24.0271C53.5629 23.092 52.8426 22.1276 52.142 21.1533C52.0292 20.9651 51.8658 20.812 51.6703 20.7113C51.4748 20.6105 51.2549 20.5662 51.0354 20.5831C49.6733 20.6157 49.6701 20.5831 49.6733 21.9353C49.6733 22.5544 49.6733 23.1735 49.6897 23.7925C49.7323 24.7928 49.8698 24.9329 50.8618 25.135H47.7122C48.3343 25.0633 48.4652 24.6104 48.5045 24.0988C48.534 23.7534 48.5634 23.4048 48.5634 23.0594C48.5634 20.72 48.5634 18.3773 48.5634 16.0378C48.5634 14.8257 48.5634 14.8257 47.6074 14.4869C49.0153 14.4869 50.5704 14.3565 52.0961 14.5194C54.0802 14.7345 55.0002 16.4549 54.1784 18.273C53.8576 18.9963 53.3043 19.6154 52.7444 20.4495ZM49.6701 17.39C49.6701 18.0058 49.7159 18.6281 49.6701 19.244C49.6242 19.8598 49.8632 20.1074 50.4264 20.153C51.258 20.2149 52.1191 20.3779 52.751 19.6154C53.4549 18.765 53.5367 17.0674 52.9376 15.9824C52.4236 15.0538 51.4872 14.6595 50.1808 14.7997C50.1081 14.7945 50.035 14.806 49.9674 14.8332C49.8998 14.8604 49.8393 14.9027 49.7906 14.9568C49.742 15.0109 49.7064 15.0754 49.6866 15.1453C49.6669 15.2152 49.6634 15.2887 49.6766 15.3601C49.6799 16.0345 49.6734 16.7123 49.6701 17.39Z" fill="#1C284C"/>
<path d="M84.271 25.1472H81.8024C81.8004 24.9037 81.7719 24.6612 81.7173 24.4239C81.3506 23.4073 80.9413 22.4037 80.5779 21.3871C80.5471 21.2438 80.4616 21.1179 80.3396 21.0359C80.2175 20.9539 80.0682 20.9221 79.9231 20.9473C79.1275 20.9473 78.3286 20.9473 77.533 20.9473C77.3888 20.9252 77.2415 20.9579 77.1202 21.0387C76.999 21.1196 76.9126 21.2427 76.8782 21.3839C76.5901 22.2832 76.2725 23.1759 76.0008 24.0785C75.8011 24.7302 75.8993 24.8768 76.6556 25.144H73.8301C74.7141 25.0299 75.0644 24.3978 75.3361 23.6549C76.4057 20.7377 77.4861 17.8215 78.5775 14.9064C78.6626 14.6751 78.7608 14.4502 78.9049 14.0625C79.0555 14.3883 79.1504 14.5512 79.2323 14.7304C80.3018 17.5087 81.3757 20.2793 82.4539 23.0424C82.5587 23.3128 82.6733 23.5767 82.7813 23.8374C83.0956 24.4793 83.4885 24.9973 84.271 25.1472ZM78.7837 16.3922L78.5873 16.3303C78.142 17.689 77.7 19.0509 77.2449 20.4422H80.2145C79.7168 19.0281 79.2519 17.7085 78.7837 16.3922Z" fill="#1C284C"/>
<path d="M63.9455 18.9203C63.8833 19.5003 63.8309 20.0281 63.7752 20.5494C63.5984 19.7577 62.9927 19.686 62.3445 19.6664C60.642 19.611 60.642 19.6078 60.642 21.2695C60.642 22.0808 60.642 22.8987 60.642 23.7067C60.642 24.2476 60.9104 24.619 61.4572 24.6581C62.0948 24.7037 62.7349 24.7037 63.3725 24.6581C64.0273 24.6027 64.3024 24.1075 64.5446 23.534C64.5074 24.0072 64.433 24.4768 64.322 24.9384C64.2762 25.085 63.9258 25.2283 63.7163 25.2251C62.2986 25.2251 60.881 25.1762 59.46 25.1501C59.1948 25.1501 58.9264 25.1501 58.6219 25.1176C59.2112 25.0231 59.4011 24.6223 59.4076 24.1401C59.4338 21.3379 59.4699 18.5358 59.4535 15.7337C59.4535 14.7562 59.3684 14.7366 58.4287 14.4141H64.1714C64.1157 14.9354 64.0601 15.4567 64.0077 15.9585C63.8145 15.6685 63.6803 15.3068 63.4249 15.1309C63.1082 14.9895 62.7634 14.9215 62.4165 14.9321C61.9909 14.8963 61.562 14.9321 61.1363 14.893C60.8089 14.867 60.6354 14.968 60.642 15.3394C60.642 16.4798 60.642 17.6202 60.642 18.7606C60.642 18.9072 60.7958 19.1777 60.8875 19.1809C61.8992 19.2233 62.9109 19.3145 63.9455 18.9203Z" fill="#1C284C"/>
<path d="M14.4421 25.143C14.6691 25.106 14.8733 24.9843 15.0132 24.8027C15.1531 24.6211 15.2182 24.3932 15.1952 24.1655C15.2279 21.3829 15.277 18.5971 15.277 15.8145C15.277 14.837 15.1657 14.7458 14.2031 14.4102H19.972L19.8083 15.935C19.625 14.9804 18.9145 14.925 18.1713 14.9185C17.762 14.9185 17.356 14.9185 16.9501 14.8826C16.5441 14.8468 16.4229 14.9966 16.4295 15.3779C16.4295 16.4987 16.4295 17.6196 16.4491 18.7404C16.4491 18.8968 16.639 19.1803 16.7471 19.1836C17.7293 19.2064 18.7573 19.3595 19.7559 18.9131L19.5857 20.5423C19.4023 19.7929 18.8228 19.6886 18.1909 19.6788C17.745 19.6511 17.2978 19.6511 16.8518 19.6788C16.7579 19.707 16.6724 19.7576 16.6027 19.8264C16.5331 19.8951 16.4815 19.9798 16.4524 20.0731C16.4229 21.2917 16.4262 22.5103 16.4524 23.7289C16.4416 23.8463 16.4552 23.9648 16.4923 24.0768C16.5294 24.1888 16.5893 24.292 16.6682 24.38C16.7472 24.468 16.8434 24.5389 16.951 24.5884C17.0587 24.6378 17.1753 24.6646 17.2938 24.6673C17.9129 24.7113 18.5344 24.7113 19.1535 24.6673C19.8672 24.6086 20.1357 24.0905 20.2503 23.4356L20.3878 23.4715C20.3362 23.9686 20.2509 24.4618 20.1324 24.9475C20.0866 25.0908 19.7363 25.2277 19.5235 25.2244C18.1254 25.2244 16.7274 25.1756 15.3294 25.1495C15.0216 25.1397 14.7335 25.143 14.4421 25.143Z" fill="#1C284C"/>
<path d="M41.3022 20.121C41.5717 20.1032 41.8397 20.0673 42.1044 20.0135C43.5646 19.642 44.2587 18.3843 43.9018 16.8269C43.7678 16.1539 43.3727 15.5607 42.8021 15.1758C42.2314 14.791 41.5314 14.6455 40.8537 14.7709C40.4117 14.8458 40.4019 15.1195 40.4019 15.4388C40.4019 16.7161 40.4019 17.9901 40.4019 19.2673C40.4019 20.7748 40.4193 22.2823 40.4542 23.7898C40.4542 24.7673 40.5819 24.9042 41.5478 25.1355H38.6666C38.8238 24.8618 39.1905 24.5099 39.197 24.158C39.2625 21.3581 39.2843 18.5559 39.2625 15.7516C39.2625 14.8002 39.1872 14.8002 38.2803 14.4483C39.711 14.4483 41.1811 14.3864 42.638 14.4679C43.82 14.533 44.7236 15.1195 45.0019 16.3544C45.1379 16.9842 45.0782 17.6403 44.8309 18.2356C44.5835 18.8309 44.1602 19.3373 43.617 19.6876C43.2855 19.9219 42.9069 20.082 42.5073 20.1568C42.1077 20.2316 41.6966 20.2194 41.3022 20.121Z" fill="#1C284C"/>
<path d="M72.324 16.1692C71.751 14.843 71.0471 14.4358 69.8128 14.6671C68.5031 14.9082 67.9204 16.2604 68.7094 17.3226C69.1729 17.8669 69.6859 18.3675 70.2417 18.8182C70.7229 19.2646 71.2632 19.6588 71.7183 20.1215C72.1838 20.5559 72.5006 21.1248 72.624 21.748C72.7473 22.3712 72.671 23.0171 72.4058 23.5948C71.8885 24.8199 70.8441 25.3348 69.5672 25.3445C68.911 25.3325 68.2584 25.2451 67.6224 25.0839C67.5122 25.0281 67.417 24.947 67.3447 24.8473C67.2724 24.7475 67.225 24.632 67.2066 24.5104C67.1509 23.965 67.1885 23.4141 67.3179 22.8813C67.3584 22.9456 67.3882 23.016 67.4063 23.0898C67.3948 23.4698 67.5132 23.8424 67.7422 24.1466C67.9712 24.4509 68.2972 24.6688 68.6668 24.7646C69.5901 25.0643 70.4839 25.0089 71.1911 24.2497C71.4794 23.967 71.6653 23.5971 71.7198 23.1979C71.7743 22.7988 71.6943 22.393 71.4924 22.0439C71.0922 21.4376 70.6121 20.8874 70.0649 20.4082C69.505 19.8478 68.8633 19.3688 68.3165 18.7986C68.0249 18.4993 67.8031 18.1399 67.6667 17.7457C67.5303 17.3515 67.4828 16.9323 67.5275 16.5178C67.701 14.6247 69.3806 14.0904 70.8899 14.1914C71.2533 14.2175 71.6135 14.3445 71.9769 14.3673C72.3403 14.3901 72.4746 14.5563 72.4222 14.9278C72.3698 15.2992 72.3567 15.7163 72.324 16.1692Z" fill="#1C284C"/>
<path d="M42.1595 11.76H40.5225C40.4374 10.8639 40.3588 10.0038 40.2769 9.15334C40.2156 8.26492 40.0854 7.38255 39.8873 6.51413L37.2975 11.9262L34.7045 6.6412H34.5735C34.5375 7.00939 34.4982 7.37757 34.4655 7.74576C34.3673 8.84055 34.2494 9.93533 34.1937 11.0366C34.1937 11.2908 34.3935 11.5547 34.4819 11.7763H33.2803C33.4365 11.574 33.5551 11.3456 33.6306 11.1018C33.886 9.09144 34.1053 7.07455 34.3378 5.06093C34.3507 4.90831 34.4194 4.76571 34.531 4.66016L37.4973 10.701C38.4795 8.59943 39.4158 6.64446 40.3424 4.69274H40.4897C40.5552 5.17171 40.6305 5.65068 40.6829 6.1329C40.8499 7.64801 41.0103 9.16312 41.1707 10.6945C41.2526 11.4048 41.4359 11.6231 42.1595 11.76Z" fill="#1C284C"/>
<path d="M50.8553 4.60051C53.1472 4.70477 54.5779 6.16449 54.4568 8.2726C54.3324 10.3156 52.9212 12.1239 50.2005 11.9186C48.259 11.772 46.9264 10.1559 47.041 7.937C47.105 6.99222 47.542 6.11101 48.2567 5.48585C48.9714 4.8607 49.9056 4.54241 50.8553 4.60051ZM53.6284 8.41597C53.6476 7.45678 53.3225 6.52221 52.7117 5.78001C51.4021 4.23558 48.8352 4.62983 48.128 6.49683C47.8866 7.1016 47.7904 7.75414 47.8473 8.40243C47.9041 9.05073 48.1124 9.67684 48.4554 10.2308C48.7453 10.7334 49.1836 11.135 49.7108 11.381C50.238 11.627 50.8285 11.7055 51.4021 11.6058C52.4465 11.4331 53.2028 10.6512 53.468 9.44233C53.5499 9.12302 53.5793 8.75809 53.6284 8.41597Z" fill="#1C284C"/>
<path d="M22.3318 11.791H20.8061C20.9531 11.503 21.0547 11.1942 21.1073 10.8755C21.1433 9.09969 21.1499 7.32066 21.1073 5.54489C21.1073 5.2549 20.8421 4.97469 20.7275 4.74987C21.402 4.74987 22.2565 4.7238 23.1078 4.74987C24.7448 4.80852 25.4749 6.16071 24.6597 7.56177C24.4133 7.93627 24.1455 8.29636 23.8575 8.64027C24.9183 9.72854 25.4946 11.3023 27.0727 11.765C25.9595 12.0322 25.1082 11.5271 24.4796 10.5236C24.2242 10.1163 23.8477 9.77741 23.6283 9.35384C23.3009 8.70218 22.7214 8.70218 22.1354 8.78038C22.0535 8.80835 21.9803 8.85698 21.9229 8.92151C21.8655 8.98604 21.8259 9.06427 21.808 9.14856C21.8059 9.84566 21.8486 10.5422 21.9357 11.2339C21.9357 11.4489 22.2107 11.6346 22.3318 11.791ZM21.8047 6.71788C21.8047 7.12516 21.7851 7.52919 21.8047 7.93322C21.8101 8.1179 21.8876 8.29322 22.0208 8.42196C22.4137 8.69892 23.373 8.59465 23.7331 8.28186C24.257 7.82895 24.4141 6.77978 24.0605 5.95869C23.9341 5.63201 23.7038 5.35547 23.4046 5.17131C23.1055 4.98716 22.754 4.90551 22.4039 4.93885C21.9782 4.93885 21.749 5.10176 21.7752 5.56118C21.8211 5.94566 21.8047 6.3334 21.8047 6.71788Z" fill="#1C284C"/>
<path d="M32.2366 50.7532C32.34 50.5318 32.4116 50.2971 32.4494 50.0559C32.469 48.4528 32.4756 46.8465 32.4494 45.2434C32.4089 45.0331 32.3229 44.834 32.1973 44.6602C33.222 44.6602 34.44 44.5461 35.6285 44.6895C37.1738 44.8752 38.0873 46.0547 38.1102 47.5764C38.1438 48.3184 37.9099 49.0479 37.4507 49.6334C36.9914 50.2189 36.337 50.6218 35.6056 50.7695C35.0311 50.8522 34.4503 50.8827 33.8703 50.8607C33.2908 50.8542 32.7113 50.7858 32.2366 50.7532ZM33.1107 47.4949H33.1271C33.1271 48.2671 33.1271 49.0393 33.1271 49.8083C33.1058 49.9837 33.1526 50.1606 33.2579 50.3028C33.3631 50.4451 33.5189 50.5421 33.6935 50.574C34.7903 50.7988 35.8544 50.7239 36.6762 49.8963C37.498 49.0687 37.5405 48.0553 37.2819 47.029C36.8039 45.1457 35.1014 44.6309 33.5265 44.7938C33.3694 44.8101 33.1435 45.1522 33.1271 45.3542C33.0682 46.0612 33.1107 46.7781 33.1107 47.4916V47.4949Z" fill="#1C284C"/>
<path d="M56.8473 59.3025C56.4138 59.3197 55.9814 59.247 55.5776 59.089C55.1739 58.9311 54.8075 58.6913 54.5018 58.3849C54.1961 58.0785 53.9577 57.7122 53.8018 57.3093C53.6459 56.9063 53.5759 56.4755 53.5962 56.0442C53.5953 55.6171 53.6796 55.1942 53.8441 54.7997C54.0086 54.4053 54.2501 54.0472 54.5546 53.7463C54.8591 53.4454 55.2206 53.2076 55.618 53.0467C56.0155 52.8857 56.4411 52.8048 56.8703 52.8087C58.8347 52.8087 60.1803 54.0404 60.1869 55.8976C60.1836 57.8623 58.7823 59.3025 56.8473 59.3025ZM59.5714 56.1811C59.4108 55.5116 59.1917 54.8575 58.9165 54.2261C58.7032 53.8174 58.3692 53.4837 57.9594 53.2699C57.5496 53.0561 57.0837 52.9724 56.6247 53.0303C56.1428 53.0374 55.6763 53.2001 55.2954 53.4939C54.9146 53.7877 54.6399 54.1968 54.5129 54.6594C54.1974 55.6069 54.2715 56.6401 54.7192 57.5333C55.5803 59.2927 57.9081 59.6088 58.8969 58.0709C59.2603 57.5398 59.3487 56.8392 59.5877 56.1811H59.5714Z" fill="#1C284C"/>
<path d="M51.2908 58.0415C51.2908 56.484 51.3104 55.021 51.2908 53.558C51.2908 53.3332 51.0419 53.1117 50.9372 52.9357H51.9358C51.8437 53.3655 51.7803 53.8009 51.7459 54.239C51.7197 55.6499 51.7459 57.0607 51.7459 58.4748V59.1037L51.5789 59.2112L46.7726 54.1673C46.5532 55.0862 46.789 58.6833 47.1 59.1232H46.2422C46.5336 57.0607 46.2684 54.9949 46.4157 52.7695L51.2908 58.0415Z" fill="#1C284C"/>
<path d="M14.4678 4.74609C15.2634 4.74609 16.059 4.74609 16.8546 4.74609C18.0332 4.7689 18.724 5.32933 18.7666 6.25794C18.8223 7.47003 18.0561 8.41493 16.92 8.53875C16.7632 8.55322 16.6054 8.55322 16.4486 8.53875C17.1492 8.44426 17.732 8.17056 17.9972 7.47654C18.1222 7.16973 18.1611 6.8349 18.1098 6.5078C18.0585 6.1807 17.9188 5.87361 17.7058 5.61932C17.5114 5.38202 17.262 5.19529 16.979 5.07518C16.059 4.67767 15.7152 4.90901 15.7152 5.86695C15.7152 7.49609 15.7152 9.15131 15.7152 10.7935C15.7152 11.2562 15.7479 11.7417 16.3962 11.7905H14.6871C14.8143 11.5749 14.903 11.339 14.9491 11.0933C14.9883 9.27947 15.0069 7.46351 15.0047 5.64538C15.0047 5.27394 15.0145 4.83733 14.4678 4.74609Z" fill="#1C284C"/>
<path d="M27.9639 11.8361C28.1001 11.6113 28.1985 11.3659 28.2553 11.1095C28.2913 9.27186 28.3142 7.43744 28.2978 5.59977C28.2407 5.29805 28.1298 5.00894 27.9704 4.74609H31.3656L31.2903 5.7692C31.0382 4.99372 30.5307 5.03934 30.0527 5.04586C28.9723 5.04586 29.0443 4.87317 29.041 6.02334C29.0191 6.50667 29.0268 6.99088 29.0639 7.47329C29.0944 7.5667 29.1468 7.65152 29.2168 7.72067C29.2869 7.78981 29.3725 7.84129 29.4667 7.8708C29.7536 7.91703 30.0458 7.92251 30.3343 7.88709C30.6191 7.8708 30.9007 7.82518 31.2314 7.78608L31.1233 8.69515C30.8581 8.27157 29.5878 7.95226 29.1982 8.22595C29.1515 8.27069 29.1144 8.32434 29.0891 8.38369C29.0638 8.44303 29.0508 8.50686 29.0509 8.57133C29.0509 9.30445 29.0312 10.0408 29.0509 10.7739C29.0385 10.8713 29.0484 10.9702 29.0798 11.0632C29.1112 11.1562 29.1633 11.241 29.2323 11.3112C29.3012 11.3813 29.3852 11.4351 29.4779 11.4685C29.5707 11.5018 29.6698 11.5139 29.7679 11.5038C30.4521 11.5038 31.1954 11.7254 31.5751 10.8749C31.6013 11.8068 31.5751 11.8361 30.6781 11.8361H27.9639Z" fill="#1C284C"/>
<path d="M44.7826 59.1923L43.843 59.1434C43.5941 58.4917 43.3257 57.8401 43.1161 57.1884C43.0806 57.0288 42.9845 56.8891 42.8477 56.7986C42.711 56.7081 42.5443 56.6738 42.3827 56.7029C40.6606 56.7518 41.0895 56.4325 40.5231 58.0258C40.4195 58.3834 40.3375 58.7468 40.2775 59.1141H39.5703C39.7504 58.7296 39.9796 58.3321 40.1367 57.9085C40.7064 56.3934 41.2532 54.8685 41.8098 53.3469C41.8687 53.1905 41.9473 53.0211 42.0651 52.7734C42.183 53.0569 42.2649 53.2394 42.3402 53.4251C42.9197 54.9141 43.4861 56.4129 44.0885 57.8955C44.2949 58.3405 44.5266 58.7735 44.7826 59.1923ZM41.9997 54.1093H41.8392L41.0698 56.4651H42.828C42.5333 55.6212 42.2649 54.8653 41.9997 54.1093Z" fill="#1C284C"/>
<path d="M43.7939 4.75H45.1821C45.0543 4.99081 44.9658 5.25039 44.9202 5.51896C44.8973 7.31428 44.9202 9.10308 44.9202 10.9114C44.9202 11.3187 44.9923 11.6934 45.5096 11.7749H43.8267C43.9754 11.5194 44.0795 11.2407 44.1344 10.9505C44.165 9.11286 44.165 7.27626 44.1344 5.44076C44.1115 5.21268 43.902 4.97156 43.7939 4.75Z" fill="#1C284C"/>
<path d="M39.6943 44.582H42.749V45.2337C42.271 44.6896 41.6588 44.7938 41.076 44.8166C41.0018 44.8405 40.9351 44.883 40.8823 44.9401C40.8295 44.9972 40.7925 45.0669 40.7748 45.1425C40.7404 45.7589 40.7404 46.3767 40.7748 46.9932C40.8089 47.0756 40.8629 47.1485 40.932 47.2053C41.0011 47.2621 41.0831 47.3012 41.1709 47.319C41.6457 47.3614 42.127 47.319 42.6639 47.319L42.6213 47.7165C42.0615 47.6644 41.5442 47.5992 41.0236 47.5862C40.9352 47.5862 40.7682 47.811 40.765 47.9381C40.7453 48.5897 40.765 49.2414 40.765 49.8931C40.7587 50.0496 40.8146 50.2023 40.9206 50.3182C41.0266 50.434 41.1742 50.5037 41.3314 50.5121C42.0615 50.6653 42.641 50.473 43.0011 49.9517C42.9717 50.7435 42.8898 50.8054 42.1302 50.7858C41.3706 50.7663 40.5783 50.7858 39.7631 50.7858C40.3819 50.0397 40.2869 44.9926 39.6943 44.582Z" fill="#1C284C"/>
<path d="M45.0348 50.8288C45.1472 50.4466 45.225 50.0551 45.2673 49.6591C45.2967 48.2515 45.3 46.8374 45.2673 45.4233C45.2166 45.125 45.1206 44.836 44.9824 44.5664H46.2233C46.1382 44.7228 45.9548 44.8922 45.9515 45.0714C45.9363 46.6941 45.9363 48.3156 45.9515 49.9361C45.9636 50.0382 45.9972 50.1365 46.0503 50.2247C46.1033 50.3129 46.1746 50.3889 46.2593 50.4476C46.8093 50.7735 47.8963 50.5682 48.3252 50.0794C48.4071 50.7148 48.3252 50.8256 47.6704 50.8256L45.0348 50.8288Z" fill="#1C284C"/>
<path d="M47.9414 52.0789C48.2197 51.5217 48.5962 51.4011 49.143 51.652C49.4756 51.7717 49.8186 51.86 50.1678 51.916C49.9288 52.2972 49.5588 52.2418 49.1659 52.0463C48.773 51.8508 48.3572 51.626 47.9414 52.0789Z" fill="#1C284C"/>
<path d="M62.7637 62.8847C62.6706 62.8821 62.5818 62.8449 62.5149 62.7805C62.4756 62.7488 62.4442 62.7084 62.4232 62.6627C62.4021 62.6169 62.3921 62.5668 62.3937 62.5165C62.4039 62.3916 62.4612 62.2752 62.5542 62.1907C62.6557 62.0819 62.7651 61.9806 62.8816 61.8877C64.1912 60.7147 65.4157 59.5971 66.5551 58.5349C67.6103 57.551 68.5867 56.4867 69.4755 55.3515C70.258 54.3536 70.9063 53.2582 71.4039 52.0933C71.8692 50.9692 72.1041 49.7639 72.0947 48.5482C72.1218 47.7444 71.9825 46.9437 71.6855 46.1957C71.4546 45.6316 71.1026 45.1245 70.6542 44.71C70.262 44.3542 69.7991 44.0845 69.2954 43.9182C68.8432 43.7688 68.3706 43.6897 67.8941 43.6836C67.3509 43.6695 66.8093 43.7489 66.2931 43.9182C65.8378 44.0916 65.4207 44.3517 65.0654 44.6839C64.7395 44.9906 64.4983 45.3754 64.3647 45.8015C64.2116 46.264 64.1353 46.7482 64.1388 47.2351C64.1388 47.4958 64.0602 47.6294 63.8998 47.6294C63.7394 47.6294 63.7066 47.5153 63.6903 47.3036C63.6903 47.2514 63.6903 47.0885 63.6641 46.8181C63.6379 46.5476 63.628 46.2381 63.6117 45.896C63.5953 45.5539 63.5757 45.215 63.556 44.8826C63.5364 44.5503 63.5298 44.2766 63.5298 44.0681C63.5257 43.9996 63.5393 43.9312 63.5691 43.8693C63.6343 43.7934 63.7104 43.7275 63.795 43.6738C64.404 43.4061 65.0364 43.1945 65.6842 43.0417C66.59 42.8339 67.5179 42.7365 68.4475 42.7517C69.3401 42.7322 70.2285 42.8792 71.0667 43.1851C71.7609 43.4468 72.3947 43.8458 72.9296 44.3581C73.4221 44.8359 73.8051 45.4138 74.0526 46.0524C74.2989 46.6953 74.4243 47.3779 74.4226 48.066C74.4225 48.9752 74.2709 49.878 73.9741 50.7378C73.666 51.6207 73.262 52.4674 72.7692 53.263C72.259 54.0907 71.6843 54.8773 71.0503 55.6155C70.4086 56.3714 69.7538 57.0817 69.0859 57.7464C68.418 58.4111 67.7435 59.0345 67.0625 59.6166C66.3946 60.1923 65.7867 60.7093 65.2389 61.1676C65.1701 61.2197 65.1407 61.2653 65.1603 61.2979C65.18 61.3305 65.2225 61.3501 65.2913 61.3501H67.9629C68.3689 61.3501 68.8076 61.3501 69.2725 61.324L70.6738 61.2849C71.0273 61.2848 71.3805 61.2631 71.7313 61.2197C72.7135 61.1318 73.4207 60.8646 73.8857 60.4182C74.3656 59.9505 74.693 59.3499 74.8253 58.6946C74.8973 58.4306 75.0021 58.3003 75.1527 58.3003C75.2215 58.3003 75.2673 58.3427 75.2837 58.4306C75.3021 58.5174 75.3109 58.6059 75.3099 58.6946C75.2986 58.9033 75.2679 59.1105 75.2182 59.3136C75.156 59.6036 75.0872 59.9164 75.0054 60.2585C74.9235 60.6007 74.845 60.9428 74.7566 61.2849C74.6682 61.627 74.5896 61.9137 74.5176 62.1418C74.4891 62.2829 74.4278 62.4154 74.3385 62.5286C74.2492 62.6418 74.1345 62.7325 74.0035 62.7935C73.6114 62.9001 73.2047 62.9441 72.7987 62.9238L62.7637 62.8847Z" fill="#1C284C"/>
<path d="M78.1089 49.3243C78.3607 48.1057 78.8025 46.9337 79.4185 45.851C79.9304 44.9356 80.6447 44.1478 81.5073 43.5474C82.3391 42.9922 83.3216 42.7035 84.323 42.7198C85.0645 42.7042 85.7989 42.8662 86.4642 43.1922C87.0875 43.509 87.6434 43.9427 88.1013 44.4695C88.5774 45.0167 88.9742 45.6276 89.2799 46.2844C89.5943 46.9574 89.8463 47.6576 90.0329 48.3762C90.2132 49.0774 90.3499 49.7891 90.4422 50.5071C90.5257 51.1435 90.5695 51.7844 90.5732 52.4262C90.5735 53.8614 90.4187 55.2924 90.1115 56.6946C89.8656 57.9111 89.4327 59.0827 88.8281 60.1679C88.3181 61.0919 87.6038 61.8885 86.7393 62.4976C85.9 63.0709 84.902 63.3693 83.8843 63.3513C82.9079 63.3711 81.9519 63.0712 81.1635 62.4976C80.3644 61.8995 79.7053 61.1357 79.2318 60.2592C78.6993 59.2804 78.308 58.2317 78.0696 57.1442C77.8063 55.9962 77.6734 54.8224 77.6734 53.6448C77.6627 52.1933 77.8087 50.7448 78.1089 49.3243ZM80.0733 56.0462C80.2264 57.1248 80.5009 58.1828 80.8918 59.2002C81.2066 60.0493 81.6924 60.8254 82.3193 61.481C82.5877 61.763 82.9119 61.9867 83.2713 62.1381C83.6308 62.2895 84.0178 62.3653 84.4081 62.3608C85.0176 62.3608 85.6038 62.1274 86.0452 61.7091C86.5876 61.1987 87.016 60.5803 87.3024 59.8942C87.6886 59.0013 87.9635 58.0646 88.1209 57.1051C88.3245 55.928 88.422 54.735 88.4123 53.5406C88.4144 52.3189 88.3125 51.0992 88.1078 49.8945C87.9333 48.8124 87.6367 47.7533 87.2238 46.7373C86.8937 45.9071 86.3993 45.1515 85.7701 44.5151C85.5124 44.2505 85.2041 44.0399 84.8633 43.8955C84.5226 43.7511 84.1564 43.676 83.7861 43.6745C83.1802 43.674 82.5961 43.8996 82.149 44.3066C81.605 44.8077 81.1799 45.4233 80.9049 46.1084C80.5264 47.0066 80.2603 47.9477 80.1126 48.9105C79.9175 50.1105 79.8244 51.3247 79.8343 52.5403C79.8277 53.7123 79.9098 54.8832 80.0798 56.0429L80.0733 56.0462Z" fill="#1C284C"/>
<path d="M92.953 62.8848C92.8589 62.8824 92.7691 62.8452 92.7009 62.7806C92.6633 62.7476 92.6333 62.707 92.6129 62.6615C92.5926 62.6159 92.5824 62.5665 92.583 62.5166C92.5929 62.3924 92.649 62.2762 92.7402 62.1908C92.8434 62.0836 92.9527 61.9825 93.0676 61.8878C94.3903 60.7148 95.6148 59.5972 96.7411 58.535C97.7973 57.5511 98.7749 56.4868 99.6648 55.3517C100.446 54.353 101.094 53.2578 101.593 52.0934C102.059 50.9693 102.293 49.764 102.284 48.5483C102.309 47.7447 102.17 46.9443 101.875 46.1959C101.642 45.633 101.29 45.1264 100.843 44.7101C100.45 44.3543 99.9861 44.0845 99.4815 43.9183C99.0293 43.7687 98.5566 43.6895 98.0802 43.6837C97.538 43.6696 96.9974 43.749 96.4824 43.9183C96.0265 44.0925 95.6085 44.3524 95.2514 44.684C94.9269 44.9918 94.6859 45.3762 94.5507 45.8016C94.3988 46.2643 94.3236 46.7485 94.3281 47.2353C94.3281 47.4959 94.2495 47.6295 94.0891 47.6295C93.9287 47.6295 93.8959 47.5155 93.8763 47.3037C93.8763 47.2515 93.8763 47.0886 93.8501 46.8182C93.8239 46.5478 93.8141 46.2382 93.7977 45.8961C93.7813 45.554 93.7617 45.2151 93.7453 44.8828C93.729 44.5504 93.7191 44.2767 93.7191 44.0682C93.7151 43.9997 93.7286 43.9313 93.7584 43.8694C93.8227 43.7927 93.899 43.7267 93.9843 43.6739C94.5931 43.4058 95.2255 43.1942 95.8735 43.0418C96.7793 42.8337 97.7072 42.7363 98.6368 42.7518C99.5294 42.7316 100.418 42.8786 101.256 43.1852C101.951 43.431 102.59 43.8145 103.132 44.3126C103.627 44.7886 104.01 45.367 104.255 46.0069C104.504 46.6492 104.631 47.332 104.628 48.0205C104.629 48.93 104.476 49.833 104.176 50.6923C103.87 51.5751 103.467 52.4218 102.975 53.2175C102.464 54.0445 101.889 54.831 101.256 55.57C100.601 56.3259 99.9464 57.0362 99.2719 57.7009C98.5975 58.3656 97.9197 59.0042 97.2518 59.5712C96.5839 60.1381 95.9717 60.6659 95.4282 61.1221C95.3562 61.1742 95.33 61.2198 95.3463 61.2524C95.3627 61.285 95.4085 61.3046 95.4806 61.3046H98.1489C98.5549 61.3046 98.9969 61.3046 99.4585 61.2785L100.86 61.2394C101.213 61.2393 101.567 61.2176 101.917 61.1742C102.886 61.0873 103.605 60.8202 104.072 60.3727C104.551 59.9042 104.878 59.304 105.011 58.6491C105.08 58.3851 105.185 58.2548 105.339 58.2548C105.408 58.2548 105.45 58.2972 105.47 58.3851C105.487 58.4721 105.495 58.5605 105.496 58.6491C105.483 58.8576 105.452 59.0647 105.404 59.2681C105.342 59.5581 105.27 59.8709 105.191 60.213C105.113 60.5552 105.028 60.8973 104.939 61.2394C104.851 61.5815 104.772 61.8682 104.704 62.0963C104.675 62.2376 104.613 62.3702 104.523 62.4834C104.433 62.5966 104.318 62.6872 104.186 62.748C103.795 62.8546 103.39 62.8986 102.985 62.8783L92.953 62.8848Z" fill="#1C284C"/>
<path d="M108.044 62.8847C107.95 62.8817 107.86 62.8446 107.792 62.7805C107.754 62.7475 107.724 62.7069 107.704 62.6613C107.683 62.6158 107.673 62.5664 107.674 62.5165C107.684 62.3916 107.741 62.2752 107.834 62.1907C107.937 62.0826 108.046 61.9814 108.162 61.8877C109.484 60.7147 110.71 59.5971 111.838 58.5349C112.894 57.551 113.87 56.4867 114.759 55.3515C115.541 54.3536 116.19 53.2582 116.687 52.0933C117.153 50.9692 117.388 49.7639 117.378 48.5482C117.405 47.7444 117.266 46.9437 116.969 46.1957C116.738 45.6316 116.386 45.1245 115.938 44.71C115.545 44.3535 115.081 44.0836 114.576 43.9182C114.125 43.7686 113.653 43.6894 113.178 43.6836C112.634 43.6695 112.093 43.7489 111.577 43.9182C111.121 44.0916 110.704 44.3517 110.349 44.6839C110.023 44.9906 109.782 45.3754 109.648 45.8015C109.495 46.264 109.419 46.7482 109.422 47.2351C109.422 47.4958 109.344 47.6294 109.183 47.6294C109.023 47.6294 108.99 47.5153 108.974 47.3036C108.974 47.2514 108.974 47.0885 108.947 46.8181C108.921 46.5476 108.911 46.2381 108.895 45.896C108.879 45.5539 108.859 45.215 108.839 44.8826C108.82 44.5503 108.813 44.2766 108.813 44.0681C108.809 43.9996 108.823 43.9312 108.853 43.8693C108.918 43.7934 108.994 43.7275 109.078 43.6738C109.687 43.4061 110.32 43.1945 110.968 43.0417C111.873 42.8339 112.801 42.7365 113.731 42.7517C114.623 42.7322 115.512 42.8792 116.35 43.1851C117.044 43.4468 117.678 43.8458 118.213 44.3581C118.705 44.8359 119.089 45.4138 119.336 46.0524C119.582 46.6953 119.708 47.3779 119.706 48.066C119.706 48.9752 119.554 49.878 119.257 50.7378C118.949 51.6207 118.545 52.4674 118.053 53.263C117.542 54.0907 116.968 54.8773 116.334 55.6155C115.692 56.3714 115.032 57.0817 114.353 57.7464C113.674 58.4111 113 59.0345 112.33 59.6166C111.662 60.1923 111.054 60.7093 110.506 61.1676C110.437 61.2197 110.408 61.2653 110.427 61.2979C110.447 61.3305 110.49 61.3501 110.558 61.3501H113.23C113.633 61.3501 114.075 61.3501 114.54 61.324L115.941 61.2849C116.294 61.2848 116.648 61.2631 116.998 61.2197C117.981 61.1318 118.688 60.8646 119.153 60.4182C119.633 59.9505 119.96 59.3499 120.092 58.6946C120.161 58.4306 120.269 58.3003 120.42 58.3003C120.488 58.3003 120.534 58.3427 120.551 58.4306C120.569 58.5174 120.578 58.6059 120.577 58.6946C120.566 58.9033 120.535 59.1105 120.485 59.3136C120.423 59.6036 120.354 59.9164 120.272 60.2585C120.191 60.6007 120.112 60.9428 120.024 61.2849C119.935 61.627 119.853 61.9137 119.785 62.1418C119.756 62.2829 119.695 62.4154 119.606 62.5286C119.516 62.6418 119.402 62.7325 119.271 62.7935C118.878 62.8998 118.472 62.9438 118.066 62.9238L108.044 62.8847Z" fill="#1C284C"/>
</g>
<defs>
<clipPath id="clip0_1327_7102">
<rect width="132" height="66" fill="white"/>
</clipPath>
</defs>
</svg>
