<svg width="131" height="66" viewBox="0 0 131 66" fill="none" xmlns="http://www.w3.org/2000/svg">
<g clip-path="url(#clip0_1327_7138)">
<path d="M79.5059 0.0589092C79.6327 0.0369291 79.7607 0.0227832 79.8893 0.0165514C89.4469 -0.190727 98.9469 1.55073 107.813 5.13533C112.625 7.0675 116.911 9.93154 120.96 13.1442C124.315 15.8184 127.449 18.7604 130.331 21.9416C130.551 22.1638 130.724 22.4285 130.839 22.7198C130.954 23.0111 131.009 23.3228 131 23.6359C130.963 32.5832 130.945 41.5392 130.945 50.5038C130.96 50.6918 130.92 50.8801 130.828 51.0447C130.714 50.582 130.607 50.1226 130.503 49.6632C128.657 42.3092 125.46 35.558 121.35 29.2272C118.433 24.6887 115.037 20.4795 111.219 16.6729C107.032 12.6032 102.252 9.19722 97.0421 6.57224C91.6211 3.74034 85.8595 1.61918 79.899 0.260923C79.769 0.231599 79.6456 0.182724 79.5156 0.143625L79.5059 0.0589092Z" fill="#1C284C"/>
<path d="M0.0322417 14.9023C0.792566 17.3558 1.44242 19.7735 2.30672 22.1227C5.16606 30.0664 9.49081 37.163 14.7383 43.748C23.5438 54.7969 35.1469 61.3428 48.5305 65.1061C49.5443 65.3929 50.5776 65.6209 51.6076 65.9728C51.3606 65.9728 51.1104 65.9728 50.8602 65.9728C44.3 66.1781 37.8957 65.1713 31.537 63.6366C22.1824 61.3754 14.16 56.6965 7.07012 50.3167C4.86388 48.3292 2.8266 46.1526 0.704836 44.0706C0.471625 43.8593 0.287584 43.5992 0.16574 43.3086C0.0438961 43.0181 -0.0127713 42.7042 -0.000250843 42.3893C0.0322417 35.4654 0.0289924 28.5416 0.0322417 21.6144C0.0354909 19.3923 0.0322417 17.1734 0.0322417 14.9023Z" fill="#1C284C"/>
<path d="M87.4657 30.0748C87.4657 31.251 87.4462 32.3035 87.4657 33.3526C87.5014 35.0339 87.5696 36.7119 87.6249 38.3932V38.6246C87.6444 40.0224 87.8101 40.2244 89.113 40.5209H85.4219C85.4219 40.4883 85.4446 40.4297 85.4641 40.4264C86.4844 40.2635 86.6436 40.068 86.6468 38.8461C86.6468 35.3076 86.6468 31.7691 86.6468 28.2306C86.6468 27.9862 86.6826 27.7419 86.7021 27.4975L86.8678 27.4062L97.0054 38.3639C97.0054 37.735 97.0054 37.2691 97.0054 36.8032C96.9535 34.4474 96.8885 32.0917 96.8397 29.7359C96.8073 28.1622 96.8137 28.1622 95.2671 27.7158H98.812C97.9087 27.8201 97.782 28.4456 97.7853 29.1853C97.7853 30.2116 97.7658 31.2347 97.7593 32.2578L97.7203 40.0778C97.7203 40.2635 97.691 40.4492 97.6618 40.8402C94.0356 37.3734 90.7961 33.7501 87.4657 30.0748Z" fill="#1C284C"/>
<path d="M53.2677 34.8374C54.5414 36.3427 55.8216 37.9099 57.1668 39.4218C57.4412 39.737 57.7813 39.9879 58.1631 40.1568C58.5449 40.3257 58.9591 40.4085 59.3763 40.3993C59.4627 40.416 59.5467 40.4433 59.6264 40.4807C57.5242 40.9988 56.1627 40.5524 54.9053 38.92C54.067 37.835 53.2547 36.7337 52.4553 35.6194C52.3545 35.4448 52.2063 35.3025 52.028 35.209C51.8497 35.1156 51.6486 35.0748 51.4481 35.0915C50.9899 35.1208 50.5253 35.0426 50.0639 35.072C49.9177 35.072 49.6642 35.2935 49.6642 35.3978C49.6642 36.7011 49.6415 38.0272 49.726 39.3338C49.7845 40.2005 50.0022 40.3113 50.8697 40.3797C50.921 40.3783 50.9718 40.3891 51.0181 40.4112C51.0645 40.4333 51.1049 40.466 51.1362 40.5068H47.263C48.1111 40.4286 48.2378 39.8063 48.2378 39.1513C48.2801 38.0924 48.2996 37.0302 48.3028 35.968C48.3028 33.8208 48.3028 31.6768 48.3028 29.5329C48.3028 28.1644 48.2541 28.0992 47.1006 27.7669C48.8584 27.7669 50.7592 27.5681 52.5983 27.8157C55.1067 28.1416 56.0523 30.5038 54.7591 32.7846C54.3045 33.499 53.8064 34.1845 53.2677 34.8374ZM49.6415 31.3673V32.7553C49.6415 34.5734 49.6577 34.5897 51.4871 34.6321H51.604C52.7445 34.5962 53.3879 34.1303 53.7388 33.0388C53.8558 32.6923 53.9268 32.3319 53.95 31.9668C54.054 29.9271 53.1864 27.8776 50.3076 28.1546C49.8494 28.197 49.6123 28.3664 49.635 28.8779C49.6675 29.7055 49.6415 30.5364 49.6415 31.3673Z" fill="#1C284C"/>
<path d="M24.4856 14.2175L28.9923 23.4613L33.3366 14.1914L33.512 14.2272C33.603 15.0027 33.6972 15.7782 33.7817 16.5537C34.0254 18.8345 34.2464 21.086 34.5193 23.3472C34.6785 24.6929 34.8442 24.8102 36.0334 25.1002H33.538C33.2846 22.373 33.0409 19.7338 32.8004 17.0945L32.6315 17.0587L28.8234 25.1295L28.6381 25.1686C27.9883 23.8653 27.2962 22.562 26.6561 21.2586C26.016 19.9553 25.3954 18.5738 24.6156 17.2086C24.5668 17.7006 24.5149 18.1861 24.4759 18.6846C24.3296 20.4571 24.1964 22.2264 24.0437 23.9956C23.9917 24.5919 24.0957 25.0415 24.8008 25.1425H22.3184C22.9877 25.0089 23.1437 24.543 23.2087 23.9272C23.5336 20.8155 23.8845 17.7104 24.2354 14.602C24.2583 14.4765 24.2921 14.3534 24.3361 14.2338L24.4856 14.2175Z" fill="#1C284C"/>
<path d="M58.8887 27.7188H62.6903C61.6765 27.9045 61.6993 28.6734 61.696 29.4196C61.696 31.4528 61.6765 33.4827 61.696 35.5126C61.7094 36.1493 61.79 36.7827 61.9365 37.4024C62.1086 38.2547 62.5839 39.0151 63.2738 39.5421C63.9636 40.069 64.821 40.3264 65.6861 40.2664C67.4732 40.1948 68.8574 38.9631 69.1336 37.0342C69.2648 35.9237 69.3277 34.8062 69.322 33.6879C69.3448 32.2185 69.3448 30.7555 69.2863 29.2795C69.2375 28.0902 69.1888 28.0902 68.0581 27.722H71.3398C70.1928 27.911 70.365 28.7972 70.365 29.5858C70.3293 31.7525 70.3293 33.916 70.248 36.0795C70.1506 38.5917 68.7956 40.2762 66.4237 40.7161C64.2954 41.1071 62.2581 40.5923 61.1501 38.9305C60.3996 37.7999 60.2761 36.5096 60.2501 35.2128C60.2144 33.3002 60.2501 31.3843 60.2501 29.4717C60.2469 28.1814 60.2111 28.1358 58.8887 27.7188Z" fill="#1C284C"/>
<path d="M75.3825 40.5451H71.8506C73.2673 40.4767 73.5499 39.3558 73.9269 38.3229C75.1616 34.9343 76.3963 31.5468 77.631 28.1603C77.722 27.9127 77.839 27.6748 78.0014 27.2969C78.1736 27.6423 78.2971 27.8508 78.3816 28.0724C79.6986 31.474 81.0124 34.8746 82.3229 38.2741C82.4269 38.5445 82.5439 38.8084 82.6738 39.0691C83.0507 39.8283 83.5446 40.4441 84.4967 40.5158H81.4391C81.4175 40.1725 81.3631 39.8321 81.2767 39.4992C80.864 38.336 80.3961 37.1923 79.977 36.0324C79.9449 35.8754 79.8562 35.7358 79.7279 35.6402C79.5997 35.5446 79.4408 35.4998 79.2816 35.5143C78.3068 35.5143 77.3126 35.5143 76.3281 35.5338C76.2123 35.5403 76.0996 35.573 75.9983 35.6294C75.897 35.6859 75.8098 35.7646 75.7432 35.8597C75.3208 37.0001 74.9179 38.1405 74.58 39.3135C74.3395 40.0759 74.424 40.1574 75.3825 40.5451ZM76.0324 34.9213H79.5676C78.9567 33.2335 78.3946 31.6043 77.8292 30.0013H77.631L76.0324 34.9213Z" fill="#1C284C"/>
<path d="M112.748 40.5568H109.72C109.678 40.1792 109.606 39.8055 109.506 39.4392C109.093 38.2793 108.628 37.1324 108.206 35.9724C108.173 35.832 108.091 35.7081 107.975 35.6236C107.858 35.5391 107.715 35.4998 107.572 35.513C106.568 35.513 105.564 35.513 104.56 35.513C104.416 35.4904 104.269 35.5236 104.148 35.6059C104.027 35.6882 103.942 35.8134 103.91 35.9561C103.569 37.0216 103.179 38.0708 102.851 39.1362C102.578 40.016 102.711 40.231 103.702 40.5308H100.115C100.119 40.5007 100.127 40.4712 100.138 40.4428C101.282 40.4428 101.714 39.6608 102.049 38.7452C103.322 35.2263 104.602 31.7106 105.889 28.1981C105.983 27.9375 106.107 27.6898 106.282 27.2891C106.448 27.6344 106.558 27.8267 106.636 28.032L110.448 37.9078C110.565 38.2141 110.682 38.5237 110.822 38.8202C111.218 39.6673 111.676 40.4428 112.748 40.5568ZM107.816 34.9395L106.087 30L105.925 29.9772L104.3 34.9265L107.816 34.9395Z" fill="#1C284C"/>
<path d="M25.8438 27.7596C27.6113 27.7596 29.4407 27.6684 31.2538 27.789C32.4982 27.8737 33.5022 28.5644 33.8239 29.871C34.0078 30.5275 34.007 31.2222 33.8218 31.8782C33.6366 32.5343 33.2741 33.1263 32.7744 33.5887C32.3592 33.9814 31.8665 34.2824 31.3281 34.4721C30.7896 34.6618 30.2175 34.736 29.6486 34.69C29.5974 34.6866 29.548 34.6693 29.5056 34.64C29.4633 34.6108 29.4297 34.5707 29.4082 34.5239C29.7352 34.503 30.0607 34.4628 30.383 34.4033C32.0076 34.0188 32.9044 32.6406 32.6574 30.956C32.378 29.1379 31.0523 28.0073 29.3172 28.1115C28.4529 28.1637 28.4464 28.1669 28.4496 29.0141C28.4496 32.1855 28.4496 35.3558 28.4496 38.525C28.4496 38.7173 28.4496 38.9128 28.4691 39.105C28.5731 40.1607 28.7128 40.2943 29.7688 40.4083C29.8081 40.4137 29.845 40.4299 29.8754 40.4553C29.9059 40.4806 29.9286 40.514 29.9411 40.5517H25.925C26.0192 40.48 26.0679 40.4116 26.1134 40.4116C26.7243 40.4377 26.9258 40.0402 26.9842 39.5384C27.0547 38.9828 27.0926 38.4236 27.098 37.8636C27.098 35.1201 27.098 32.3734 27.098 29.6299C27.1012 28.2321 27.0492 28.1604 25.8438 27.7596Z" fill="#1C284C"/>
<path d="M43.9097 38.5376C43.8512 39.1341 43.7491 39.7254 43.6042 40.3069C43.5458 40.4894 43.1169 40.6555 42.8569 40.6588C41.6417 40.6588 40.4297 40.5936 39.2145 40.5708C38.3957 40.5545 37.5899 40.5708 36.7158 40.5122C37.7361 40.4177 37.7783 39.7041 37.7848 38.9645C37.8141 35.8333 37.9018 32.6988 37.8466 29.5676C37.8206 28.0329 37.9278 28.2121 36.5469 27.668H43.4353C43.367 28.3001 43.2923 28.9713 43.2046 29.7435C42.7529 28.4402 42.5547 28.3066 41.216 28.2805C40.6929 28.2805 40.173 28.2805 39.6532 28.261C39.3282 28.261 39.2113 28.3913 39.2145 28.7106C39.2145 30.141 39.2145 31.5714 39.234 33.0018C39.234 33.1452 39.442 33.3993 39.5589 33.4026C40.446 33.4286 41.333 33.4286 42.2201 33.3765C42.5453 33.311 42.8601 33.2014 43.1558 33.0507C43.0909 33.761 43.0259 34.4778 42.9609 35.1946C42.8244 34.2171 42.1876 34.0184 41.3623 34.0282C40.8229 34.0282 40.2835 33.9858 39.7376 33.9597C39.3867 33.9402 39.2048 34.0673 39.208 34.455C39.208 35.8886 39.208 37.319 39.208 38.7494C39.208 39.5412 39.4809 39.8898 40.251 39.9517C41.0541 40.0197 41.8624 39.9913 42.6587 39.867C42.9836 39.8149 43.2728 39.4076 43.523 39.1144C43.6282 38.9222 43.6976 38.7124 43.7277 38.4953L43.9097 38.5376Z" fill="#1C284C"/>
<path d="M52.3451 20.4495C53.4856 21.7529 54.6684 23.1604 55.9486 24.4833C56.3125 24.8613 56.9688 24.959 57.375 25.135C56.7522 25.3238 56.0869 25.3191 55.4669 25.1213C54.8469 24.9236 54.3011 24.5421 53.9015 24.0271C53.1575 23.092 52.4426 22.1276 51.7473 21.1533C51.6353 20.9651 51.4732 20.812 51.2792 20.7113C51.0851 20.6105 50.8669 20.5662 50.649 20.5831C49.2973 20.6157 49.2941 20.5831 49.2973 21.9353C49.2973 22.5544 49.2973 23.1735 49.3136 23.7925C49.3558 24.7928 49.4923 24.9329 50.4768 25.135H47.351C47.9684 25.0633 48.0984 24.6104 48.1374 24.0988C48.1666 23.7534 48.1959 23.4048 48.1959 23.0594C48.1959 20.72 48.1959 18.3773 48.1959 16.0378C48.1959 14.8257 48.1959 14.8257 47.2471 14.4869C48.6442 14.4869 50.1876 14.3565 51.7018 14.5194C53.6708 14.7345 54.5839 16.4549 53.7683 18.273C53.4499 18.9963 52.9008 19.6154 52.3451 20.4495ZM49.2941 17.39C49.2941 18.0058 49.3396 18.6281 49.2941 19.244C49.2486 19.8598 49.4858 20.1074 50.0447 20.153C50.87 20.2149 51.7245 20.3779 52.3516 19.6154C53.0502 18.765 53.1315 17.0674 52.5368 15.9824C52.0267 15.0538 51.0974 14.6595 49.801 14.7997C49.7288 14.7945 49.6563 14.806 49.5892 14.8332C49.5221 14.8604 49.4621 14.9027 49.4138 14.9568C49.3655 15.0109 49.3301 15.0754 49.3105 15.1453C49.2909 15.2152 49.2875 15.2887 49.3006 15.3601C49.3038 16.0345 49.2973 16.7123 49.2941 17.39Z" fill="#1C284C"/>
<path d="M83.6324 25.1472H81.1824C81.1804 24.9037 81.1521 24.6612 81.0979 24.4239C80.734 23.4073 80.3279 22.4037 79.9672 21.3871C79.9366 21.2438 79.8518 21.1179 79.7307 21.0359C79.6095 20.9539 79.4614 20.9221 79.3174 20.9473C78.5278 20.9473 77.735 20.9473 76.9454 20.9473C76.8022 20.9252 76.656 20.9579 76.5357 21.0387C76.4154 21.1196 76.3297 21.2427 76.2956 21.3839C76.0096 22.2832 75.6944 23.1759 75.4248 24.0785C75.2266 24.7302 75.324 24.8768 76.0746 25.144H73.2705C74.1478 25.0299 74.4955 24.3978 74.7652 23.6549C75.8266 20.7377 76.8988 17.8215 77.9819 14.9064C78.0664 14.6751 78.1639 14.4502 78.3068 14.0625C78.4563 14.3883 78.5505 14.5512 78.6318 14.7304C79.6932 17.5087 80.7589 20.2793 81.829 23.0424C81.933 23.3128 82.0467 23.5767 82.154 23.8374C82.4659 24.4793 82.8558 24.9973 83.6324 25.1472ZM78.1866 16.3922L77.9917 16.3303C77.5498 17.689 77.1111 19.0509 76.6595 20.4422H79.6065C79.1127 19.0281 78.6513 17.7085 78.1866 16.3922Z" fill="#1C284C"/>
<path d="M63.4603 18.9203C63.3986 19.5003 63.3466 20.0281 63.2914 20.5494C63.1159 19.7577 62.5148 19.686 61.8715 19.6664C60.1818 19.611 60.1818 19.6078 60.1818 21.2695C60.1818 22.0808 60.1818 22.8987 60.1818 23.7067C60.1818 24.2476 60.4483 24.619 60.9909 24.6581C61.6237 24.7037 62.2589 24.7037 62.8917 24.6581C63.5416 24.6027 63.8145 24.1075 64.0549 23.534C64.018 24.0072 63.9442 24.4768 63.834 24.9384C63.7885 25.085 63.4408 25.2283 63.2329 25.2251C61.826 25.2251 60.419 25.1762 59.0089 25.1501C58.7457 25.1501 58.4792 25.1501 58.1771 25.1176C58.7619 25.0231 58.9504 24.6223 58.9569 24.1401C58.9829 21.3379 59.0186 18.5358 59.0024 15.7337C59.0024 14.7562 58.9179 14.7366 57.9854 14.4141H63.6845C63.6293 14.9354 63.5741 15.4567 63.5221 15.9585C63.3304 15.6685 63.1971 15.3068 62.9437 15.1309C62.6294 14.9895 62.2872 14.9215 61.9429 14.9321C61.5205 14.8963 61.0949 14.9321 60.6725 14.893C60.3476 14.867 60.1753 14.968 60.1818 15.3394C60.1818 16.4798 60.1818 17.6202 60.1818 18.7606C60.1818 18.9072 60.3346 19.1777 60.4255 19.1809C61.4296 19.2233 62.4336 19.3145 63.4603 18.9203Z" fill="#1C284C"/>
<path d="M14.3319 25.143C14.5571 25.106 14.7598 24.9843 14.8987 24.8027C15.0375 24.6211 15.1021 24.3932 15.0792 24.1655C15.1117 21.3829 15.1605 18.5971 15.1605 15.8145C15.1605 14.837 15.05 14.7458 14.0947 14.4102H19.8199L19.6574 15.935C19.4755 14.9804 18.7704 14.925 18.0328 14.9185C17.6267 14.9185 17.2238 14.9185 16.8208 14.8826C16.4179 14.8468 16.2977 14.9966 16.3042 15.3779C16.3042 16.4987 16.3042 17.6196 16.3237 18.7404C16.3237 18.8968 16.5122 19.1803 16.6194 19.1836C17.5942 19.2064 18.6144 19.3595 19.6055 18.9131L19.4365 20.5423C19.2545 19.7929 18.6794 19.6886 18.0523 19.6788C17.6098 19.6511 17.1659 19.6511 16.7234 19.6788C16.6302 19.707 16.5453 19.7576 16.4762 19.8264C16.407 19.8951 16.3558 19.9798 16.327 20.0731C16.2977 21.2917 16.301 22.5103 16.327 23.7289C16.3162 23.8463 16.3297 23.9648 16.3666 24.0768C16.4034 24.1888 16.4629 24.292 16.5412 24.38C16.6195 24.468 16.715 24.5389 16.8218 24.5884C16.9286 24.6378 17.0444 24.6646 17.162 24.6673C17.7764 24.7113 18.3932 24.7113 19.0076 24.6673C19.7159 24.6086 19.9824 24.0905 20.0961 23.4356L20.2326 23.4715C20.1814 23.9686 20.0967 24.4618 19.9791 24.9475C19.9336 25.0908 19.586 25.2277 19.3748 25.2244C17.9873 25.2244 16.5999 25.1756 15.2125 25.1495C14.907 25.1397 14.6211 25.143 14.3319 25.143Z" fill="#1C284C"/>
<path d="M40.9893 20.121C41.2568 20.1032 41.5227 20.0673 41.7854 20.0135C43.2345 19.642 43.9234 18.3843 43.5692 16.8269C43.4362 16.1539 43.0441 15.5607 42.4778 15.1758C41.9115 14.791 41.2167 14.6455 40.5441 14.7709C40.1055 14.8458 40.0957 15.1195 40.0957 15.4388C40.0957 16.7161 40.0957 17.9901 40.0957 19.2673C40.0957 20.7748 40.1131 22.2823 40.1477 23.7898C40.1477 24.7673 40.2745 24.9042 41.233 25.1355H38.3736C38.5296 24.8618 38.8935 24.5099 38.9 24.158C38.965 21.3581 38.9867 18.5559 38.965 15.7516C38.965 14.8002 38.8903 14.8002 37.9902 14.4483C39.4102 14.4483 40.8691 14.3864 42.315 14.4679C43.488 14.533 44.3848 15.1195 44.6609 16.3544C44.7959 16.9842 44.7367 17.6403 44.4912 18.2356C44.2457 18.8309 43.8256 19.3373 43.2865 19.6876C42.9575 19.9219 42.5818 20.082 42.1853 20.1568C41.7887 20.2316 41.3807 20.2194 40.9893 20.121Z" fill="#1C284C"/>
<path d="M71.7752 16.1692C71.2066 14.843 70.508 14.4358 69.2831 14.6671C67.9834 14.9082 67.405 16.2604 68.1881 17.3226C68.6481 17.8669 69.1571 18.3675 69.7087 18.8182C70.1864 19.2646 70.7225 19.6588 71.1741 20.1215C71.6362 20.5559 71.9505 21.1248 72.073 21.748C72.1954 22.3712 72.1197 23.0171 71.8565 23.5948C71.3431 24.8199 70.3066 25.3348 69.0394 25.3445C68.3882 25.3325 67.7405 25.2451 67.1093 25.0839C67 25.0281 66.9055 24.947 66.8337 24.8473C66.7619 24.7475 66.7149 24.632 66.6967 24.5104C66.6414 23.965 66.6787 23.4141 66.8071 22.8813C66.8473 22.9456 66.8769 23.016 66.8949 23.0898C66.8834 23.4698 67.0009 23.8424 67.2281 24.1466C67.4554 24.4509 67.779 24.6688 68.1458 24.7646C69.0621 25.0643 69.9492 25.0089 70.651 24.2497C70.9371 23.967 71.1216 23.5971 71.1756 23.1979C71.2297 22.7988 71.1504 22.393 70.9499 22.0439C70.5528 21.4376 70.0763 20.8874 69.5333 20.4082C68.9776 19.8478 68.3408 19.3688 67.7982 18.7986C67.5088 18.4993 67.2886 18.1399 67.1533 17.7457C67.0179 17.3515 66.9708 16.9323 67.0151 16.5178C67.1873 14.6247 68.8542 14.0904 70.3521 14.1914C70.7127 14.2175 71.0702 14.3445 71.4308 14.3673C71.7915 14.3901 71.9247 14.5563 71.8727 14.9278C71.8207 15.2992 71.8077 15.7163 71.7752 16.1692Z" fill="#1C284C"/>
<path d="M41.8403 11.76H40.2157C40.1312 10.8639 40.0532 10.0038 39.972 9.15334C39.9111 8.26492 39.7819 7.38255 39.5853 6.51413L37.0151 11.9262L34.4417 6.6412H34.3118C34.276 7.00939 34.237 7.37757 34.2045 7.74576C34.1071 8.84055 33.9901 9.93533 33.9349 11.0366C33.9349 11.2908 34.1331 11.5547 34.2208 11.7763H33.0283C33.1834 11.574 33.3011 11.3456 33.376 11.1018C33.6294 9.09144 33.8471 7.07455 34.0778 5.06093C34.0907 4.90831 34.1589 4.76571 34.2695 4.66016L37.2134 10.701C38.1881 8.59943 39.1174 6.64446 40.037 4.69274H40.1832C40.2482 5.17171 40.3229 5.65068 40.3749 6.1329C40.5406 7.64801 40.6998 9.16312 40.859 10.6945C40.9402 11.4048 41.1222 11.6231 41.8403 11.76Z" fill="#1C284C"/>
<path d="M50.4699 4.60051C52.7444 4.70477 54.1643 6.16449 54.0441 8.2726C53.9206 10.3156 52.5202 12.1239 49.8201 11.9186C47.8933 11.772 46.5708 10.1559 46.6845 7.937C46.748 6.99222 47.1817 6.11101 47.891 5.48585C48.6003 4.8607 49.5274 4.54241 50.4699 4.60051ZM53.222 8.41597C53.241 7.45678 52.9185 6.52221 52.3122 5.78001C51.0125 4.23558 48.4651 4.62983 47.7633 6.49683C47.5237 7.1016 47.4282 7.75414 47.4847 8.40243C47.5411 9.05073 47.7477 9.67684 48.0882 10.2308C48.3759 10.7334 48.8109 11.135 49.3341 11.381C49.8573 11.627 50.4433 11.7055 51.0125 11.6058C52.0491 11.4331 52.7996 10.6512 53.0628 9.44233C53.1441 9.12302 53.1733 8.75809 53.222 8.41597Z" fill="#1C284C"/>
<path d="M22.1624 11.791H20.6483C20.7942 11.503 20.895 11.1942 20.9472 10.8755C20.983 9.09969 20.9895 7.32066 20.9472 5.54489C20.9472 5.2549 20.684 4.97469 20.5703 4.74987C21.2397 4.74987 22.0877 4.7238 22.9325 4.74987C24.5571 4.80852 25.2817 6.16071 24.4727 7.56177C24.2281 7.93627 23.9623 8.29636 23.6766 8.64027C24.7294 9.72854 25.3012 11.3023 26.8674 11.765C25.7626 12.0322 24.9178 11.5271 24.294 10.5236C24.0405 10.1163 23.6668 9.77741 23.4491 9.35384C23.1242 8.70218 22.5491 8.70218 21.9675 8.78038C21.8862 8.80835 21.8136 8.85698 21.7566 8.92151C21.6997 8.98604 21.6604 9.06427 21.6426 9.14856C21.6405 9.84566 21.6829 10.5422 21.7693 11.2339C21.7693 11.4489 22.0422 11.6346 22.1624 11.791ZM21.6393 6.71788C21.6393 7.12516 21.6198 7.52919 21.6393 7.93322C21.6447 8.1179 21.7216 8.29322 21.8538 8.42196C22.2437 8.69892 23.1957 8.59465 23.5531 8.28186C24.073 7.82895 24.229 6.77978 23.878 5.95869C23.7526 5.63201 23.524 5.35547 23.2271 5.17131C22.9303 4.98716 22.5814 4.90551 22.2339 4.93885C21.8115 4.93885 21.5841 5.10176 21.6101 5.56118C21.6556 5.94566 21.6393 6.3334 21.6393 6.71788Z" fill="#1C284C"/>
<path d="M31.9921 50.7532C32.0947 50.5318 32.1658 50.2971 32.2033 50.0559C32.2228 48.4528 32.2293 46.8465 32.2033 45.2434C32.1632 45.0331 32.0778 44.834 31.9531 44.6602C32.9701 44.6602 34.1789 44.5461 35.3583 44.6895C36.892 44.8752 37.7985 46.0547 37.8213 47.5764C37.8546 48.3184 37.6225 49.0479 37.1667 49.6334C36.7109 50.2189 36.0615 50.6218 35.3356 50.7695C34.7655 50.8522 34.1891 50.8827 33.6135 50.8607C33.0384 50.8542 32.4633 50.7858 31.9921 50.7532ZM32.8597 47.4949H32.8759C32.8759 48.2671 32.8759 49.0393 32.8759 49.8083C32.8548 49.9837 32.9012 50.1606 33.0057 50.3028C33.1101 50.4451 33.2648 50.5421 33.438 50.574C34.5265 50.7988 35.5825 50.7239 36.3981 49.8963C37.2137 49.0687 37.2559 48.0553 36.9992 47.029C36.5248 45.1457 34.8352 44.6309 33.2723 44.7938C33.1164 44.8101 32.8922 45.1522 32.8759 45.3542C32.8174 46.0612 32.8597 46.7781 32.8597 47.4916V47.4949Z" fill="#1C284C"/>
<path d="M56.4164 59.3025C55.9862 59.3197 55.5571 59.247 55.1564 59.089C54.7556 58.9311 54.392 58.6913 54.0886 58.3849C53.7852 58.0785 53.5487 57.7122 53.394 57.3093C53.2393 56.9063 53.1698 56.4755 53.1899 56.0442C53.1891 55.6171 53.2727 55.1942 53.4359 54.7997C53.5992 54.4053 53.8389 54.0472 54.1411 53.7463C54.4433 53.4454 54.802 53.2076 55.1964 53.0467C55.5909 52.8857 56.0133 52.8048 56.4392 52.8087C58.3887 52.8087 59.7242 54.0404 59.7307 55.8976C59.7274 57.8623 58.3367 59.3025 56.4164 59.3025ZM59.1198 56.1811C58.9605 55.5116 58.743 54.8575 58.47 54.2261C58.2583 53.8174 57.9267 53.4837 57.52 53.2699C57.1134 53.0561 56.6511 52.9724 56.1955 53.0303C55.7173 53.0374 55.2543 53.2001 54.8763 53.4939C54.4983 53.7877 54.2258 54.1968 54.0997 54.6594C53.7865 55.6069 53.8601 56.6401 54.3044 57.5333C55.159 59.2927 57.4692 59.6088 58.4505 58.0709C58.8111 57.5398 58.8989 56.8392 59.1361 56.1811H59.1198Z" fill="#1C284C"/>
<path d="M50.9019 58.0415C50.9019 56.484 50.9214 55.021 50.9019 53.558C50.9019 53.3332 50.655 53.1117 50.551 52.9357H51.542C51.4507 53.3655 51.3877 53.8009 51.3536 54.239C51.3276 55.6499 51.3536 57.0607 51.3536 58.4748V59.1037L51.1879 59.2112L46.418 54.1673C46.2003 55.0862 46.4342 58.6833 46.7429 59.1232H45.8916C46.1808 57.0607 45.9176 54.9949 46.0638 52.7695L50.9019 58.0415Z" fill="#1C284C"/>
<path d="M14.3584 4.74609C15.148 4.74609 15.9375 4.74609 16.7271 4.74609C17.8968 4.7689 18.5824 5.32933 18.6247 6.25794C18.6799 7.47003 17.9196 8.41493 16.7921 8.53875C16.6365 8.55322 16.4798 8.55322 16.3242 8.53875C17.0195 8.44426 17.5979 8.17056 17.8611 7.47654C17.9851 7.16973 18.0237 6.8349 17.9728 6.5078C17.9219 6.1807 17.7833 5.87361 17.5719 5.61932C17.379 5.38202 17.1314 5.19529 16.8506 5.07518C15.9375 4.67767 15.5964 4.90901 15.5964 5.86695C15.5964 7.49609 15.5964 9.15131 15.5964 10.7935C15.5964 11.2562 15.6289 11.7417 16.2722 11.7905H14.5761C14.7023 11.5749 14.7903 11.339 14.836 11.0933C14.875 9.27947 14.8934 7.46351 14.8913 5.64538C14.8913 5.27394 14.901 4.83733 14.3584 4.74609Z" fill="#1C284C"/>
<path d="M27.751 11.8361C27.8862 11.6113 27.9839 11.3659 28.0402 11.1095C28.0759 9.27186 28.0986 7.43744 28.0824 5.59977C28.0257 5.29805 27.9157 5.00894 27.7575 4.74609H31.1269L31.0522 5.7692C30.802 4.99372 30.2984 5.03934 29.824 5.04586C28.7517 5.04586 28.8232 4.87317 28.82 6.02334C28.7983 6.50667 28.8059 6.99088 28.8427 7.47329C28.8729 7.5667 28.9249 7.65152 28.9945 7.72067C29.064 7.78981 29.149 7.84129 29.2424 7.8708C29.5272 7.91703 29.8171 7.92251 30.1034 7.88709C30.3861 7.8708 30.6656 7.82518 30.9937 7.78608L30.8865 8.69515C30.6233 8.27157 29.3626 7.95226 28.9759 8.22595C28.9296 8.27069 28.8928 8.32434 28.8677 8.38369C28.8426 8.44303 28.8297 8.50686 28.8297 8.57133C28.8297 9.30445 28.8102 10.0408 28.8297 10.7739C28.8175 10.8713 28.8273 10.9702 28.8585 11.0632C28.8896 11.1562 28.9414 11.241 29.0098 11.3112C29.0782 11.3813 29.1615 11.4351 29.2536 11.4685C29.3456 11.5018 29.444 11.5139 29.5413 11.5038C30.2204 11.5038 30.958 11.7254 31.3349 10.8749C31.3609 11.8068 31.3349 11.8361 30.4446 11.8361H27.751Z" fill="#1C284C"/>
<path d="M44.4423 59.1923L43.5098 59.1434C43.2629 58.4917 42.9964 57.8401 42.7885 57.1884C42.7533 57.0288 42.6578 56.8891 42.5221 56.7986C42.3864 56.7081 42.221 56.6738 42.0606 56.7029C40.3515 56.7518 40.7772 56.4325 40.2151 58.0258C40.1123 58.3834 40.0309 58.7468 39.9714 59.1141H39.2695C39.4482 58.7296 39.6757 58.3321 39.8317 57.9085C40.397 56.3934 40.9396 54.8685 41.492 53.3469C41.5505 53.1905 41.6285 53.0211 41.7455 52.7734C41.8624 53.0569 41.9437 53.2394 42.0184 53.4251C42.5935 54.9141 43.1556 56.4129 43.7535 57.8955C43.9583 58.3405 44.1883 58.7735 44.4423 59.1923ZM41.6805 54.1093H41.5213L40.7577 56.4651H42.5025C42.2101 55.6212 41.9437 54.8653 41.6805 54.1093Z" fill="#1C284C"/>
<path d="M43.4619 4.75H44.8396C44.7127 4.99081 44.6249 5.25039 44.5797 5.51896C44.5569 7.31428 44.5797 9.10308 44.5797 10.9114C44.5797 11.3187 44.6511 11.6934 45.1645 11.7749H43.4944C43.642 11.5194 43.7453 11.2407 43.7998 10.9505C43.8302 9.11286 43.8302 7.27626 43.7998 5.44076C43.7771 5.21268 43.5691 4.97156 43.4619 4.75Z" fill="#1C284C"/>
<path d="M39.3936 44.582H42.4251V45.2337C41.9507 44.6896 41.3431 44.7938 40.7647 44.8166C40.6911 44.8405 40.6249 44.883 40.5725 44.9401C40.5201 44.9972 40.4834 45.0669 40.4658 45.1425C40.4317 45.7589 40.4317 46.3767 40.4658 46.9932C40.4997 47.0756 40.5533 47.1485 40.6218 47.2053C40.6904 47.2621 40.7718 47.3012 40.859 47.319C41.3301 47.3614 41.8077 47.319 42.3406 47.319L42.2984 47.7165C41.7428 47.6644 41.2294 47.5992 40.7128 47.5862C40.625 47.5862 40.4593 47.811 40.4561 47.9381C40.4366 48.5897 40.4561 49.2414 40.4561 49.8931C40.4499 50.0496 40.5054 50.2023 40.6105 50.3182C40.7157 50.434 40.8622 50.5037 41.0182 50.5121C41.7428 50.6653 42.3179 50.473 42.6753 49.9517C42.6461 50.7435 42.5648 50.8054 41.811 50.7858C41.0572 50.7663 40.2709 50.7858 39.4618 50.7858C40.0759 50.0397 39.9817 44.9926 39.3936 44.582Z" fill="#1C284C"/>
<path d="M44.6926 50.8288C44.8041 50.4466 44.8813 50.0551 44.9233 49.6591C44.9526 48.2515 44.9558 46.8374 44.9233 45.4233C44.873 45.125 44.7777 44.836 44.6406 44.5664H45.8721C45.7876 44.7228 45.6057 44.8922 45.6024 45.0714C45.5872 46.6941 45.5872 48.3156 45.6024 49.9361C45.6143 50.0382 45.6477 50.1365 45.7004 50.2247C45.753 50.3129 45.8237 50.3889 45.9078 50.4476C46.4537 50.7735 47.5325 50.5682 47.9581 50.0794C48.0393 50.7148 47.9581 50.8256 47.3083 50.8256L44.6926 50.8288Z" fill="#1C284C"/>
<path d="M47.5781 52.0789C47.8543 51.5217 48.228 51.4011 48.7706 51.652C49.1007 51.7717 49.4411 51.86 49.7876 51.916C49.5504 52.2972 49.1833 52.2418 48.7933 52.0463C48.4034 51.8508 47.9908 51.626 47.5781 52.0789Z" fill="#1C284C"/>
<path d="M62.2873 62.8847C62.1949 62.8821 62.1068 62.8449 62.0403 62.7805C62.0013 62.7488 61.9702 62.7084 61.9493 62.6627C61.9284 62.6169 61.9184 62.5668 61.9201 62.5165C61.9302 62.3916 61.987 62.2752 62.0793 62.1907C62.1801 62.0819 62.2887 61.9806 62.4042 61.8877C63.7039 60.7147 64.9192 59.5971 66.0499 58.5349C67.0971 57.551 68.0662 56.4867 68.9482 55.3515C69.7248 54.3536 70.3682 53.2582 70.862 52.0933C71.3238 50.9692 71.5569 49.7639 71.5476 48.5482C71.5745 47.7444 71.4363 46.9437 71.1415 46.1957C70.9123 45.6316 70.563 45.1245 70.118 44.71C69.7287 44.3542 69.2693 44.0845 68.7695 43.9182C68.3207 43.7688 67.8517 43.6897 67.3788 43.6836C66.8397 43.6695 66.3022 43.7489 65.79 43.9182C65.338 44.0916 64.9242 44.3517 64.5715 44.6839C64.2481 44.9906 64.0087 45.3754 63.8761 45.8015C63.7242 46.264 63.6485 46.7482 63.6519 47.2351C63.6519 47.4958 63.574 47.6294 63.4148 47.6294C63.2555 47.6294 63.223 47.5153 63.2068 47.3036C63.2068 47.2514 63.2068 47.0885 63.1808 46.8181C63.1548 46.5476 63.1451 46.2381 63.1288 45.896C63.1126 45.5539 63.0931 45.215 63.0736 44.8826C63.0541 44.5503 63.0476 44.2766 63.0476 44.0681C63.0435 43.9996 63.057 43.9312 63.0866 43.8693C63.1513 43.7934 63.2268 43.7275 63.3108 43.6738C63.9151 43.4061 64.5427 43.1945 65.1856 43.0417C66.0846 42.8339 67.0055 42.7365 67.928 42.7517C68.8138 42.7322 69.6955 42.8792 70.5274 43.1851C71.2163 43.4468 71.8453 43.8458 72.3762 44.3581C72.8649 44.8359 73.245 45.4138 73.4907 46.0524C73.7351 46.6953 73.8595 47.3779 73.8578 48.066C73.8577 48.9752 73.7073 49.878 73.4127 50.7378C73.1069 51.6207 72.706 52.4674 72.217 53.263C71.7107 54.0907 71.1403 54.8773 70.5111 55.6155C69.8743 56.3714 69.2244 57.0817 68.5616 57.7464C67.8987 58.4111 67.2294 59.0345 66.5535 59.6166C65.8907 60.1923 65.2874 60.7093 64.7437 61.1676C64.6755 61.2197 64.6462 61.2653 64.6657 61.2979C64.6852 61.3305 64.7274 61.3533 64.7957 61.3533H67.4471C67.85 61.3533 68.2854 61.3533 68.7468 61.324L70.1374 61.2849C70.4883 61.2848 70.8388 61.2631 71.187 61.2197C72.1617 61.1318 72.8636 60.8646 73.325 60.4182C73.8013 59.9505 74.1262 59.3499 74.2575 58.6946C74.329 58.4306 74.433 58.3003 74.5824 58.3003C74.6507 58.3003 74.6961 58.3427 74.7124 58.4306C74.7307 58.5174 74.7394 58.6059 74.7384 58.6946C74.7272 58.9033 74.6967 59.1105 74.6474 59.3136C74.5857 59.6036 74.5174 59.9164 74.4362 60.2585C74.355 60.6007 74.277 60.9428 74.1893 61.2849C74.1015 61.627 74.0236 61.9137 73.9521 62.1418C73.9239 62.2829 73.863 62.4154 73.7744 62.5286C73.6858 62.6418 73.5719 62.7325 73.4419 62.7935C73.0527 62.9001 72.6492 62.9441 72.2462 62.9238L62.2873 62.8847Z" fill="#1C284C"/>
<path d="M77.5167 49.3243C77.7666 48.1057 78.2051 46.9337 78.8164 45.851C79.3244 44.9356 80.0333 44.1478 80.8894 43.5474C81.7149 42.9922 82.6899 42.7035 83.6837 42.7198C84.4196 42.7042 85.1484 42.8662 85.8088 43.1922C86.4273 43.509 86.979 43.9427 87.4334 44.4695C87.906 45.0167 88.2997 45.6276 88.6031 46.2844C88.9151 46.9574 89.1652 47.6576 89.3504 48.3762C89.5294 49.0774 89.665 49.7891 89.7566 50.5071C89.8395 51.1435 89.8829 51.7844 89.8866 52.4262C89.8869 53.8614 89.7333 55.2924 89.4284 56.6946C89.1844 57.9111 88.7547 59.0827 88.1547 60.1679C87.6486 61.0919 86.9397 61.8885 86.0817 62.4976C85.2488 63.0709 84.2584 63.3693 83.2484 63.3513C82.2793 63.3711 81.3307 63.0712 80.5482 62.4976C79.7551 61.8995 79.101 61.1357 78.6312 60.2592C78.1027 59.2804 77.7143 58.2317 77.4777 57.1442C77.2162 55.9963 77.0843 54.8224 77.0845 53.6448C77.0739 52.1933 77.2188 50.7448 77.5167 49.3243ZM79.4662 56.0462C79.6186 57.1257 79.8911 58.1848 80.2785 59.2035C80.5913 60.0524 81.0734 60.8284 81.6952 61.4843C81.9616 61.7663 82.2833 61.99 82.6401 62.1414C82.9968 62.2928 83.3809 62.3686 83.7682 62.364C84.3731 62.364 84.9548 62.1307 85.3929 61.7124C85.9312 61.202 86.3563 60.5836 86.6406 59.8975C87.0239 59.0045 87.2967 58.0679 87.4529 57.1084C87.6549 55.9312 87.7517 54.7383 87.7421 53.5438C87.7441 52.3221 87.643 51.1024 87.4399 49.8978C87.2667 48.8157 86.9724 47.7566 86.5626 46.7405C86.2349 45.9104 85.7443 45.1547 85.1199 44.5184C84.8641 44.2538 84.5581 44.0431 84.22 43.8988C83.8819 43.7544 83.5184 43.6793 83.1509 43.6777C82.5497 43.6779 81.9703 43.9034 81.5263 44.3098C80.9863 44.811 80.5645 45.4265 80.2915 46.1117C79.9159 47.0099 79.6518 47.951 79.5052 48.9138C79.3116 50.1138 79.2193 51.328 79.229 52.5435C79.2227 53.7145 79.3041 54.8842 79.4727 56.0429L79.4662 56.0462Z" fill="#1C284C"/>
<path d="M92.249 62.8848C92.1556 62.8824 92.0665 62.8452 91.9988 62.7806C91.9615 62.7476 91.9317 62.707 91.9115 62.6615C91.8913 62.6159 91.8812 62.5665 91.8819 62.5166C91.8917 62.3924 91.9473 62.2762 92.0378 62.1908C92.1402 62.0836 92.2487 61.9825 92.3628 61.8878C93.6755 60.7148 94.8907 59.5972 96.0084 58.535C97.0567 57.5511 98.0268 56.4868 98.91 55.3517C99.6855 54.353 100.329 53.2578 100.824 52.0934C101.286 50.9693 101.519 49.764 101.509 48.5483C101.535 47.7447 101.396 46.9443 101.103 46.1959C100.872 45.633 100.523 45.1264 100.08 44.7101C99.6893 44.3543 99.2289 44.0845 98.728 43.9183C98.2793 43.7687 97.8102 43.6895 97.3374 43.6837C96.7993 43.6696 96.2628 43.749 95.7517 43.9183C95.2992 44.0925 94.8844 44.3524 94.53 44.684C94.208 44.9918 93.9688 45.3762 93.8347 45.8016C93.6838 46.2643 93.6092 46.7485 93.6137 47.2353C93.6137 47.4959 93.5357 47.6295 93.3765 47.6295C93.2173 47.6295 93.1848 47.5155 93.1653 47.3037C93.1653 47.2515 93.1653 47.0886 93.1393 46.8182C93.1133 46.5478 93.1036 46.2382 93.0873 45.8961C93.0711 45.554 93.0516 45.2151 93.0353 44.8828C93.0191 44.5504 93.0094 44.2767 93.0094 44.0682C93.0053 43.9997 93.0187 43.9313 93.0483 43.8694C93.1122 43.7927 93.1879 43.7267 93.2725 43.6739C93.8767 43.4058 94.5043 43.1942 95.1474 43.0418C96.0463 42.8337 96.9672 42.7363 97.8897 42.7518C98.7756 42.7316 99.6574 42.8786 100.489 43.1852C101.179 43.431 101.813 43.8145 102.351 44.3126C102.842 44.7886 103.222 45.367 103.465 46.0069C103.713 46.6492 103.838 47.332 103.836 48.0205C103.836 48.93 103.685 49.833 103.387 50.6923C103.083 51.5751 102.683 52.4218 102.195 53.2175C101.688 54.0445 101.117 54.831 100.489 55.57C99.8393 56.3259 99.1894 57.0362 98.5201 57.7009C97.8507 58.3656 97.1781 59.0042 96.5153 59.5712C95.8525 60.1381 95.2448 60.6659 94.7055 61.1221C94.634 61.1742 94.608 61.2198 94.6242 61.2524C94.6405 61.285 94.686 61.3078 94.7575 61.3078H97.4056C97.8085 61.3078 98.2471 61.3078 98.7053 61.2785L100.096 61.2394C100.447 61.2393 100.797 61.2176 101.145 61.1742C102.107 61.0873 102.82 60.8202 103.283 60.3727C103.759 59.9042 104.083 59.304 104.216 58.6491C104.284 58.3851 104.388 58.2548 104.541 58.2548C104.609 58.2548 104.651 58.2972 104.671 58.3851C104.688 58.4721 104.696 58.5605 104.697 58.6491C104.684 58.8576 104.654 59.0647 104.606 59.2681C104.544 59.5581 104.473 59.8709 104.395 60.213C104.317 60.5552 104.232 60.8973 104.145 61.2394C104.057 61.5815 103.979 61.8682 103.911 62.0963C103.882 62.2376 103.82 62.3702 103.731 62.4834C103.642 62.5966 103.528 62.6872 103.397 62.748C103.009 62.8546 102.607 62.8986 102.205 62.8783L92.249 62.8848Z" fill="#1C284C"/>
<path d="M116.436 55.3244C116.114 54.742 115.682 54.2276 115.166 53.8093C114.686 53.4264 114.15 53.1208 113.577 52.9035C113.096 52.7181 112.602 52.5699 112.098 52.4604C111.643 52.3713 111.416 52.2573 111.416 52.1182C111.416 52.0303 111.471 51.9651 111.588 51.9195C111.729 51.8691 111.873 51.8298 112.02 51.8022C112.43 51.7186 112.83 51.5908 113.213 51.421C113.711 51.2088 114.175 50.9245 114.59 50.5771C115.047 50.1941 115.429 49.7302 115.718 49.2086C116.048 48.6009 116.212 47.9162 116.192 47.2243C116.181 46.8769 116.128 46.5322 116.033 46.1979C115.92 45.774 115.724 45.3765 115.458 45.0282C115.149 44.6206 114.754 44.2867 114.301 44.0507C113.716 43.7695 113.071 43.6364 112.423 43.663C111.562 43.6276 110.718 43.9079 110.048 44.4515C109.426 44.9771 109.117 45.7483 109.119 46.7649C109.119 46.9082 109.096 46.9929 109.05 47.0288C109.019 47.0595 108.977 47.078 108.933 47.0809C108.83 47.0809 108.768 46.9864 108.752 46.7942C108.696 46.3706 108.654 45.9014 108.618 45.3866C108.583 44.8718 108.566 44.4612 108.566 44.1615C108.561 44.0621 108.579 43.9629 108.618 43.8715C108.695 43.7646 108.793 43.6756 108.907 43.6108C109.45 43.3662 110.012 43.1678 110.587 43.0178C111.426 42.8006 112.291 42.6986 113.158 42.7148C114.044 42.6846 114.928 42.8319 115.757 43.1482C116.353 43.3861 116.894 43.7443 117.346 44.2006C117.702 44.5701 117.971 45.0156 118.132 45.5039C118.26 45.8811 118.331 46.2754 118.343 46.6736C118.352 47.3015 118.203 47.9214 117.908 48.4755C117.637 48.9915 117.294 49.4655 116.888 49.883C116.531 50.2539 116.139 50.5889 115.718 50.8833C115.438 51.0864 115.14 51.2631 114.828 51.4112V51.5415C115.304 51.668 115.765 51.8438 116.205 52.0661C116.721 52.3264 117.194 52.6636 117.609 53.0664C118.058 53.5053 118.43 54.0163 118.71 54.5782C119.015 55.2049 119.168 55.8949 119.156 56.5919C119.159 57.4917 118.966 58.3814 118.59 59.1985C118.212 60.0168 117.667 60.747 116.992 61.3425C116.261 61.9774 115.421 62.4722 114.512 62.8022C113.486 63.1715 112.402 63.3535 111.312 63.3398C111.022 63.3388 110.732 63.3214 110.444 63.2877C110.119 63.2518 109.821 63.2029 109.515 63.1443C109.21 63.0857 108.933 63.0172 108.687 62.9455C108.485 62.8937 108.291 62.8136 108.111 62.7077C107.961 62.6324 107.838 62.513 107.757 62.3656C107.709 62.24 107.687 62.1058 107.692 61.9713C107.692 61.6455 107.692 61.3197 107.692 61.0134C107.692 60.7071 107.712 60.3617 107.731 60.0782C107.751 59.7948 107.77 59.508 107.796 59.2637C107.822 59.0193 107.845 58.8238 107.861 58.6837C107.877 58.4198 107.949 58.2894 108.072 58.2894C108.196 58.2894 108.238 58.4133 108.254 58.6576C108.304 59.1385 108.414 59.6112 108.579 60.0652C108.732 60.4975 108.98 60.8898 109.304 61.213C109.629 61.5362 110.022 61.782 110.454 61.9322C111.014 62.1303 111.605 62.2242 112.199 62.2092C112.832 62.2137 113.462 62.1158 114.064 61.9192C114.621 61.7373 115.134 61.4423 115.572 61.0525C116.01 60.65 116.355 60.1562 116.582 59.6058C116.84 58.953 116.965 58.255 116.949 57.5531C116.976 56.7779 116.799 56.0093 116.436 55.3244Z" fill="#1C284C"/>
</g>
<defs>
<clipPath id="clip0_1327_7138">
<rect width="131" height="66" fill="white"/>
</clipPath>
</defs>
</svg>
