<?xml version="1.0" encoding="utf-8"?>
<!-- Generator: Adobe Illustrator 27.4.0, SVG Export Plug-In . SVG Version: 6.00 Build 0)  -->
<svg version="1.1" id="Capa_1" xmlns="http://www.w3.org/2000/svg" xmlns:xlink="http://www.w3.org/1999/xlink" x="0px" y="0px"
	 viewBox="0 0 155.5 65" style="enable-background:new 0 0 155.5 65;" xml:space="preserve">
<style type="text/css">
	.st0{clip-path:url(#SVGID_00000014610292700164104800000015301168000479984568_);}
	.st1{fill:#1C284C;}
</style>
<g>
	<defs>
		<rect id="SVGID_1_" x="-9.5" y="1" width="160" height="65"/>
	</defs>
	<clipPath id="SVGID_00000103984225052130043850000016744757579959545733_">
		<use xlink:href="#SVGID_1_"  style="overflow:visible;"/>
	</clipPath>
	<g id="ISO9001_1" style="clip-path:url(#SVGID_00000103984225052130043850000016744757579959545733_);">
		<g id="Layer_2">
			<g id="Capa_1_00000177473008640305308050000005922196480285174188_">
				<path id="Vector" class="st1" d="M15.5,61.5H9.9H9.4c-1.9-0.3-3.6-1.2-5-2.5c-1.4-1.3-2.2-3.1-2.5-5l-0.4-0.7V9.2V8.5
					C1.9,6.3,3.1,4.4,4.9,3C6.6,1.6,8.8,0.9,11,1h25.8c0.8-0.1,1.6-0.1,2.3,0c1.4,0.2,2.8,0.7,4,1.5c1.2,0.8,2.1,1.9,2.8,3.2
					L18.2,43.9c-4.5-3.2-9.4-5.8-14.7-7.5v0.7c4,7,7.6,14.3,10.7,21.7C14.7,59.7,15.1,60.6,15.5,61.5z"/>
				<path id="Vector_2" class="st1" d="M19.9,61.5l4.7-10.4C30.8,38,38,25.3,45.2,12.7c0.6-1,1.1-1.9,1.8-2.8v0.7
					c0,13.8,0,27.5,0,41.2c0.1,2.3-0.7,4.5-2.1,6.2s-3.5,2.9-5.8,3.3L19.9,61.5z"/>
				<path id="Vector_3" class="st1" d="M69.4,7.2h-3.7v15.6h3.7V7.2z"/>
				<path id="Vector_4" class="st1" d="M83.4,10.7l-3.2,1c-0.1-0.6-0.5-1.1-1-1.4c-0.5-0.3-1.1-0.5-1.7-0.5c-1.4,0-2.2,0.4-2.2,1.4
					c0,0.4,0.1,0.7,0.4,1c0.6,0.3,1.2,0.6,1.9,0.7c1.2,0.2,2.4,0.5,3.5,1c0.8,0.3,1.4,0.9,1.9,1.6c0.5,0.7,0.7,1.5,0.8,2.4
					c0,0.7-0.2,1.4-0.4,2c-0.3,0.6-0.7,1.2-1.2,1.7c-1.4,1.1-3.1,1.7-4.9,1.6c-1.4,0-2.8-0.3-4.1-1c-1.1-0.8-1.9-2-2.3-3.3l3.4-0.7
					c0.2,0.7,0.6,1.3,1.2,1.7c0.6,0.4,1.3,0.6,2,0.5c0.7,0,1.3-0.1,1.9-0.4c0.2-0.1,0.3-0.3,0.4-0.5C80,19,80,18.7,80,18.5
					c0-0.2,0-0.4-0.1-0.6c-0.1-0.2-0.2-0.3-0.4-0.5c-0.7-0.4-1.4-0.6-2.2-0.7c-1.5-0.2-3-0.8-4.3-1.6c-0.4-0.4-0.8-0.9-1-1.4
					c-0.2-0.5-0.3-1.1-0.3-1.7c0-0.6,0.1-1.3,0.4-1.9c0.3-0.6,0.6-1.1,1.1-1.6c1.1-1,2.6-1.6,4.1-1.5C78.7,6.8,80,7.1,81,7.8
					C82.1,8.4,82.9,9.5,83.4,10.7z"/>
				<path id="Vector_5" class="st1" d="M92.1,23.4c-1,0.1-1.9-0.1-2.8-0.6c-0.9-0.4-1.6-1.1-2.1-1.8c-1.2-1.6-1.8-3.7-1.7-5.7
					c-0.1-2.1,0.5-4.1,1.7-5.8c0.6-0.7,1.4-1.3,2.2-1.7c0.9-0.4,1.8-0.6,2.8-0.5c1,0,1.9,0.1,2.8,0.6c0.9,0.4,1.6,1,2.2,1.8
					c1.1,1.7,1.7,3.6,1.7,5.6c0.1,2.1-0.5,4.1-1.7,5.8c-0.6,0.8-1.3,1.4-2.2,1.8C94,23.3,93,23.5,92.1,23.4z M92.1,10.3
					c-2,0-2.9,1.6-2.9,5c0,3.4,1,5.1,2.9,5.1c2,0,2.8-1.6,2.8-5.1S93.9,10.3,92.1,10.3z"/>
				<path id="Vector_6" class="st1" d="M109.5,18.4c0.1,0.4,0.3,0.8,0.6,1.1c0.3,0.3,0.8,0.4,1.2,0.4c0.3,0,0.6,0,0.9-0.2
					c0.3-0.1,0.5-0.3,0.7-0.6c0.6-1.1,0.8-2.3,0.8-3.6c-0.4,0.5-0.8,0.8-1.4,1.1c-0.5,0.2-1.1,0.4-1.7,0.4c-0.6,0.1-1.1,0-1.6-0.2
					c-0.5-0.2-1-0.4-1.4-0.8c-0.4-0.4-0.7-0.9-0.9-1.4c-0.2-0.5-0.3-1.1-0.3-1.6c0-0.6,0.1-1.2,0.3-1.8c0.2-0.6,0.6-1.1,1-1.5
					c1-0.9,2.3-1.3,3.7-1.2c1,0,2,0.2,2.9,0.7c0.9,0.6,1.5,1.4,1.9,2.4c0.5,1.2,0.7,2.5,0.7,3.7c0.1,1.8-0.4,3.6-1.4,5.2
					c-0.5,0.7-1.1,1.2-1.9,1.6c-0.7,0.4-1.6,0.5-2.4,0.5c-1.1,0.1-2.1-0.2-2.9-0.9c-0.8-0.7-1.4-1.6-1.5-2.7L109.5,18.4z
					 M111.5,10.4c-0.3,0-0.5,0-0.8,0.2c-0.2,0.1-0.5,0.3-0.6,0.5c-0.2,0.2-0.4,0.4-0.5,0.6c-0.1,0.2-0.2,0.5-0.1,0.8
					c0,0.3,0,0.5,0.1,0.8c0.1,0.2,0.2,0.5,0.4,0.7c0.2,0.2,0.4,0.4,0.7,0.5c0.3,0.1,0.5,0.2,0.8,0.2c0.3,0,0.6-0.1,0.8-0.2
					c0.3-0.1,0.5-0.3,0.7-0.5c0.3-0.4,0.5-0.9,0.5-1.4c0-0.3,0-0.5-0.1-0.8c-0.1-0.2-0.2-0.5-0.4-0.7c-0.2-0.2-0.4-0.4-0.7-0.5
					C112,10.5,111.7,10.4,111.5,10.4z"/>
				<path id="Vector_7" class="st1" d="M123.8,22.2c-0.8,0-1.6-0.1-2.2-0.5c-0.7-0.3-1.3-0.9-1.7-1.5c-1-1.5-1.4-3.3-1.4-5.1
					c-0.1-1.8,0.4-3.5,1.4-5c0.5-0.6,1.1-1.1,1.8-1.5c0.7-0.3,1.5-0.5,2.2-0.5c0.8,0,1.5,0.2,2.2,0.5c0.7,0.3,1.3,0.8,1.8,1.5
					c1,1.5,1.5,3.2,1.5,5c0,1.8-0.5,3.5-1.4,5c-0.4,0.7-1,1.2-1.7,1.5C125.4,22.1,124.6,22.3,123.8,22.2 M123.9,10.5
					c-0.3,0-0.7,0.1-1,0.2c-0.3,0.2-0.5,0.5-0.6,0.8c-0.4,1.2-0.6,2.4-0.5,3.7c-0.1,1.2,0.1,2.5,0.5,3.7c0.1,0.3,0.4,0.6,0.6,0.7
					c0.3,0.2,0.6,0.3,0.9,0.3c0.3,0,0.7-0.1,0.9-0.3c0.3-0.2,0.5-0.4,0.6-0.7c0.4-1.2,0.5-2.4,0.5-3.6c0.1-1.3-0.1-2.6-0.5-3.8
					c-0.1-0.3-0.3-0.6-0.6-0.7C124.4,10.6,124.1,10.5,123.9,10.5"/>
				<path id="Vector_8" class="st1" d="M135.9,22.2c-0.8,0-1.6-0.1-2.2-0.5c-0.7-0.3-1.3-0.9-1.7-1.5c-1-1.5-1.4-3.3-1.4-5.1
					c-0.1-1.8,0.4-3.5,1.4-5c0.5-0.6,1.1-1.1,1.8-1.5c0.7-0.3,1.5-0.5,2.2-0.5s1.5,0.2,2.2,0.5c0.7,0.3,1.3,0.8,1.8,1.5
					c1,1.5,1.5,3.2,1.4,5c0,1.8-0.5,3.5-1.4,5c-0.4,0.7-1,1.2-1.7,1.5C137.4,22.1,136.7,22.3,135.9,22.2z M135.9,10.5
					c-0.3,0-0.7,0.1-1,0.2c-0.3,0.2-0.5,0.5-0.6,0.8c-0.4,1.2-0.5,2.4-0.4,3.7c-0.1,1.2,0.1,2.5,0.4,3.7c0.1,0.3,0.4,0.6,0.6,0.8
					s0.6,0.3,0.9,0.3c0.3,0,0.7-0.1,1-0.3s0.5-0.5,0.6-0.8c0.4-1.2,0.5-2.4,0.5-3.6c0.1-1.3-0.1-2.6-0.5-3.8
					c-0.1-0.3-0.3-0.6-0.6-0.7C136.5,10.6,136.2,10.5,135.9,10.5z"/>
				<path id="Vector_9" class="st1" d="M145.9,22.2v-9.8l-3.5,1.9v-2.6c1.7-0.5,3.3-1.6,4.3-3.1h2.1v13.7"/>
				<path id="Vector_10" class="st1" d="M149.9,31.6H65.7v1.1h84.2V31.6z"/>
				<path id="Vector_11" class="st1" d="M69,47.9h-3.8v-7.4h0.9v6.7H69V47.9z"/>
				<path id="Vector_12" class="st1" d="M74,47.9h-3.8v-7.4H71v6.7h3V47.9z"/>
				<path id="Vector_13" class="st1" d="M77.8,44.6h-2.9v0.7h2.9V44.6z"/>
				<path id="Vector_14" class="st1" d="M84.2,47.6c-0.6,0.3-1.3,0.5-2,0.4c-0.5,0-1-0.1-1.4-0.2c-0.4-0.2-0.8-0.5-1.2-0.8
					c-0.3-0.3-0.6-0.8-0.8-1.2c-0.2-0.4-0.2-0.9-0.2-1.4c0-1.1,0.3-2.1,1.1-2.9c0.4-0.4,0.8-0.6,1.3-0.8c0.5-0.2,1-0.3,1.5-0.2
					c0.6-0.1,1.2-0.1,1.7,0v0.9c-0.6-0.3-1.2-0.5-1.8-0.4c-0.4,0-0.8,0.1-1.1,0.2c-0.3,0.1-0.7,0.4-0.9,0.6
					c-0.6,0.6-0.9,1.5-0.8,2.3c0,0.8,0.2,1.6,0.8,2.2c0.3,0.3,0.6,0.5,0.9,0.6c0.3,0.1,0.7,0.2,1.1,0.2c0.7,0.1,1.3,0.1,2-0.1V47.6z
					"/>
				<path id="Vector_15" class="st1" d="M91,49.6h-0.8c-1-1.3-1.6-2.9-1.6-4.6c0-1.7,0.5-3.3,1.6-4.6H91c-1,1.3-1.6,2.9-1.6,4.6
					C89.5,46.7,90,48.3,91,49.6z"/>
				<path id="Vector_16" class="st1" d="M97.2,47.6c-0.7,0.3-1.4,0.5-2.1,0.4c-0.5,0-0.9-0.1-1.4-0.2c-0.4-0.2-0.8-0.5-1.1-0.8
					c-0.3-0.4-0.6-0.8-0.7-1.2c-0.2-0.4-0.2-0.9-0.2-1.4c0-1.1,0.3-2.1,1.1-2.9c0.4-0.4,0.8-0.6,1.2-0.8c0.5-0.2,1-0.3,1.5-0.2
					c0.6-0.1,1.2-0.1,1.8,0v0.9c-0.6-0.3-1.2-0.5-1.8-0.4c-0.4,0-0.8,0.1-1.1,0.2c-0.3,0.1-0.7,0.4-0.9,0.6
					c-0.6,0.6-0.9,1.5-0.8,2.3c0,0.4,0,0.8,0.2,1.2c0.1,0.4,0.3,0.7,0.6,1c0.3,0.3,0.6,0.5,0.9,0.6c0.3,0.1,0.7,0.2,1.1,0.2
					c0.7,0,1.3-0.1,2-0.4L97.2,47.6z"/>
				<path id="Vector_17" class="st1" d="M102.8,45.9h-3.6c0,0.2,0,0.5,0.1,0.7c0.1,0.2,0.2,0.4,0.4,0.6c0.2,0.2,0.3,0.3,0.6,0.4
					c0.2,0.1,0.4,0.1,0.6,0.1c0.3,0,0.6,0,0.9-0.1c0.3-0.1,0.5-0.3,0.8-0.5v0.8c-0.5,0.4-1.2,0.6-1.8,0.5c-0.3,0-0.7,0-1-0.2
					c-0.3-0.1-0.6-0.3-0.8-0.6c-0.2-0.3-0.4-0.6-0.5-0.9c-0.1-0.3-0.1-0.7-0.1-1.1c0-0.4,0-0.9,0.1-1.3c0.1-0.4,0.4-0.8,0.7-1.1
					c0.2-0.2,0.5-0.4,0.8-0.6c0.3-0.1,0.6-0.2,0.9-0.2c0.3,0,0.6,0,0.9,0.2c0.3,0.1,0.5,0.3,0.8,0.5c0.4,0.5,0.6,1.2,0.5,1.9
					L102.8,45.9z M102,45.1c0.1-0.4,0.1-0.8,0-1.1c-0.1-0.1-0.3-0.3-0.4-0.3c-0.2-0.1-0.4-0.1-0.5-0.1c-0.4,0-0.8,0.2-1.1,0.4
					c-0.3,0.3-0.4,0.7-0.5,1.1H102z"/>
				<path id="Vector_18" class="st1" d="M106.7,43.5c-0.2-0.1-0.4-0.1-0.6,0c-0.2,0-0.4,0.1-0.6,0.1c-0.2,0.1-0.3,0.2-0.4,0.4
					c-0.1,0.4-0.1,0.9,0,1.3v2.7h-0.9v-5.2h0.9v1c0.1-0.3,0.3-0.6,0.5-0.9c0.3-0.1,0.6-0.1,0.8,0h0.2V43.5z"/>
				<path id="Vector_19" class="st1" d="M110.6,47.8c-0.2,0.1-0.5,0.1-0.8,0c-1,0-1.4-0.5-1.4-1.6v-2.9h-0.9v-0.7h0.9v-1.3h0.8v1.6
					h1.4v0.7h-1.4v3c0,0.1-0.1,0.2-0.1,0.4c0,0.1,0,0.3,0.1,0.4c0,0,0,0,0.6,0h0.5L110.6,47.8z"/>
				<path id="Vector_20" class="st1" d="M112.1,41.3h-0.4c0-0.1,0-0.3,0-0.4h0.4c0.1,0.1,0.1,0.1,0.2,0.2c0,0.1,0.1,0.2,0.1,0.3
					c0,0.1,0,0.2-0.1,0.3c0,0.1-0.1,0.2-0.2,0.2 M112.6,48.4h-0.9v-5.2h0.9V48.4z"/>
				<path id="Vector_21" class="st1" d="M116.9,40.9c-0.2-0.1-0.4-0.1-0.6,0c-0.6,0-0.9,0.4-0.9,1.1v0.8h1.3v0.7h-1.3v4.6h-0.8v-4.7
					h-0.9v-0.7h0.9v-0.9c0-0.5,0.1-1,0.5-1.3c0.3-0.3,0.8-0.4,1.2-0.4h0.7V40.9z"/>
				<path id="Vector_22" class="st1" d="M118.1,41.3h-0.5c0-0.1,0-0.3,0-0.4h0.5h0.4c0,0,0.1,0.1,0.1,0.2c0,0.1,0,0.1,0,0.2
					c0,0.1,0,0.1,0,0.2c0,0.1-0.1,0.1-0.1,0.2c0,0,0,0-0.4,0 M118.4,48.2h-0.8V43h0.8V48.2z"/>
				<path id="Vector_23" class="st1" d="M123.8,47.7c-0.5,0.1-1,0.1-1.4,0c-0.3,0-0.7,0-1-0.2c-0.3-0.1-0.6-0.3-0.8-0.6
					c-0.2-0.2-0.4-0.5-0.6-0.9c-0.1-0.3-0.2-0.7-0.2-1c0-0.8,0.3-1.6,0.8-2.2c0.3-0.3,0.6-0.5,0.9-0.6s0.7-0.2,1.1-0.2
					c0.4-0.1,0.8-0.1,1.2,0v1.5c-0.3-0.3-0.8-0.4-1.2-0.4c-0.3,0-0.5,0-0.7,0.1c-0.2,0.1-0.4,0.3-0.6,0.5c-0.2,0.2-0.3,0.5-0.4,0.7
					c-0.1,0.3-0.1,0.6-0.1,0.8c0,0.5,0.1,1,0.5,1.4c0.2,0.2,0.4,0.3,0.6,0.4c0.2,0.1,0.5,0.1,0.7,0.1c0.5,0,0.9-0.2,1.3-0.4V47.7z"
					/>
				<path id="Vector_24" class="st1" d="M129.3,47.9h-0.8v-0.8c-0.1,0.3-0.4,0.5-0.6,0.7c-0.3,0.2-0.6,0.3-0.9,0.3
					c-0.5,0-0.9-0.1-1.3-0.4c-0.2-0.1-0.3-0.3-0.4-0.5c-0.1-0.2-0.1-0.4-0.1-0.6c0-1,0.6-1.5,1.7-1.7h1.7c0-0.9-0.4-1.3-1.1-1.3
					c-0.6,0-1.3,0.2-1.7,0.7V43c0.6-0.3,1.2-0.5,1.8-0.4c1.3,0,1.9,0.7,1.9,1.9L129.3,47.9z M128.4,45.2h-1.3
					c-0.3-0.1-0.6-0.1-0.9,0c-0.1,0.1-0.1,0.2-0.1,0.4c0,0.1,0,0.3,0.1,0.4c-0.1,0.2-0.1,0.4,0,0.6c0.2,0.1,0.5,0.1,0.8,0
					c0.2,0,0.4,0,0.6-0.1c0.2-0.1,0.3-0.2,0.5-0.3c0-0.1,0-0.1,0-0.2L128.4,45.2z"/>
				<path id="Vector_25" class="st1" d="M132.9,47.8c-0.3,0.1-0.6,0.1-0.8,0c-0.9,0-1.4-0.5-1.4-1.6v-2.9h-0.9v-0.7h0.9v-1.3h0.8
					v1.6h1.4v0.7h-1.4v3c0,0.1-0.1,0.2-0.1,0.4c0,0.1,0,0.3,0.1,0.4c0,0,0,0,0.6,0h0.5L132.9,47.8z"/>
				<path id="Vector_26" class="st1" d="M134.5,41.3h-0.4c0-0.1-0.1-0.1-0.1-0.2c0-0.1,0-0.2,0.1-0.2h0.4h0.4c0,0,0,0,0,0.4
					c-0.1,0-0.1,0.1-0.2,0.1C134.6,41.3,134.6,41.3,134.5,41.3 M134.9,47.8h-0.8v-5.2h0.8V47.8z"/>
				<path id="Vector_27" class="st1" d="M138.9,48.1c-0.4,0-0.7,0-1-0.2c-0.3-0.1-0.6-0.3-0.9-0.6c-0.5-0.5-0.7-1.2-0.7-1.9
					c-0.1-0.7,0.1-1.5,0.5-2.1c0.3-0.3,0.6-0.5,0.9-0.6c0.3-0.1,0.7-0.2,1.1-0.2c0.3,0,0.7,0,1,0.2c0.3,0.1,0.6,0.3,0.8,0.6
					c0.2,0.3,0.4,0.6,0.5,0.9c0.1,0.3,0.2,0.7,0.1,1.1c0,0.7-0.2,1.5-0.7,2c-0.5,0.5-1.2,0.8-2,0.7 M138.7,43.2
					c-0.3,0-0.5,0-0.7,0.1c-0.2,0.1-0.4,0.3-0.6,0.5c-0.3,0.4-0.5,1-0.5,1.5c0,0.3,0,0.5,0.1,0.8c0.1,0.3,0.2,0.5,0.4,0.7
					c0.2,0.2,0.4,0.3,0.6,0.4c0.2,0.1,0.5,0.1,0.7,0.1c0.2,0,0.5,0,0.7-0.1c0.2-0.1,0.4-0.2,0.6-0.4c0.3-0.4,0.4-1,0.4-1.5
					c0.1-0.5-0.1-1.1-0.4-1.5c-0.2-0.2-0.3-0.3-0.6-0.4S138.9,43.2,138.7,43.2z"/>
				<path id="Vector_28" class="st1" d="M147.3,47.9h-0.8v-3c0-1.1-0.5-1.7-1.3-1.7c-0.2,0-0.4,0.1-0.6,0.1
					c-0.2,0.1-0.3,0.2-0.5,0.4c-0.2,0.2-0.3,0.3-0.4,0.6c-0.1,0.2-0.1,0.4-0.1,0.6v3h-0.8v-5.2h0.8v0.8c0.2-0.3,0.4-0.6,0.7-0.7
					c0.3-0.2,0.7-0.3,1-0.2c0.3,0,0.5,0,0.7,0.1c0.2,0.1,0.4,0.2,0.6,0.4c0.3,0.5,0.5,1.1,0.5,1.6L147.3,47.9z"/>
				<path id="Vector_29" class="st1" d="M148.9,49.6h-0.8c1-1.3,1.6-2.9,1.6-4.6c0-1.7-0.5-3.3-1.6-4.6h0.8c1,1.3,1.6,2.9,1.6,4.6
					C150.4,46.7,149.9,48.3,148.9,49.6z"/>
			</g>
		</g>
	</g>
</g>
</svg>
