<svg width="150" height="61" viewBox="0 0 150 61" fill="none" xmlns="http://www.w3.org/2000/svg">
<g id="ISO14001 1" clip-path="url(#clip0_697_9428)">
<g id="Layer 2">
<g id="Capa 1">
<path id="Vector" d="M14.0696 60.9997H8.39637H7.94251C6.04309 60.7033 4.28711 59.8135 2.92767 58.4583C1.56822 57.1032 0.675514 55.3529 0.378215 53.4595L0 52.7809V8.29386V7.53984C0.415806 5.35174 1.60759 3.38584 3.35757 2.00141C5.10754 0.616968 7.29884 -0.0935606 9.53101 -0.000332866H35.4766C36.2565 -0.0728057 37.0415 -0.0728057 37.8215 -0.000332862C39.2557 0.187931 40.6232 0.717958 41.8083 1.54486C42.9933 2.37176 43.961 3.47117 44.6294 4.74998L16.7927 43.2049C12.2996 39.9415 7.3229 37.3975 2.04236 35.6647V36.3433C6.07222 43.4159 9.68402 50.7172 12.8593 58.2098C13.2375 59.19 13.6914 60.0948 14.0696 60.9997Z" fill="#1C284C"/>
<path id="Vector_2" d="M18.5322 60.9998L23.2977 50.519C29.5005 37.2483 36.7622 24.5054 43.9483 11.8379C44.5534 10.8577 45.0829 9.95288 45.7637 8.97266V9.72667C45.7637 23.6006 45.7637 37.4745 45.7637 51.273C45.8462 53.5618 45.083 55.8012 43.619 57.5664C42.155 59.3315 40.0919 60.4996 37.8212 60.849L18.5322 60.9998Z" fill="#1C284C"/>
<path id="Vector_3" d="M67.7761 7.53906H64.5234V21.413H67.7761V7.53906Z" fill="#1C284C"/>
<path id="Vector_4" d="M80.1819 10.5551L77.4588 11.5354C77.3052 11.0254 76.9815 10.583 76.5414 10.2813C76.1012 9.97968 75.5709 9.83687 75.0382 9.87653C73.7523 9.87653 73.1471 10.2535 73.1471 11.083C73.0294 11.3731 73.0294 11.6976 73.1471 11.9878C73.6657 12.2768 74.2276 12.4805 74.8113 12.591C75.8787 12.7225 76.9225 13.0016 77.9127 13.4204C78.5975 13.7231 79.1767 14.2218 79.5768 14.853C80.0351 15.4893 80.274 16.2566 80.2576 17.0397C80.2631 17.6509 80.1378 18.2563 79.8899 18.8154C79.6421 19.3745 79.2774 19.8745 78.8204 20.282C77.6093 21.2658 76.067 21.7513 74.5087 21.6392C73.2258 21.695 71.9572 21.3525 70.8779 20.659C70.3741 20.3372 69.9404 19.9177 69.6025 19.4255C69.2647 18.9333 69.0295 18.3783 68.9111 17.7937L71.9369 17.1151C72.0924 17.5381 72.3411 17.9211 72.6646 18.2358C72.9881 18.5504 73.3783 18.7888 73.8064 18.9335C74.2344 19.0782 74.6896 19.1254 75.1384 19.0717C75.5872 19.0179 76.0182 18.8647 76.3998 18.6231C76.5714 18.5071 76.7102 18.3491 76.8029 18.1643C76.8956 17.9794 76.9391 17.7739 76.9293 17.5675C76.9357 17.3909 76.8975 17.2155 76.8182 17.0574C76.7389 16.8993 76.621 16.7636 76.4754 16.6627C75.8572 16.3405 75.1944 16.1118 74.5087 15.9841C73.1437 15.7955 71.8455 15.2779 70.7266 14.476C70.3302 14.1331 70.0207 13.7016 69.8235 13.2168C69.6263 12.7319 69.547 12.2074 69.5919 11.6862C69.5838 11.1038 69.7012 10.5264 69.9361 9.99313C70.171 9.45982 70.5179 8.98295 70.9535 8.5947C71.5139 8.15506 72.1588 7.83456 72.8484 7.653C73.5379 7.47144 74.2574 7.43267 74.9626 7.53908C76.0708 7.42125 77.1867 7.67644 78.1325 8.26401C79.0784 8.85158 79.7998 9.73774 80.1819 10.7814" fill="#1C284C"/>
<path id="Vector_5" d="M87.9724 21.6402C87.1221 21.684 86.2744 21.5135 85.5076 21.1445C84.7408 20.7755 84.0796 20.2199 83.5851 19.5289C82.5471 18.0235 82.0172 16.2275 82.0723 14.4016C82.0281 12.6006 82.5577 10.8319 83.5851 9.3497C84.1363 8.72245 84.8267 8.2322 85.6016 7.91802C86.3764 7.60384 87.2142 7.47441 88.0481 7.54005C88.9063 7.49734 89.7611 7.67617 90.5297 8.05925C91.2983 8.44232 91.9547 9.01667 92.4353 9.7267C93.4717 11.1762 94.0031 12.9242 93.9482 14.7032C93.9929 16.5278 93.4639 18.3206 92.4353 19.8305C91.9115 20.5037 91.232 21.0405 90.4548 21.395C89.6776 21.7496 88.8259 21.9113 87.9724 21.8664M87.9724 10.1791C86.2326 10.1791 85.4005 11.6872 85.4005 14.7032C85.4005 17.7193 86.2326 19.2273 87.9724 19.2273C89.7122 19.2273 90.4686 17.7193 90.4686 14.7032C90.4686 11.6872 89.6366 10.1791 87.9724 10.1791Z" fill="#1C284C"/>
<path id="Vector_6" d="M125.794 21.4881C125.085 21.5135 124.382 21.3612 123.747 21.045C123.113 20.7288 122.568 20.2589 122.163 19.6784C121.332 18.2929 120.937 16.6907 121.029 15.0789C120.984 13.4044 121.431 11.7533 122.315 10.3286C122.75 9.73642 123.32 9.25484 123.977 8.9229C124.634 8.59095 125.36 8.41797 126.097 8.41797C126.833 8.41797 127.56 8.59095 128.217 8.9229C128.874 9.25484 129.443 9.73642 129.879 10.3286C130.661 11.7836 131.003 13.434 130.862 15.0789C130.907 16.7534 130.46 18.4045 129.576 19.8292C129.161 20.4408 128.595 20.9355 127.933 21.2657C127.271 21.5958 126.534 21.7503 125.794 21.7143M125.794 10.7056C125.47 10.6854 125.148 10.7698 124.875 10.9463C124.603 11.1228 124.394 11.3821 124.281 11.6858C123.977 12.7899 123.849 13.9351 123.903 15.0789C123.857 16.2473 123.984 17.4162 124.281 18.5474C124.394 18.8511 124.603 19.1104 124.875 19.2869C125.148 19.4635 125.47 19.5479 125.794 19.5276C126.108 19.5435 126.419 19.4563 126.679 19.2792C126.938 19.1021 127.132 18.845 127.231 18.5474C127.652 17.4415 127.832 16.2594 127.761 15.0789C127.835 13.8549 127.681 12.6279 127.307 11.4596C127.186 11.1827 126.984 10.9483 126.728 10.787C126.472 10.6257 126.173 10.5448 125.87 10.5548" fill="#1C284C"/>
<path id="Vector_7" d="M137.141 21.4876C136.422 21.5122 135.707 21.3599 135.061 21.0444C134.415 20.7288 133.856 20.2595 133.435 19.6779C132.579 18.2966 132.133 16.7019 132.149 15.0784C132.104 13.4039 132.551 11.7528 133.435 10.3281C133.832 9.71724 134.384 9.22142 135.034 8.89052C135.685 8.55962 136.412 8.4053 137.141 8.44309C137.881 8.40703 138.617 8.56153 139.28 8.8917C139.942 9.22187 140.508 9.71658 140.923 10.3281C141.811 11.7511 142.258 13.4034 142.209 15.0784C142.254 16.753 141.807 18.404 140.923 19.8288C140.503 20.4351 139.936 20.9259 139.275 21.2554C138.614 21.585 137.88 21.7427 137.141 21.7138M137.141 10.7051C136.827 10.6892 136.516 10.7765 136.257 10.9536C135.997 11.1306 135.803 11.3877 135.704 11.6854C135.326 12.7746 135.171 13.9285 135.25 15.0784C135.179 16.2528 135.333 17.4299 135.704 18.5469C135.803 18.8446 135.997 19.1017 136.257 19.2787C136.516 19.4558 136.827 19.5431 137.141 19.5271C137.465 19.5474 137.788 19.463 138.06 19.2865C138.333 19.1099 138.541 18.8506 138.654 18.5469C139.049 17.4355 139.203 16.2536 139.108 15.0784C139.181 13.8544 139.028 12.6274 138.654 11.4592C138.52 11.1762 138.304 10.9392 138.035 10.7781C137.766 10.6171 137.455 10.5392 137.141 10.5543" fill="#1C284C"/>
<path id="Vector_8" d="M146.596 21.4879V12.0627C145.521 12.7279 144.41 13.3321 143.268 13.8723V11.3841C144.984 10.8019 146.434 9.62453 147.352 8.06641H149.395V21.4879" fill="#1C284C"/>
<path id="Vector_9" d="M105.069 21.4879V12.0627C104.003 12.7435 102.891 13.3483 101.74 13.8723V11.3841C103.485 10.8177 104.963 9.63864 105.901 8.06641H107.943V21.4879" fill="#1C284C"/>
<path id="Vector_10" d="M117.7 8.29297V15.8331H119.516V18.1706H117.7V21.1113H114.675V18.5476H108.926V16.2102L114.221 8.66998L117.7 8.29297ZM111.271 15.8331H114.826V10.7058L111.271 15.8331Z" fill="#1C284C"/>
<path id="Vector_11" d="M149.394 31.0664H64.5986V32.1974H149.394V31.0664Z" fill="#1C284C"/>
<path id="Vector_12" d="M67.9271 47.4257H64.0693V39.9609H64.9771V46.6717H67.9271V47.4257Z" fill="#1C284C"/>
<path id="Vector_13" d="M72.9955 47.4257H69.1377V39.9609H69.9698V46.6717H72.9955V47.4257Z" fill="#1C284C"/>
<path id="Vector_14" d="M76.7777 44.1836H73.9033V44.8622H76.7777V44.1836Z" fill="#1C284C"/>
<path id="Vector_15" d="M83.2071 47.124C82.5772 47.449 81.8734 47.6049 81.1647 47.5764C80.6907 47.6054 80.2159 47.5329 79.7723 47.3639C79.3287 47.1948 78.9266 46.933 78.5929 46.5962C78.2582 46.2303 77.999 45.8022 77.8303 45.3365C77.6616 44.8707 77.5866 44.3764 77.6095 43.8818C77.5723 42.8026 77.9513 41.7503 78.6685 40.9411C79.2889 40.4236 80.0369 40.0808 80.8348 39.9483C81.6328 39.8157 82.4518 39.8981 83.2071 40.1871V41.0919C82.652 40.7856 82.0261 40.6296 81.3917 40.6395C81.0049 40.6274 80.6203 40.7025 80.2667 40.8592C79.9131 41.0158 79.5995 41.25 79.3493 41.5443C79.0658 41.8466 78.846 42.2026 78.7031 42.5912C78.5602 42.9798 78.497 43.393 78.5172 43.8063C78.4981 44.6021 78.7665 45.3782 79.2737 45.993C79.5257 46.2598 79.8308 46.4713 80.1694 46.6141C80.508 46.7569 80.8727 46.8279 81.2404 46.8224C81.9306 46.8182 82.608 46.6364 83.2071 46.2946V47.124Z" fill="#1C284C"/>
<path id="Vector_16" d="M90.0907 49.1627H89.3342C88.2368 47.912 87.6438 46.3 87.6701 44.6386C87.6394 42.9537 88.2317 41.3165 89.3342 40.0391H90.0907C89.013 41.3164 88.4222 42.9319 88.4222 44.6009C88.4222 46.2699 89.013 47.8853 90.0907 49.1627Z" fill="#1C284C"/>
<path id="Vector_17" d="M96.2932 47.1275C95.6333 47.4437 94.9073 47.5988 94.1752 47.5799C93.7126 47.608 93.2495 47.5347 92.8182 47.3654C92.387 47.1961 91.9982 46.9347 91.679 46.5997C91.0304 45.849 90.7043 44.8738 90.7713 43.8853C90.7341 42.8061 91.1131 41.7538 91.8303 40.9446C92.5684 40.2573 93.5434 39.8793 94.5535 39.889C95.1512 39.7558 95.7711 39.7558 96.3689 39.889V40.7938C95.8138 40.4875 95.1879 40.3315 94.5535 40.3414C94.1667 40.3293 93.7821 40.4044 93.4285 40.5611C93.0749 40.7178 92.7613 40.9519 92.5111 41.2462C92.2276 41.5485 92.0078 41.9045 91.8649 42.2931C91.722 42.6817 91.6588 43.0949 91.679 43.5083C91.6503 43.9048 91.7025 44.303 91.8325 44.6788C91.9625 45.0547 92.1676 45.4003 92.4355 45.6949C92.6875 45.9617 92.9926 46.1732 93.3312 46.316C93.6698 46.4588 94.0345 46.5298 94.4022 46.5243C95.0924 46.5201 95.7698 46.3383 96.3689 45.9965L96.2932 47.1275Z" fill="#1C284C"/>
<path id="Vector_18" d="M101.967 45.241H98.336C98.3296 45.4909 98.3731 45.7396 98.464 45.9727C98.5549 46.2057 98.6914 46.4183 98.8655 46.5982C99.0204 46.7639 99.2077 46.8962 99.4159 46.987C99.624 47.0778 99.8486 47.1251 100.076 47.1261C100.684 47.1213 101.271 46.9083 101.74 46.5228V47.2769C101.217 47.6633 100.573 47.8506 99.9245 47.8047C99.5845 47.8228 99.2449 47.7644 98.9306 47.6339C98.6163 47.5034 98.3356 47.304 98.1091 47.0507C97.8761 46.7693 97.7025 46.4439 97.5985 46.0942C97.4946 45.7444 97.4624 45.3773 97.5039 45.0148C97.4704 44.6115 97.5277 44.2059 97.6716 43.8276C97.8156 43.4492 98.0426 43.1078 98.336 42.8282C98.5471 42.571 98.8124 42.3634 99.1131 42.2201C99.4138 42.0767 99.7425 42.0011 100.076 41.9987C100.386 41.9832 100.696 42.036 100.984 42.1533C101.271 42.2706 101.529 42.4495 101.74 42.6774C102.139 43.2213 102.327 43.8909 102.269 44.5624L101.967 45.241ZM101.135 44.487C101.251 44.1189 101.251 43.7241 101.135 43.356C100.981 43.2824 100.813 43.2443 100.643 43.2443C100.473 43.2443 100.305 43.2824 100.151 43.356C99.8063 43.2511 99.4376 43.2511 99.0924 43.356C98.8278 43.6854 98.6462 44.0732 98.5629 44.487H101.135Z" fill="#1C284C"/>
<path id="Vector_19" d="M105.901 42.9794H105.295C105.101 42.9822 104.91 43.0316 104.739 43.1235C104.568 43.2153 104.421 43.347 104.312 43.5072C104.182 43.9503 104.182 44.4213 104.312 44.8644V47.5789H103.404V42.3008H104.312V43.3564C104.425 43.0446 104.606 42.7614 104.842 42.527C105.111 42.4351 105.404 42.4351 105.674 42.527H105.901V42.9794Z" fill="#1C284C"/>
<path id="Vector_20" d="M109.758 47.4271H109.001C108.018 47.4271 107.564 46.8993 107.564 45.8437V42.8276H106.656V42.149H107.564V40.8672H108.396V42.4506H109.758V43.1292H108.396V46.1453C108.346 46.2648 108.32 46.3929 108.32 46.5223C108.32 46.6517 108.346 46.7799 108.396 46.8993C108.491 46.9408 108.594 46.9623 108.699 46.9623C108.803 46.9623 108.906 46.9408 109.001 46.8993C109.084 46.9393 109.174 46.9601 109.266 46.9601C109.358 46.9601 109.448 46.9393 109.531 46.8993L109.758 47.4271Z" fill="#1C284C"/>
<path id="Vector_21" d="M111.346 40.7923H110.968C110.926 40.6444 110.926 40.4877 110.968 40.3398H111.346C111.38 40.4105 111.398 40.4878 111.398 40.5661C111.398 40.6443 111.38 40.7216 111.346 40.7923ZM111.8 47.4276H110.893V42.1495H111.8V47.4276Z" fill="#1C284C"/>
<path id="Vector_22" d="M116.187 40.3386H115.582C114.977 40.3386 114.674 40.7156 114.674 41.4697V42.2991H115.96V42.9777H114.674V47.5772H113.842V42.8269H112.935V42.1483H113.842V41.2434C113.821 40.7736 113.983 40.3139 114.296 39.9616C114.448 39.7922 114.635 39.6574 114.844 39.5664C115.052 39.4753 115.279 39.4301 115.506 39.4338H116.187V40.3386Z" fill="#1C284C"/>
<path id="Vector_23" d="M117.322 40.7923H116.868C116.826 40.6444 116.826 40.4877 116.868 40.3398H117.322H117.701C117.743 40.4877 117.743 40.6444 117.701 40.7923H117.322ZM117.701 47.4276H116.868V42.1495H117.701V47.4276Z" fill="#1C284C"/>
<path id="Vector_24" d="M123.071 47.2024C122.6 47.3237 122.105 47.3237 121.634 47.2024C121.294 47.2205 120.954 47.1621 120.64 47.0316C120.326 46.9011 120.045 46.7018 119.819 46.4484C119.563 46.2078 119.362 45.9146 119.232 45.589C119.101 45.2635 119.043 44.9135 119.062 44.5633C119.04 43.79 119.31 43.0367 119.819 42.4521C120.085 42.1832 120.403 41.971 120.754 41.8284C121.105 41.6858 121.482 41.6158 121.861 41.6227C122.255 41.5008 122.677 41.5008 123.071 41.6227V42.4521C122.675 42.3429 122.257 42.3429 121.861 42.4521C121.608 42.425 121.353 42.4589 121.116 42.5507C120.879 42.6426 120.667 42.7897 120.499 42.9799C120.127 43.4211 119.937 43.9875 119.97 44.5633C119.932 45.0811 120.095 45.5936 120.424 45.996C120.598 46.1832 120.808 46.3332 121.042 46.4369C121.276 46.5406 121.529 46.5958 121.785 46.5992C122.024 46.6041 122.262 46.5597 122.483 46.4689C122.705 46.3781 122.905 46.2428 123.071 46.0714V47.2024Z" fill="#1C284C"/>
<path id="Vector_25" d="M128.593 47.4268H127.761V46.5973C127.617 46.8944 127.391 47.1444 127.11 47.318C126.828 47.4916 126.503 47.5817 126.172 47.5776C125.753 47.7056 125.305 47.7056 124.886 47.5776C124.736 47.4309 124.618 47.2545 124.54 47.0598C124.462 46.865 124.425 46.6562 124.433 46.4465C124.433 45.4663 125.038 44.8631 126.172 44.7123H127.837C127.837 43.8075 127.458 43.3551 126.702 43.3551C126.073 43.371 125.465 43.5819 124.962 43.9583V42.5257C125.495 42.1609 126.131 41.9759 126.778 41.9978C128.063 41.9978 128.669 42.6765 128.669 44.0337L128.593 47.4268ZM127.761 44.7877H126.475C126.177 44.7111 125.865 44.7111 125.567 44.7877C125.507 44.9044 125.476 45.0336 125.476 45.1647C125.476 45.2958 125.507 45.425 125.567 45.5417C125.491 45.7357 125.491 45.951 125.567 46.1449C125.687 46.1947 125.816 46.2203 125.945 46.2203C126.075 46.2203 126.204 46.1947 126.324 46.1449C126.523 46.1513 126.721 46.1141 126.904 46.0359C127.086 45.9577 127.25 45.8405 127.383 45.6925C127.405 45.5426 127.405 45.3901 127.383 45.2401L127.761 44.7877Z" fill="#1C284C"/>
<path id="Vector_26" d="M132.3 47.4271H131.468C130.56 47.4271 130.106 46.8993 130.106 45.8437V42.8276H129.198V42.149H130.106V40.8672H130.938V42.4506H132.3V43.1292H130.938V46.1453C130.888 46.2648 130.862 46.3929 130.862 46.5223C130.862 46.6517 130.888 46.7799 130.938 46.8993C130.938 46.8993 130.938 46.8993 131.543 46.8993C131.714 46.9629 131.902 46.9629 132.073 46.8993L132.3 47.4271Z" fill="#1C284C"/>
<path id="Vector_27" d="M133.888 40.7923H133.51C133.51 40.7923 133.51 40.7923 133.51 40.3398H133.888H134.267C134.267 40.3398 134.267 40.3398 134.267 40.7923H133.888ZM134.267 47.4276H133.435V42.1495H134.267V47.4276Z" fill="#1C284C"/>
<path id="Vector_28" d="M138.275 47.5763C137.923 47.6062 137.568 47.5535 137.24 47.4226C136.912 47.2917 136.619 47.0861 136.384 46.8223C135.991 46.3821 135.752 45.8263 135.703 45.2388C135.599 44.8156 135.585 44.3751 135.663 43.9463C135.742 43.5175 135.91 43.11 136.157 42.7506C136.427 42.4916 136.748 42.2909 137.099 42.1612C137.451 42.0314 137.825 41.9754 138.2 41.9965C138.539 41.9784 138.879 42.0368 139.193 42.1673C139.508 42.2979 139.788 42.4972 140.015 42.7506C140.258 43.0283 140.443 43.3512 140.56 43.7006C140.676 44.0501 140.723 44.4191 140.696 44.7864C140.727 45.5253 140.485 46.2498 140.015 46.8223C139.759 47.0792 139.452 47.2793 139.113 47.4093C138.774 47.5392 138.411 47.5961 138.048 47.5763M138.048 42.7506C137.796 42.7349 137.544 42.774 137.309 42.8651C137.074 42.9563 136.862 43.0973 136.687 43.2784C136.359 43.7395 136.199 44.2979 136.233 44.8618C136.211 45.1246 136.247 45.389 136.339 45.6365C136.43 45.884 136.575 46.1085 136.762 46.2944C136.918 46.4839 137.115 46.6365 137.337 46.7413C137.559 46.846 137.802 46.9004 138.048 46.9004C138.294 46.9004 138.537 46.846 138.759 46.7413C138.982 46.6365 139.178 46.4839 139.334 46.2944C139.675 45.8689 139.837 45.3286 139.788 44.7864C139.823 44.2458 139.662 43.7107 139.334 43.2784C139.174 43.0989 138.975 42.9582 138.752 42.8667C138.529 42.7753 138.289 42.7356 138.048 42.7506Z" fill="#1C284C"/>
<path id="Vector_29" d="M146.747 47.4268H145.915V44.4107C145.915 43.2797 145.461 42.7519 144.629 42.7519C144.43 42.7455 144.232 42.7827 144.049 42.8609C143.866 42.9391 143.703 43.0563 143.57 43.2043C143.269 43.5334 143.107 43.9654 143.116 44.4107V47.4268H142.284V42.1486H143.116V43.0535C143.275 42.7304 143.523 42.4593 143.831 42.2722C144.14 42.0852 144.495 41.99 144.856 41.9978C145.114 41.986 145.372 42.0344 145.608 42.1391C145.845 42.2438 146.053 42.402 146.218 42.6011C146.545 43.0622 146.705 43.6206 146.671 44.1845L146.747 47.4268Z" fill="#1C284C"/>
<path id="Vector_30" d="M148.336 49.1627H147.579C148.657 47.8853 149.248 46.2699 149.248 44.6009C149.248 42.9319 148.657 41.3164 147.579 40.0391H148.336C149.471 41.297 150.068 42.9477 150 44.6386C150.065 46.3063 149.467 47.9321 148.336 49.1627Z" fill="#1C284C"/>
</g>
</g>
</g>
<defs>
<clipPath id="clip0_697_9428">
<rect width="150" height="61" fill="white"/>
</clipPath>
</defs>
</svg>
